M48
;DRILL file {KiCad 5.0.1-33cea8e~67~ubuntu18.04.1} date Mi 09 Jan 2019 21:53:50 CET
;FORMAT={-:-/ absolute / metric / decimal}
FMAT,2
METRIC,TZ
T1C0.400
T2C0.700
T3C1.000
%
G90
G05
M71
T1
X51.Y-63.5
X51.Y-70.
X51.Y-80.
X51.Y-90.
X51.Y-94.
X51.Y-110.5
X51.Y-117.
X51.Y-127.
X51.Y-137.
X51.Y-141.
X53.75Y-74.7
X53.75Y-121.7
X55.5Y-69.
X55.5Y-116.
X57.15Y-85.
X57.15Y-132.
X57.3Y-75.5
X57.3Y-122.5
X57.725Y-69.433
X57.725Y-116.433
X58.5Y-68.5
X58.5Y-115.5
X58.5Y-72.5
X58.5Y-76.8
X58.5Y-119.5
X58.5Y-123.8
X58.625Y-63.5
X58.625Y-110.5
X60.4Y-73.8
X60.4Y-120.8
X61.Y-86.5
X61.Y-133.5
X61.5Y-70.119
X61.5Y-117.119
X61.75Y-81.1
X61.75Y-128.1
X62.Y-94.
X62.Y-141.
X62.5Y-78.
X62.5Y-86.75
X62.5Y-125.
X62.5Y-133.75
X63.297Y-81.775
X63.297Y-128.775
X63.5Y-63.5
X63.5Y-110.5
X63.9Y-67.
X63.9Y-114.
X64.062Y-79.422
X64.062Y-126.422
X67.2Y-73.
X67.2Y-120.
X67.25Y-75.
X67.25Y-122.
X68.25Y-77.75
X68.25Y-124.75
X68.8Y-83.
X68.8Y-130.
X69.5Y-81.775
X69.5Y-128.775
X69.75Y-66.25
X69.75Y-113.25
X70.Y-83.
X70.Y-130.
X71.Y-72.25
X71.Y-119.25
X72.Y-74.474
X72.Y-121.474
X72.Y-67.25
X72.Y-75.5
X72.Y-114.25
X72.Y-122.5
X72.25Y-73.
X72.25Y-120.
X72.75Y-68.75
X72.75Y-115.75
X74.6Y-63.4
X74.6Y-110.4
X74.7Y-80.
X74.7Y-127.
X75.5Y-83.825
X75.5Y-130.825
X76.5Y-78.54
X76.5Y-125.54
X77.Y-61.
X77.Y-62.5
X77.Y-108.
X77.Y-109.5
X77.5Y-52.
X77.5Y-86.75
X77.5Y-99.
X77.5Y-133.75
X77.918Y-83.825
X77.918Y-130.825
X78.Y-61.
X78.Y-94.
X78.Y-108.
X78.Y-141.
X78.875Y-70.1
X78.875Y-117.1
X79.Y-61.
X79.Y-108.
X79.347Y-84.878
X79.347Y-131.878
X80.Y-73.5
X80.Y-82.5
X80.Y-120.5
X80.Y-129.5
X80.01Y-78.8
X80.01Y-125.8
X80.025Y-71.
X80.025Y-118.
X80.15Y-75.275
X80.15Y-122.275
X80.26Y-81.26
X80.26Y-128.26
X81.Y-65.5
X81.Y-112.5
X82.5Y-85.1
X82.5Y-132.1
X85.Y-70.1
X85.Y-84.
X85.Y-117.1
X85.Y-131.
X86.5Y-53.
X86.5Y-100.
X87.8Y-55.4
X87.8Y-102.4
X89.Y-70.
X89.Y-80.
X89.Y-90.
X89.Y-94.
X89.Y-117.
X89.Y-127.
X89.Y-137.
X89.Y-141.
X93.Y-63.5
X93.Y-70.
X93.Y-80.
X93.Y-90.
X93.Y-94.
X93.Y-110.5
X93.Y-117.
X93.Y-127.
X93.Y-137.
X93.Y-141.
X95.75Y-74.7
X95.75Y-121.7
X97.5Y-69.
X97.5Y-116.
X99.15Y-85.
X99.15Y-132.
X99.3Y-75.5
X99.3Y-122.5
X99.725Y-69.433
X99.725Y-116.433
X100.5Y-68.5
X100.5Y-115.5
X100.5Y-72.5
X100.5Y-76.8
X100.5Y-119.5
X100.5Y-123.8
X100.625Y-63.5
X100.625Y-110.5
X102.4Y-73.8
X102.4Y-120.8
X103.Y-86.5
X103.Y-133.5
X103.5Y-70.119
X103.5Y-117.119
X103.75Y-81.1
X103.75Y-128.1
X104.Y-94.
X104.Y-141.
X104.5Y-78.
X104.5Y-86.75
X104.5Y-125.
X104.5Y-133.75
X105.297Y-81.775
X105.297Y-128.775
X105.5Y-63.5
X105.5Y-110.5
X105.9Y-67.
X105.9Y-114.
X106.062Y-79.422
X106.062Y-126.422
X109.2Y-73.
X109.2Y-120.
X109.25Y-75.
X109.25Y-122.
X110.25Y-77.75
X110.25Y-124.75
X110.8Y-83.
X110.8Y-130.
X111.5Y-81.775
X111.5Y-128.775
X111.75Y-66.25
X111.75Y-113.25
X112.Y-83.
X112.Y-130.
X113.Y-72.25
X113.Y-119.25
X114.Y-74.474
X114.Y-121.474
X114.Y-67.25
X114.Y-75.5
X114.Y-114.25
X114.Y-122.5
X114.25Y-73.
X114.25Y-120.
X114.75Y-68.75
X114.75Y-115.75
X116.6Y-63.4
X116.6Y-110.4
X116.7Y-80.
X116.7Y-127.
X117.5Y-83.825
X117.5Y-130.825
X118.5Y-78.54
X118.5Y-125.54
X119.Y-61.
X119.Y-62.5
X119.Y-108.
X119.Y-109.5
X119.5Y-52.
X119.5Y-86.75
X119.5Y-99.
X119.5Y-133.75
X119.918Y-83.825
X119.918Y-130.825
X120.Y-61.
X120.Y-94.
X120.Y-108.
X120.Y-141.
X120.875Y-70.1
X120.875Y-117.1
X121.Y-61.
X121.Y-108.
X121.347Y-84.878
X121.347Y-131.878
X122.Y-73.5
X122.Y-82.5
X122.Y-120.5
X122.Y-129.5
X122.01Y-78.8
X122.01Y-125.8
X122.025Y-71.
X122.025Y-118.
X122.15Y-75.275
X122.15Y-122.275
X122.26Y-81.26
X122.26Y-128.26
X123.Y-65.5
X123.Y-112.5
X124.5Y-85.1
X124.5Y-132.1
X127.Y-70.1
X127.Y-84.
X127.Y-117.1
X127.Y-131.
X128.5Y-53.
X128.5Y-100.
X129.8Y-55.4
X129.8Y-102.4
X131.Y-70.
X131.Y-80.
X131.Y-90.
X131.Y-94.
X131.Y-117.
X131.Y-127.
X131.Y-137.
X131.Y-141.
X135.Y-63.5
X135.Y-70.
X135.Y-80.
X135.Y-90.
X135.Y-94.
X135.Y-110.5
X135.Y-117.
X135.Y-127.
X135.Y-137.
X135.Y-141.
X137.75Y-74.7
X137.75Y-121.7
X139.5Y-69.
X139.5Y-116.
X141.15Y-85.
X141.15Y-132.
X141.3Y-75.5
X141.3Y-122.5
X141.725Y-69.433
X141.725Y-116.433
X142.5Y-68.5
X142.5Y-115.5
X142.5Y-72.5
X142.5Y-76.8
X142.5Y-119.5
X142.5Y-123.8
X142.625Y-63.5
X142.625Y-110.5
X144.4Y-73.8
X144.4Y-120.8
X145.Y-86.5
X145.Y-133.5
X145.5Y-70.119
X145.5Y-117.119
X145.75Y-81.1
X145.75Y-128.1
X146.Y-94.
X146.Y-141.
X146.5Y-78.
X146.5Y-86.75
X146.5Y-125.
X146.5Y-133.75
X147.297Y-81.775
X147.297Y-128.775
X147.5Y-63.5
X147.5Y-110.5
X147.9Y-67.
X147.9Y-114.
X148.062Y-79.422
X148.062Y-126.422
X151.2Y-73.
X151.2Y-120.
X151.25Y-75.
X151.25Y-122.
X152.25Y-77.75
X152.25Y-124.75
X152.8Y-83.
X152.8Y-130.
X153.5Y-81.775
X153.5Y-128.775
X153.75Y-66.25
X153.75Y-113.25
X154.Y-83.
X154.Y-130.
X155.Y-72.25
X155.Y-119.25
X156.Y-74.474
X156.Y-121.474
X156.Y-67.25
X156.Y-75.5
X156.Y-114.25
X156.Y-122.5
X156.25Y-73.
X156.25Y-120.
X156.75Y-68.75
X156.75Y-115.75
X158.6Y-63.4
X158.6Y-110.4
X158.7Y-80.
X158.7Y-127.
X159.5Y-83.825
X159.5Y-130.825
X160.5Y-78.54
X160.5Y-125.54
X161.Y-61.
X161.Y-62.5
X161.Y-108.
X161.Y-109.5
X161.5Y-52.
X161.5Y-86.75
X161.5Y-99.
X161.5Y-133.75
X161.918Y-83.825
X161.918Y-130.825
X162.Y-61.
X162.Y-94.
X162.Y-108.
X162.Y-141.
X162.875Y-70.1
X162.875Y-117.1
X163.Y-61.
X163.Y-108.
X163.347Y-84.878
X163.347Y-131.878
X164.Y-73.5
X164.Y-82.5
X164.Y-120.5
X164.Y-129.5
X164.01Y-78.8
X164.01Y-125.8
X164.025Y-71.
X164.025Y-118.
X164.15Y-75.275
X164.15Y-122.275
X164.26Y-81.26
X164.26Y-128.26
X165.Y-65.5
X165.Y-112.5
X166.5Y-85.1
X166.5Y-132.1
X169.Y-70.1
X169.Y-84.
X169.Y-117.1
X169.Y-131.
X170.5Y-53.
X170.5Y-100.
X171.8Y-55.4
X171.8Y-102.4
X173.Y-70.
X173.Y-80.
X173.Y-90.
X173.Y-94.
X173.Y-117.
X173.Y-127.
X173.Y-137.
X173.Y-141.
X111.6Y-90.15
X111.6Y-91.
X111.6Y-91.85
X112.4Y-90.15
X112.4Y-91.
X112.4Y-91.85
X153.6Y-137.15
X153.6Y-138.
X153.6Y-138.85
X154.4Y-137.15
X154.4Y-138.
X154.4Y-138.85
X111.6Y-137.15
X111.6Y-138.
X111.6Y-138.85
X112.4Y-137.15
X112.4Y-138.
X112.4Y-138.85
X69.6Y-90.15
X69.6Y-91.
X69.6Y-91.85
X70.4Y-90.15
X70.4Y-91.
X70.4Y-91.85
X153.6Y-90.15
X153.6Y-91.
X153.6Y-91.85
X154.4Y-90.15
X154.4Y-91.
X154.4Y-91.85
X69.6Y-137.15
X69.6Y-138.
X69.6Y-138.85
X70.4Y-137.15
X70.4Y-138.
X70.4Y-138.85
T2
X171.5Y-75.2
X129.5Y-75.2
X87.5Y-122.2
X87.5Y-78.5
X129.5Y-125.5
X171.5Y-125.5
X171.5Y-122.2
X87.5Y-125.5
X129.5Y-122.2
X171.5Y-78.5
X129.5Y-78.5
X87.5Y-75.2
T3
X139.5Y-100.75
X139.5Y-103.25
X139.5Y-105.75
X139.5Y-108.25
X144.5Y-100.75
X144.5Y-103.25
X144.5Y-105.75
X144.5Y-108.25
X139.5Y-53.75
X139.5Y-56.25
X139.5Y-58.75
X139.5Y-61.25
X144.5Y-53.75
X144.5Y-56.25
X144.5Y-58.75
X144.5Y-61.25
X55.5Y-53.75
X55.5Y-56.25
X55.5Y-58.75
X55.5Y-61.25
X60.5Y-53.75
X60.5Y-56.25
X60.5Y-58.75
X60.5Y-61.25
X97.5Y-100.75
X97.5Y-103.25
X97.5Y-105.75
X97.5Y-108.25
X102.5Y-100.75
X102.5Y-103.25
X102.5Y-105.75
X102.5Y-108.25
X97.5Y-53.75
X97.5Y-56.25
X97.5Y-58.75
X97.5Y-61.25
X102.5Y-53.75
X102.5Y-56.25
X102.5Y-58.75
X102.5Y-61.25
X55.5Y-100.75
X55.5Y-103.25
X55.5Y-105.75
X55.5Y-108.25
X60.5Y-100.75
X60.5Y-103.25
X60.5Y-105.75
X60.5Y-108.25
T0
M30
