M48
;DRILL file {KiCad 5.0.1-33cea8e~67~ubuntu18.04.1} date Mi 02 Jan 2019 14:46:37 CET
;FORMAT={-:-/ absolute / metric / decimal}
FMAT,2
METRIC,TZ
T1C0.300
T2C0.500
T3C1.000
T4C2.000
%
G90
G05
M71
T1
X86.Y-143.85
X86.5Y-143.85
X87.Y-143.85
X87.5Y-143.85
X88.Y-143.85
X170.Y-49.85
X170.5Y-49.85
X171.Y-49.85
X171.5Y-49.85
X172.Y-49.85
X86.Y-95.15
X86.Y-96.85
X86.5Y-95.15
X86.5Y-96.85
X87.Y-95.15
X87.Y-96.85
X87.5Y-95.15
X87.5Y-96.85
X88.Y-95.15
X88.Y-96.85
X94.Y-49.85
X94.5Y-49.85
X95.Y-49.85
X95.5Y-49.85
X96.Y-49.85
X216.15Y-138.
X216.15Y-138.5
X216.15Y-139.
X216.15Y-139.5
X216.15Y-140.
X136.Y-49.85
X136.5Y-49.85
X137.Y-49.85
X137.5Y-49.85
X138.Y-49.85
X212.Y-143.85
X212.5Y-143.85
X213.Y-143.85
X213.5Y-143.85
X214.Y-143.85
X128.Y-95.15
X128.Y-96.85
X128.5Y-95.15
X128.5Y-96.85
X129.Y-95.15
X129.Y-96.85
X129.5Y-95.15
X129.5Y-96.85
X130.Y-95.15
X130.Y-96.85
X174.15Y-67.5
X174.15Y-68.
X174.15Y-68.5
X174.15Y-69.
X174.15Y-69.5
X175.85Y-67.5
X175.85Y-68.
X175.85Y-68.5
X175.85Y-69.
X175.85Y-69.5
X49.85Y-99.
X49.85Y-99.5
X49.85Y-100.
X49.85Y-100.5
X49.85Y-101.
X170.Y-143.85
X170.5Y-143.85
X171.Y-143.85
X171.5Y-143.85
X172.Y-143.85
X52.Y-143.85
X52.5Y-143.85
X53.Y-143.85
X53.5Y-143.85
X54.Y-143.85
X132.15Y-67.5
X132.15Y-68.
X132.15Y-68.5
X132.15Y-69.
X132.15Y-69.5
X133.85Y-67.5
X133.85Y-68.
X133.85Y-68.5
X133.85Y-69.
X133.85Y-69.5
X90.15Y-99.
X90.15Y-99.5
X90.15Y-100.
X90.15Y-100.5
X90.15Y-101.
X91.85Y-99.
X91.85Y-99.5
X91.85Y-100.
X91.85Y-100.5
X91.85Y-101.
X132.15Y-91.
X132.15Y-91.5
X132.15Y-92.
X132.15Y-92.5
X132.15Y-93.
X133.85Y-91.
X133.85Y-91.5
X133.85Y-92.
X133.85Y-92.5
X133.85Y-93.
X49.85Y-138.
X49.85Y-138.5
X49.85Y-139.
X49.85Y-139.5
X49.85Y-140.
X174.15Y-99.
X174.15Y-99.5
X174.15Y-100.
X174.15Y-100.5
X174.15Y-101.
X175.85Y-99.
X175.85Y-99.5
X175.85Y-100.
X175.85Y-100.5
X175.85Y-101.
X49.85Y-52.
X49.85Y-52.5
X49.85Y-53.
X49.85Y-53.5
X49.85Y-54.
X216.15Y-99.
X216.15Y-99.5
X216.15Y-100.
X216.15Y-100.5
X216.15Y-101.
X90.15Y-122.5
X90.15Y-123.
X90.15Y-123.5
X90.15Y-124.
X90.15Y-124.5
X91.85Y-122.5
X91.85Y-123.
X91.85Y-123.5
X91.85Y-124.
X91.85Y-124.5
X174.15Y-91.
X174.15Y-91.5
X174.15Y-92.
X174.15Y-92.5
X174.15Y-93.
X175.85Y-91.
X175.85Y-91.5
X175.85Y-92.
X175.85Y-92.5
X175.85Y-93.
X52.Y-49.85
X52.5Y-49.85
X53.Y-49.85
X53.5Y-49.85
X54.Y-49.85
X178.Y-95.15
X178.Y-96.85
X178.5Y-95.15
X178.5Y-96.85
X179.Y-95.15
X179.Y-96.85
X179.5Y-95.15
X179.5Y-96.85
X180.Y-95.15
X180.Y-96.85
X178.Y-49.85
X178.5Y-49.85
X179.Y-49.85
X179.5Y-49.85
X180.Y-49.85
X94.Y-143.85
X94.5Y-143.85
X95.Y-143.85
X95.5Y-143.85
X96.Y-143.85
X128.Y-143.85
X128.5Y-143.85
X129.Y-143.85
X129.5Y-143.85
X130.Y-143.85
X178.Y-143.85
X178.5Y-143.85
X179.Y-143.85
X179.5Y-143.85
X180.Y-143.85
X136.Y-95.15
X136.Y-96.85
X136.5Y-95.15
X136.5Y-96.85
X137.Y-95.15
X137.Y-96.85
X137.5Y-95.15
X137.5Y-96.85
X138.Y-95.15
X138.Y-96.85
X170.Y-95.15
X170.Y-96.85
X170.5Y-95.15
X170.5Y-96.85
X171.Y-95.15
X171.Y-96.85
X171.5Y-95.15
X171.5Y-96.85
X172.Y-95.15
X172.Y-96.85
X212.Y-49.85
X212.5Y-49.85
X213.Y-49.85
X213.5Y-49.85
X214.Y-49.85
X136.Y-143.85
X136.5Y-143.85
X137.Y-143.85
X137.5Y-143.85
X138.Y-143.85
X94.Y-95.15
X94.Y-96.85
X94.5Y-95.15
X94.5Y-96.85
X95.Y-95.15
X95.Y-96.85
X95.5Y-95.15
X95.5Y-96.85
X96.Y-95.15
X96.Y-96.85
X216.15Y-52.
X216.15Y-52.5
X216.15Y-53.
X216.15Y-53.5
X216.15Y-54.
X132.15Y-122.5
X132.15Y-123.
X132.15Y-123.5
X132.15Y-124.
X132.15Y-124.5
X133.85Y-122.5
X133.85Y-123.
X133.85Y-123.5
X133.85Y-124.
X133.85Y-124.5
X128.Y-49.85
X128.5Y-49.85
X129.Y-49.85
X129.5Y-49.85
X130.Y-49.85
X52.Y-95.15
X52.Y-96.85
X52.5Y-95.15
X52.5Y-96.85
X53.Y-95.15
X53.Y-96.85
X53.5Y-95.15
X53.5Y-96.85
X54.Y-95.15
X54.Y-96.85
X90.15Y-91.
X90.15Y-91.5
X90.15Y-92.
X90.15Y-92.5
X90.15Y-93.
X91.85Y-91.
X91.85Y-91.5
X91.85Y-92.
X91.85Y-92.5
X91.85Y-93.
X86.Y-49.85
X86.5Y-49.85
X87.Y-49.85
X87.5Y-49.85
X88.Y-49.85
X216.15Y-91.
X216.15Y-91.5
X216.15Y-92.
X216.15Y-92.5
X216.15Y-93.
X49.85Y-91.
X49.85Y-91.5
X49.85Y-92.
X49.85Y-92.5
X49.85Y-93.
X132.15Y-99.
X132.15Y-99.5
X132.15Y-100.
X132.15Y-100.5
X132.15Y-101.
X133.85Y-99.
X133.85Y-99.5
X133.85Y-100.
X133.85Y-100.5
X133.85Y-101.
X174.15Y-122.5
X174.15Y-123.
X174.15Y-123.5
X174.15Y-124.
X174.15Y-124.5
X175.85Y-122.5
X175.85Y-123.
X175.85Y-123.5
X175.85Y-124.
X175.85Y-124.5
X90.15Y-67.5
X90.15Y-68.
X90.15Y-68.5
X90.15Y-69.
X90.15Y-69.5
X91.85Y-67.5
X91.85Y-68.
X91.85Y-68.5
X91.85Y-69.
X91.85Y-69.5
T2
X152.25Y-86.25
X153.25Y-86.25
X154.75Y-86.25
X155.75Y-86.25
X194.25Y-133.25
X195.25Y-133.25
X196.75Y-133.25
X197.75Y-133.25
X68.25Y-86.25
X69.25Y-86.25
X70.75Y-86.25
X71.75Y-86.25
X110.25Y-86.25
X111.25Y-86.25
X112.75Y-86.25
X113.75Y-86.25
X110.25Y-133.25
X111.25Y-133.25
X112.75Y-133.25
X113.75Y-133.25
X68.25Y-133.25
X69.25Y-133.25
X70.75Y-133.25
X71.75Y-133.25
X152.25Y-133.25
X153.25Y-133.25
X154.75Y-133.25
X155.75Y-133.25
X194.25Y-86.25
X195.25Y-86.25
X196.75Y-86.25
X197.75Y-86.25
T3
X157.5Y-93.5
X157.5Y-140.5
X115.5Y-140.5
X192.5Y-140.5
X108.5Y-140.5
X73.5Y-93.5
X66.5Y-93.5
X150.5Y-93.5
X66.5Y-140.5
X199.5Y-140.5
X150.5Y-140.5
X115.5Y-93.5
X192.5Y-93.5
X108.5Y-93.5
X73.5Y-140.5
X199.5Y-93.5
T4
X123.Y-134.
X112.Y-111.
X207.Y-87.
X196.Y-111.
X165.Y-87.
X154.Y-64.
X143.Y-87.
X154.Y-111.
X70.Y-64.
X101.Y-134.
X81.Y-134.
X207.Y-134.
X165.Y-134.
X185.Y-134.
X101.Y-87.
X143.Y-134.
X123.Y-87.
X81.Y-87.
X112.Y-64.
X59.Y-87.
X59.Y-134.
X196.Y-64.
X70.Y-111.
X185.Y-87.
T0
M30
