%TF.GenerationSoftware,KiCad,Pcbnew,5.0.1-33cea8e~67~ubuntu18.04.1*%
%TF.CreationDate,2019-01-02T13:46:17+01:00*%
%TF.ProjectId,hvac-sensor-module_pcb-panel,687661632D73656E736F722D6D6F6475,1.0*%
%TF.SameCoordinates,Original*%
%TF.FileFunction,Profile,NP*%
%FSLAX46Y46*%
G04 Gerber Fmt 4.6, Leading zero omitted, Abs format (unit mm)*
G04 Created by KiCad (PCBNEW 5.0.1-33cea8e~67~ubuntu18.04.1) date Mi 02 Jan 2019 13:46:17 CET*
%MOMM*%
%LPD*%
G01*
G04 APERTURE LIST*
%ADD10C,0.150000*%
G04 APERTURE END LIST*
D10*
X92000000Y-121500000D02*
G75*
G02X90000000Y-121500000I-1000000J0D01*
G01*
X90000000Y-125500000D02*
G75*
G02X92000000Y-125500000I1000000J0D01*
G01*
X134000000Y-121500000D02*
G75*
G02X132000000Y-121500000I-1000000J0D01*
G01*
X132000000Y-125500000D02*
G75*
G02X134000000Y-125500000I1000000J0D01*
G01*
X176000000Y-121500000D02*
G75*
G02X174000000Y-121500000I-1000000J0D01*
G01*
X174000000Y-125500000D02*
G75*
G02X176000000Y-125500000I1000000J0D01*
G01*
X176000000Y-66500000D02*
G75*
G02X174000000Y-66500000I-1000000J0D01*
G01*
X174000000Y-70500000D02*
G75*
G02X176000000Y-70500000I1000000J0D01*
G01*
X92000000Y-66500000D02*
G75*
G02X90000000Y-66500000I-1000000J0D01*
G01*
X90000000Y-70500000D02*
G75*
G02X92000000Y-70500000I1000000J0D01*
G01*
X132000000Y-70500000D02*
G75*
G02X134000000Y-70500000I1000000J0D01*
G01*
X134000000Y-66500000D02*
G75*
G02X132000000Y-66500000I-1000000J0D01*
G01*
X127000000Y-95000000D02*
G75*
G02X127000000Y-97000000I0J-1000000D01*
G01*
X131000000Y-97000000D02*
G75*
G02X131000000Y-95000000I0J1000000D01*
G01*
X139000000Y-97000000D02*
G75*
G02X139000000Y-95000000I0J1000000D01*
G01*
X135000000Y-95000000D02*
G75*
G02X135000000Y-97000000I0J-1000000D01*
G01*
X173000000Y-97000000D02*
G75*
G02X173000000Y-95000000I0J1000000D01*
G01*
X169000000Y-95000000D02*
G75*
G02X169000000Y-97000000I0J-1000000D01*
G01*
X181000000Y-97000000D02*
G75*
G02X181000000Y-95000000I0J1000000D01*
G01*
X177000000Y-95000000D02*
G75*
G02X177000000Y-97000000I0J-1000000D01*
G01*
X174000000Y-102000000D02*
G75*
G02X176000000Y-102000000I1000000J0D01*
G01*
X176000000Y-98000000D02*
G75*
G02X174000000Y-98000000I-1000000J0D01*
G01*
X174000000Y-94000000D02*
G75*
G02X176000000Y-94000000I1000000J0D01*
G01*
X176000000Y-90000000D02*
G75*
G02X174000000Y-90000000I-1000000J0D01*
G01*
X132000000Y-94000000D02*
G75*
G02X134000000Y-94000000I1000000J0D01*
G01*
X134000000Y-90000000D02*
G75*
G02X132000000Y-90000000I-1000000J0D01*
G01*
X132000000Y-102000000D02*
G75*
G02X134000000Y-102000000I1000000J0D01*
G01*
X134000000Y-98000000D02*
G75*
G02X132000000Y-98000000I-1000000J0D01*
G01*
X90000000Y-102000000D02*
G75*
G02X92000000Y-102000000I1000000J0D01*
G01*
X92000000Y-98000000D02*
G75*
G02X90000000Y-98000000I-1000000J0D01*
G01*
X92000000Y-90000000D02*
G75*
G02X90000000Y-90000000I-1000000J0D01*
G01*
X90000000Y-94000000D02*
G75*
G02X92000000Y-94000000I1000000J0D01*
G01*
X97000000Y-97000000D02*
G75*
G02X97000000Y-95000000I0J1000000D01*
G01*
X93000000Y-95000000D02*
G75*
G02X93000000Y-97000000I0J-1000000D01*
G01*
X89000000Y-97000000D02*
G75*
G02X89000000Y-95000000I0J1000000D01*
G01*
X85000000Y-95000000D02*
G75*
G02X85000000Y-97000000I0J-1000000D01*
G01*
X55000000Y-48000000D02*
X85000000Y-48000000D01*
X93000000Y-48000000D02*
X89000000Y-48000000D01*
X127000000Y-48000000D02*
X97000000Y-48000000D01*
X135000000Y-48000000D02*
X131000000Y-48000000D01*
X169000000Y-48000000D02*
X139000000Y-48000000D01*
X177000000Y-48000000D02*
X173000000Y-48000000D01*
X211000000Y-48000000D02*
X181000000Y-48000000D01*
X85000000Y-48000000D02*
G75*
G02X85000000Y-50000000I0J-1000000D01*
G01*
X89000000Y-50000000D02*
G75*
G02X89000000Y-48000000I0J1000000D01*
G01*
X218000000Y-141000000D02*
X218000000Y-142000000D01*
X218000000Y-102000000D02*
X218000000Y-137000000D01*
X218000000Y-94000000D02*
X218000000Y-98000000D01*
X218000000Y-55000000D02*
X218000000Y-90000000D01*
X218000000Y-50000000D02*
X218000000Y-51000000D01*
X215000000Y-48000000D02*
X216000000Y-48000000D01*
X216000000Y-48000000D02*
G75*
G02X218000000Y-50000000I0J-2000000D01*
G01*
X218000000Y-142000000D02*
G75*
G02X216000000Y-144000000I-2000000J0D01*
G01*
X215000000Y-144000000D02*
X216000000Y-144000000D01*
X181000000Y-144000000D02*
X211000000Y-144000000D01*
X173000000Y-144000000D02*
X177000000Y-144000000D01*
X139000000Y-144000000D02*
X169000000Y-144000000D01*
X131000000Y-144000000D02*
X135000000Y-144000000D01*
X97000000Y-144000000D02*
X127000000Y-144000000D01*
X89000000Y-144000000D02*
X93000000Y-144000000D01*
X55000000Y-144000000D02*
X85000000Y-144000000D01*
X48000000Y-102000000D02*
X48000000Y-137000000D01*
X48000000Y-94000000D02*
X48000000Y-98000000D01*
X48000000Y-51000000D02*
X48000000Y-50000000D01*
X48000000Y-90000000D02*
X48000000Y-55000000D01*
X50000000Y-51000000D02*
G75*
G02X48000000Y-51000000I-1000000J0D01*
G01*
X48000000Y-55000000D02*
G75*
G02X50000000Y-55000000I1000000J0D01*
G01*
X48000000Y-94000000D02*
G75*
G02X50000000Y-94000000I1000000J0D01*
G01*
X50000000Y-90000000D02*
G75*
G02X48000000Y-90000000I-1000000J0D01*
G01*
X50000000Y-98000000D02*
G75*
G02X48000000Y-98000000I-1000000J0D01*
G01*
X48000000Y-102000000D02*
G75*
G02X50000000Y-102000000I1000000J0D01*
G01*
X51000000Y-144000000D02*
X50000000Y-144000000D01*
X48000000Y-141000000D02*
X48000000Y-142000000D01*
X50000000Y-144000000D02*
G75*
G02X48000000Y-142000000I0J2000000D01*
G01*
X50000000Y-137000000D02*
G75*
G02X48000000Y-137000000I-1000000J0D01*
G01*
X48000000Y-141000000D02*
G75*
G02X50000000Y-141000000I1000000J0D01*
G01*
X51000000Y-142000000D02*
G75*
G02X51000000Y-144000000I0J-1000000D01*
G01*
X55000000Y-144000000D02*
G75*
G02X55000000Y-142000000I0J1000000D01*
G01*
X89000000Y-144000000D02*
G75*
G02X89000000Y-142000000I0J1000000D01*
G01*
X85000000Y-142000000D02*
G75*
G02X85000000Y-144000000I0J-1000000D01*
G01*
X93000000Y-142000000D02*
G75*
G02X93000000Y-144000000I0J-1000000D01*
G01*
X97000000Y-144000000D02*
G75*
G02X97000000Y-142000000I0J1000000D01*
G01*
X131000000Y-144000000D02*
G75*
G02X131000000Y-142000000I0J1000000D01*
G01*
X127000000Y-142000000D02*
G75*
G02X127000000Y-144000000I0J-1000000D01*
G01*
X135000000Y-142000000D02*
G75*
G02X135000000Y-144000000I0J-1000000D01*
G01*
X139000000Y-144000000D02*
G75*
G02X139000000Y-142000000I0J1000000D01*
G01*
X169000000Y-142000000D02*
G75*
G02X169000000Y-144000000I0J-1000000D01*
G01*
X173000000Y-144000000D02*
G75*
G02X173000000Y-142000000I0J1000000D01*
G01*
X181000000Y-144000000D02*
G75*
G02X181000000Y-142000000I0J1000000D01*
G01*
X177000000Y-142000000D02*
G75*
G02X177000000Y-144000000I0J-1000000D01*
G01*
X211000000Y-142000000D02*
G75*
G02X211000000Y-144000000I0J-1000000D01*
G01*
X215000000Y-144000000D02*
G75*
G02X215000000Y-142000000I0J1000000D01*
G01*
X216000000Y-141000000D02*
G75*
G02X218000000Y-141000000I1000000J0D01*
G01*
X218000000Y-137000000D02*
G75*
G02X216000000Y-137000000I-1000000J0D01*
G01*
X218000000Y-98000000D02*
G75*
G02X216000000Y-98000000I-1000000J0D01*
G01*
X216000000Y-102000000D02*
G75*
G02X218000000Y-102000000I1000000J0D01*
G01*
X218000000Y-90000000D02*
G75*
G02X216000000Y-90000000I-1000000J0D01*
G01*
X216000000Y-94000000D02*
G75*
G02X218000000Y-94000000I1000000J0D01*
G01*
X218000000Y-51000000D02*
G75*
G02X216000000Y-51000000I-1000000J0D01*
G01*
X216000000Y-55000000D02*
G75*
G02X218000000Y-55000000I1000000J0D01*
G01*
X215000000Y-50000000D02*
G75*
G02X215000000Y-48000000I0J1000000D01*
G01*
X211000000Y-48000000D02*
G75*
G02X211000000Y-50000000I0J-1000000D01*
G01*
X181000000Y-50000000D02*
G75*
G02X181000000Y-48000000I0J1000000D01*
G01*
X177000000Y-48000000D02*
G75*
G02X177000000Y-50000000I0J-1000000D01*
G01*
X173000000Y-50000000D02*
G75*
G02X173000000Y-48000000I0J1000000D01*
G01*
X169000000Y-48000000D02*
G75*
G02X169000000Y-50000000I0J-1000000D01*
G01*
X139000000Y-50000000D02*
G75*
G02X139000000Y-48000000I0J1000000D01*
G01*
X135000000Y-48000000D02*
G75*
G02X135000000Y-50000000I0J-1000000D01*
G01*
X127000000Y-48000000D02*
G75*
G02X127000000Y-50000000I0J-1000000D01*
G01*
X131000000Y-50000000D02*
G75*
G02X131000000Y-48000000I0J1000000D01*
G01*
X93000000Y-48000000D02*
G75*
G02X93000000Y-50000000I0J-1000000D01*
G01*
X97000000Y-50000000D02*
G75*
G02X97000000Y-48000000I0J1000000D01*
G01*
X48000000Y-50000000D02*
G75*
G02X50000000Y-48000000I2000000J0D01*
G01*
X55000000Y-97000000D02*
G75*
G02X55000000Y-95000000I0J1000000D01*
G01*
X51000000Y-95000000D02*
G75*
G02X51000000Y-97000000I0J-1000000D01*
G01*
X51000000Y-48000000D02*
G75*
G02X51000000Y-50000000I0J-1000000D01*
G01*
X55000000Y-50000000D02*
G75*
G02X55000000Y-48000000I0J1000000D01*
G01*
X50000000Y-48000000D02*
X51000000Y-48000000D01*
X43000000Y-149000000D02*
X43000000Y-43000000D01*
X223000000Y-149000000D02*
X43000000Y-149000000D01*
X223000000Y-43000000D02*
X223000000Y-149000000D01*
X43000000Y-43000000D02*
X223000000Y-43000000D01*
X215000000Y-120500000D02*
G75*
G02X215000000Y-118500000I0J1000000D01*
G01*
X215000000Y-73500000D02*
G75*
G02X215000000Y-71500000I0J1000000D01*
G01*
X173000000Y-120500000D02*
G75*
G02X173000000Y-118500000I0J1000000D01*
G01*
X173000000Y-73500000D02*
G75*
G02X173000000Y-71500000I0J1000000D01*
G01*
X131000000Y-120500000D02*
G75*
G02X131000000Y-118500000I0J1000000D01*
G01*
X131000000Y-73500000D02*
G75*
G02X131000000Y-71500000I0J1000000D01*
G01*
X89000000Y-120500000D02*
G75*
G02X89000000Y-118500000I0J1000000D01*
G01*
X176000000Y-121500000D02*
G75*
G02X177000000Y-120500000I1000000J0D01*
G01*
X176000000Y-74500000D02*
G75*
G02X177000000Y-73500000I1000000J0D01*
G01*
X134000000Y-121500000D02*
G75*
G02X135000000Y-120500000I1000000J0D01*
G01*
X134000000Y-74500000D02*
G75*
G02X135000000Y-73500000I1000000J0D01*
G01*
X92000000Y-121500000D02*
G75*
G02X93000000Y-120500000I1000000J0D01*
G01*
X92000000Y-74500000D02*
G75*
G02X93000000Y-73500000I1000000J0D01*
G01*
X50000000Y-121500000D02*
G75*
G02X51000000Y-120500000I1000000J0D01*
G01*
X176000000Y-141000000D02*
X176000000Y-125500000D01*
X176000000Y-90000000D02*
X176000000Y-74500000D01*
X134000000Y-141000000D02*
X134000000Y-125500000D01*
X134000000Y-90000000D02*
X134000000Y-74500000D01*
X92000000Y-141000000D02*
X92000000Y-125500000D01*
X92000000Y-90000000D02*
X92000000Y-74500000D01*
X50000000Y-137000000D02*
X50000000Y-121500000D01*
X215000000Y-120500000D02*
G75*
G02X216000000Y-121500000I0J-1000000D01*
G01*
X215000000Y-73500000D02*
G75*
G02X216000000Y-74500000I0J-1000000D01*
G01*
X173000000Y-120500000D02*
G75*
G02X174000000Y-121500000I0J-1000000D01*
G01*
X173000000Y-73500000D02*
G75*
G02X174000000Y-74500000I0J-1000000D01*
G01*
X131000000Y-120500000D02*
G75*
G02X132000000Y-121500000I0J-1000000D01*
G01*
X131000000Y-73500000D02*
G75*
G02X132000000Y-74500000I0J-1000000D01*
G01*
X89000000Y-120500000D02*
G75*
G02X90000000Y-121500000I0J-1000000D01*
G01*
X216000000Y-117500000D02*
G75*
G02X215000000Y-118500000I-1000000J0D01*
G01*
X216000000Y-70500000D02*
G75*
G02X215000000Y-71500000I-1000000J0D01*
G01*
X174000000Y-117500000D02*
G75*
G02X173000000Y-118500000I-1000000J0D01*
G01*
X174000000Y-70500000D02*
G75*
G02X173000000Y-71500000I-1000000J0D01*
G01*
X132000000Y-117500000D02*
G75*
G02X131000000Y-118500000I-1000000J0D01*
G01*
X132000000Y-70500000D02*
G75*
G02X131000000Y-71500000I-1000000J0D01*
G01*
X90000000Y-117500000D02*
G75*
G02X89000000Y-118500000I-1000000J0D01*
G01*
X216000000Y-121500000D02*
X216000000Y-137000000D01*
X216000000Y-74500000D02*
X216000000Y-90000000D01*
X174000000Y-125500000D02*
X174000000Y-141000000D01*
X174000000Y-74500000D02*
X174000000Y-90000000D01*
X132000000Y-125500000D02*
X132000000Y-141000000D01*
X132000000Y-74500000D02*
X132000000Y-90000000D01*
X90000000Y-125500000D02*
X90000000Y-141000000D01*
X177000000Y-118500000D02*
G75*
G02X176000000Y-117500000I0J1000000D01*
G01*
X177000000Y-71500000D02*
G75*
G02X176000000Y-70500000I0J1000000D01*
G01*
X135000000Y-118500000D02*
G75*
G02X134000000Y-117500000I0J1000000D01*
G01*
X135000000Y-71500000D02*
G75*
G02X134000000Y-70500000I0J1000000D01*
G01*
X93000000Y-118500000D02*
G75*
G02X92000000Y-117500000I0J1000000D01*
G01*
X93000000Y-71500000D02*
G75*
G02X92000000Y-70500000I0J1000000D01*
G01*
X51000000Y-118500000D02*
G75*
G02X50000000Y-117500000I0J1000000D01*
G01*
X181000000Y-97000000D02*
X215000000Y-97000000D01*
X181000000Y-50000000D02*
X211000000Y-50000000D01*
X139000000Y-97000000D02*
X169000000Y-97000000D01*
X139000000Y-50000000D02*
X169000000Y-50000000D01*
X97000000Y-97000000D02*
X127000000Y-97000000D01*
X97000000Y-50000000D02*
X127000000Y-50000000D01*
X55000000Y-97000000D02*
X85000000Y-97000000D01*
X216000000Y-102000000D02*
X216000000Y-117500000D01*
X216000000Y-55000000D02*
X216000000Y-70500000D01*
X174000000Y-102000000D02*
X174000000Y-117500000D01*
X174000000Y-51000000D02*
X174000000Y-66500000D01*
X132000000Y-102000000D02*
X132000000Y-117500000D01*
X132000000Y-51000000D02*
X132000000Y-66500000D01*
X90000000Y-102000000D02*
X90000000Y-117500000D01*
X193000000Y-133000000D02*
X192000000Y-133000000D01*
X193000000Y-86000000D02*
X192000000Y-86000000D01*
X151000000Y-133000000D02*
X150000000Y-133000000D01*
X151000000Y-86000000D02*
X150000000Y-86000000D01*
X109000000Y-133000000D02*
X108000000Y-133000000D01*
X109000000Y-86000000D02*
X108000000Y-86000000D01*
X67000000Y-133000000D02*
X66000000Y-133000000D01*
X176000000Y-117500000D02*
X176000000Y-102000000D01*
X176000000Y-66500000D02*
X176000000Y-51000000D01*
X134000000Y-117500000D02*
X134000000Y-102000000D01*
X134000000Y-66500000D02*
X134000000Y-51000000D01*
X92000000Y-117500000D02*
X92000000Y-102000000D01*
X92000000Y-66500000D02*
X92000000Y-51000000D01*
X50000000Y-117500000D02*
X50000000Y-102000000D01*
X193000000Y-135000000D02*
X192000000Y-135000000D01*
X193000000Y-88000000D02*
X192000000Y-88000000D01*
X151000000Y-135000000D02*
X150000000Y-135000000D01*
X151000000Y-88000000D02*
X150000000Y-88000000D01*
X109000000Y-135000000D02*
X108000000Y-135000000D01*
X109000000Y-88000000D02*
X108000000Y-88000000D01*
X67000000Y-135000000D02*
X66000000Y-135000000D01*
X191000000Y-136000000D02*
X191000000Y-141000000D01*
X191000000Y-89000000D02*
X191000000Y-94000000D01*
X149000000Y-136000000D02*
X149000000Y-141000000D01*
X149000000Y-89000000D02*
X149000000Y-94000000D01*
X107000000Y-136000000D02*
X107000000Y-141000000D01*
X107000000Y-89000000D02*
X107000000Y-94000000D01*
X65000000Y-136000000D02*
X65000000Y-141000000D01*
X192000000Y-142000000D02*
X200000000Y-142000000D01*
X192000000Y-95000000D02*
X200000000Y-95000000D01*
X150000000Y-142000000D02*
X158000000Y-142000000D01*
X150000000Y-95000000D02*
X158000000Y-95000000D01*
X108000000Y-142000000D02*
X116000000Y-142000000D01*
X108000000Y-95000000D02*
X116000000Y-95000000D01*
X66000000Y-142000000D02*
X74000000Y-142000000D01*
X201000000Y-141000000D02*
X201000000Y-136000000D01*
X201000000Y-94000000D02*
X201000000Y-89000000D01*
X159000000Y-141000000D02*
X159000000Y-136000000D01*
X159000000Y-94000000D02*
X159000000Y-89000000D01*
X117000000Y-141000000D02*
X117000000Y-136000000D01*
X117000000Y-94000000D02*
X117000000Y-89000000D01*
X75000000Y-141000000D02*
X75000000Y-136000000D01*
X200000000Y-135000000D02*
X199000000Y-135000000D01*
X200000000Y-88000000D02*
X199000000Y-88000000D01*
X158000000Y-135000000D02*
X157000000Y-135000000D01*
X158000000Y-88000000D02*
X157000000Y-88000000D01*
X116000000Y-135000000D02*
X115000000Y-135000000D01*
X116000000Y-88000000D02*
X115000000Y-88000000D01*
X74000000Y-135000000D02*
X73000000Y-135000000D01*
X199000000Y-135000000D02*
G75*
G02X199000000Y-133000000I0J1000000D01*
G01*
X199000000Y-88000000D02*
G75*
G02X199000000Y-86000000I0J1000000D01*
G01*
X157000000Y-135000000D02*
G75*
G02X157000000Y-133000000I0J1000000D01*
G01*
X157000000Y-88000000D02*
G75*
G02X157000000Y-86000000I0J1000000D01*
G01*
X115000000Y-135000000D02*
G75*
G02X115000000Y-133000000I0J1000000D01*
G01*
X115000000Y-88000000D02*
G75*
G02X115000000Y-86000000I0J1000000D01*
G01*
X73000000Y-135000000D02*
G75*
G02X73000000Y-133000000I0J1000000D01*
G01*
X193000000Y-133000000D02*
G75*
G02X193000000Y-135000000I0J-1000000D01*
G01*
X193000000Y-86000000D02*
G75*
G02X193000000Y-88000000I0J-1000000D01*
G01*
X151000000Y-133000000D02*
G75*
G02X151000000Y-135000000I0J-1000000D01*
G01*
X151000000Y-86000000D02*
G75*
G02X151000000Y-88000000I0J-1000000D01*
G01*
X109000000Y-133000000D02*
G75*
G02X109000000Y-135000000I0J-1000000D01*
G01*
X109000000Y-86000000D02*
G75*
G02X109000000Y-88000000I0J-1000000D01*
G01*
X67000000Y-133000000D02*
G75*
G02X67000000Y-135000000I0J-1000000D01*
G01*
X191000000Y-136000000D02*
G75*
G02X192000000Y-135000000I1000000J0D01*
G01*
X191000000Y-89000000D02*
G75*
G02X192000000Y-88000000I1000000J0D01*
G01*
X149000000Y-136000000D02*
G75*
G02X150000000Y-135000000I1000000J0D01*
G01*
X149000000Y-89000000D02*
G75*
G02X150000000Y-88000000I1000000J0D01*
G01*
X107000000Y-136000000D02*
G75*
G02X108000000Y-135000000I1000000J0D01*
G01*
X107000000Y-89000000D02*
G75*
G02X108000000Y-88000000I1000000J0D01*
G01*
X65000000Y-136000000D02*
G75*
G02X66000000Y-135000000I1000000J0D01*
G01*
X200000000Y-135000000D02*
G75*
G02X201000000Y-136000000I0J-1000000D01*
G01*
X200000000Y-88000000D02*
G75*
G02X201000000Y-89000000I0J-1000000D01*
G01*
X158000000Y-135000000D02*
G75*
G02X159000000Y-136000000I0J-1000000D01*
G01*
X158000000Y-88000000D02*
G75*
G02X159000000Y-89000000I0J-1000000D01*
G01*
X116000000Y-135000000D02*
G75*
G02X117000000Y-136000000I0J-1000000D01*
G01*
X116000000Y-88000000D02*
G75*
G02X117000000Y-89000000I0J-1000000D01*
G01*
X74000000Y-135000000D02*
G75*
G02X75000000Y-136000000I0J-1000000D01*
G01*
X201000000Y-141000000D02*
G75*
G02X200000000Y-142000000I-1000000J0D01*
G01*
X201000000Y-94000000D02*
G75*
G02X200000000Y-95000000I-1000000J0D01*
G01*
X159000000Y-141000000D02*
G75*
G02X158000000Y-142000000I-1000000J0D01*
G01*
X159000000Y-94000000D02*
G75*
G02X158000000Y-95000000I-1000000J0D01*
G01*
X117000000Y-141000000D02*
G75*
G02X116000000Y-142000000I-1000000J0D01*
G01*
X117000000Y-94000000D02*
G75*
G02X116000000Y-95000000I-1000000J0D01*
G01*
X75000000Y-141000000D02*
G75*
G02X74000000Y-142000000I-1000000J0D01*
G01*
X192000000Y-142000000D02*
G75*
G02X191000000Y-141000000I0J1000000D01*
G01*
X192000000Y-95000000D02*
G75*
G02X191000000Y-94000000I0J1000000D01*
G01*
X150000000Y-142000000D02*
G75*
G02X149000000Y-141000000I0J1000000D01*
G01*
X150000000Y-95000000D02*
G75*
G02X149000000Y-94000000I0J1000000D01*
G01*
X108000000Y-142000000D02*
G75*
G02X107000000Y-141000000I0J1000000D01*
G01*
X108000000Y-95000000D02*
G75*
G02X107000000Y-94000000I0J1000000D01*
G01*
X66000000Y-142000000D02*
G75*
G02X65000000Y-141000000I0J1000000D01*
G01*
X189000000Y-136000000D02*
G75*
G02X192000000Y-133000000I3000000J0D01*
G01*
X189000000Y-89000000D02*
G75*
G02X192000000Y-86000000I3000000J0D01*
G01*
X147000000Y-136000000D02*
G75*
G02X150000000Y-133000000I3000000J0D01*
G01*
X147000000Y-89000000D02*
G75*
G02X150000000Y-86000000I3000000J0D01*
G01*
X105000000Y-136000000D02*
G75*
G02X108000000Y-133000000I3000000J0D01*
G01*
X105000000Y-89000000D02*
G75*
G02X108000000Y-86000000I3000000J0D01*
G01*
X63000000Y-136000000D02*
G75*
G02X66000000Y-133000000I3000000J0D01*
G01*
X200000000Y-133000000D02*
G75*
G02X203000000Y-136000000I0J-3000000D01*
G01*
X200000000Y-86000000D02*
G75*
G02X203000000Y-89000000I0J-3000000D01*
G01*
X158000000Y-133000000D02*
G75*
G02X161000000Y-136000000I0J-3000000D01*
G01*
X158000000Y-86000000D02*
G75*
G02X161000000Y-89000000I0J-3000000D01*
G01*
X116000000Y-133000000D02*
G75*
G02X119000000Y-136000000I0J-3000000D01*
G01*
X116000000Y-86000000D02*
G75*
G02X119000000Y-89000000I0J-3000000D01*
G01*
X74000000Y-133000000D02*
G75*
G02X77000000Y-136000000I0J-3000000D01*
G01*
X216000000Y-141000000D02*
G75*
G02X215000000Y-142000000I-1000000J0D01*
G01*
X216000000Y-94000000D02*
G75*
G02X215000000Y-95000000I-1000000J0D01*
G01*
X174000000Y-141000000D02*
G75*
G02X173000000Y-142000000I-1000000J0D01*
G01*
X174000000Y-94000000D02*
G75*
G02X173000000Y-95000000I-1000000J0D01*
G01*
X132000000Y-141000000D02*
G75*
G02X131000000Y-142000000I-1000000J0D01*
G01*
X132000000Y-94000000D02*
G75*
G02X131000000Y-95000000I-1000000J0D01*
G01*
X90000000Y-141000000D02*
G75*
G02X89000000Y-142000000I-1000000J0D01*
G01*
X177000000Y-142000000D02*
G75*
G02X176000000Y-141000000I0J1000000D01*
G01*
X177000000Y-95000000D02*
G75*
G02X176000000Y-94000000I0J1000000D01*
G01*
X135000000Y-142000000D02*
G75*
G02X134000000Y-141000000I0J1000000D01*
G01*
X135000000Y-95000000D02*
G75*
G02X134000000Y-94000000I0J1000000D01*
G01*
X93000000Y-142000000D02*
G75*
G02X92000000Y-141000000I0J1000000D01*
G01*
X93000000Y-95000000D02*
G75*
G02X92000000Y-94000000I0J1000000D01*
G01*
X51000000Y-142000000D02*
G75*
G02X50000000Y-141000000I0J1000000D01*
G01*
X189000000Y-141000000D02*
G75*
G02X188000000Y-142000000I-1000000J0D01*
G01*
X189000000Y-94000000D02*
G75*
G02X188000000Y-95000000I-1000000J0D01*
G01*
X147000000Y-141000000D02*
G75*
G02X146000000Y-142000000I-1000000J0D01*
G01*
X147000000Y-94000000D02*
G75*
G02X146000000Y-95000000I-1000000J0D01*
G01*
X105000000Y-141000000D02*
G75*
G02X104000000Y-142000000I-1000000J0D01*
G01*
X105000000Y-94000000D02*
G75*
G02X104000000Y-95000000I-1000000J0D01*
G01*
X63000000Y-141000000D02*
G75*
G02X62000000Y-142000000I-1000000J0D01*
G01*
X204000000Y-142000000D02*
G75*
G02X203000000Y-141000000I0J1000000D01*
G01*
X204000000Y-95000000D02*
G75*
G02X203000000Y-94000000I0J1000000D01*
G01*
X162000000Y-142000000D02*
G75*
G02X161000000Y-141000000I0J1000000D01*
G01*
X162000000Y-95000000D02*
G75*
G02X161000000Y-94000000I0J1000000D01*
G01*
X120000000Y-142000000D02*
G75*
G02X119000000Y-141000000I0J1000000D01*
G01*
X120000000Y-95000000D02*
G75*
G02X119000000Y-94000000I0J1000000D01*
G01*
X78000000Y-142000000D02*
G75*
G02X77000000Y-141000000I0J1000000D01*
G01*
X189000000Y-136000000D02*
X189000000Y-141000000D01*
X189000000Y-89000000D02*
X189000000Y-94000000D01*
X147000000Y-136000000D02*
X147000000Y-141000000D01*
X147000000Y-89000000D02*
X147000000Y-94000000D01*
X105000000Y-136000000D02*
X105000000Y-141000000D01*
X105000000Y-89000000D02*
X105000000Y-94000000D01*
X63000000Y-136000000D02*
X63000000Y-141000000D01*
X188000000Y-142000000D02*
X181000000Y-142000000D01*
X188000000Y-95000000D02*
X181000000Y-95000000D01*
X146000000Y-142000000D02*
X139000000Y-142000000D01*
X146000000Y-95000000D02*
X139000000Y-95000000D01*
X104000000Y-142000000D02*
X97000000Y-142000000D01*
X104000000Y-95000000D02*
X97000000Y-95000000D01*
X62000000Y-142000000D02*
X55000000Y-142000000D01*
X204000000Y-142000000D02*
X211000000Y-142000000D01*
X204000000Y-95000000D02*
X215000000Y-95000000D01*
X162000000Y-142000000D02*
X169000000Y-142000000D01*
X162000000Y-95000000D02*
X169000000Y-95000000D01*
X120000000Y-142000000D02*
X127000000Y-142000000D01*
X120000000Y-95000000D02*
X127000000Y-95000000D01*
X78000000Y-142000000D02*
X85000000Y-142000000D01*
X203000000Y-136000000D02*
X203000000Y-141000000D01*
X203000000Y-89000000D02*
X203000000Y-94000000D01*
X161000000Y-136000000D02*
X161000000Y-141000000D01*
X161000000Y-89000000D02*
X161000000Y-94000000D01*
X119000000Y-136000000D02*
X119000000Y-141000000D01*
X119000000Y-89000000D02*
X119000000Y-94000000D01*
X77000000Y-136000000D02*
X77000000Y-141000000D01*
X199000000Y-133000000D02*
X200000000Y-133000000D01*
X199000000Y-86000000D02*
X200000000Y-86000000D01*
X157000000Y-133000000D02*
X158000000Y-133000000D01*
X157000000Y-86000000D02*
X158000000Y-86000000D01*
X115000000Y-133000000D02*
X116000000Y-133000000D01*
X115000000Y-86000000D02*
X116000000Y-86000000D01*
X73000000Y-133000000D02*
X74000000Y-133000000D01*
X215000000Y-97000000D02*
G75*
G02X216000000Y-98000000I0J-1000000D01*
G01*
X215000000Y-50000000D02*
G75*
G02X216000000Y-51000000I0J-1000000D01*
G01*
X173000000Y-97000000D02*
G75*
G02X174000000Y-98000000I0J-1000000D01*
G01*
X173000000Y-50000000D02*
G75*
G02X174000000Y-51000000I0J-1000000D01*
G01*
X131000000Y-97000000D02*
G75*
G02X132000000Y-98000000I0J-1000000D01*
G01*
X131000000Y-50000000D02*
G75*
G02X132000000Y-51000000I0J-1000000D01*
G01*
X89000000Y-97000000D02*
G75*
G02X90000000Y-98000000I0J-1000000D01*
G01*
X176000000Y-98000000D02*
G75*
G02X177000000Y-97000000I1000000J0D01*
G01*
X176000000Y-51000000D02*
G75*
G02X177000000Y-50000000I1000000J0D01*
G01*
X134000000Y-98000000D02*
G75*
G02X135000000Y-97000000I1000000J0D01*
G01*
X134000000Y-51000000D02*
G75*
G02X135000000Y-50000000I1000000J0D01*
G01*
X92000000Y-98000000D02*
G75*
G02X93000000Y-97000000I1000000J0D01*
G01*
X92000000Y-51000000D02*
G75*
G02X93000000Y-50000000I1000000J0D01*
G01*
X50000000Y-98000000D02*
G75*
G02X51000000Y-97000000I1000000J0D01*
G01*
X177000000Y-118500000D02*
G75*
G02X177000000Y-120500000I0J-1000000D01*
G01*
X177000000Y-71500000D02*
G75*
G02X177000000Y-73500000I0J-1000000D01*
G01*
X135000000Y-118500000D02*
G75*
G02X135000000Y-120500000I0J-1000000D01*
G01*
X135000000Y-71500000D02*
G75*
G02X135000000Y-73500000I0J-1000000D01*
G01*
X93000000Y-118500000D02*
G75*
G02X93000000Y-120500000I0J-1000000D01*
G01*
X93000000Y-71500000D02*
G75*
G02X93000000Y-73500000I0J-1000000D01*
G01*
X51000000Y-118500000D02*
G75*
G02X51000000Y-120500000I0J-1000000D01*
G01*
X90000000Y-74500000D02*
X90000000Y-90000000D01*
X89000000Y-73500000D02*
G75*
G02X89000000Y-71500000I0J1000000D01*
G01*
X89000000Y-73500000D02*
G75*
G02X90000000Y-74500000I0J-1000000D01*
G01*
X90000000Y-70500000D02*
G75*
G02X89000000Y-71500000I-1000000J0D01*
G01*
X50000000Y-74500000D02*
G75*
G02X51000000Y-73500000I1000000J0D01*
G01*
X50000000Y-90000000D02*
X50000000Y-74500000D01*
X51000000Y-71500000D02*
G75*
G02X50000000Y-70500000I0J1000000D01*
G01*
X51000000Y-71500000D02*
G75*
G02X51000000Y-73500000I0J-1000000D01*
G01*
X50000000Y-51000000D02*
G75*
G02X51000000Y-50000000I1000000J0D01*
G01*
X89000000Y-50000000D02*
G75*
G02X90000000Y-51000000I0J-1000000D01*
G01*
X73000000Y-86000000D02*
X74000000Y-86000000D01*
X77000000Y-89000000D02*
X77000000Y-94000000D01*
X78000000Y-95000000D02*
X85000000Y-95000000D01*
X62000000Y-95000000D02*
X55000000Y-95000000D01*
X63000000Y-89000000D02*
X63000000Y-94000000D01*
X78000000Y-95000000D02*
G75*
G02X77000000Y-94000000I0J1000000D01*
G01*
X63000000Y-94000000D02*
G75*
G02X62000000Y-95000000I-1000000J0D01*
G01*
X51000000Y-95000000D02*
G75*
G02X50000000Y-94000000I0J1000000D01*
G01*
X90000000Y-94000000D02*
G75*
G02X89000000Y-95000000I-1000000J0D01*
G01*
X74000000Y-86000000D02*
G75*
G02X77000000Y-89000000I0J-3000000D01*
G01*
X63000000Y-89000000D02*
G75*
G02X66000000Y-86000000I3000000J0D01*
G01*
X66000000Y-95000000D02*
G75*
G02X65000000Y-94000000I0J1000000D01*
G01*
X75000000Y-94000000D02*
G75*
G02X74000000Y-95000000I-1000000J0D01*
G01*
X74000000Y-88000000D02*
G75*
G02X75000000Y-89000000I0J-1000000D01*
G01*
X65000000Y-89000000D02*
G75*
G02X66000000Y-88000000I1000000J0D01*
G01*
X67000000Y-86000000D02*
G75*
G02X67000000Y-88000000I0J-1000000D01*
G01*
X73000000Y-88000000D02*
G75*
G02X73000000Y-86000000I0J1000000D01*
G01*
X74000000Y-88000000D02*
X73000000Y-88000000D01*
X75000000Y-94000000D02*
X75000000Y-89000000D01*
X66000000Y-95000000D02*
X74000000Y-95000000D01*
X65000000Y-89000000D02*
X65000000Y-94000000D01*
X67000000Y-88000000D02*
X66000000Y-88000000D01*
X50000000Y-70500000D02*
X50000000Y-55000000D01*
X67000000Y-86000000D02*
X66000000Y-86000000D01*
X90000000Y-51000000D02*
X90000000Y-66500000D01*
X55000000Y-50000000D02*
X85000000Y-50000000D01*
M02*
