M48
;DRILL file {KiCad 5.0.1-33cea8e~67~ubuntu18.04.1} date Mi 02 Jan 2019 14:46:37 CET
;FORMAT={-:-/ absolute / metric / decimal}
FMAT,2
METRIC,TZ
T1C0.400
T2C0.700
T3C1.000
%
G90
G05
M71
T1
X51.Y-63.5
X51.Y-70.
X51.Y-80.
X51.Y-90.
X51.Y-94.
X51.Y-110.5
X51.Y-117.
X51.Y-127.
X51.Y-137.
X51.Y-141.
X53.2Y-74.7
X53.2Y-121.7
X55.5Y-69.
X55.5Y-116.
X57.15Y-85.
X57.15Y-132.
X57.3Y-75.5
X57.3Y-122.5
X57.553Y-69.394
X57.553Y-116.394
X58.5Y-68.5
X58.5Y-115.5
X58.5Y-63.5
X58.5Y-72.5
X58.5Y-76.8
X58.5Y-110.5
X58.5Y-119.5
X58.5Y-123.8
X60.4Y-73.8
X60.4Y-120.8
X61.Y-86.5
X61.Y-133.5
X61.5Y-70.119
X61.5Y-117.119
X61.75Y-81.1
X61.75Y-128.1
X62.Y-94.
X62.Y-141.
X62.5Y-78.
X62.5Y-86.75
X62.5Y-125.
X62.5Y-133.75
X63.297Y-81.775
X63.297Y-128.775
X63.5Y-63.5
X63.5Y-110.5
X63.9Y-67.
X63.9Y-114.
X64.062Y-79.422
X64.062Y-126.422
X67.2Y-73.
X67.2Y-120.
X67.25Y-75.
X67.25Y-122.
X68.8Y-77.4
X68.8Y-83.
X68.8Y-124.4
X68.8Y-130.
X69.5Y-81.775
X69.5Y-128.775
X69.75Y-66.25
X69.75Y-113.25
X69.8Y-72.
X69.8Y-119.
X70.Y-83.
X70.Y-130.
X72.25Y-73.
X72.25Y-120.
X72.5Y-66.5
X72.5Y-113.5
X72.75Y-68.75
X72.75Y-115.75
X74.6Y-63.4
X74.6Y-110.4
X74.7Y-80.
X74.7Y-127.
X75.5Y-83.825
X75.5Y-130.825
X77.Y-61.
X77.Y-62.5
X77.Y-108.
X77.Y-109.5
X77.5Y-52.
X77.5Y-86.75
X77.5Y-99.
X77.5Y-133.75
X77.918Y-83.825
X77.918Y-130.825
X78.Y-94.
X78.Y-141.
X78.875Y-70.1
X78.875Y-117.1
X79.Y-61.
X79.Y-108.
X79.347Y-84.878
X79.347Y-131.878
X80.Y-73.5
X80.Y-120.5
X80.01Y-78.8
X80.01Y-125.8
X80.025Y-71.
X80.025Y-118.
X80.15Y-75.275
X80.15Y-122.275
X80.26Y-81.26
X80.26Y-128.26
X81.Y-65.5
X81.Y-112.5
X82.5Y-85.1
X82.5Y-132.1
X85.Y-70.1
X85.Y-84.
X85.Y-117.1
X85.Y-131.
X86.5Y-53.
X86.5Y-100.
X87.75Y-55.5
X87.75Y-102.5
X89.Y-70.
X89.Y-80.
X89.Y-90.
X89.Y-94.
X89.Y-117.
X89.Y-127.
X89.Y-137.
X89.Y-141.
X93.Y-63.5
X93.Y-70.
X93.Y-80.
X93.Y-90.
X93.Y-94.
X93.Y-110.5
X93.Y-117.
X93.Y-127.
X93.Y-137.
X93.Y-141.
X95.2Y-74.7
X95.2Y-121.7
X97.5Y-69.
X97.5Y-116.
X99.15Y-85.
X99.15Y-132.
X99.3Y-75.5
X99.3Y-122.5
X99.553Y-69.394
X99.553Y-116.394
X100.5Y-68.5
X100.5Y-115.5
X100.5Y-63.5
X100.5Y-72.5
X100.5Y-76.8
X100.5Y-110.5
X100.5Y-119.5
X100.5Y-123.8
X102.4Y-73.8
X102.4Y-120.8
X103.Y-86.5
X103.Y-133.5
X103.5Y-70.119
X103.5Y-117.119
X103.75Y-81.1
X103.75Y-128.1
X104.Y-94.
X104.Y-141.
X104.5Y-78.
X104.5Y-86.75
X104.5Y-125.
X104.5Y-133.75
X105.297Y-81.775
X105.297Y-128.775
X105.5Y-63.5
X105.5Y-110.5
X105.9Y-67.
X105.9Y-114.
X106.062Y-79.422
X106.062Y-126.422
X109.2Y-73.
X109.2Y-120.
X109.25Y-75.
X109.25Y-122.
X110.8Y-77.4
X110.8Y-83.
X110.8Y-124.4
X110.8Y-130.
X111.5Y-81.775
X111.5Y-128.775
X111.75Y-66.25
X111.75Y-113.25
X111.8Y-72.
X111.8Y-119.
X112.Y-83.
X112.Y-130.
X114.25Y-73.
X114.25Y-120.
X114.5Y-66.5
X114.5Y-113.5
X114.75Y-68.75
X114.75Y-115.75
X116.6Y-63.4
X116.6Y-110.4
X116.7Y-80.
X116.7Y-127.
X117.5Y-83.825
X117.5Y-130.825
X119.Y-61.
X119.Y-62.5
X119.Y-108.
X119.Y-109.5
X119.5Y-52.
X119.5Y-86.75
X119.5Y-99.
X119.5Y-133.75
X119.918Y-83.825
X119.918Y-130.825
X120.Y-94.
X120.Y-141.
X120.875Y-70.1
X120.875Y-117.1
X121.Y-61.
X121.Y-108.
X121.347Y-84.878
X121.347Y-131.878
X122.Y-73.5
X122.Y-120.5
X122.01Y-78.8
X122.01Y-125.8
X122.025Y-71.
X122.025Y-118.
X122.15Y-75.275
X122.15Y-122.275
X122.26Y-81.26
X122.26Y-128.26
X123.Y-65.5
X123.Y-112.5
X124.5Y-85.1
X124.5Y-132.1
X127.Y-70.1
X127.Y-84.
X127.Y-117.1
X127.Y-131.
X128.5Y-53.
X128.5Y-100.
X129.75Y-55.5
X129.75Y-102.5
X131.Y-70.
X131.Y-80.
X131.Y-90.
X131.Y-94.
X131.Y-117.
X131.Y-127.
X131.Y-137.
X131.Y-141.
X135.Y-63.5
X135.Y-70.
X135.Y-80.
X135.Y-90.
X135.Y-94.
X135.Y-110.5
X135.Y-117.
X135.Y-127.
X135.Y-137.
X135.Y-141.
X137.2Y-74.7
X137.2Y-121.7
X139.5Y-69.
X139.5Y-116.
X141.15Y-85.
X141.15Y-132.
X141.3Y-75.5
X141.3Y-122.5
X141.553Y-69.394
X141.553Y-116.394
X142.5Y-68.5
X142.5Y-115.5
X142.5Y-63.5
X142.5Y-72.5
X142.5Y-76.8
X142.5Y-110.5
X142.5Y-119.5
X142.5Y-123.8
X144.4Y-73.8
X144.4Y-120.8
X145.Y-86.5
X145.Y-133.5
X145.5Y-70.119
X145.5Y-117.119
X145.75Y-81.1
X145.75Y-128.1
X146.Y-94.
X146.Y-141.
X146.5Y-78.
X146.5Y-86.75
X146.5Y-125.
X146.5Y-133.75
X147.297Y-81.775
X147.297Y-128.775
X147.5Y-63.5
X147.5Y-110.5
X147.9Y-67.
X147.9Y-114.
X148.062Y-79.422
X148.062Y-126.422
X151.2Y-73.
X151.2Y-120.
X151.25Y-75.
X151.25Y-122.
X152.8Y-77.4
X152.8Y-83.
X152.8Y-124.4
X152.8Y-130.
X153.5Y-81.775
X153.5Y-128.775
X153.75Y-66.25
X153.75Y-113.25
X153.8Y-72.
X153.8Y-119.
X154.Y-83.
X154.Y-130.
X156.25Y-73.
X156.25Y-120.
X156.5Y-66.5
X156.5Y-113.5
X156.75Y-68.75
X156.75Y-115.75
X158.6Y-63.4
X158.6Y-110.4
X158.7Y-80.
X158.7Y-127.
X159.5Y-83.825
X159.5Y-130.825
X161.Y-61.
X161.Y-62.5
X161.Y-108.
X161.Y-109.5
X161.5Y-52.
X161.5Y-86.75
X161.5Y-99.
X161.5Y-133.75
X161.918Y-83.825
X161.918Y-130.825
X162.Y-94.
X162.Y-141.
X162.875Y-70.1
X162.875Y-117.1
X163.Y-61.
X163.Y-108.
X163.347Y-84.878
X163.347Y-131.878
X164.Y-73.5
X164.Y-120.5
X164.01Y-78.8
X164.01Y-125.8
X164.025Y-71.
X164.025Y-118.
X164.15Y-75.275
X164.15Y-122.275
X164.26Y-81.26
X164.26Y-128.26
X165.Y-65.5
X165.Y-112.5
X166.5Y-85.1
X166.5Y-132.1
X169.Y-70.1
X169.Y-84.
X169.Y-117.1
X169.Y-131.
X170.5Y-53.
X170.5Y-100.
X171.75Y-55.5
X171.75Y-102.5
X173.Y-70.
X173.Y-80.
X173.Y-90.
X173.Y-94.
X173.Y-117.
X173.Y-127.
X173.Y-137.
X173.Y-141.
X177.Y-63.5
X177.Y-70.
X177.Y-80.
X177.Y-90.
X177.Y-94.
X177.Y-110.5
X177.Y-117.
X177.Y-127.
X177.Y-137.
X177.Y-141.
X179.2Y-74.7
X179.2Y-121.7
X181.5Y-69.
X181.5Y-116.
X183.15Y-85.
X183.15Y-132.
X183.3Y-75.5
X183.3Y-122.5
X183.553Y-69.394
X183.553Y-116.394
X184.5Y-68.5
X184.5Y-115.5
X184.5Y-63.5
X184.5Y-72.5
X184.5Y-76.8
X184.5Y-110.5
X184.5Y-119.5
X184.5Y-123.8
X186.4Y-73.8
X186.4Y-120.8
X187.Y-86.5
X187.Y-133.5
X187.5Y-70.119
X187.5Y-117.119
X187.75Y-81.1
X187.75Y-128.1
X188.Y-94.
X188.Y-141.
X188.5Y-78.
X188.5Y-86.75
X188.5Y-125.
X188.5Y-133.75
X189.297Y-81.775
X189.297Y-128.775
X189.5Y-63.5
X189.5Y-110.5
X189.9Y-67.
X189.9Y-114.
X190.062Y-79.422
X190.062Y-126.422
X193.2Y-73.
X193.2Y-120.
X193.25Y-75.
X193.25Y-122.
X194.8Y-77.4
X194.8Y-83.
X194.8Y-124.4
X194.8Y-130.
X195.5Y-81.775
X195.5Y-128.775
X195.75Y-66.25
X195.75Y-113.25
X195.8Y-72.
X195.8Y-119.
X196.Y-83.
X196.Y-130.
X198.25Y-73.
X198.25Y-120.
X198.5Y-66.5
X198.5Y-113.5
X198.75Y-68.75
X198.75Y-115.75
X200.6Y-63.4
X200.6Y-110.4
X200.7Y-80.
X200.7Y-127.
X201.5Y-83.825
X201.5Y-130.825
X203.Y-61.
X203.Y-62.5
X203.Y-108.
X203.Y-109.5
X203.5Y-52.
X203.5Y-86.75
X203.5Y-99.
X203.5Y-133.75
X203.918Y-83.825
X203.918Y-130.825
X204.Y-94.
X204.Y-141.
X204.875Y-70.1
X204.875Y-117.1
X205.Y-61.
X205.Y-108.
X205.347Y-84.878
X205.347Y-131.878
X206.Y-73.5
X206.Y-120.5
X206.01Y-78.8
X206.01Y-125.8
X206.025Y-71.
X206.025Y-118.
X206.15Y-75.275
X206.15Y-122.275
X206.26Y-81.26
X206.26Y-128.26
X207.Y-65.5
X207.Y-112.5
X208.5Y-85.1
X208.5Y-132.1
X211.Y-70.1
X211.Y-84.
X211.Y-117.1
X211.Y-131.
X212.5Y-53.
X212.5Y-100.
X213.75Y-55.5
X213.75Y-102.5
X215.Y-70.
X215.Y-80.
X215.Y-90.
X215.Y-94.
X215.Y-117.
X215.Y-127.
X215.Y-137.
X215.Y-141.
X111.6Y-137.15
X111.6Y-138.
X111.6Y-138.85
X112.4Y-137.15
X112.4Y-138.
X112.4Y-138.85
X195.6Y-90.15
X195.6Y-91.
X195.6Y-91.85
X196.4Y-90.15
X196.4Y-91.
X196.4Y-91.85
X69.6Y-137.15
X69.6Y-138.
X69.6Y-138.85
X70.4Y-137.15
X70.4Y-138.
X70.4Y-138.85
X195.6Y-137.15
X195.6Y-138.
X195.6Y-138.85
X196.4Y-137.15
X196.4Y-138.
X196.4Y-138.85
X111.6Y-90.15
X111.6Y-91.
X111.6Y-91.85
X112.4Y-90.15
X112.4Y-91.
X112.4Y-91.85
X153.6Y-137.15
X153.6Y-138.
X153.6Y-138.85
X154.4Y-137.15
X154.4Y-138.
X154.4Y-138.85
X153.6Y-90.15
X153.6Y-91.
X153.6Y-91.85
X154.4Y-90.15
X154.4Y-91.
X154.4Y-91.85
X69.6Y-90.15
X69.6Y-91.
X69.6Y-91.85
X70.4Y-90.15
X70.4Y-91.
X70.4Y-91.85
T2
X87.5Y-75.2
X129.5Y-78.5
X171.5Y-125.5
X171.5Y-78.5
X87.5Y-78.5
X129.5Y-75.2
X129.5Y-125.5
X87.5Y-125.5
X87.5Y-122.2
X213.5Y-78.5
X129.5Y-122.2
X171.5Y-122.2
X213.5Y-122.2
X213.5Y-125.5
X171.5Y-75.2
X213.5Y-75.2
T3
X55.5Y-53.75
X55.5Y-56.25
X55.5Y-58.75
X55.5Y-61.25
X60.5Y-53.75
X60.5Y-56.25
X60.5Y-58.75
X60.5Y-61.25
X181.5Y-53.75
X181.5Y-56.25
X181.5Y-58.75
X181.5Y-61.25
X186.5Y-53.75
X186.5Y-56.25
X186.5Y-58.75
X186.5Y-61.25
X139.5Y-53.75
X139.5Y-56.25
X139.5Y-58.75
X139.5Y-61.25
X144.5Y-53.75
X144.5Y-56.25
X144.5Y-58.75
X144.5Y-61.25
X55.5Y-100.75
X55.5Y-103.25
X55.5Y-105.75
X55.5Y-108.25
X60.5Y-100.75
X60.5Y-103.25
X60.5Y-105.75
X60.5Y-108.25
X181.5Y-100.75
X181.5Y-103.25
X181.5Y-105.75
X181.5Y-108.25
X186.5Y-100.75
X186.5Y-103.25
X186.5Y-105.75
X186.5Y-108.25
X139.5Y-100.75
X139.5Y-103.25
X139.5Y-105.75
X139.5Y-108.25
X144.5Y-100.75
X144.5Y-103.25
X144.5Y-105.75
X144.5Y-108.25
X97.5Y-100.75
X97.5Y-103.25
X97.5Y-105.75
X97.5Y-108.25
X102.5Y-100.75
X102.5Y-103.25
X102.5Y-105.75
X102.5Y-108.25
X97.5Y-53.75
X97.5Y-56.25
X97.5Y-58.75
X97.5Y-61.25
X102.5Y-53.75
X102.5Y-56.25
X102.5Y-58.75
X102.5Y-61.25
T0
M30
