%TF.GenerationSoftware,KiCad,Pcbnew,5.0.1-33cea8e~67~ubuntu18.04.1*%
%TF.CreationDate,2019-01-08T21:33:24+01:00*%
%TF.ProjectId,hvac-sensor-module,687661632D73656E736F722D6D6F6475,1.0*%
%TF.SameCoordinates,Original*%
%TF.FileFunction,Soldermask,Bot*%
%TF.FilePolarity,Negative*%
%FSLAX46Y46*%
G04 Gerber Fmt 4.6, Leading zero omitted, Abs format (unit mm)*
G04 Created by KiCad (PCBNEW 5.0.1-33cea8e~67~ubuntu18.04.1) date Di 08 Jan 2019 21:33:24 CET*
%MOMM*%
%LPD*%
G01*
G04 APERTURE LIST*
%ADD10C,0.100000*%
G04 APERTURE END LIST*
D10*
G36*
X148645845Y-123019215D02*
X148736839Y-123056906D01*
X148817640Y-123110896D01*
X148818734Y-123111627D01*
X148888373Y-123181266D01*
X148943095Y-123263163D01*
X148980785Y-123354155D01*
X149000000Y-123450755D01*
X149000000Y-123549245D01*
X148980785Y-123645845D01*
X148943095Y-123736837D01*
X148888373Y-123818734D01*
X148818734Y-123888373D01*
X148818731Y-123888375D01*
X148736839Y-123943094D01*
X148645845Y-123980785D01*
X148549246Y-124000000D01*
X148450754Y-124000000D01*
X148354155Y-123980785D01*
X148263161Y-123943094D01*
X148181269Y-123888375D01*
X148181266Y-123888373D01*
X148111627Y-123818734D01*
X148056905Y-123736837D01*
X148019215Y-123645845D01*
X148000000Y-123549245D01*
X148000000Y-123450755D01*
X148019215Y-123354155D01*
X148056905Y-123263163D01*
X148111627Y-123181266D01*
X148181266Y-123111627D01*
X148182360Y-123110896D01*
X148263161Y-123056906D01*
X148354155Y-123019215D01*
X148450754Y-123000000D01*
X148549246Y-123000000D01*
X148645845Y-123019215D01*
X148645845Y-123019215D01*
G37*
G36*
X141645845Y-123019215D02*
X141736839Y-123056906D01*
X141817640Y-123110896D01*
X141818734Y-123111627D01*
X141888373Y-123181266D01*
X141943095Y-123263163D01*
X141980785Y-123354155D01*
X142000000Y-123450755D01*
X142000000Y-123549245D01*
X141980785Y-123645845D01*
X141943095Y-123736837D01*
X141888373Y-123818734D01*
X141818734Y-123888373D01*
X141818731Y-123888375D01*
X141736839Y-123943094D01*
X141645845Y-123980785D01*
X141549246Y-124000000D01*
X141450754Y-124000000D01*
X141354155Y-123980785D01*
X141263161Y-123943094D01*
X141181269Y-123888375D01*
X141181266Y-123888373D01*
X141111627Y-123818734D01*
X141056905Y-123736837D01*
X141019215Y-123645845D01*
X141000000Y-123549245D01*
X141000000Y-123450755D01*
X141019215Y-123354155D01*
X141056905Y-123263163D01*
X141111627Y-123181266D01*
X141181266Y-123111627D01*
X141182360Y-123110896D01*
X141263161Y-123056906D01*
X141354155Y-123019215D01*
X141450754Y-123000000D01*
X141549246Y-123000000D01*
X141645845Y-123019215D01*
X141645845Y-123019215D01*
G37*
G36*
X145800000Y-123000000D02*
X144200000Y-123000000D01*
X144200000Y-119000000D01*
X145800000Y-119000000D01*
X145800000Y-123000000D01*
X145800000Y-123000000D01*
G37*
G36*
X127175770Y-112015372D02*
X127291689Y-112038429D01*
X127473678Y-112113811D01*
X127637463Y-112223249D01*
X127776751Y-112362537D01*
X127886189Y-112526322D01*
X127961571Y-112708311D01*
X128000000Y-112901509D01*
X128000000Y-113098491D01*
X127961571Y-113291689D01*
X127886189Y-113473678D01*
X127776751Y-113637463D01*
X127637463Y-113776751D01*
X127473678Y-113886189D01*
X127291689Y-113961571D01*
X127175770Y-113984628D01*
X127098493Y-114000000D01*
X126901507Y-114000000D01*
X126824230Y-113984628D01*
X126708311Y-113961571D01*
X126526322Y-113886189D01*
X126362537Y-113776751D01*
X126223249Y-113637463D01*
X126113811Y-113473678D01*
X126038429Y-113291689D01*
X126000000Y-113098491D01*
X126000000Y-112901509D01*
X126038429Y-112708311D01*
X126113811Y-112526322D01*
X126223249Y-112362537D01*
X126362537Y-112223249D01*
X126526322Y-112113811D01*
X126708311Y-112038429D01*
X126824230Y-112015372D01*
X126901507Y-112000000D01*
X127098493Y-112000000D01*
X127175770Y-112015372D01*
X127175770Y-112015372D01*
G37*
G36*
X163175770Y-112015372D02*
X163291689Y-112038429D01*
X163473678Y-112113811D01*
X163637463Y-112223249D01*
X163776751Y-112362537D01*
X163886189Y-112526322D01*
X163961571Y-112708311D01*
X164000000Y-112901509D01*
X164000000Y-113098491D01*
X163961571Y-113291689D01*
X163886189Y-113473678D01*
X163776751Y-113637463D01*
X163637463Y-113776751D01*
X163473678Y-113886189D01*
X163291689Y-113961571D01*
X163175770Y-113984628D01*
X163098493Y-114000000D01*
X162901507Y-114000000D01*
X162824230Y-113984628D01*
X162708311Y-113961571D01*
X162526322Y-113886189D01*
X162362537Y-113776751D01*
X162223249Y-113637463D01*
X162113811Y-113473678D01*
X162038429Y-113291689D01*
X162000000Y-113098491D01*
X162000000Y-112901509D01*
X162038429Y-112708311D01*
X162113811Y-112526322D01*
X162223249Y-112362537D01*
X162362537Y-112223249D01*
X162526322Y-112113811D01*
X162708311Y-112038429D01*
X162824230Y-112015372D01*
X162901507Y-112000000D01*
X163098493Y-112000000D01*
X163175770Y-112015372D01*
X163175770Y-112015372D01*
G37*
G36*
X158750000Y-110560000D02*
X155750000Y-110560000D01*
X155750000Y-109060000D01*
X158750000Y-109060000D01*
X158750000Y-110560000D01*
X158750000Y-110560000D01*
G37*
G36*
X154250000Y-109290000D02*
X151250000Y-109290000D01*
X151250000Y-107790000D01*
X154250000Y-107790000D01*
X154250000Y-109290000D01*
X154250000Y-109290000D01*
G37*
G36*
X163250000Y-109250000D02*
X161750000Y-109250000D01*
X161750000Y-107750000D01*
X163250000Y-107750000D01*
X163250000Y-109250000D01*
X163250000Y-109250000D01*
G37*
G36*
X158750000Y-108020000D02*
X155750000Y-108020000D01*
X155750000Y-106520000D01*
X158750000Y-106520000D01*
X158750000Y-108020000D01*
X158750000Y-108020000D01*
G37*
G36*
X130609384Y-106389411D02*
X130677629Y-106417679D01*
X130739049Y-106458719D01*
X130791281Y-106510951D01*
X130832321Y-106572371D01*
X130860589Y-106640616D01*
X130875000Y-106713065D01*
X130875000Y-106786935D01*
X130860589Y-106859384D01*
X130832321Y-106927629D01*
X130791281Y-106989049D01*
X130739049Y-107041281D01*
X130677629Y-107082321D01*
X130609384Y-107110589D01*
X130536935Y-107125000D01*
X130463065Y-107125000D01*
X130390616Y-107110589D01*
X130322371Y-107082321D01*
X130260951Y-107041281D01*
X130208719Y-106989049D01*
X130167679Y-106927629D01*
X130139411Y-106859384D01*
X130125000Y-106786935D01*
X130125000Y-106713065D01*
X130139411Y-106640616D01*
X130167679Y-106572371D01*
X130208719Y-106510951D01*
X130260951Y-106458719D01*
X130322371Y-106417679D01*
X130390616Y-106389411D01*
X130463065Y-106375000D01*
X130536935Y-106375000D01*
X130609384Y-106389411D01*
X130609384Y-106389411D01*
G37*
G36*
X136359384Y-106139411D02*
X136427629Y-106167679D01*
X136489049Y-106208719D01*
X136541281Y-106260951D01*
X136582321Y-106322371D01*
X136610589Y-106390616D01*
X136625000Y-106463065D01*
X136625000Y-106536935D01*
X136610589Y-106609384D01*
X136582321Y-106677629D01*
X136541281Y-106739049D01*
X136489049Y-106791281D01*
X136427629Y-106832321D01*
X136359384Y-106860589D01*
X136286935Y-106875000D01*
X136213065Y-106875000D01*
X136140616Y-106860589D01*
X136072371Y-106832321D01*
X136010951Y-106791281D01*
X135958719Y-106739049D01*
X135917679Y-106677629D01*
X135889411Y-106609384D01*
X135875000Y-106536935D01*
X135875000Y-106463065D01*
X135889411Y-106390616D01*
X135917679Y-106322371D01*
X135958719Y-106260951D01*
X136010951Y-106208719D01*
X136072371Y-106167679D01*
X136140616Y-106139411D01*
X136213065Y-106125000D01*
X136286935Y-106125000D01*
X136359384Y-106139411D01*
X136359384Y-106139411D01*
G37*
G36*
X154250000Y-106750000D02*
X151250000Y-106750000D01*
X151250000Y-105250000D01*
X154250000Y-105250000D01*
X154250000Y-106750000D01*
X154250000Y-106750000D01*
G37*
G36*
X162646318Y-104464411D02*
X162718767Y-104478822D01*
X162775303Y-104502240D01*
X162855257Y-104535358D01*
X162978100Y-104617439D01*
X163082561Y-104721900D01*
X163164642Y-104844743D01*
X163221178Y-104981234D01*
X163250000Y-105126130D01*
X163250000Y-105273870D01*
X163221178Y-105418766D01*
X163164642Y-105555257D01*
X163082561Y-105678100D01*
X162978100Y-105782561D01*
X162855257Y-105864642D01*
X162775303Y-105897760D01*
X162718767Y-105921178D01*
X162646318Y-105935589D01*
X162573870Y-105950000D01*
X162426130Y-105950000D01*
X162353682Y-105935589D01*
X162281233Y-105921178D01*
X162224697Y-105897760D01*
X162144743Y-105864642D01*
X162021900Y-105782561D01*
X161917439Y-105678100D01*
X161835358Y-105555257D01*
X161778822Y-105418766D01*
X161750000Y-105273870D01*
X161750000Y-105126130D01*
X161778822Y-104981234D01*
X161835358Y-104844743D01*
X161917439Y-104721900D01*
X162021900Y-104617439D01*
X162144743Y-104535358D01*
X162224697Y-104502240D01*
X162281233Y-104478822D01*
X162353682Y-104464411D01*
X162426130Y-104450000D01*
X162573870Y-104450000D01*
X162646318Y-104464411D01*
X162646318Y-104464411D01*
G37*
G36*
X158750000Y-105480000D02*
X155750000Y-105480000D01*
X155750000Y-103980000D01*
X158750000Y-103980000D01*
X158750000Y-105480000D01*
X158750000Y-105480000D01*
G37*
G36*
X145109384Y-104389411D02*
X145177629Y-104417679D01*
X145239049Y-104458719D01*
X145291281Y-104510951D01*
X145332321Y-104572371D01*
X145360589Y-104640616D01*
X145375000Y-104713065D01*
X145375000Y-104786935D01*
X145360589Y-104859384D01*
X145332321Y-104927629D01*
X145291281Y-104989049D01*
X145239049Y-105041281D01*
X145177629Y-105082321D01*
X145109384Y-105110589D01*
X145036935Y-105125000D01*
X144963065Y-105125000D01*
X144890616Y-105110589D01*
X144822371Y-105082321D01*
X144760951Y-105041281D01*
X144708719Y-104989049D01*
X144667679Y-104927629D01*
X144639411Y-104859384D01*
X144625000Y-104786935D01*
X144625000Y-104713065D01*
X144639411Y-104640616D01*
X144667679Y-104572371D01*
X144708719Y-104510951D01*
X144760951Y-104458719D01*
X144822371Y-104417679D01*
X144890616Y-104389411D01*
X144963065Y-104375000D01*
X145036935Y-104375000D01*
X145109384Y-104389411D01*
X145109384Y-104389411D01*
G37*
G36*
X154250000Y-104210000D02*
X151250000Y-104210000D01*
X151250000Y-102710000D01*
X154250000Y-102710000D01*
X154250000Y-104210000D01*
X154250000Y-104210000D01*
G37*
G36*
X130609384Y-102889411D02*
X130677629Y-102917679D01*
X130739049Y-102958719D01*
X130791281Y-103010951D01*
X130832321Y-103072371D01*
X130860589Y-103140616D01*
X130875000Y-103213065D01*
X130875000Y-103286935D01*
X130860589Y-103359384D01*
X130832321Y-103427629D01*
X130791281Y-103489049D01*
X130739049Y-103541281D01*
X130677629Y-103582321D01*
X130609384Y-103610589D01*
X130536935Y-103625000D01*
X130463065Y-103625000D01*
X130390616Y-103610589D01*
X130322371Y-103582321D01*
X130260951Y-103541281D01*
X130208719Y-103489049D01*
X130167679Y-103427629D01*
X130139411Y-103359384D01*
X130125000Y-103286935D01*
X130125000Y-103213065D01*
X130139411Y-103140616D01*
X130167679Y-103072371D01*
X130208719Y-103010951D01*
X130260951Y-102958719D01*
X130322371Y-102917679D01*
X130390616Y-102889411D01*
X130463065Y-102875000D01*
X130536935Y-102875000D01*
X130609384Y-102889411D01*
X130609384Y-102889411D01*
G37*
G36*
X158750000Y-102940000D02*
X155750000Y-102940000D01*
X155750000Y-101440000D01*
X158750000Y-101440000D01*
X158750000Y-102940000D01*
X158750000Y-102940000D01*
G37*
G36*
X154250000Y-101670000D02*
X151250000Y-101670000D01*
X151250000Y-100170000D01*
X154250000Y-100170000D01*
X154250000Y-101670000D01*
X154250000Y-101670000D01*
G37*
G36*
X130109384Y-95889411D02*
X130177629Y-95917679D01*
X130239049Y-95958719D01*
X130291281Y-96010951D01*
X130332321Y-96072371D01*
X130360589Y-96140616D01*
X130375000Y-96213065D01*
X130375000Y-96286935D01*
X130360589Y-96359384D01*
X130332321Y-96427629D01*
X130291281Y-96489049D01*
X130239049Y-96541281D01*
X130177629Y-96582321D01*
X130109384Y-96610589D01*
X130036935Y-96625000D01*
X129963065Y-96625000D01*
X129890616Y-96610589D01*
X129822371Y-96582321D01*
X129760951Y-96541281D01*
X129708719Y-96489049D01*
X129667679Y-96427629D01*
X129639411Y-96359384D01*
X129625000Y-96286935D01*
X129625000Y-96213065D01*
X129639411Y-96140616D01*
X129667679Y-96072371D01*
X129708719Y-96010951D01*
X129760951Y-95958719D01*
X129822371Y-95917679D01*
X129890616Y-95889411D01*
X129963065Y-95875000D01*
X130036935Y-95875000D01*
X130109384Y-95889411D01*
X130109384Y-95889411D01*
G37*
G36*
X147109384Y-95389411D02*
X147177629Y-95417679D01*
X147239049Y-95458719D01*
X147291281Y-95510951D01*
X147332321Y-95572371D01*
X147360589Y-95640616D01*
X147375000Y-95713065D01*
X147375000Y-95786935D01*
X147360589Y-95859384D01*
X147332321Y-95927629D01*
X147291281Y-95989049D01*
X147239049Y-96041281D01*
X147177629Y-96082321D01*
X147109384Y-96110589D01*
X147036935Y-96125000D01*
X146963065Y-96125000D01*
X146890616Y-96110589D01*
X146822371Y-96082321D01*
X146760951Y-96041281D01*
X146708719Y-95989049D01*
X146667679Y-95927629D01*
X146639411Y-95859384D01*
X146625000Y-95786935D01*
X146625000Y-95713065D01*
X146639411Y-95640616D01*
X146667679Y-95572371D01*
X146708719Y-95510951D01*
X146760951Y-95458719D01*
X146822371Y-95417679D01*
X146890616Y-95389411D01*
X146963065Y-95375000D01*
X147036935Y-95375000D01*
X147109384Y-95389411D01*
X147109384Y-95389411D01*
G37*
G36*
X130109384Y-94389411D02*
X130177629Y-94417679D01*
X130239049Y-94458719D01*
X130291281Y-94510951D01*
X130332321Y-94572371D01*
X130360589Y-94640616D01*
X130375000Y-94713065D01*
X130375000Y-94786935D01*
X130360589Y-94859384D01*
X130332321Y-94927629D01*
X130291281Y-94989049D01*
X130239049Y-95041281D01*
X130177629Y-95082321D01*
X130109384Y-95110589D01*
X130036935Y-95125000D01*
X129963065Y-95125000D01*
X129890616Y-95110589D01*
X129822371Y-95082321D01*
X129760951Y-95041281D01*
X129708719Y-94989049D01*
X129667679Y-94927629D01*
X129639411Y-94859384D01*
X129625000Y-94786935D01*
X129625000Y-94713065D01*
X129639411Y-94640616D01*
X129667679Y-94572371D01*
X129708719Y-94510951D01*
X129760951Y-94458719D01*
X129822371Y-94417679D01*
X129890616Y-94389411D01*
X129963065Y-94375000D01*
X130036935Y-94375000D01*
X130109384Y-94389411D01*
X130109384Y-94389411D01*
G37*
G36*
X135755228Y-90408625D02*
X135914467Y-90474584D01*
X136057783Y-90570345D01*
X136179655Y-90692217D01*
X136275416Y-90835533D01*
X136341375Y-90994772D01*
X136375000Y-91163819D01*
X136375000Y-91336181D01*
X136341375Y-91505228D01*
X136275416Y-91664467D01*
X136179655Y-91807783D01*
X136057783Y-91929655D01*
X135914467Y-92025416D01*
X135755228Y-92091375D01*
X135586181Y-92125000D01*
X135413819Y-92125000D01*
X135244772Y-92091375D01*
X135085533Y-92025416D01*
X134942217Y-91929655D01*
X134820345Y-91807783D01*
X134724584Y-91664467D01*
X134658625Y-91505228D01*
X134625000Y-91336181D01*
X134625000Y-91163819D01*
X134658625Y-90994772D01*
X134724584Y-90835533D01*
X134820345Y-90692217D01*
X134942217Y-90570345D01*
X135085533Y-90474584D01*
X135244772Y-90408625D01*
X135413819Y-90375000D01*
X135586181Y-90375000D01*
X135755228Y-90408625D01*
X135755228Y-90408625D01*
G37*
G36*
X130755228Y-90408625D02*
X130914467Y-90474584D01*
X131057783Y-90570345D01*
X131179655Y-90692217D01*
X131275416Y-90835533D01*
X131341375Y-90994772D01*
X131375000Y-91163819D01*
X131375000Y-91336181D01*
X131341375Y-91505228D01*
X131275416Y-91664467D01*
X131179655Y-91807783D01*
X131057783Y-91929655D01*
X130914467Y-92025416D01*
X130755228Y-92091375D01*
X130586181Y-92125000D01*
X130413819Y-92125000D01*
X130244772Y-92091375D01*
X130085533Y-92025416D01*
X129942217Y-91929655D01*
X129820345Y-91807783D01*
X129724584Y-91664467D01*
X129658625Y-91505228D01*
X129625000Y-91336181D01*
X129625000Y-91163819D01*
X129658625Y-90994772D01*
X129724584Y-90835533D01*
X129820345Y-90692217D01*
X129942217Y-90570345D01*
X130085533Y-90474584D01*
X130244772Y-90408625D01*
X130413819Y-90375000D01*
X130586181Y-90375000D01*
X130755228Y-90408625D01*
X130755228Y-90408625D01*
G37*
G36*
X130755228Y-87908625D02*
X130914467Y-87974584D01*
X131057783Y-88070345D01*
X131179655Y-88192217D01*
X131275416Y-88335533D01*
X131341375Y-88494772D01*
X131375000Y-88663819D01*
X131375000Y-88836181D01*
X131341375Y-89005228D01*
X131275416Y-89164467D01*
X131179655Y-89307783D01*
X131057783Y-89429655D01*
X130914467Y-89525416D01*
X130755228Y-89591375D01*
X130586181Y-89625000D01*
X130413819Y-89625000D01*
X130244772Y-89591375D01*
X130085533Y-89525416D01*
X129942217Y-89429655D01*
X129820345Y-89307783D01*
X129724584Y-89164467D01*
X129658625Y-89005228D01*
X129625000Y-88836181D01*
X129625000Y-88663819D01*
X129658625Y-88494772D01*
X129724584Y-88335533D01*
X129820345Y-88192217D01*
X129942217Y-88070345D01*
X130085533Y-87974584D01*
X130244772Y-87908625D01*
X130413819Y-87875000D01*
X130586181Y-87875000D01*
X130755228Y-87908625D01*
X130755228Y-87908625D01*
G37*
G36*
X135755228Y-87908625D02*
X135914467Y-87974584D01*
X136057783Y-88070345D01*
X136179655Y-88192217D01*
X136275416Y-88335533D01*
X136341375Y-88494772D01*
X136375000Y-88663819D01*
X136375000Y-88836181D01*
X136341375Y-89005228D01*
X136275416Y-89164467D01*
X136179655Y-89307783D01*
X136057783Y-89429655D01*
X135914467Y-89525416D01*
X135755228Y-89591375D01*
X135586181Y-89625000D01*
X135413819Y-89625000D01*
X135244772Y-89591375D01*
X135085533Y-89525416D01*
X134942217Y-89429655D01*
X134820345Y-89307783D01*
X134724584Y-89164467D01*
X134658625Y-89005228D01*
X134625000Y-88836181D01*
X134625000Y-88663819D01*
X134658625Y-88494772D01*
X134724584Y-88335533D01*
X134820345Y-88192217D01*
X134942217Y-88070345D01*
X135085533Y-87974584D01*
X135244772Y-87908625D01*
X135413819Y-87875000D01*
X135586181Y-87875000D01*
X135755228Y-87908625D01*
X135755228Y-87908625D01*
G37*
G36*
X130755228Y-85408625D02*
X130914467Y-85474584D01*
X131057783Y-85570345D01*
X131179655Y-85692217D01*
X131275416Y-85835533D01*
X131341375Y-85994772D01*
X131375000Y-86163819D01*
X131375000Y-86336181D01*
X131341375Y-86505228D01*
X131275416Y-86664467D01*
X131179655Y-86807783D01*
X131057783Y-86929655D01*
X130914467Y-87025416D01*
X130755228Y-87091375D01*
X130586181Y-87125000D01*
X130413819Y-87125000D01*
X130244772Y-87091375D01*
X130085533Y-87025416D01*
X129942217Y-86929655D01*
X129820345Y-86807783D01*
X129724584Y-86664467D01*
X129658625Y-86505228D01*
X129625000Y-86336181D01*
X129625000Y-86163819D01*
X129658625Y-85994772D01*
X129724584Y-85835533D01*
X129820345Y-85692217D01*
X129942217Y-85570345D01*
X130085533Y-85474584D01*
X130244772Y-85408625D01*
X130413819Y-85375000D01*
X130586181Y-85375000D01*
X130755228Y-85408625D01*
X130755228Y-85408625D01*
G37*
G36*
X135755228Y-85408625D02*
X135914467Y-85474584D01*
X136057783Y-85570345D01*
X136179655Y-85692217D01*
X136275416Y-85835533D01*
X136341375Y-85994772D01*
X136375000Y-86163819D01*
X136375000Y-86336181D01*
X136341375Y-86505228D01*
X136275416Y-86664467D01*
X136179655Y-86807783D01*
X136057783Y-86929655D01*
X135914467Y-87025416D01*
X135755228Y-87091375D01*
X135586181Y-87125000D01*
X135413819Y-87125000D01*
X135244772Y-87091375D01*
X135085533Y-87025416D01*
X134942217Y-86929655D01*
X134820345Y-86807783D01*
X134724584Y-86664467D01*
X134658625Y-86505228D01*
X134625000Y-86336181D01*
X134625000Y-86163819D01*
X134658625Y-85994772D01*
X134724584Y-85835533D01*
X134820345Y-85692217D01*
X134942217Y-85570345D01*
X135085533Y-85474584D01*
X135244772Y-85408625D01*
X135413819Y-85375000D01*
X135586181Y-85375000D01*
X135755228Y-85408625D01*
X135755228Y-85408625D01*
G37*
G36*
X130755228Y-82908625D02*
X130914467Y-82974584D01*
X131057783Y-83070345D01*
X131179655Y-83192217D01*
X131275416Y-83335533D01*
X131341375Y-83494772D01*
X131375000Y-83663819D01*
X131375000Y-83836181D01*
X131341375Y-84005228D01*
X131275416Y-84164467D01*
X131179655Y-84307783D01*
X131057783Y-84429655D01*
X130914467Y-84525416D01*
X130755228Y-84591375D01*
X130586181Y-84625000D01*
X130413819Y-84625000D01*
X130244772Y-84591375D01*
X130085533Y-84525416D01*
X129942217Y-84429655D01*
X129820345Y-84307783D01*
X129724584Y-84164467D01*
X129658625Y-84005228D01*
X129625000Y-83836181D01*
X129625000Y-83663819D01*
X129658625Y-83494772D01*
X129724584Y-83335533D01*
X129820345Y-83192217D01*
X129942217Y-83070345D01*
X130085533Y-82974584D01*
X130244772Y-82908625D01*
X130413819Y-82875000D01*
X130586181Y-82875000D01*
X130755228Y-82908625D01*
X130755228Y-82908625D01*
G37*
G36*
X135755228Y-82908625D02*
X135914467Y-82974584D01*
X136057783Y-83070345D01*
X136179655Y-83192217D01*
X136275416Y-83335533D01*
X136341375Y-83494772D01*
X136375000Y-83663819D01*
X136375000Y-83836181D01*
X136341375Y-84005228D01*
X136275416Y-84164467D01*
X136179655Y-84307783D01*
X136057783Y-84429655D01*
X135914467Y-84525416D01*
X135755228Y-84591375D01*
X135586181Y-84625000D01*
X135413819Y-84625000D01*
X135244772Y-84591375D01*
X135085533Y-84525416D01*
X134942217Y-84429655D01*
X134820345Y-84307783D01*
X134724584Y-84164467D01*
X134658625Y-84005228D01*
X134625000Y-83836181D01*
X134625000Y-83663819D01*
X134658625Y-83494772D01*
X134724584Y-83335533D01*
X134820345Y-83192217D01*
X134942217Y-83070345D01*
X135085533Y-82974584D01*
X135244772Y-82908625D01*
X135413819Y-82875000D01*
X135586181Y-82875000D01*
X135755228Y-82908625D01*
X135755228Y-82908625D01*
G37*
G36*
X127175770Y-81015372D02*
X127291689Y-81038429D01*
X127473678Y-81113811D01*
X127637463Y-81223249D01*
X127776751Y-81362537D01*
X127886189Y-81526322D01*
X127961571Y-81708311D01*
X127984259Y-81822371D01*
X128000000Y-81901507D01*
X128000000Y-82098493D01*
X127984628Y-82175770D01*
X127961571Y-82291689D01*
X127886189Y-82473678D01*
X127776751Y-82637463D01*
X127637463Y-82776751D01*
X127473678Y-82886189D01*
X127291689Y-82961571D01*
X127175770Y-82984628D01*
X127098493Y-83000000D01*
X126901507Y-83000000D01*
X126824230Y-82984628D01*
X126708311Y-82961571D01*
X126526322Y-82886189D01*
X126362537Y-82776751D01*
X126223249Y-82637463D01*
X126113811Y-82473678D01*
X126038429Y-82291689D01*
X126015372Y-82175770D01*
X126000000Y-82098493D01*
X126000000Y-81901507D01*
X126015741Y-81822371D01*
X126038429Y-81708311D01*
X126113811Y-81526322D01*
X126223249Y-81362537D01*
X126362537Y-81223249D01*
X126526322Y-81113811D01*
X126708311Y-81038429D01*
X126824230Y-81015372D01*
X126901507Y-81000000D01*
X127098493Y-81000000D01*
X127175770Y-81015372D01*
X127175770Y-81015372D01*
G37*
G36*
X163175770Y-81015372D02*
X163291689Y-81038429D01*
X163473678Y-81113811D01*
X163637463Y-81223249D01*
X163776751Y-81362537D01*
X163886189Y-81526322D01*
X163961571Y-81708311D01*
X163984259Y-81822371D01*
X164000000Y-81901507D01*
X164000000Y-82098493D01*
X163984628Y-82175770D01*
X163961571Y-82291689D01*
X163886189Y-82473678D01*
X163776751Y-82637463D01*
X163637463Y-82776751D01*
X163473678Y-82886189D01*
X163291689Y-82961571D01*
X163175770Y-82984628D01*
X163098493Y-83000000D01*
X162901507Y-83000000D01*
X162824230Y-82984628D01*
X162708311Y-82961571D01*
X162526322Y-82886189D01*
X162362537Y-82776751D01*
X162223249Y-82637463D01*
X162113811Y-82473678D01*
X162038429Y-82291689D01*
X162015372Y-82175770D01*
X162000000Y-82098493D01*
X162000000Y-81901507D01*
X162015741Y-81822371D01*
X162038429Y-81708311D01*
X162113811Y-81526322D01*
X162223249Y-81362537D01*
X162362537Y-81223249D01*
X162526322Y-81113811D01*
X162708311Y-81038429D01*
X162824230Y-81015372D01*
X162901507Y-81000000D01*
X163098493Y-81000000D01*
X163175770Y-81015372D01*
X163175770Y-81015372D01*
G37*
G36*
X154109384Y-81639411D02*
X154177629Y-81667679D01*
X154239049Y-81708719D01*
X154291281Y-81760951D01*
X154332321Y-81822371D01*
X154360589Y-81890616D01*
X154375000Y-81963065D01*
X154375000Y-82036935D01*
X154360589Y-82109384D01*
X154332321Y-82177629D01*
X154291281Y-82239049D01*
X154239049Y-82291281D01*
X154177629Y-82332321D01*
X154109384Y-82360589D01*
X154036935Y-82375000D01*
X153963065Y-82375000D01*
X153890616Y-82360589D01*
X153822371Y-82332321D01*
X153760951Y-82291281D01*
X153708719Y-82239049D01*
X153667679Y-82177629D01*
X153639411Y-82109384D01*
X153625000Y-82036935D01*
X153625000Y-81963065D01*
X153639411Y-81890616D01*
X153667679Y-81822371D01*
X153708719Y-81760951D01*
X153760951Y-81708719D01*
X153822371Y-81667679D01*
X153890616Y-81639411D01*
X153963065Y-81625000D01*
X154036935Y-81625000D01*
X154109384Y-81639411D01*
X154109384Y-81639411D01*
G37*
M02*
