M48
;DRILL file {KiCad 5.0.1-33cea8e~67~ubuntu18.04.1} date Di 08 Jan 2019 21:33:35 CET
;FORMAT={-:-/ absolute / metric / decimal}
FMAT,2
METRIC,TZ
T1C0.400
T2C0.700
T3C1.000
%
G90
G05
M71
T1
X126.Y-93.5
X126.Y-100.
X126.Y-110.
X126.Y-120.
X126.Y-124.
X128.75Y-104.7
X130.5Y-99.
X132.15Y-115.
X132.3Y-105.5
X132.725Y-99.433
X133.5Y-98.5
X133.5Y-102.5
X133.5Y-106.8
X133.625Y-93.5
X135.4Y-103.8
X136.Y-116.5
X136.5Y-100.119
X136.75Y-111.1
X137.Y-124.
X137.5Y-108.
X137.5Y-116.75
X138.297Y-111.775
X138.5Y-93.5
X138.9Y-97.
X139.062Y-109.422
X142.2Y-103.
X142.25Y-105.
X143.25Y-107.75
X143.8Y-113.
X144.5Y-111.775
X144.75Y-96.25
X145.Y-113.
X146.Y-102.25
X147.Y-104.474
X147.Y-97.25
X147.Y-105.5
X147.25Y-103.
X147.75Y-98.75
X149.6Y-93.4
X149.7Y-110.
X150.5Y-113.825
X151.5Y-108.54
X152.Y-91.
X152.Y-92.5
X152.5Y-82.
X152.5Y-116.75
X152.918Y-113.825
X153.Y-91.
X153.Y-124.
X153.875Y-100.1
X154.Y-91.
X154.347Y-114.878
X155.Y-103.5
X155.Y-112.5
X155.01Y-108.8
X155.025Y-101.
X155.15Y-105.275
X155.26Y-111.26
X156.Y-95.5
X157.5Y-115.1
X160.Y-100.1
X160.Y-114.
X161.5Y-83.
X162.8Y-85.4
X164.Y-100.
X164.Y-110.
X164.Y-120.
X164.Y-124.
X144.6Y-120.15
X144.6Y-121.
X144.6Y-121.85
X145.4Y-120.15
X145.4Y-121.
X145.4Y-121.85
T2
X162.5Y-105.2
X162.5Y-108.5
T3
X130.5Y-83.75
X130.5Y-86.25
X130.5Y-88.75
X130.5Y-91.25
X135.5Y-83.75
X135.5Y-86.25
X135.5Y-88.75
X135.5Y-91.25
T0
M30
