%TF.GenerationSoftware,KiCad,Pcbnew,5.0.1-33cea8e~67~ubuntu18.04.1*%
%TF.CreationDate,2019-01-08T21:33:24+01:00*%
%TF.ProjectId,hvac-sensor-module,687661632D73656E736F722D6D6F6475,1.0*%
%TF.SameCoordinates,Original*%
%TF.FileFunction,Legend,Top*%
%TF.FilePolarity,Positive*%
%FSLAX46Y46*%
G04 Gerber Fmt 4.6, Leading zero omitted, Abs format (unit mm)*
G04 Created by KiCad (PCBNEW 5.0.1-33cea8e~67~ubuntu18.04.1) date Di 08 Jan 2019 21:33:24 CET*
%MOMM*%
%LPD*%
G01*
G04 APERTURE LIST*
%ADD10C,0.200000*%
%ADD11C,0.150000*%
%ADD12C,0.120000*%
%ADD13C,0.300000*%
G04 APERTURE END LIST*
D10*
X130250000Y-96250000D02*
X129750000Y-97000000D01*
D11*
X146200000Y-116689285D02*
X146450000Y-117439285D01*
X146700000Y-116689285D01*
X143696428Y-116725000D02*
X143625000Y-116689285D01*
X143517857Y-116689285D01*
X143410714Y-116725000D01*
X143339285Y-116796428D01*
X143303571Y-116867857D01*
X143267857Y-117010714D01*
X143267857Y-117117857D01*
X143303571Y-117260714D01*
X143339285Y-117332142D01*
X143410714Y-117403571D01*
X143517857Y-117439285D01*
X143589285Y-117439285D01*
X143696428Y-117403571D01*
X143732142Y-117367857D01*
X143732142Y-117117857D01*
X143589285Y-117117857D01*
X144303571Y-117439285D02*
X144303571Y-116689285D01*
X144482142Y-116689285D01*
X144589285Y-116725000D01*
X144660714Y-116796428D01*
X144696428Y-116867857D01*
X144732142Y-117010714D01*
X144732142Y-117117857D01*
X144696428Y-117260714D01*
X144660714Y-117332142D01*
X144589285Y-117403571D01*
X144482142Y-117439285D01*
X144303571Y-117439285D01*
X145732142Y-117367857D02*
X145696428Y-117403571D01*
X145589285Y-117439285D01*
X145517857Y-117439285D01*
X145410714Y-117403571D01*
X145339285Y-117332142D01*
X145303571Y-117260714D01*
X145267857Y-117117857D01*
X145267857Y-117010714D01*
X145303571Y-116867857D01*
X145339285Y-116796428D01*
X145410714Y-116725000D01*
X145517857Y-116689285D01*
X145589285Y-116689285D01*
X145696428Y-116725000D01*
X145732142Y-116760714D01*
D12*
X156800000Y-90000000D02*
X156800000Y-91500000D01*
X156800000Y-98010000D02*
X156800000Y-96510000D01*
X156800000Y-90000000D02*
X158300000Y-90000000D01*
X156800000Y-98000000D02*
X158300000Y-98000000D01*
X163200000Y-98000000D02*
X161700000Y-98000000D01*
X163200000Y-98000000D02*
X163200000Y-96500000D01*
X163200000Y-90000000D02*
X163200000Y-91500000D01*
X163200000Y-90000000D02*
X161700000Y-90000000D01*
D11*
X131600000Y-108700000D02*
X128300000Y-108700000D01*
X131600000Y-111300000D02*
X128400000Y-111300000D01*
X127700000Y-110300000D02*
X127700000Y-109700000D01*
X132300000Y-109700000D02*
X132300000Y-110300000D01*
D12*
X145171267Y-88010000D02*
X144828733Y-88010000D01*
X145171267Y-86990000D02*
X144828733Y-86990000D01*
D11*
X128400000Y-122300000D02*
X131700000Y-122300000D01*
X128400000Y-119700000D02*
X131600000Y-119700000D01*
X132300000Y-120700000D02*
X132300000Y-121300000D01*
X127700000Y-121300000D02*
X127700000Y-120700000D01*
X158400000Y-122300000D02*
X161700000Y-122300000D01*
X158400000Y-119700000D02*
X161600000Y-119700000D01*
X162300000Y-120700000D02*
X162300000Y-121300000D01*
X157700000Y-121300000D02*
X157700000Y-120700000D01*
D13*
X159200000Y-87000000D02*
X160800000Y-87000000D01*
D11*
X159200000Y-84000000D02*
X160700000Y-84000000D01*
X128900000Y-103550000D02*
X129100000Y-103750000D01*
X129100000Y-103750000D02*
X128900000Y-103950000D01*
X128900000Y-103950000D02*
X128900000Y-105250000D01*
X132100000Y-105250000D02*
X132100000Y-102250000D01*
X128900000Y-102250000D02*
X128900000Y-103550000D01*
D12*
X132080000Y-98240000D02*
X132080000Y-99700000D01*
X128920000Y-98240000D02*
X128920000Y-101200000D01*
X128920000Y-98240000D02*
X129850000Y-98240000D01*
X132080000Y-98240000D02*
X131150000Y-98240000D01*
X161485000Y-114265000D02*
X159200000Y-114265000D01*
X161485000Y-115735000D02*
X161485000Y-114265000D01*
X159200000Y-115735000D02*
X161485000Y-115735000D01*
X130800000Y-114265000D02*
X128515000Y-114265000D01*
X128515000Y-114265000D02*
X128515000Y-115735000D01*
X128515000Y-115735000D02*
X130800000Y-115735000D01*
X135421267Y-120760000D02*
X135078733Y-120760000D01*
X135421267Y-119740000D02*
X135078733Y-119740000D01*
X131490000Y-94578733D02*
X131490000Y-94921267D01*
X132510000Y-94578733D02*
X132510000Y-94921267D01*
X128490000Y-94921267D02*
X128490000Y-94578733D01*
X129510000Y-94921267D02*
X129510000Y-94578733D01*
X130171267Y-115990000D02*
X129828733Y-115990000D01*
X130171267Y-117010000D02*
X129828733Y-117010000D01*
X159828733Y-115990000D02*
X160171267Y-115990000D01*
X159828733Y-117010000D02*
X160171267Y-117010000D01*
X151490000Y-111578733D02*
X151490000Y-111921267D01*
X152510000Y-111578733D02*
X152510000Y-111921267D01*
X154010000Y-111578733D02*
X154010000Y-111921267D01*
X152990000Y-111578733D02*
X152990000Y-111921267D01*
X154578733Y-120760000D02*
X154921267Y-120760000D01*
X154578733Y-119740000D02*
X154921267Y-119740000D01*
X134260000Y-109828733D02*
X134260000Y-110171267D01*
X133240000Y-109828733D02*
X133240000Y-110171267D01*
X157750000Y-89500000D02*
X157750000Y-87500000D01*
X157750000Y-87500000D02*
X153250000Y-87500000D01*
X157750000Y-89500000D02*
X153250000Y-89500000D01*
X148560000Y-101190000D02*
X148560000Y-101610000D01*
X148560000Y-108310000D02*
X148560000Y-107890000D01*
X141440000Y-108310000D02*
X141440000Y-107890000D01*
X141440000Y-101190000D02*
X141860000Y-101190000D01*
X148560000Y-108310000D02*
X148140000Y-108310000D01*
X148560000Y-101190000D02*
X148140000Y-101190000D01*
X141440000Y-101610000D02*
X140060000Y-101610000D01*
X141440000Y-101190000D02*
X141440000Y-101610000D01*
X141440000Y-108310000D02*
X141860000Y-108310000D01*
X150830000Y-83740000D02*
X150830000Y-85200000D01*
X147670000Y-83740000D02*
X147670000Y-85900000D01*
X147670000Y-83740000D02*
X148600000Y-83740000D01*
X150830000Y-83740000D02*
X149900000Y-83740000D01*
X157671267Y-82510000D02*
X157328733Y-82510000D01*
X157671267Y-81490000D02*
X157328733Y-81490000D01*
X155602064Y-85860000D02*
X154397936Y-85860000D01*
X155602064Y-83140000D02*
X154397936Y-83140000D01*
X162990000Y-87671267D02*
X162990000Y-87328733D01*
X164010000Y-87671267D02*
X164010000Y-87328733D01*
X153090000Y-94602064D02*
X153090000Y-93397936D01*
X154910000Y-94602064D02*
X154910000Y-93397936D01*
X149010000Y-120828733D02*
X149010000Y-121171267D01*
X147990000Y-120828733D02*
X147990000Y-121171267D01*
X135421267Y-122260000D02*
X135078733Y-122260000D01*
X135421267Y-121240000D02*
X135078733Y-121240000D01*
X142238748Y-96290000D02*
X142761252Y-96290000D01*
X142238748Y-97710000D02*
X142761252Y-97710000D01*
X134990000Y-109828733D02*
X134990000Y-110171267D01*
X136010000Y-109828733D02*
X136010000Y-110171267D01*
X154578733Y-121240000D02*
X154921267Y-121240000D01*
X154578733Y-122260000D02*
X154921267Y-122260000D01*
X147671267Y-110240000D02*
X147328733Y-110240000D01*
X147671267Y-111260000D02*
X147328733Y-111260000D01*
X142328733Y-98240000D02*
X142671267Y-98240000D01*
X142328733Y-99260000D02*
X142671267Y-99260000D01*
X150490000Y-102078733D02*
X150490000Y-102421267D01*
X151510000Y-102078733D02*
X151510000Y-102421267D01*
X152040000Y-101988748D02*
X152040000Y-102511252D01*
X153460000Y-101988748D02*
X153460000Y-102511252D01*
X139510000Y-105921267D02*
X139510000Y-105578733D01*
X138490000Y-105921267D02*
X138490000Y-105578733D01*
X136540000Y-106011252D02*
X136540000Y-105488748D01*
X137960000Y-106011252D02*
X137960000Y-105488748D01*
X130671267Y-106240000D02*
X130328733Y-106240000D01*
X130671267Y-107260000D02*
X130328733Y-107260000D01*
X131010000Y-94578733D02*
X131010000Y-94921267D01*
X129990000Y-94578733D02*
X129990000Y-94921267D01*
X147761252Y-113210000D02*
X147238748Y-113210000D01*
X147761252Y-111790000D02*
X147238748Y-111790000D01*
D11*
X147200000Y-115300000D02*
X142800000Y-115300000D01*
X142800000Y-115300000D02*
X142800000Y-113700000D01*
X142800000Y-113700000D02*
X147200000Y-113700000D01*
X147200000Y-115300000D02*
X147200000Y-113700000D01*
X146100000Y-115300000D02*
X146100000Y-113700000D01*
X146100000Y-119300000D02*
X146100000Y-117700000D01*
X147200000Y-119300000D02*
X147200000Y-117700000D01*
X142800000Y-117700000D02*
X147200000Y-117700000D01*
X142800000Y-119300000D02*
X142800000Y-117700000D01*
X147200000Y-119300000D02*
X142800000Y-119300000D01*
D12*
X163450000Y-105200000D02*
G75*
G03X163450000Y-105200000I-950000J0D01*
G01*
X161550000Y-107550000D02*
X163450000Y-107550000D01*
X163450000Y-107550000D02*
X163450000Y-109450000D01*
X163450000Y-109450000D02*
X161550000Y-109450000D01*
X161550000Y-109450000D02*
X161550000Y-107550000D01*
X142150000Y-80900000D02*
X137850000Y-80900000D01*
X137850000Y-80900000D02*
X137850000Y-88200000D01*
X142150000Y-80900000D02*
X142150000Y-88200000D01*
X141850000Y-114500000D02*
G75*
G03X141850000Y-114500000I-600000J0D01*
G01*
X140350000Y-114500000D02*
G75*
G03X140350000Y-114500000I-600000J0D01*
G01*
X138850000Y-114500000D02*
G75*
G03X138850000Y-114500000I-600000J0D01*
G01*
X137350000Y-114500000D02*
G75*
G03X137350000Y-114500000I-600000J0D01*
G01*
X135850000Y-114500000D02*
G75*
G03X135850000Y-114500000I-600000J0D01*
G01*
X144150000Y-84350000D02*
X144150000Y-83400000D01*
X146750000Y-84350000D02*
X144150000Y-84350000D01*
X144150000Y-82100000D02*
X144150000Y-81300000D01*
D11*
X164452380Y-94166666D02*
X164452380Y-94642857D01*
X163452380Y-94642857D01*
X164452380Y-93309523D02*
X164452380Y-93880952D01*
X164452380Y-93595238D02*
X163452380Y-93595238D01*
X163595238Y-93690476D01*
X163690476Y-93785714D01*
X163738095Y-93880952D01*
X128666666Y-112654761D02*
X128809523Y-112702380D01*
X129047619Y-112702380D01*
X129142857Y-112654761D01*
X129190476Y-112607142D01*
X129238095Y-112511904D01*
X129238095Y-112416666D01*
X129190476Y-112321428D01*
X129142857Y-112273809D01*
X129047619Y-112226190D01*
X128857142Y-112178571D01*
X128761904Y-112130952D01*
X128714285Y-112083333D01*
X128666666Y-111988095D01*
X128666666Y-111892857D01*
X128714285Y-111797619D01*
X128761904Y-111750000D01*
X128857142Y-111702380D01*
X129095238Y-111702380D01*
X129238095Y-111750000D01*
X129571428Y-111702380D02*
X129809523Y-112702380D01*
X130000000Y-111988095D01*
X130190476Y-112702380D01*
X130428571Y-111702380D01*
X130761904Y-111797619D02*
X130809523Y-111750000D01*
X130904761Y-111702380D01*
X131142857Y-111702380D01*
X131238095Y-111750000D01*
X131285714Y-111797619D01*
X131333333Y-111892857D01*
X131333333Y-111988095D01*
X131285714Y-112130952D01*
X130714285Y-112702380D01*
X131333333Y-112702380D01*
X144833333Y-89382380D02*
X144500000Y-88906190D01*
X144261904Y-89382380D02*
X144261904Y-88382380D01*
X144642857Y-88382380D01*
X144738095Y-88430000D01*
X144785714Y-88477619D01*
X144833333Y-88572857D01*
X144833333Y-88715714D01*
X144785714Y-88810952D01*
X144738095Y-88858571D01*
X144642857Y-88906190D01*
X144261904Y-88906190D01*
X145785714Y-89382380D02*
X145214285Y-89382380D01*
X145500000Y-89382380D02*
X145500000Y-88382380D01*
X145404761Y-88525238D01*
X145309523Y-88620476D01*
X145214285Y-88668095D01*
X144238095Y-123452380D02*
X144238095Y-124261904D01*
X144285714Y-124357142D01*
X144333333Y-124404761D01*
X144428571Y-124452380D01*
X144619047Y-124452380D01*
X144714285Y-124404761D01*
X144761904Y-124357142D01*
X144809523Y-124261904D01*
X144809523Y-123452380D01*
X145238095Y-123547619D02*
X145285714Y-123500000D01*
X145380952Y-123452380D01*
X145619047Y-123452380D01*
X145714285Y-123500000D01*
X145761904Y-123547619D01*
X145809523Y-123642857D01*
X145809523Y-123738095D01*
X145761904Y-123880952D01*
X145190476Y-124452380D01*
X145809523Y-124452380D01*
X128666666Y-123904761D02*
X128809523Y-123952380D01*
X129047619Y-123952380D01*
X129142857Y-123904761D01*
X129190476Y-123857142D01*
X129238095Y-123761904D01*
X129238095Y-123666666D01*
X129190476Y-123571428D01*
X129142857Y-123523809D01*
X129047619Y-123476190D01*
X128857142Y-123428571D01*
X128761904Y-123380952D01*
X128714285Y-123333333D01*
X128666666Y-123238095D01*
X128666666Y-123142857D01*
X128714285Y-123047619D01*
X128761904Y-123000000D01*
X128857142Y-122952380D01*
X129095238Y-122952380D01*
X129238095Y-123000000D01*
X129571428Y-122952380D02*
X129809523Y-123952380D01*
X130000000Y-123238095D01*
X130190476Y-123952380D01*
X130428571Y-122952380D01*
X131333333Y-123952380D02*
X130761904Y-123952380D01*
X131047619Y-123952380D02*
X131047619Y-122952380D01*
X130952380Y-123095238D01*
X130857142Y-123190476D01*
X130761904Y-123238095D01*
X158666666Y-123904761D02*
X158809523Y-123952380D01*
X159047619Y-123952380D01*
X159142857Y-123904761D01*
X159190476Y-123857142D01*
X159238095Y-123761904D01*
X159238095Y-123666666D01*
X159190476Y-123571428D01*
X159142857Y-123523809D01*
X159047619Y-123476190D01*
X158857142Y-123428571D01*
X158761904Y-123380952D01*
X158714285Y-123333333D01*
X158666666Y-123238095D01*
X158666666Y-123142857D01*
X158714285Y-123047619D01*
X158761904Y-123000000D01*
X158857142Y-122952380D01*
X159095238Y-122952380D01*
X159238095Y-123000000D01*
X159571428Y-122952380D02*
X159809523Y-123952380D01*
X160000000Y-123238095D01*
X160190476Y-123952380D01*
X160428571Y-122952380D01*
X160714285Y-122952380D02*
X161333333Y-122952380D01*
X161000000Y-123333333D01*
X161142857Y-123333333D01*
X161238095Y-123380952D01*
X161285714Y-123428571D01*
X161333333Y-123523809D01*
X161333333Y-123761904D01*
X161285714Y-123857142D01*
X161238095Y-123904761D01*
X161142857Y-123952380D01*
X160857142Y-123952380D01*
X160761904Y-123904761D01*
X160714285Y-123857142D01*
X159238095Y-87452380D02*
X159238095Y-88261904D01*
X159285714Y-88357142D01*
X159333333Y-88404761D01*
X159428571Y-88452380D01*
X159619047Y-88452380D01*
X159714285Y-88404761D01*
X159761904Y-88357142D01*
X159809523Y-88261904D01*
X159809523Y-87452380D01*
X160809523Y-88452380D02*
X160238095Y-88452380D01*
X160523809Y-88452380D02*
X160523809Y-87452380D01*
X160428571Y-87595238D01*
X160333333Y-87690476D01*
X160238095Y-87738095D01*
D10*
X127352380Y-104511904D02*
X128161904Y-104511904D01*
X128257142Y-104464285D01*
X128304761Y-104416666D01*
X128352380Y-104321428D01*
X128352380Y-104130952D01*
X128304761Y-104035714D01*
X128257142Y-103988095D01*
X128161904Y-103940476D01*
X127352380Y-103940476D01*
X127352380Y-102988095D02*
X127352380Y-103464285D01*
X127828571Y-103511904D01*
X127780952Y-103464285D01*
X127733333Y-103369047D01*
X127733333Y-103130952D01*
X127780952Y-103035714D01*
X127828571Y-102988095D01*
X127923809Y-102940476D01*
X128161904Y-102940476D01*
X128257142Y-102988095D01*
X128304761Y-103035714D01*
X128352380Y-103130952D01*
X128352380Y-103369047D01*
X128304761Y-103464285D01*
X128257142Y-103511904D01*
D11*
X128452380Y-99738095D02*
X127452380Y-99738095D01*
X127452380Y-99500000D01*
X127500000Y-99357142D01*
X127595238Y-99261904D01*
X127690476Y-99214285D01*
X127880952Y-99166666D01*
X128023809Y-99166666D01*
X128214285Y-99214285D01*
X128309523Y-99261904D01*
X128404761Y-99357142D01*
X128452380Y-99500000D01*
X128452380Y-99738095D01*
X127785714Y-98309523D02*
X128452380Y-98309523D01*
X127404761Y-98547619D02*
X128119047Y-98785714D01*
X128119047Y-98166666D01*
X162261904Y-115452380D02*
X162261904Y-114452380D01*
X162500000Y-114452380D01*
X162642857Y-114500000D01*
X162738095Y-114595238D01*
X162785714Y-114690476D01*
X162833333Y-114880952D01*
X162833333Y-115023809D01*
X162785714Y-115214285D01*
X162738095Y-115309523D01*
X162642857Y-115404761D01*
X162500000Y-115452380D01*
X162261904Y-115452380D01*
X163738095Y-114452380D02*
X163261904Y-114452380D01*
X163214285Y-114928571D01*
X163261904Y-114880952D01*
X163357142Y-114833333D01*
X163595238Y-114833333D01*
X163690476Y-114880952D01*
X163738095Y-114928571D01*
X163785714Y-115023809D01*
X163785714Y-115261904D01*
X163738095Y-115357142D01*
X163690476Y-115404761D01*
X163595238Y-115452380D01*
X163357142Y-115452380D01*
X163261904Y-115404761D01*
X163214285Y-115357142D01*
X129261904Y-114022380D02*
X129261904Y-113022380D01*
X129500000Y-113022380D01*
X129642857Y-113070000D01*
X129738095Y-113165238D01*
X129785714Y-113260476D01*
X129833333Y-113450952D01*
X129833333Y-113593809D01*
X129785714Y-113784285D01*
X129738095Y-113879523D01*
X129642857Y-113974761D01*
X129500000Y-114022380D01*
X129261904Y-114022380D01*
X130690476Y-113022380D02*
X130500000Y-113022380D01*
X130404761Y-113070000D01*
X130357142Y-113117619D01*
X130261904Y-113260476D01*
X130214285Y-113450952D01*
X130214285Y-113831904D01*
X130261904Y-113927142D01*
X130309523Y-113974761D01*
X130404761Y-114022380D01*
X130595238Y-114022380D01*
X130690476Y-113974761D01*
X130738095Y-113927142D01*
X130785714Y-113831904D01*
X130785714Y-113593809D01*
X130738095Y-113498571D01*
X130690476Y-113450952D01*
X130595238Y-113403333D01*
X130404761Y-113403333D01*
X130309523Y-113450952D01*
X130261904Y-113498571D01*
X130214285Y-113593809D01*
X135083333Y-119452380D02*
X134750000Y-118976190D01*
X134511904Y-119452380D02*
X134511904Y-118452380D01*
X134892857Y-118452380D01*
X134988095Y-118500000D01*
X135035714Y-118547619D01*
X135083333Y-118642857D01*
X135083333Y-118785714D01*
X135035714Y-118880952D01*
X134988095Y-118928571D01*
X134892857Y-118976190D01*
X134511904Y-118976190D01*
X135940476Y-118452380D02*
X135750000Y-118452380D01*
X135654761Y-118500000D01*
X135607142Y-118547619D01*
X135511904Y-118690476D01*
X135464285Y-118880952D01*
X135464285Y-119261904D01*
X135511904Y-119357142D01*
X135559523Y-119404761D01*
X135654761Y-119452380D01*
X135845238Y-119452380D01*
X135940476Y-119404761D01*
X135988095Y-119357142D01*
X136035714Y-119261904D01*
X136035714Y-119023809D01*
X135988095Y-118928571D01*
X135940476Y-118880952D01*
X135845238Y-118833333D01*
X135654761Y-118833333D01*
X135559523Y-118880952D01*
X135511904Y-118928571D01*
X135464285Y-119023809D01*
X133882380Y-95392857D02*
X133406190Y-95726190D01*
X133882380Y-95964285D02*
X132882380Y-95964285D01*
X132882380Y-95583333D01*
X132930000Y-95488095D01*
X132977619Y-95440476D01*
X133072857Y-95392857D01*
X133215714Y-95392857D01*
X133310952Y-95440476D01*
X133358571Y-95488095D01*
X133406190Y-95583333D01*
X133406190Y-95964285D01*
X133882380Y-94440476D02*
X133882380Y-95011904D01*
X133882380Y-94726190D02*
X132882380Y-94726190D01*
X133025238Y-94821428D01*
X133120476Y-94916666D01*
X133168095Y-95011904D01*
X133882380Y-93488095D02*
X133882380Y-94059523D01*
X133882380Y-93773809D02*
X132882380Y-93773809D01*
X133025238Y-93869047D01*
X133120476Y-93964285D01*
X133168095Y-94059523D01*
X128022380Y-95392857D02*
X127546190Y-95726190D01*
X128022380Y-95964285D02*
X127022380Y-95964285D01*
X127022380Y-95583333D01*
X127070000Y-95488095D01*
X127117619Y-95440476D01*
X127212857Y-95392857D01*
X127355714Y-95392857D01*
X127450952Y-95440476D01*
X127498571Y-95488095D01*
X127546190Y-95583333D01*
X127546190Y-95964285D01*
X128022380Y-94440476D02*
X128022380Y-95011904D01*
X128022380Y-94726190D02*
X127022380Y-94726190D01*
X127165238Y-94821428D01*
X127260476Y-94916666D01*
X127308095Y-95011904D01*
X127022380Y-93821428D02*
X127022380Y-93726190D01*
X127070000Y-93630952D01*
X127117619Y-93583333D01*
X127212857Y-93535714D01*
X127403333Y-93488095D01*
X127641428Y-93488095D01*
X127831904Y-93535714D01*
X127927142Y-93583333D01*
X127974761Y-93630952D01*
X128022380Y-93726190D01*
X128022380Y-93821428D01*
X127974761Y-93916666D01*
X127927142Y-93964285D01*
X127831904Y-94011904D01*
X127641428Y-94059523D01*
X127403333Y-94059523D01*
X127212857Y-94011904D01*
X127117619Y-93964285D01*
X127070000Y-93916666D01*
X127022380Y-93821428D01*
X129833333Y-118382380D02*
X129500000Y-117906190D01*
X129261904Y-118382380D02*
X129261904Y-117382380D01*
X129642857Y-117382380D01*
X129738095Y-117430000D01*
X129785714Y-117477619D01*
X129833333Y-117572857D01*
X129833333Y-117715714D01*
X129785714Y-117810952D01*
X129738095Y-117858571D01*
X129642857Y-117906190D01*
X129261904Y-117906190D01*
X130309523Y-118382380D02*
X130500000Y-118382380D01*
X130595238Y-118334761D01*
X130642857Y-118287142D01*
X130738095Y-118144285D01*
X130785714Y-117953809D01*
X130785714Y-117572857D01*
X130738095Y-117477619D01*
X130690476Y-117430000D01*
X130595238Y-117382380D01*
X130404761Y-117382380D01*
X130309523Y-117430000D01*
X130261904Y-117477619D01*
X130214285Y-117572857D01*
X130214285Y-117810952D01*
X130261904Y-117906190D01*
X130309523Y-117953809D01*
X130404761Y-118001428D01*
X130595238Y-118001428D01*
X130690476Y-117953809D01*
X130738095Y-117906190D01*
X130785714Y-117810952D01*
X159833333Y-118452380D02*
X159500000Y-117976190D01*
X159261904Y-118452380D02*
X159261904Y-117452380D01*
X159642857Y-117452380D01*
X159738095Y-117500000D01*
X159785714Y-117547619D01*
X159833333Y-117642857D01*
X159833333Y-117785714D01*
X159785714Y-117880952D01*
X159738095Y-117928571D01*
X159642857Y-117976190D01*
X159261904Y-117976190D01*
X160404761Y-117880952D02*
X160309523Y-117833333D01*
X160261904Y-117785714D01*
X160214285Y-117690476D01*
X160214285Y-117642857D01*
X160261904Y-117547619D01*
X160309523Y-117500000D01*
X160404761Y-117452380D01*
X160595238Y-117452380D01*
X160690476Y-117500000D01*
X160738095Y-117547619D01*
X160785714Y-117642857D01*
X160785714Y-117690476D01*
X160738095Y-117785714D01*
X160690476Y-117833333D01*
X160595238Y-117880952D01*
X160404761Y-117880952D01*
X160309523Y-117928571D01*
X160261904Y-117976190D01*
X160214285Y-118071428D01*
X160214285Y-118261904D01*
X160261904Y-118357142D01*
X160309523Y-118404761D01*
X160404761Y-118452380D01*
X160595238Y-118452380D01*
X160690476Y-118404761D01*
X160738095Y-118357142D01*
X160785714Y-118261904D01*
X160785714Y-118071428D01*
X160738095Y-117976190D01*
X160690476Y-117928571D01*
X160595238Y-117880952D01*
X151202380Y-111916666D02*
X150726190Y-112250000D01*
X151202380Y-112488095D02*
X150202380Y-112488095D01*
X150202380Y-112107142D01*
X150250000Y-112011904D01*
X150297619Y-111964285D01*
X150392857Y-111916666D01*
X150535714Y-111916666D01*
X150630952Y-111964285D01*
X150678571Y-112011904D01*
X150726190Y-112107142D01*
X150726190Y-112488095D01*
X150202380Y-111011904D02*
X150202380Y-111488095D01*
X150678571Y-111535714D01*
X150630952Y-111488095D01*
X150583333Y-111392857D01*
X150583333Y-111154761D01*
X150630952Y-111059523D01*
X150678571Y-111011904D01*
X150773809Y-110964285D01*
X151011904Y-110964285D01*
X151107142Y-111011904D01*
X151154761Y-111059523D01*
X151202380Y-111154761D01*
X151202380Y-111392857D01*
X151154761Y-111488095D01*
X151107142Y-111535714D01*
X153952380Y-109416666D02*
X153476190Y-109750000D01*
X153952380Y-109988095D02*
X152952380Y-109988095D01*
X152952380Y-109607142D01*
X153000000Y-109511904D01*
X153047619Y-109464285D01*
X153142857Y-109416666D01*
X153285714Y-109416666D01*
X153380952Y-109464285D01*
X153428571Y-109511904D01*
X153476190Y-109607142D01*
X153476190Y-109988095D01*
X153285714Y-108559523D02*
X153952380Y-108559523D01*
X152904761Y-108797619D02*
X153619047Y-109035714D01*
X153619047Y-108416666D01*
X154583333Y-119272380D02*
X154250000Y-118796190D01*
X154011904Y-119272380D02*
X154011904Y-118272380D01*
X154392857Y-118272380D01*
X154488095Y-118320000D01*
X154535714Y-118367619D01*
X154583333Y-118462857D01*
X154583333Y-118605714D01*
X154535714Y-118700952D01*
X154488095Y-118748571D01*
X154392857Y-118796190D01*
X154011904Y-118796190D01*
X154916666Y-118272380D02*
X155583333Y-118272380D01*
X155154761Y-119272380D01*
X134202380Y-112916666D02*
X133726190Y-113250000D01*
X134202380Y-113488095D02*
X133202380Y-113488095D01*
X133202380Y-113107142D01*
X133250000Y-113011904D01*
X133297619Y-112964285D01*
X133392857Y-112916666D01*
X133535714Y-112916666D01*
X133630952Y-112964285D01*
X133678571Y-113011904D01*
X133726190Y-113107142D01*
X133726190Y-113488095D01*
X133202380Y-112583333D02*
X133202380Y-111964285D01*
X133583333Y-112297619D01*
X133583333Y-112154761D01*
X133630952Y-112059523D01*
X133678571Y-112011904D01*
X133773809Y-111964285D01*
X134011904Y-111964285D01*
X134107142Y-112011904D01*
X134154761Y-112059523D01*
X134202380Y-112154761D01*
X134202380Y-112440476D01*
X134154761Y-112535714D01*
X134107142Y-112583333D01*
X154161904Y-90952380D02*
X154161904Y-89952380D01*
X154400000Y-89952380D01*
X154542857Y-90000000D01*
X154638095Y-90095238D01*
X154685714Y-90190476D01*
X154733333Y-90380952D01*
X154733333Y-90523809D01*
X154685714Y-90714285D01*
X154638095Y-90809523D01*
X154542857Y-90904761D01*
X154400000Y-90952380D01*
X154161904Y-90952380D01*
X155066666Y-89952380D02*
X155685714Y-89952380D01*
X155352380Y-90333333D01*
X155495238Y-90333333D01*
X155590476Y-90380952D01*
X155638095Y-90428571D01*
X155685714Y-90523809D01*
X155685714Y-90761904D01*
X155638095Y-90857142D01*
X155590476Y-90904761D01*
X155495238Y-90952380D01*
X155209523Y-90952380D01*
X155114285Y-90904761D01*
X155066666Y-90857142D01*
X144238095Y-98202380D02*
X144238095Y-99011904D01*
X144285714Y-99107142D01*
X144333333Y-99154761D01*
X144428571Y-99202380D01*
X144619047Y-99202380D01*
X144714285Y-99154761D01*
X144761904Y-99107142D01*
X144809523Y-99011904D01*
X144809523Y-98202380D01*
X145190476Y-98202380D02*
X145809523Y-98202380D01*
X145476190Y-98583333D01*
X145619047Y-98583333D01*
X145714285Y-98630952D01*
X145761904Y-98678571D01*
X145809523Y-98773809D01*
X145809523Y-99011904D01*
X145761904Y-99107142D01*
X145714285Y-99154761D01*
X145619047Y-99202380D01*
X145333333Y-99202380D01*
X145238095Y-99154761D01*
X145190476Y-99107142D01*
X148511904Y-88202380D02*
X148511904Y-87202380D01*
X148750000Y-87202380D01*
X148892857Y-87250000D01*
X148988095Y-87345238D01*
X149035714Y-87440476D01*
X149083333Y-87630952D01*
X149083333Y-87773809D01*
X149035714Y-87964285D01*
X148988095Y-88059523D01*
X148892857Y-88154761D01*
X148750000Y-88202380D01*
X148511904Y-88202380D01*
X149464285Y-87297619D02*
X149511904Y-87250000D01*
X149607142Y-87202380D01*
X149845238Y-87202380D01*
X149940476Y-87250000D01*
X149988095Y-87297619D01*
X150035714Y-87392857D01*
X150035714Y-87488095D01*
X149988095Y-87630952D01*
X149416666Y-88202380D01*
X150035714Y-88202380D01*
X157333333Y-83882380D02*
X157000000Y-83406190D01*
X156761904Y-83882380D02*
X156761904Y-82882380D01*
X157142857Y-82882380D01*
X157238095Y-82930000D01*
X157285714Y-82977619D01*
X157333333Y-83072857D01*
X157333333Y-83215714D01*
X157285714Y-83310952D01*
X157238095Y-83358571D01*
X157142857Y-83406190D01*
X156761904Y-83406190D01*
X157714285Y-82977619D02*
X157761904Y-82930000D01*
X157857142Y-82882380D01*
X158095238Y-82882380D01*
X158190476Y-82930000D01*
X158238095Y-82977619D01*
X158285714Y-83072857D01*
X158285714Y-83168095D01*
X158238095Y-83310952D01*
X157666666Y-83882380D01*
X158285714Y-83882380D01*
X154083333Y-82607142D02*
X154035714Y-82654761D01*
X153892857Y-82702380D01*
X153797619Y-82702380D01*
X153654761Y-82654761D01*
X153559523Y-82559523D01*
X153511904Y-82464285D01*
X153464285Y-82273809D01*
X153464285Y-82130952D01*
X153511904Y-81940476D01*
X153559523Y-81845238D01*
X153654761Y-81750000D01*
X153797619Y-81702380D01*
X153892857Y-81702380D01*
X154035714Y-81750000D01*
X154083333Y-81797619D01*
X155035714Y-82702380D02*
X154464285Y-82702380D01*
X154750000Y-82702380D02*
X154750000Y-81702380D01*
X154654761Y-81845238D01*
X154559523Y-81940476D01*
X154464285Y-81988095D01*
X164107142Y-85166666D02*
X164154761Y-85214285D01*
X164202380Y-85357142D01*
X164202380Y-85452380D01*
X164154761Y-85595238D01*
X164059523Y-85690476D01*
X163964285Y-85738095D01*
X163773809Y-85785714D01*
X163630952Y-85785714D01*
X163440476Y-85738095D01*
X163345238Y-85690476D01*
X163250000Y-85595238D01*
X163202380Y-85452380D01*
X163202380Y-85357142D01*
X163250000Y-85214285D01*
X163297619Y-85166666D01*
X163297619Y-84785714D02*
X163250000Y-84738095D01*
X163202380Y-84642857D01*
X163202380Y-84404761D01*
X163250000Y-84309523D01*
X163297619Y-84261904D01*
X163392857Y-84214285D01*
X163488095Y-84214285D01*
X163630952Y-84261904D01*
X164202380Y-84833333D01*
X164202380Y-84214285D01*
X156357142Y-94166666D02*
X156404761Y-94214285D01*
X156452380Y-94357142D01*
X156452380Y-94452380D01*
X156404761Y-94595238D01*
X156309523Y-94690476D01*
X156214285Y-94738095D01*
X156023809Y-94785714D01*
X155880952Y-94785714D01*
X155690476Y-94738095D01*
X155595238Y-94690476D01*
X155500000Y-94595238D01*
X155452380Y-94452380D01*
X155452380Y-94357142D01*
X155500000Y-94214285D01*
X155547619Y-94166666D01*
X155452380Y-93833333D02*
X155452380Y-93214285D01*
X155833333Y-93547619D01*
X155833333Y-93404761D01*
X155880952Y-93309523D01*
X155928571Y-93261904D01*
X156023809Y-93214285D01*
X156261904Y-93214285D01*
X156357142Y-93261904D01*
X156404761Y-93309523D01*
X156452380Y-93404761D01*
X156452380Y-93690476D01*
X156404761Y-93785714D01*
X156357142Y-93833333D01*
X148333333Y-119357142D02*
X148285714Y-119404761D01*
X148142857Y-119452380D01*
X148047619Y-119452380D01*
X147904761Y-119404761D01*
X147809523Y-119309523D01*
X147761904Y-119214285D01*
X147714285Y-119023809D01*
X147714285Y-118880952D01*
X147761904Y-118690476D01*
X147809523Y-118595238D01*
X147904761Y-118500000D01*
X148047619Y-118452380D01*
X148142857Y-118452380D01*
X148285714Y-118500000D01*
X148333333Y-118547619D01*
X149238095Y-118452380D02*
X148761904Y-118452380D01*
X148714285Y-118928571D01*
X148761904Y-118880952D01*
X148857142Y-118833333D01*
X149095238Y-118833333D01*
X149190476Y-118880952D01*
X149238095Y-118928571D01*
X149285714Y-119023809D01*
X149285714Y-119261904D01*
X149238095Y-119357142D01*
X149190476Y-119404761D01*
X149095238Y-119452380D01*
X148857142Y-119452380D01*
X148761904Y-119404761D01*
X148714285Y-119357142D01*
X135083333Y-123537142D02*
X135035714Y-123584761D01*
X134892857Y-123632380D01*
X134797619Y-123632380D01*
X134654761Y-123584761D01*
X134559523Y-123489523D01*
X134511904Y-123394285D01*
X134464285Y-123203809D01*
X134464285Y-123060952D01*
X134511904Y-122870476D01*
X134559523Y-122775238D01*
X134654761Y-122680000D01*
X134797619Y-122632380D01*
X134892857Y-122632380D01*
X135035714Y-122680000D01*
X135083333Y-122727619D01*
X135940476Y-122632380D02*
X135750000Y-122632380D01*
X135654761Y-122680000D01*
X135607142Y-122727619D01*
X135511904Y-122870476D01*
X135464285Y-123060952D01*
X135464285Y-123441904D01*
X135511904Y-123537142D01*
X135559523Y-123584761D01*
X135654761Y-123632380D01*
X135845238Y-123632380D01*
X135940476Y-123584761D01*
X135988095Y-123537142D01*
X136035714Y-123441904D01*
X136035714Y-123203809D01*
X135988095Y-123108571D01*
X135940476Y-123060952D01*
X135845238Y-123013333D01*
X135654761Y-123013333D01*
X135559523Y-123060952D01*
X135511904Y-123108571D01*
X135464285Y-123203809D01*
X141857142Y-95707142D02*
X141809523Y-95754761D01*
X141666666Y-95802380D01*
X141571428Y-95802380D01*
X141428571Y-95754761D01*
X141333333Y-95659523D01*
X141285714Y-95564285D01*
X141238095Y-95373809D01*
X141238095Y-95230952D01*
X141285714Y-95040476D01*
X141333333Y-94945238D01*
X141428571Y-94850000D01*
X141571428Y-94802380D01*
X141666666Y-94802380D01*
X141809523Y-94850000D01*
X141857142Y-94897619D01*
X142809523Y-95802380D02*
X142238095Y-95802380D01*
X142523809Y-95802380D02*
X142523809Y-94802380D01*
X142428571Y-94945238D01*
X142333333Y-95040476D01*
X142238095Y-95088095D01*
X143666666Y-95135714D02*
X143666666Y-95802380D01*
X143428571Y-94754761D02*
X143190476Y-95469047D01*
X143809523Y-95469047D01*
X137357142Y-110166666D02*
X137404761Y-110214285D01*
X137452380Y-110357142D01*
X137452380Y-110452380D01*
X137404761Y-110595238D01*
X137309523Y-110690476D01*
X137214285Y-110738095D01*
X137023809Y-110785714D01*
X136880952Y-110785714D01*
X136690476Y-110738095D01*
X136595238Y-110690476D01*
X136500000Y-110595238D01*
X136452380Y-110452380D01*
X136452380Y-110357142D01*
X136500000Y-110214285D01*
X136547619Y-110166666D01*
X136880952Y-109595238D02*
X136833333Y-109690476D01*
X136785714Y-109738095D01*
X136690476Y-109785714D01*
X136642857Y-109785714D01*
X136547619Y-109738095D01*
X136500000Y-109690476D01*
X136452380Y-109595238D01*
X136452380Y-109404761D01*
X136500000Y-109309523D01*
X136547619Y-109261904D01*
X136642857Y-109214285D01*
X136690476Y-109214285D01*
X136785714Y-109261904D01*
X136833333Y-109309523D01*
X136880952Y-109404761D01*
X136880952Y-109595238D01*
X136928571Y-109690476D01*
X136976190Y-109738095D01*
X137071428Y-109785714D01*
X137261904Y-109785714D01*
X137357142Y-109738095D01*
X137404761Y-109690476D01*
X137452380Y-109595238D01*
X137452380Y-109404761D01*
X137404761Y-109309523D01*
X137357142Y-109261904D01*
X137261904Y-109214285D01*
X137071428Y-109214285D01*
X136976190Y-109261904D01*
X136928571Y-109309523D01*
X136880952Y-109404761D01*
X154583333Y-123557142D02*
X154535714Y-123604761D01*
X154392857Y-123652380D01*
X154297619Y-123652380D01*
X154154761Y-123604761D01*
X154059523Y-123509523D01*
X154011904Y-123414285D01*
X153964285Y-123223809D01*
X153964285Y-123080952D01*
X154011904Y-122890476D01*
X154059523Y-122795238D01*
X154154761Y-122700000D01*
X154297619Y-122652380D01*
X154392857Y-122652380D01*
X154535714Y-122700000D01*
X154583333Y-122747619D01*
X155059523Y-123652380D02*
X155250000Y-123652380D01*
X155345238Y-123604761D01*
X155392857Y-123557142D01*
X155488095Y-123414285D01*
X155535714Y-123223809D01*
X155535714Y-122842857D01*
X155488095Y-122747619D01*
X155440476Y-122700000D01*
X155345238Y-122652380D01*
X155154761Y-122652380D01*
X155059523Y-122700000D01*
X155011904Y-122747619D01*
X154964285Y-122842857D01*
X154964285Y-123080952D01*
X155011904Y-123176190D01*
X155059523Y-123223809D01*
X155154761Y-123271428D01*
X155345238Y-123271428D01*
X155440476Y-123223809D01*
X155488095Y-123176190D01*
X155535714Y-123080952D01*
X143857142Y-111107142D02*
X143809523Y-111154761D01*
X143666666Y-111202380D01*
X143571428Y-111202380D01*
X143428571Y-111154761D01*
X143333333Y-111059523D01*
X143285714Y-110964285D01*
X143238095Y-110773809D01*
X143238095Y-110630952D01*
X143285714Y-110440476D01*
X143333333Y-110345238D01*
X143428571Y-110250000D01*
X143571428Y-110202380D01*
X143666666Y-110202380D01*
X143809523Y-110250000D01*
X143857142Y-110297619D01*
X144809523Y-111202380D02*
X144238095Y-111202380D01*
X144523809Y-111202380D02*
X144523809Y-110202380D01*
X144428571Y-110345238D01*
X144333333Y-110440476D01*
X144238095Y-110488095D01*
X145761904Y-111202380D02*
X145190476Y-111202380D01*
X145476190Y-111202380D02*
X145476190Y-110202380D01*
X145380952Y-110345238D01*
X145285714Y-110440476D01*
X145190476Y-110488095D01*
X138857142Y-99107142D02*
X138809523Y-99154761D01*
X138666666Y-99202380D01*
X138571428Y-99202380D01*
X138428571Y-99154761D01*
X138333333Y-99059523D01*
X138285714Y-98964285D01*
X138238095Y-98773809D01*
X138238095Y-98630952D01*
X138285714Y-98440476D01*
X138333333Y-98345238D01*
X138428571Y-98250000D01*
X138571428Y-98202380D01*
X138666666Y-98202380D01*
X138809523Y-98250000D01*
X138857142Y-98297619D01*
X139809523Y-99202380D02*
X139238095Y-99202380D01*
X139523809Y-99202380D02*
X139523809Y-98202380D01*
X139428571Y-98345238D01*
X139333333Y-98440476D01*
X139238095Y-98488095D01*
X140190476Y-98297619D02*
X140238095Y-98250000D01*
X140333333Y-98202380D01*
X140571428Y-98202380D01*
X140666666Y-98250000D01*
X140714285Y-98297619D01*
X140761904Y-98392857D01*
X140761904Y-98488095D01*
X140714285Y-98630952D01*
X140142857Y-99202380D01*
X140761904Y-99202380D01*
X151357142Y-99642857D02*
X151404761Y-99690476D01*
X151452380Y-99833333D01*
X151452380Y-99928571D01*
X151404761Y-100071428D01*
X151309523Y-100166666D01*
X151214285Y-100214285D01*
X151023809Y-100261904D01*
X150880952Y-100261904D01*
X150690476Y-100214285D01*
X150595238Y-100166666D01*
X150500000Y-100071428D01*
X150452380Y-99928571D01*
X150452380Y-99833333D01*
X150500000Y-99690476D01*
X150547619Y-99642857D01*
X151452380Y-98690476D02*
X151452380Y-99261904D01*
X151452380Y-98976190D02*
X150452380Y-98976190D01*
X150595238Y-99071428D01*
X150690476Y-99166666D01*
X150738095Y-99261904D01*
X150452380Y-98071428D02*
X150452380Y-97976190D01*
X150500000Y-97880952D01*
X150547619Y-97833333D01*
X150642857Y-97785714D01*
X150833333Y-97738095D01*
X151071428Y-97738095D01*
X151261904Y-97785714D01*
X151357142Y-97833333D01*
X151404761Y-97880952D01*
X151452380Y-97976190D01*
X151452380Y-98071428D01*
X151404761Y-98166666D01*
X151357142Y-98214285D01*
X151261904Y-98261904D01*
X151071428Y-98309523D01*
X150833333Y-98309523D01*
X150642857Y-98261904D01*
X150547619Y-98214285D01*
X150500000Y-98166666D01*
X150452380Y-98071428D01*
X153107142Y-99642857D02*
X153154761Y-99690476D01*
X153202380Y-99833333D01*
X153202380Y-99928571D01*
X153154761Y-100071428D01*
X153059523Y-100166666D01*
X152964285Y-100214285D01*
X152773809Y-100261904D01*
X152630952Y-100261904D01*
X152440476Y-100214285D01*
X152345238Y-100166666D01*
X152250000Y-100071428D01*
X152202380Y-99928571D01*
X152202380Y-99833333D01*
X152250000Y-99690476D01*
X152297619Y-99642857D01*
X153202380Y-98690476D02*
X153202380Y-99261904D01*
X153202380Y-98976190D02*
X152202380Y-98976190D01*
X152345238Y-99071428D01*
X152440476Y-99166666D01*
X152488095Y-99261904D01*
X152202380Y-97785714D02*
X152202380Y-98261904D01*
X152678571Y-98309523D01*
X152630952Y-98261904D01*
X152583333Y-98166666D01*
X152583333Y-97928571D01*
X152630952Y-97833333D01*
X152678571Y-97785714D01*
X152773809Y-97738095D01*
X153011904Y-97738095D01*
X153107142Y-97785714D01*
X153154761Y-97833333D01*
X153202380Y-97928571D01*
X153202380Y-98166666D01*
X153154761Y-98261904D01*
X153107142Y-98309523D01*
X139357142Y-102916666D02*
X139404761Y-102964285D01*
X139452380Y-103107142D01*
X139452380Y-103202380D01*
X139404761Y-103345238D01*
X139309523Y-103440476D01*
X139214285Y-103488095D01*
X139023809Y-103535714D01*
X138880952Y-103535714D01*
X138690476Y-103488095D01*
X138595238Y-103440476D01*
X138500000Y-103345238D01*
X138452380Y-103202380D01*
X138452380Y-103107142D01*
X138500000Y-102964285D01*
X138547619Y-102916666D01*
X138785714Y-102059523D02*
X139452380Y-102059523D01*
X138404761Y-102297619D02*
X139119047Y-102535714D01*
X139119047Y-101916666D01*
X137607142Y-103142857D02*
X137654761Y-103190476D01*
X137702380Y-103333333D01*
X137702380Y-103428571D01*
X137654761Y-103571428D01*
X137559523Y-103666666D01*
X137464285Y-103714285D01*
X137273809Y-103761904D01*
X137130952Y-103761904D01*
X136940476Y-103714285D01*
X136845238Y-103666666D01*
X136750000Y-103571428D01*
X136702380Y-103428571D01*
X136702380Y-103333333D01*
X136750000Y-103190476D01*
X136797619Y-103142857D01*
X137702380Y-102190476D02*
X137702380Y-102761904D01*
X137702380Y-102476190D02*
X136702380Y-102476190D01*
X136845238Y-102571428D01*
X136940476Y-102666666D01*
X136988095Y-102761904D01*
X136702380Y-101857142D02*
X136702380Y-101190476D01*
X137702380Y-101619047D01*
X128607142Y-106916666D02*
X128654761Y-106964285D01*
X128702380Y-107107142D01*
X128702380Y-107202380D01*
X128654761Y-107345238D01*
X128559523Y-107440476D01*
X128464285Y-107488095D01*
X128273809Y-107535714D01*
X128130952Y-107535714D01*
X127940476Y-107488095D01*
X127845238Y-107440476D01*
X127750000Y-107345238D01*
X127702380Y-107202380D01*
X127702380Y-107107142D01*
X127750000Y-106964285D01*
X127797619Y-106916666D01*
X127702380Y-106583333D02*
X127702380Y-105916666D01*
X128702380Y-106345238D01*
X127607142Y-97607142D02*
X127559523Y-97654761D01*
X127416666Y-97702380D01*
X127321428Y-97702380D01*
X127178571Y-97654761D01*
X127083333Y-97559523D01*
X127035714Y-97464285D01*
X126988095Y-97273809D01*
X126988095Y-97130952D01*
X127035714Y-96940476D01*
X127083333Y-96845238D01*
X127178571Y-96750000D01*
X127321428Y-96702380D01*
X127416666Y-96702380D01*
X127559523Y-96750000D01*
X127607142Y-96797619D01*
X128559523Y-97702380D02*
X127988095Y-97702380D01*
X128273809Y-97702380D02*
X128273809Y-96702380D01*
X128178571Y-96845238D01*
X128083333Y-96940476D01*
X127988095Y-96988095D01*
X128892857Y-96702380D02*
X129511904Y-96702380D01*
X129178571Y-97083333D01*
X129321428Y-97083333D01*
X129416666Y-97130952D01*
X129464285Y-97178571D01*
X129511904Y-97273809D01*
X129511904Y-97511904D01*
X129464285Y-97607142D01*
X129416666Y-97654761D01*
X129321428Y-97702380D01*
X129035714Y-97702380D01*
X128940476Y-97654761D01*
X128892857Y-97607142D01*
X148107142Y-114357142D02*
X148059523Y-114404761D01*
X147916666Y-114452380D01*
X147821428Y-114452380D01*
X147678571Y-114404761D01*
X147583333Y-114309523D01*
X147535714Y-114214285D01*
X147488095Y-114023809D01*
X147488095Y-113880952D01*
X147535714Y-113690476D01*
X147583333Y-113595238D01*
X147678571Y-113500000D01*
X147821428Y-113452380D01*
X147916666Y-113452380D01*
X148059523Y-113500000D01*
X148107142Y-113547619D01*
X149059523Y-114452380D02*
X148488095Y-114452380D01*
X148773809Y-114452380D02*
X148773809Y-113452380D01*
X148678571Y-113595238D01*
X148583333Y-113690476D01*
X148488095Y-113738095D01*
X149916666Y-113452380D02*
X149726190Y-113452380D01*
X149630952Y-113500000D01*
X149583333Y-113547619D01*
X149488095Y-113690476D01*
X149440476Y-113880952D01*
X149440476Y-114261904D01*
X149488095Y-114357142D01*
X149535714Y-114404761D01*
X149630952Y-114452380D01*
X149821428Y-114452380D01*
X149916666Y-114404761D01*
X149964285Y-114357142D01*
X150011904Y-114261904D01*
X150011904Y-114023809D01*
X149964285Y-113928571D01*
X149916666Y-113880952D01*
X149821428Y-113833333D01*
X149630952Y-113833333D01*
X149535714Y-113880952D01*
X149488095Y-113928571D01*
X149440476Y-114023809D01*
X159053571Y-104839285D02*
X159482142Y-104839285D01*
X159267857Y-105589285D02*
X159267857Y-104839285D01*
X159732142Y-105589285D02*
X159732142Y-104839285D01*
X160017857Y-104839285D01*
X160089285Y-104875000D01*
X160125000Y-104910714D01*
X160160714Y-104982142D01*
X160160714Y-105089285D01*
X160125000Y-105160714D01*
X160089285Y-105196428D01*
X160017857Y-105232142D01*
X159732142Y-105232142D01*
X160589285Y-105160714D02*
X160517857Y-105125000D01*
X160482142Y-105089285D01*
X160446428Y-105017857D01*
X160446428Y-104982142D01*
X160482142Y-104910714D01*
X160517857Y-104875000D01*
X160589285Y-104839285D01*
X160732142Y-104839285D01*
X160803571Y-104875000D01*
X160839285Y-104910714D01*
X160875000Y-104982142D01*
X160875000Y-105017857D01*
X160839285Y-105089285D01*
X160803571Y-105125000D01*
X160732142Y-105160714D01*
X160589285Y-105160714D01*
X160517857Y-105196428D01*
X160482142Y-105232142D01*
X160446428Y-105303571D01*
X160446428Y-105446428D01*
X160482142Y-105517857D01*
X160517857Y-105553571D01*
X160589285Y-105589285D01*
X160732142Y-105589285D01*
X160803571Y-105553571D01*
X160839285Y-105517857D01*
X160875000Y-105446428D01*
X160875000Y-105303571D01*
X160839285Y-105232142D01*
X160803571Y-105196428D01*
X160732142Y-105160714D01*
X159053571Y-108089285D02*
X159482142Y-108089285D01*
X159267857Y-108839285D02*
X159267857Y-108089285D01*
X159732142Y-108839285D02*
X159732142Y-108089285D01*
X160017857Y-108089285D01*
X160089285Y-108125000D01*
X160125000Y-108160714D01*
X160160714Y-108232142D01*
X160160714Y-108339285D01*
X160125000Y-108410714D01*
X160089285Y-108446428D01*
X160017857Y-108482142D01*
X159732142Y-108482142D01*
X160517857Y-108839285D02*
X160660714Y-108839285D01*
X160732142Y-108803571D01*
X160767857Y-108767857D01*
X160839285Y-108660714D01*
X160875000Y-108517857D01*
X160875000Y-108232142D01*
X160839285Y-108160714D01*
X160803571Y-108125000D01*
X160732142Y-108089285D01*
X160589285Y-108089285D01*
X160517857Y-108125000D01*
X160482142Y-108160714D01*
X160446428Y-108232142D01*
X160446428Y-108410714D01*
X160482142Y-108482142D01*
X160517857Y-108517857D01*
X160589285Y-108553571D01*
X160732142Y-108553571D01*
X160803571Y-108517857D01*
X160839285Y-108482142D01*
X160875000Y-108410714D01*
X143452380Y-86238095D02*
X142452380Y-86238095D01*
X142452380Y-86000000D01*
X142500000Y-85857142D01*
X142595238Y-85761904D01*
X142690476Y-85714285D01*
X142880952Y-85666666D01*
X143023809Y-85666666D01*
X143214285Y-85714285D01*
X143309523Y-85761904D01*
X143404761Y-85857142D01*
X143452380Y-86000000D01*
X143452380Y-86238095D01*
X143452380Y-84714285D02*
X143452380Y-85285714D01*
X143452380Y-85000000D02*
X142452380Y-85000000D01*
X142595238Y-85095238D01*
X142690476Y-85190476D01*
X142738095Y-85285714D01*
X140839285Y-113696428D02*
X140839285Y-113267857D01*
X141589285Y-113482142D02*
X140839285Y-113482142D01*
X141589285Y-113017857D02*
X140839285Y-113017857D01*
X140839285Y-112732142D01*
X140875000Y-112660714D01*
X140910714Y-112625000D01*
X140982142Y-112589285D01*
X141089285Y-112589285D01*
X141160714Y-112625000D01*
X141196428Y-112660714D01*
X141232142Y-112732142D01*
X141232142Y-113017857D01*
X141589285Y-111875000D02*
X141589285Y-112303571D01*
X141589285Y-112089285D02*
X140839285Y-112089285D01*
X140946428Y-112160714D01*
X141017857Y-112232142D01*
X141053571Y-112303571D01*
X139339285Y-113696428D02*
X139339285Y-113267857D01*
X140089285Y-113482142D02*
X139339285Y-113482142D01*
X140089285Y-113017857D02*
X139339285Y-113017857D01*
X139339285Y-112732142D01*
X139375000Y-112660714D01*
X139410714Y-112625000D01*
X139482142Y-112589285D01*
X139589285Y-112589285D01*
X139660714Y-112625000D01*
X139696428Y-112660714D01*
X139732142Y-112732142D01*
X139732142Y-113017857D01*
X139410714Y-112303571D02*
X139375000Y-112267857D01*
X139339285Y-112196428D01*
X139339285Y-112017857D01*
X139375000Y-111946428D01*
X139410714Y-111910714D01*
X139482142Y-111875000D01*
X139553571Y-111875000D01*
X139660714Y-111910714D01*
X140089285Y-112339285D01*
X140089285Y-111875000D01*
X137839285Y-113696428D02*
X137839285Y-113267857D01*
X138589285Y-113482142D02*
X137839285Y-113482142D01*
X138589285Y-113017857D02*
X137839285Y-113017857D01*
X137839285Y-112732142D01*
X137875000Y-112660714D01*
X137910714Y-112625000D01*
X137982142Y-112589285D01*
X138089285Y-112589285D01*
X138160714Y-112625000D01*
X138196428Y-112660714D01*
X138232142Y-112732142D01*
X138232142Y-113017857D01*
X137839285Y-112339285D02*
X137839285Y-111875000D01*
X138125000Y-112125000D01*
X138125000Y-112017857D01*
X138160714Y-111946428D01*
X138196428Y-111910714D01*
X138267857Y-111875000D01*
X138446428Y-111875000D01*
X138517857Y-111910714D01*
X138553571Y-111946428D01*
X138589285Y-112017857D01*
X138589285Y-112232142D01*
X138553571Y-112303571D01*
X138517857Y-112339285D01*
X136339285Y-113696428D02*
X136339285Y-113267857D01*
X137089285Y-113482142D02*
X136339285Y-113482142D01*
X137089285Y-113017857D02*
X136339285Y-113017857D01*
X136339285Y-112732142D01*
X136375000Y-112660714D01*
X136410714Y-112625000D01*
X136482142Y-112589285D01*
X136589285Y-112589285D01*
X136660714Y-112625000D01*
X136696428Y-112660714D01*
X136732142Y-112732142D01*
X136732142Y-113017857D01*
X136589285Y-111946428D02*
X137089285Y-111946428D01*
X136303571Y-112125000D02*
X136839285Y-112303571D01*
X136839285Y-111839285D01*
X134839285Y-113696428D02*
X134839285Y-113267857D01*
X135589285Y-113482142D02*
X134839285Y-113482142D01*
X135589285Y-113017857D02*
X134839285Y-113017857D01*
X134839285Y-112732142D01*
X134875000Y-112660714D01*
X134910714Y-112625000D01*
X134982142Y-112589285D01*
X135089285Y-112589285D01*
X135160714Y-112625000D01*
X135196428Y-112660714D01*
X135232142Y-112732142D01*
X135232142Y-113017857D01*
X134839285Y-111910714D02*
X134839285Y-112267857D01*
X135196428Y-112303571D01*
X135160714Y-112267857D01*
X135125000Y-112196428D01*
X135125000Y-112017857D01*
X135160714Y-111946428D01*
X135196428Y-111910714D01*
X135267857Y-111875000D01*
X135446428Y-111875000D01*
X135517857Y-111910714D01*
X135553571Y-111946428D01*
X135589285Y-112017857D01*
X135589285Y-112196428D01*
X135553571Y-112267857D01*
X135517857Y-112303571D01*
X144904761Y-85647619D02*
X144809523Y-85600000D01*
X144714285Y-85504761D01*
X144571428Y-85361904D01*
X144476190Y-85314285D01*
X144380952Y-85314285D01*
X144428571Y-85552380D02*
X144333333Y-85504761D01*
X144238095Y-85409523D01*
X144190476Y-85219047D01*
X144190476Y-84885714D01*
X144238095Y-84695238D01*
X144333333Y-84600000D01*
X144428571Y-84552380D01*
X144619047Y-84552380D01*
X144714285Y-84600000D01*
X144809523Y-84695238D01*
X144857142Y-84885714D01*
X144857142Y-85219047D01*
X144809523Y-85409523D01*
X144714285Y-85504761D01*
X144619047Y-85552380D01*
X144428571Y-85552380D01*
X145809523Y-85552380D02*
X145238095Y-85552380D01*
X145523809Y-85552380D02*
X145523809Y-84552380D01*
X145428571Y-84695238D01*
X145333333Y-84790476D01*
X145238095Y-84838095D01*
M02*
