%TF.GenerationSoftware,KiCad,Pcbnew,5.0.1-33cea8e~67~ubuntu18.04.1*%
%TF.CreationDate,2019-01-08T21:33:24+01:00*%
%TF.ProjectId,hvac-sensor-module,687661632D73656E736F722D6D6F6475,1.0*%
%TF.SameCoordinates,Original*%
%TF.FileFunction,Legend,Bot*%
%TF.FilePolarity,Positive*%
%FSLAX46Y46*%
G04 Gerber Fmt 4.6, Leading zero omitted, Abs format (unit mm)*
G04 Created by KiCad (PCBNEW 5.0.1-33cea8e~67~ubuntu18.04.1) date Di 08 Jan 2019 21:33:24 CET*
%MOMM*%
%LPD*%
G01*
G04 APERTURE LIST*
%ADD10C,0.150000*%
%ADD11C,0.200000*%
%ADD12C,0.120000*%
G04 APERTURE END LIST*
D10*
X133232142Y-124089285D02*
X133482142Y-123732142D01*
X133660714Y-124089285D02*
X133660714Y-123339285D01*
X133375000Y-123339285D01*
X133303571Y-123375000D01*
X133267857Y-123410714D01*
X133232142Y-123482142D01*
X133232142Y-123589285D01*
X133267857Y-123660714D01*
X133303571Y-123696428D01*
X133375000Y-123732142D01*
X133660714Y-123732142D01*
X132625000Y-124053571D02*
X132696428Y-124089285D01*
X132839285Y-124089285D01*
X132910714Y-124053571D01*
X132946428Y-123982142D01*
X132946428Y-123696428D01*
X132910714Y-123625000D01*
X132839285Y-123589285D01*
X132696428Y-123589285D01*
X132625000Y-123625000D01*
X132589285Y-123696428D01*
X132589285Y-123767857D01*
X132946428Y-123839285D01*
X132339285Y-123589285D02*
X132160714Y-124089285D01*
X131982142Y-123589285D01*
X131696428Y-124017857D02*
X131660714Y-124053571D01*
X131696428Y-124089285D01*
X131732142Y-124053571D01*
X131696428Y-124017857D01*
X131696428Y-124089285D01*
X130375000Y-124089285D02*
X130803571Y-124089285D01*
X130589285Y-124089285D02*
X130589285Y-123339285D01*
X130660714Y-123446428D01*
X130732142Y-123517857D01*
X130803571Y-123553571D01*
X130053571Y-124017857D02*
X130017857Y-124053571D01*
X130053571Y-124089285D01*
X130089285Y-124053571D01*
X130053571Y-124017857D01*
X130053571Y-124089285D01*
X129553571Y-123339285D02*
X129482142Y-123339285D01*
X129410714Y-123375000D01*
X129375000Y-123410714D01*
X129339285Y-123482142D01*
X129303571Y-123625000D01*
X129303571Y-123803571D01*
X129339285Y-123946428D01*
X129375000Y-124017857D01*
X129410714Y-124053571D01*
X129482142Y-124089285D01*
X129553571Y-124089285D01*
X129625000Y-124053571D01*
X129660714Y-124017857D01*
X129696428Y-123946428D01*
X129732142Y-123803571D01*
X129732142Y-123625000D01*
X129696428Y-123482142D01*
X129660714Y-123410714D01*
X129625000Y-123375000D01*
X129553571Y-123339285D01*
X146582142Y-124089285D02*
X146832142Y-123732142D01*
X147010714Y-124089285D02*
X147010714Y-123339285D01*
X146725000Y-123339285D01*
X146653571Y-123375000D01*
X146617857Y-123410714D01*
X146582142Y-123482142D01*
X146582142Y-123589285D01*
X146617857Y-123660714D01*
X146653571Y-123696428D01*
X146725000Y-123732142D01*
X147010714Y-123732142D01*
X145975000Y-124053571D02*
X146046428Y-124089285D01*
X146189285Y-124089285D01*
X146260714Y-124053571D01*
X146296428Y-123982142D01*
X146296428Y-123696428D01*
X146260714Y-123625000D01*
X146189285Y-123589285D01*
X146046428Y-123589285D01*
X145975000Y-123625000D01*
X145939285Y-123696428D01*
X145939285Y-123767857D01*
X146296428Y-123839285D01*
X145689285Y-123589285D02*
X145510714Y-124089285D01*
X145332142Y-123589285D01*
X145046428Y-124017857D02*
X145010714Y-124053571D01*
X145046428Y-124089285D01*
X145082142Y-124053571D01*
X145046428Y-124017857D01*
X145046428Y-124089285D01*
X143725000Y-124089285D02*
X144153571Y-124089285D01*
X143939285Y-124089285D02*
X143939285Y-123339285D01*
X144010714Y-123446428D01*
X144082142Y-123517857D01*
X144153571Y-123553571D01*
X143403571Y-124017857D02*
X143367857Y-124053571D01*
X143403571Y-124089285D01*
X143439285Y-124053571D01*
X143403571Y-124017857D01*
X143403571Y-124089285D01*
X142903571Y-123339285D02*
X142832142Y-123339285D01*
X142760714Y-123375000D01*
X142725000Y-123410714D01*
X142689285Y-123482142D01*
X142653571Y-123625000D01*
X142653571Y-123803571D01*
X142689285Y-123946428D01*
X142725000Y-124017857D01*
X142760714Y-124053571D01*
X142832142Y-124089285D01*
X142903571Y-124089285D01*
X142975000Y-124053571D01*
X143010714Y-124017857D01*
X143046428Y-123946428D01*
X143082142Y-123803571D01*
X143082142Y-123625000D01*
X143046428Y-123482142D01*
X143010714Y-123410714D01*
X142975000Y-123375000D01*
X142903571Y-123339285D01*
D11*
X161524761Y-85352380D02*
X161191428Y-86352380D01*
X160858095Y-85352380D01*
X160524761Y-86352380D02*
X160524761Y-85685714D01*
X160524761Y-85352380D02*
X160572380Y-85400000D01*
X160524761Y-85447619D01*
X160477142Y-85400000D01*
X160524761Y-85352380D01*
X160524761Y-85447619D01*
X159905714Y-86352380D02*
X160000952Y-86304761D01*
X160048571Y-86209523D01*
X160048571Y-85352380D01*
X159381904Y-86352380D02*
X159477142Y-86304761D01*
X159524761Y-86209523D01*
X159524761Y-85352380D01*
X158572380Y-86352380D02*
X158572380Y-85828571D01*
X158620000Y-85733333D01*
X158715238Y-85685714D01*
X158905714Y-85685714D01*
X159000952Y-85733333D01*
X158572380Y-86304761D02*
X158667619Y-86352380D01*
X158905714Y-86352380D01*
X159000952Y-86304761D01*
X159048571Y-86209523D01*
X159048571Y-86114285D01*
X159000952Y-86019047D01*
X158905714Y-85971428D01*
X158667619Y-85971428D01*
X158572380Y-85923809D01*
X157524761Y-86257142D02*
X157572380Y-86304761D01*
X157715238Y-86352380D01*
X157810476Y-86352380D01*
X157953333Y-86304761D01*
X158048571Y-86209523D01*
X158096190Y-86114285D01*
X158143809Y-85923809D01*
X158143809Y-85780952D01*
X158096190Y-85590476D01*
X158048571Y-85495238D01*
X157953333Y-85400000D01*
X157810476Y-85352380D01*
X157715238Y-85352380D01*
X157572380Y-85400000D01*
X157524761Y-85447619D01*
X156953333Y-86352380D02*
X157048571Y-86304761D01*
X157096190Y-86257142D01*
X157143809Y-86161904D01*
X157143809Y-85876190D01*
X157096190Y-85780952D01*
X157048571Y-85733333D01*
X156953333Y-85685714D01*
X156810476Y-85685714D01*
X156715238Y-85733333D01*
X156667619Y-85780952D01*
X156620000Y-85876190D01*
X156620000Y-86161904D01*
X156667619Y-86257142D01*
X156715238Y-86304761D01*
X156810476Y-86352380D01*
X156953333Y-86352380D01*
X156191428Y-85685714D02*
X156191428Y-86352380D01*
X156191428Y-85780952D02*
X156143809Y-85733333D01*
X156048571Y-85685714D01*
X155905714Y-85685714D01*
X155810476Y-85733333D01*
X155762857Y-85828571D01*
X155762857Y-86352380D01*
X155429523Y-85685714D02*
X155048571Y-85685714D01*
X155286666Y-85352380D02*
X155286666Y-86209523D01*
X155239047Y-86304761D01*
X155143809Y-86352380D01*
X155048571Y-86352380D01*
X154715238Y-86352380D02*
X154715238Y-85685714D01*
X154715238Y-85876190D02*
X154667619Y-85780952D01*
X154620000Y-85733333D01*
X154524761Y-85685714D01*
X154429523Y-85685714D01*
X153953333Y-86352380D02*
X154048571Y-86304761D01*
X154096190Y-86257142D01*
X154143809Y-86161904D01*
X154143809Y-85876190D01*
X154096190Y-85780952D01*
X154048571Y-85733333D01*
X153953333Y-85685714D01*
X153810476Y-85685714D01*
X153715238Y-85733333D01*
X153667619Y-85780952D01*
X153620000Y-85876190D01*
X153620000Y-86161904D01*
X153667619Y-86257142D01*
X153715238Y-86304761D01*
X153810476Y-86352380D01*
X153953333Y-86352380D01*
X153048571Y-86352380D02*
X153143809Y-86304761D01*
X153191428Y-86209523D01*
X153191428Y-85352380D01*
X161381904Y-88052380D02*
X161381904Y-87052380D01*
X161381904Y-87528571D02*
X160810476Y-87528571D01*
X160810476Y-88052380D02*
X160810476Y-87052380D01*
X160477142Y-87052380D02*
X160143809Y-88052380D01*
X159810476Y-87052380D01*
X159524761Y-87766666D02*
X159048571Y-87766666D01*
X159620000Y-88052380D02*
X159286666Y-87052380D01*
X158953333Y-88052380D01*
X158048571Y-87957142D02*
X158096190Y-88004761D01*
X158239047Y-88052380D01*
X158334285Y-88052380D01*
X158477142Y-88004761D01*
X158572380Y-87909523D01*
X158620000Y-87814285D01*
X158667619Y-87623809D01*
X158667619Y-87480952D01*
X158620000Y-87290476D01*
X158572380Y-87195238D01*
X158477142Y-87100000D01*
X158334285Y-87052380D01*
X158239047Y-87052380D01*
X158096190Y-87100000D01*
X158048571Y-87147619D01*
X156905714Y-88004761D02*
X156762857Y-88052380D01*
X156524761Y-88052380D01*
X156429523Y-88004761D01*
X156381904Y-87957142D01*
X156334285Y-87861904D01*
X156334285Y-87766666D01*
X156381904Y-87671428D01*
X156429523Y-87623809D01*
X156524761Y-87576190D01*
X156715238Y-87528571D01*
X156810476Y-87480952D01*
X156858095Y-87433333D01*
X156905714Y-87338095D01*
X156905714Y-87242857D01*
X156858095Y-87147619D01*
X156810476Y-87100000D01*
X156715238Y-87052380D01*
X156477142Y-87052380D01*
X156334285Y-87100000D01*
X155524761Y-88004761D02*
X155620000Y-88052380D01*
X155810476Y-88052380D01*
X155905714Y-88004761D01*
X155953333Y-87909523D01*
X155953333Y-87528571D01*
X155905714Y-87433333D01*
X155810476Y-87385714D01*
X155620000Y-87385714D01*
X155524761Y-87433333D01*
X155477142Y-87528571D01*
X155477142Y-87623809D01*
X155953333Y-87719047D01*
X155048571Y-87385714D02*
X155048571Y-88052380D01*
X155048571Y-87480952D02*
X155000952Y-87433333D01*
X154905714Y-87385714D01*
X154762857Y-87385714D01*
X154667619Y-87433333D01*
X154620000Y-87528571D01*
X154620000Y-88052380D01*
X154191428Y-88004761D02*
X154096190Y-88052380D01*
X153905714Y-88052380D01*
X153810476Y-88004761D01*
X153762857Y-87909523D01*
X153762857Y-87861904D01*
X153810476Y-87766666D01*
X153905714Y-87719047D01*
X154048571Y-87719047D01*
X154143809Y-87671428D01*
X154191428Y-87576190D01*
X154191428Y-87528571D01*
X154143809Y-87433333D01*
X154048571Y-87385714D01*
X153905714Y-87385714D01*
X153810476Y-87433333D01*
X153191428Y-88052380D02*
X153286666Y-88004761D01*
X153334285Y-87957142D01*
X153381904Y-87861904D01*
X153381904Y-87576190D01*
X153334285Y-87480952D01*
X153286666Y-87433333D01*
X153191428Y-87385714D01*
X153048571Y-87385714D01*
X152953333Y-87433333D01*
X152905714Y-87480952D01*
X152858095Y-87576190D01*
X152858095Y-87861904D01*
X152905714Y-87957142D01*
X152953333Y-88004761D01*
X153048571Y-88052380D01*
X153191428Y-88052380D01*
X152429523Y-88052380D02*
X152429523Y-87385714D01*
X152429523Y-87576190D02*
X152381904Y-87480952D01*
X152334285Y-87433333D01*
X152239047Y-87385714D01*
X152143809Y-87385714D01*
X151048571Y-88052380D02*
X151048571Y-87052380D01*
X150715238Y-87766666D01*
X150381904Y-87052380D01*
X150381904Y-88052380D01*
X149762857Y-88052380D02*
X149858095Y-88004761D01*
X149905714Y-87957142D01*
X149953333Y-87861904D01*
X149953333Y-87576190D01*
X149905714Y-87480952D01*
X149858095Y-87433333D01*
X149762857Y-87385714D01*
X149620000Y-87385714D01*
X149524761Y-87433333D01*
X149477142Y-87480952D01*
X149429523Y-87576190D01*
X149429523Y-87861904D01*
X149477142Y-87957142D01*
X149524761Y-88004761D01*
X149620000Y-88052380D01*
X149762857Y-88052380D01*
X148572380Y-88052380D02*
X148572380Y-87052380D01*
X148572380Y-88004761D02*
X148667619Y-88052380D01*
X148858095Y-88052380D01*
X148953333Y-88004761D01*
X149000952Y-87957142D01*
X149048571Y-87861904D01*
X149048571Y-87576190D01*
X149000952Y-87480952D01*
X148953333Y-87433333D01*
X148858095Y-87385714D01*
X148667619Y-87385714D01*
X148572380Y-87433333D01*
X147667619Y-87385714D02*
X147667619Y-88052380D01*
X148096190Y-87385714D02*
X148096190Y-87909523D01*
X148048571Y-88004761D01*
X147953333Y-88052380D01*
X147810476Y-88052380D01*
X147715238Y-88004761D01*
X147667619Y-87957142D01*
X147048571Y-88052380D02*
X147143809Y-88004761D01*
X147191428Y-87909523D01*
X147191428Y-87052380D01*
X146286666Y-88004761D02*
X146381904Y-88052380D01*
X146572380Y-88052380D01*
X146667619Y-88004761D01*
X146715238Y-87909523D01*
X146715238Y-87528571D01*
X146667619Y-87433333D01*
X146572380Y-87385714D01*
X146381904Y-87385714D01*
X146286666Y-87433333D01*
X146239047Y-87528571D01*
X146239047Y-87623809D01*
X146715238Y-87719047D01*
X144524761Y-88052380D02*
X145096190Y-88052380D01*
X144810476Y-88052380D02*
X144810476Y-87052380D01*
X144905714Y-87195238D01*
X145000952Y-87290476D01*
X145096190Y-87338095D01*
X144096190Y-87957142D02*
X144048571Y-88004761D01*
X144096190Y-88052380D01*
X144143809Y-88004761D01*
X144096190Y-87957142D01*
X144096190Y-88052380D01*
X143429523Y-87052380D02*
X143334285Y-87052380D01*
X143239047Y-87100000D01*
X143191428Y-87147619D01*
X143143809Y-87242857D01*
X143096190Y-87433333D01*
X143096190Y-87671428D01*
X143143809Y-87861904D01*
X143191428Y-87957142D01*
X143239047Y-88004761D01*
X143334285Y-88052380D01*
X143429523Y-88052380D01*
X143524761Y-88004761D01*
X143572380Y-87957142D01*
X143620000Y-87861904D01*
X143667619Y-87671428D01*
X143667619Y-87433333D01*
X143620000Y-87242857D01*
X143572380Y-87147619D01*
X143524761Y-87100000D01*
X143429523Y-87052380D01*
D10*
X126300000Y-81700000D02*
X139300000Y-81700000D01*
X126300000Y-82500000D02*
X126300000Y-81700000D01*
X133800000Y-81700000D02*
X133800000Y-92500000D01*
X137000000Y-82500000D02*
X137000000Y-92500000D01*
X137000000Y-92500000D02*
X139300000Y-92500000D01*
X137000000Y-90000000D02*
X139300000Y-90000000D01*
X137000000Y-87500000D02*
X139300000Y-87500000D01*
X137000000Y-85000000D02*
X139300000Y-85000000D01*
X139300000Y-82500000D02*
X137000000Y-82500000D01*
X126300000Y-82500000D02*
X126300000Y-92500000D01*
X139300000Y-82500000D02*
X126300000Y-82500000D01*
X139300000Y-92500000D02*
X139300000Y-81700000D01*
X126300000Y-92500000D02*
X139300000Y-92500000D01*
X129000000Y-84000000D02*
X129000000Y-83500000D01*
X129000000Y-83500000D02*
X127000000Y-83500000D01*
X127000000Y-84000000D02*
X129000000Y-84000000D01*
X127000000Y-83500000D02*
X127000000Y-84000000D01*
X127000000Y-86000000D02*
X127000000Y-86500000D01*
X129000000Y-86500000D02*
X129000000Y-86000000D01*
X127000000Y-86500000D02*
X129000000Y-86500000D01*
X129000000Y-86000000D02*
X127000000Y-86000000D01*
X127000000Y-89000000D02*
X129000000Y-89000000D01*
X129000000Y-89000000D02*
X129000000Y-88500000D01*
X129000000Y-88500000D02*
X127000000Y-88500000D01*
X127000000Y-88500000D02*
X127000000Y-89000000D01*
X127000000Y-91000000D02*
X127000000Y-91500000D01*
X129000000Y-91500000D02*
X129000000Y-91000000D01*
X127000000Y-91500000D02*
X129000000Y-91500000D01*
X129000000Y-91000000D02*
X127000000Y-91000000D01*
X156500000Y-98690000D02*
X157500000Y-98690000D01*
X152500000Y-112040000D02*
X152500000Y-98690000D01*
X152500000Y-98690000D02*
X153500000Y-98690000D01*
X157500000Y-98690000D02*
X157500000Y-112040000D01*
X157500000Y-112040000D02*
X152500000Y-112040000D01*
X153500000Y-98690000D02*
X153500000Y-99500000D01*
X153500000Y-99500000D02*
X156500000Y-99500000D01*
X156500000Y-99500000D02*
X156500000Y-98690000D01*
D12*
X154600000Y-82000000D02*
G75*
G03X154600000Y-82000000I-600000J0D01*
G01*
X131100000Y-103250000D02*
G75*
G03X131100000Y-103250000I-600000J0D01*
G01*
X131100000Y-106750000D02*
G75*
G03X131100000Y-106750000I-600000J0D01*
G01*
X145600000Y-104750000D02*
G75*
G03X145600000Y-104750000I-600000J0D01*
G01*
X147600000Y-95750000D02*
G75*
G03X147600000Y-95750000I-600000J0D01*
G01*
X136850000Y-106500000D02*
G75*
G03X136850000Y-106500000I-600000J0D01*
G01*
X130600000Y-96250000D02*
G75*
G03X130600000Y-96250000I-600000J0D01*
G01*
X130600000Y-94750000D02*
G75*
G03X130600000Y-94750000I-600000J0D01*
G01*
D10*
X139702380Y-87166666D02*
X140416666Y-87166666D01*
X140559523Y-87119047D01*
X140654761Y-87023809D01*
X140702380Y-86880952D01*
X140702380Y-86785714D01*
X140702380Y-88166666D02*
X140702380Y-87595238D01*
X140702380Y-87880952D02*
X139702380Y-87880952D01*
X139845238Y-87785714D01*
X139940476Y-87690476D01*
X139988095Y-87595238D01*
X160452380Y-105261904D02*
X159452380Y-105261904D01*
X159452380Y-105642857D01*
X159500000Y-105738095D01*
X159547619Y-105785714D01*
X159642857Y-105833333D01*
X159785714Y-105833333D01*
X159880952Y-105785714D01*
X159928571Y-105738095D01*
X159976190Y-105642857D01*
X159976190Y-105261904D01*
X160452380Y-106785714D02*
X160452380Y-106214285D01*
X160452380Y-106500000D02*
X159452380Y-106500000D01*
X159595238Y-106404761D01*
X159690476Y-106309523D01*
X159738095Y-106214285D01*
X154946428Y-83037285D02*
X154517857Y-83037285D01*
X154732142Y-83787285D02*
X154732142Y-83037285D01*
X154267857Y-83787285D02*
X154267857Y-83037285D01*
X153982142Y-83037285D01*
X153910714Y-83073000D01*
X153875000Y-83108714D01*
X153839285Y-83180142D01*
X153839285Y-83287285D01*
X153875000Y-83358714D01*
X153910714Y-83394428D01*
X153982142Y-83430142D01*
X154267857Y-83430142D01*
X153589285Y-83037285D02*
X153089285Y-83037285D01*
X153410714Y-83787285D01*
X131803571Y-101391285D02*
X131375000Y-101391285D01*
X131589285Y-102141285D02*
X131589285Y-101391285D01*
X131125000Y-102141285D02*
X131125000Y-101391285D01*
X130839285Y-101391285D01*
X130767857Y-101427000D01*
X130732142Y-101462714D01*
X130696428Y-101534142D01*
X130696428Y-101641285D01*
X130732142Y-101712714D01*
X130767857Y-101748428D01*
X130839285Y-101784142D01*
X131125000Y-101784142D01*
X129982142Y-102141285D02*
X130410714Y-102141285D01*
X130196428Y-102141285D02*
X130196428Y-101391285D01*
X130267857Y-101498428D01*
X130339285Y-101569857D01*
X130410714Y-101605571D01*
X129696428Y-101462714D02*
X129660714Y-101427000D01*
X129589285Y-101391285D01*
X129410714Y-101391285D01*
X129339285Y-101427000D01*
X129303571Y-101462714D01*
X129267857Y-101534142D01*
X129267857Y-101605571D01*
X129303571Y-101712714D01*
X129732142Y-102141285D01*
X129267857Y-102141285D01*
X131803571Y-107787285D02*
X131375000Y-107787285D01*
X131589285Y-108537285D02*
X131589285Y-107787285D01*
X131125000Y-108537285D02*
X131125000Y-107787285D01*
X130839285Y-107787285D01*
X130767857Y-107823000D01*
X130732142Y-107858714D01*
X130696428Y-107930142D01*
X130696428Y-108037285D01*
X130732142Y-108108714D01*
X130767857Y-108144428D01*
X130839285Y-108180142D01*
X131125000Y-108180142D01*
X129982142Y-108537285D02*
X130410714Y-108537285D01*
X130196428Y-108537285D02*
X130196428Y-107787285D01*
X130267857Y-107894428D01*
X130339285Y-107965857D01*
X130410714Y-108001571D01*
X129732142Y-107787285D02*
X129267857Y-107787285D01*
X129517857Y-108073000D01*
X129410714Y-108073000D01*
X129339285Y-108108714D01*
X129303571Y-108144428D01*
X129267857Y-108215857D01*
X129267857Y-108394428D01*
X129303571Y-108465857D01*
X129339285Y-108501571D01*
X129410714Y-108537285D01*
X129625000Y-108537285D01*
X129696428Y-108501571D01*
X129732142Y-108465857D01*
X146303571Y-102891285D02*
X145875000Y-102891285D01*
X146089285Y-103641285D02*
X146089285Y-102891285D01*
X145625000Y-103641285D02*
X145625000Y-102891285D01*
X145339285Y-102891285D01*
X145267857Y-102927000D01*
X145232142Y-102962714D01*
X145196428Y-103034142D01*
X145196428Y-103141285D01*
X145232142Y-103212714D01*
X145267857Y-103248428D01*
X145339285Y-103284142D01*
X145625000Y-103284142D01*
X144482142Y-103641285D02*
X144910714Y-103641285D01*
X144696428Y-103641285D02*
X144696428Y-102891285D01*
X144767857Y-102998428D01*
X144839285Y-103069857D01*
X144910714Y-103105571D01*
X144017857Y-102891285D02*
X143946428Y-102891285D01*
X143875000Y-102927000D01*
X143839285Y-102962714D01*
X143803571Y-103034142D01*
X143767857Y-103177000D01*
X143767857Y-103355571D01*
X143803571Y-103498428D01*
X143839285Y-103569857D01*
X143875000Y-103605571D01*
X143946428Y-103641285D01*
X144017857Y-103641285D01*
X144089285Y-103605571D01*
X144125000Y-103569857D01*
X144160714Y-103498428D01*
X144196428Y-103355571D01*
X144196428Y-103177000D01*
X144160714Y-103034142D01*
X144125000Y-102962714D01*
X144089285Y-102927000D01*
X144017857Y-102891285D01*
X150553571Y-95339285D02*
X150125000Y-95339285D01*
X150339285Y-96089285D02*
X150339285Y-95339285D01*
X149875000Y-96089285D02*
X149875000Y-95339285D01*
X149589285Y-95339285D01*
X149517857Y-95375000D01*
X149482142Y-95410714D01*
X149446428Y-95482142D01*
X149446428Y-95589285D01*
X149482142Y-95660714D01*
X149517857Y-95696428D01*
X149589285Y-95732142D01*
X149875000Y-95732142D01*
X148732142Y-96089285D02*
X149160714Y-96089285D01*
X148946428Y-96089285D02*
X148946428Y-95339285D01*
X149017857Y-95446428D01*
X149089285Y-95517857D01*
X149160714Y-95553571D01*
X148017857Y-96089285D02*
X148446428Y-96089285D01*
X148232142Y-96089285D02*
X148232142Y-95339285D01*
X148303571Y-95446428D01*
X148375000Y-95517857D01*
X148446428Y-95553571D01*
X137196428Y-104839285D02*
X136767857Y-104839285D01*
X136982142Y-105589285D02*
X136982142Y-104839285D01*
X136517857Y-105589285D02*
X136517857Y-104839285D01*
X136232142Y-104839285D01*
X136160714Y-104875000D01*
X136125000Y-104910714D01*
X136089285Y-104982142D01*
X136089285Y-105089285D01*
X136125000Y-105160714D01*
X136160714Y-105196428D01*
X136232142Y-105232142D01*
X136517857Y-105232142D01*
X135446428Y-104839285D02*
X135589285Y-104839285D01*
X135660714Y-104875000D01*
X135696428Y-104910714D01*
X135767857Y-105017857D01*
X135803571Y-105160714D01*
X135803571Y-105446428D01*
X135767857Y-105517857D01*
X135732142Y-105553571D01*
X135660714Y-105589285D01*
X135517857Y-105589285D01*
X135446428Y-105553571D01*
X135410714Y-105517857D01*
X135375000Y-105446428D01*
X135375000Y-105267857D01*
X135410714Y-105196428D01*
X135446428Y-105160714D01*
X135517857Y-105125000D01*
X135660714Y-105125000D01*
X135732142Y-105160714D01*
X135767857Y-105196428D01*
X135803571Y-105267857D01*
X129053571Y-95839285D02*
X128625000Y-95839285D01*
X128839285Y-96589285D02*
X128839285Y-95839285D01*
X128375000Y-96589285D02*
X128375000Y-95839285D01*
X128089285Y-95839285D01*
X128017857Y-95875000D01*
X127982142Y-95910714D01*
X127946428Y-95982142D01*
X127946428Y-96089285D01*
X127982142Y-96160714D01*
X128017857Y-96196428D01*
X128089285Y-96232142D01*
X128375000Y-96232142D01*
X127232142Y-96589285D02*
X127660714Y-96589285D01*
X127446428Y-96589285D02*
X127446428Y-95839285D01*
X127517857Y-95946428D01*
X127589285Y-96017857D01*
X127660714Y-96053571D01*
X126589285Y-96089285D02*
X126589285Y-96589285D01*
X126767857Y-95803571D02*
X126946428Y-96339285D01*
X126482142Y-96339285D01*
X129053571Y-94339285D02*
X128625000Y-94339285D01*
X128839285Y-95089285D02*
X128839285Y-94339285D01*
X128375000Y-95089285D02*
X128375000Y-94339285D01*
X128089285Y-94339285D01*
X128017857Y-94375000D01*
X127982142Y-94410714D01*
X127946428Y-94482142D01*
X127946428Y-94589285D01*
X127982142Y-94660714D01*
X128017857Y-94696428D01*
X128089285Y-94732142D01*
X128375000Y-94732142D01*
X127232142Y-95089285D02*
X127660714Y-95089285D01*
X127446428Y-95089285D02*
X127446428Y-94339285D01*
X127517857Y-94446428D01*
X127589285Y-94517857D01*
X127660714Y-94553571D01*
X126553571Y-94339285D02*
X126910714Y-94339285D01*
X126946428Y-94696428D01*
X126910714Y-94660714D01*
X126839285Y-94625000D01*
X126660714Y-94625000D01*
X126589285Y-94660714D01*
X126553571Y-94696428D01*
X126517857Y-94767857D01*
X126517857Y-94946428D01*
X126553571Y-95017857D01*
X126589285Y-95053571D01*
X126660714Y-95089285D01*
X126839285Y-95089285D01*
X126910714Y-95053571D01*
X126946428Y-95017857D01*
M02*
