%TF.GenerationSoftware,KiCad,Pcbnew,5.0.1-33cea8e~67~ubuntu18.04.1*%
%TF.CreationDate,2019-01-09T21:02:38+01:00*%
%TF.ProjectId,hvac-sensor-module,687661632D73656E736F722D6D6F6475,1.0*%
%TF.SameCoordinates,Original*%
%TF.FileFunction,Legend,Bot*%
%TF.FilePolarity,Positive*%
%FSLAX46Y46*%
G04 Gerber Fmt 4.6, Leading zero omitted, Abs format (unit mm)*
G04 Created by KiCad (PCBNEW 5.0.1-33cea8e~67~ubuntu18.04.1) date Mi 09 Jan 2019 21:02:38 CET*
%MOMM*%
%LPD*%
G01*
G04 APERTURE LIST*
%ADD10C,0.150000*%
%ADD11C,0.200000*%
%ADD12C,0.010000*%
%ADD13C,0.120000*%
G04 APERTURE END LIST*
D10*
X160982142Y-89439285D02*
X161232142Y-89082142D01*
X161410714Y-89439285D02*
X161410714Y-88689285D01*
X161125000Y-88689285D01*
X161053571Y-88725000D01*
X161017857Y-88760714D01*
X160982142Y-88832142D01*
X160982142Y-88939285D01*
X161017857Y-89010714D01*
X161053571Y-89046428D01*
X161125000Y-89082142D01*
X161410714Y-89082142D01*
X160375000Y-89403571D02*
X160446428Y-89439285D01*
X160589285Y-89439285D01*
X160660714Y-89403571D01*
X160696428Y-89332142D01*
X160696428Y-89046428D01*
X160660714Y-88975000D01*
X160589285Y-88939285D01*
X160446428Y-88939285D01*
X160375000Y-88975000D01*
X160339285Y-89046428D01*
X160339285Y-89117857D01*
X160696428Y-89189285D01*
X160089285Y-88939285D02*
X159910714Y-89439285D01*
X159732142Y-88939285D01*
X159446428Y-89367857D02*
X159410714Y-89403571D01*
X159446428Y-89439285D01*
X159482142Y-89403571D01*
X159446428Y-89367857D01*
X159446428Y-89439285D01*
X158125000Y-89439285D02*
X158553571Y-89439285D01*
X158339285Y-89439285D02*
X158339285Y-88689285D01*
X158410714Y-88796428D01*
X158482142Y-88867857D01*
X158553571Y-88903571D01*
X157803571Y-89367857D02*
X157767857Y-89403571D01*
X157803571Y-89439285D01*
X157839285Y-89403571D01*
X157803571Y-89367857D01*
X157803571Y-89439285D01*
X157303571Y-88689285D02*
X157232142Y-88689285D01*
X157160714Y-88725000D01*
X157125000Y-88760714D01*
X157089285Y-88832142D01*
X157053571Y-88975000D01*
X157053571Y-89153571D01*
X157089285Y-89296428D01*
X157125000Y-89367857D01*
X157160714Y-89403571D01*
X157232142Y-89439285D01*
X157303571Y-89439285D01*
X157375000Y-89403571D01*
X157410714Y-89367857D01*
X157446428Y-89296428D01*
X157482142Y-89153571D01*
X157482142Y-88975000D01*
X157446428Y-88832142D01*
X157410714Y-88760714D01*
X157375000Y-88725000D01*
X157303571Y-88689285D01*
X146582142Y-124089285D02*
X146832142Y-123732142D01*
X147010714Y-124089285D02*
X147010714Y-123339285D01*
X146725000Y-123339285D01*
X146653571Y-123375000D01*
X146617857Y-123410714D01*
X146582142Y-123482142D01*
X146582142Y-123589285D01*
X146617857Y-123660714D01*
X146653571Y-123696428D01*
X146725000Y-123732142D01*
X147010714Y-123732142D01*
X145975000Y-124053571D02*
X146046428Y-124089285D01*
X146189285Y-124089285D01*
X146260714Y-124053571D01*
X146296428Y-123982142D01*
X146296428Y-123696428D01*
X146260714Y-123625000D01*
X146189285Y-123589285D01*
X146046428Y-123589285D01*
X145975000Y-123625000D01*
X145939285Y-123696428D01*
X145939285Y-123767857D01*
X146296428Y-123839285D01*
X145689285Y-123589285D02*
X145510714Y-124089285D01*
X145332142Y-123589285D01*
X145046428Y-124017857D02*
X145010714Y-124053571D01*
X145046428Y-124089285D01*
X145082142Y-124053571D01*
X145046428Y-124017857D01*
X145046428Y-124089285D01*
X143725000Y-124089285D02*
X144153571Y-124089285D01*
X143939285Y-124089285D02*
X143939285Y-123339285D01*
X144010714Y-123446428D01*
X144082142Y-123517857D01*
X144153571Y-123553571D01*
X143403571Y-124017857D02*
X143367857Y-124053571D01*
X143403571Y-124089285D01*
X143439285Y-124053571D01*
X143403571Y-124017857D01*
X143403571Y-124089285D01*
X142903571Y-123339285D02*
X142832142Y-123339285D01*
X142760714Y-123375000D01*
X142725000Y-123410714D01*
X142689285Y-123482142D01*
X142653571Y-123625000D01*
X142653571Y-123803571D01*
X142689285Y-123946428D01*
X142725000Y-124017857D01*
X142760714Y-124053571D01*
X142832142Y-124089285D01*
X142903571Y-124089285D01*
X142975000Y-124053571D01*
X143010714Y-124017857D01*
X143046428Y-123946428D01*
X143082142Y-123803571D01*
X143082142Y-123625000D01*
X143046428Y-123482142D01*
X143010714Y-123410714D01*
X142975000Y-123375000D01*
X142903571Y-123339285D01*
D11*
X161524761Y-85352380D02*
X161191428Y-86352380D01*
X160858095Y-85352380D01*
X160524761Y-86352380D02*
X160524761Y-85685714D01*
X160524761Y-85352380D02*
X160572380Y-85400000D01*
X160524761Y-85447619D01*
X160477142Y-85400000D01*
X160524761Y-85352380D01*
X160524761Y-85447619D01*
X159905714Y-86352380D02*
X160000952Y-86304761D01*
X160048571Y-86209523D01*
X160048571Y-85352380D01*
X159381904Y-86352380D02*
X159477142Y-86304761D01*
X159524761Y-86209523D01*
X159524761Y-85352380D01*
X158572380Y-86352380D02*
X158572380Y-85828571D01*
X158620000Y-85733333D01*
X158715238Y-85685714D01*
X158905714Y-85685714D01*
X159000952Y-85733333D01*
X158572380Y-86304761D02*
X158667619Y-86352380D01*
X158905714Y-86352380D01*
X159000952Y-86304761D01*
X159048571Y-86209523D01*
X159048571Y-86114285D01*
X159000952Y-86019047D01*
X158905714Y-85971428D01*
X158667619Y-85971428D01*
X158572380Y-85923809D01*
X157524761Y-86257142D02*
X157572380Y-86304761D01*
X157715238Y-86352380D01*
X157810476Y-86352380D01*
X157953333Y-86304761D01*
X158048571Y-86209523D01*
X158096190Y-86114285D01*
X158143809Y-85923809D01*
X158143809Y-85780952D01*
X158096190Y-85590476D01*
X158048571Y-85495238D01*
X157953333Y-85400000D01*
X157810476Y-85352380D01*
X157715238Y-85352380D01*
X157572380Y-85400000D01*
X157524761Y-85447619D01*
X156953333Y-86352380D02*
X157048571Y-86304761D01*
X157096190Y-86257142D01*
X157143809Y-86161904D01*
X157143809Y-85876190D01*
X157096190Y-85780952D01*
X157048571Y-85733333D01*
X156953333Y-85685714D01*
X156810476Y-85685714D01*
X156715238Y-85733333D01*
X156667619Y-85780952D01*
X156620000Y-85876190D01*
X156620000Y-86161904D01*
X156667619Y-86257142D01*
X156715238Y-86304761D01*
X156810476Y-86352380D01*
X156953333Y-86352380D01*
X156191428Y-85685714D02*
X156191428Y-86352380D01*
X156191428Y-85780952D02*
X156143809Y-85733333D01*
X156048571Y-85685714D01*
X155905714Y-85685714D01*
X155810476Y-85733333D01*
X155762857Y-85828571D01*
X155762857Y-86352380D01*
X155429523Y-85685714D02*
X155048571Y-85685714D01*
X155286666Y-85352380D02*
X155286666Y-86209523D01*
X155239047Y-86304761D01*
X155143809Y-86352380D01*
X155048571Y-86352380D01*
X154715238Y-86352380D02*
X154715238Y-85685714D01*
X154715238Y-85876190D02*
X154667619Y-85780952D01*
X154620000Y-85733333D01*
X154524761Y-85685714D01*
X154429523Y-85685714D01*
X153953333Y-86352380D02*
X154048571Y-86304761D01*
X154096190Y-86257142D01*
X154143809Y-86161904D01*
X154143809Y-85876190D01*
X154096190Y-85780952D01*
X154048571Y-85733333D01*
X153953333Y-85685714D01*
X153810476Y-85685714D01*
X153715238Y-85733333D01*
X153667619Y-85780952D01*
X153620000Y-85876190D01*
X153620000Y-86161904D01*
X153667619Y-86257142D01*
X153715238Y-86304761D01*
X153810476Y-86352380D01*
X153953333Y-86352380D01*
X153048571Y-86352380D02*
X153143809Y-86304761D01*
X153191428Y-86209523D01*
X153191428Y-85352380D01*
X161381904Y-88052380D02*
X161381904Y-87052380D01*
X161381904Y-87528571D02*
X160810476Y-87528571D01*
X160810476Y-88052380D02*
X160810476Y-87052380D01*
X160477142Y-87052380D02*
X160143809Y-88052380D01*
X159810476Y-87052380D01*
X159524761Y-87766666D02*
X159048571Y-87766666D01*
X159620000Y-88052380D02*
X159286666Y-87052380D01*
X158953333Y-88052380D01*
X158048571Y-87957142D02*
X158096190Y-88004761D01*
X158239047Y-88052380D01*
X158334285Y-88052380D01*
X158477142Y-88004761D01*
X158572380Y-87909523D01*
X158620000Y-87814285D01*
X158667619Y-87623809D01*
X158667619Y-87480952D01*
X158620000Y-87290476D01*
X158572380Y-87195238D01*
X158477142Y-87100000D01*
X158334285Y-87052380D01*
X158239047Y-87052380D01*
X158096190Y-87100000D01*
X158048571Y-87147619D01*
X156905714Y-88004761D02*
X156762857Y-88052380D01*
X156524761Y-88052380D01*
X156429523Y-88004761D01*
X156381904Y-87957142D01*
X156334285Y-87861904D01*
X156334285Y-87766666D01*
X156381904Y-87671428D01*
X156429523Y-87623809D01*
X156524761Y-87576190D01*
X156715238Y-87528571D01*
X156810476Y-87480952D01*
X156858095Y-87433333D01*
X156905714Y-87338095D01*
X156905714Y-87242857D01*
X156858095Y-87147619D01*
X156810476Y-87100000D01*
X156715238Y-87052380D01*
X156477142Y-87052380D01*
X156334285Y-87100000D01*
X155524761Y-88004761D02*
X155620000Y-88052380D01*
X155810476Y-88052380D01*
X155905714Y-88004761D01*
X155953333Y-87909523D01*
X155953333Y-87528571D01*
X155905714Y-87433333D01*
X155810476Y-87385714D01*
X155620000Y-87385714D01*
X155524761Y-87433333D01*
X155477142Y-87528571D01*
X155477142Y-87623809D01*
X155953333Y-87719047D01*
X155048571Y-87385714D02*
X155048571Y-88052380D01*
X155048571Y-87480952D02*
X155000952Y-87433333D01*
X154905714Y-87385714D01*
X154762857Y-87385714D01*
X154667619Y-87433333D01*
X154620000Y-87528571D01*
X154620000Y-88052380D01*
X154191428Y-88004761D02*
X154096190Y-88052380D01*
X153905714Y-88052380D01*
X153810476Y-88004761D01*
X153762857Y-87909523D01*
X153762857Y-87861904D01*
X153810476Y-87766666D01*
X153905714Y-87719047D01*
X154048571Y-87719047D01*
X154143809Y-87671428D01*
X154191428Y-87576190D01*
X154191428Y-87528571D01*
X154143809Y-87433333D01*
X154048571Y-87385714D01*
X153905714Y-87385714D01*
X153810476Y-87433333D01*
X153191428Y-88052380D02*
X153286666Y-88004761D01*
X153334285Y-87957142D01*
X153381904Y-87861904D01*
X153381904Y-87576190D01*
X153334285Y-87480952D01*
X153286666Y-87433333D01*
X153191428Y-87385714D01*
X153048571Y-87385714D01*
X152953333Y-87433333D01*
X152905714Y-87480952D01*
X152858095Y-87576190D01*
X152858095Y-87861904D01*
X152905714Y-87957142D01*
X152953333Y-88004761D01*
X153048571Y-88052380D01*
X153191428Y-88052380D01*
X152429523Y-88052380D02*
X152429523Y-87385714D01*
X152429523Y-87576190D02*
X152381904Y-87480952D01*
X152334285Y-87433333D01*
X152239047Y-87385714D01*
X152143809Y-87385714D01*
X151048571Y-88052380D02*
X151048571Y-87052380D01*
X150715238Y-87766666D01*
X150381904Y-87052380D01*
X150381904Y-88052380D01*
X149762857Y-88052380D02*
X149858095Y-88004761D01*
X149905714Y-87957142D01*
X149953333Y-87861904D01*
X149953333Y-87576190D01*
X149905714Y-87480952D01*
X149858095Y-87433333D01*
X149762857Y-87385714D01*
X149620000Y-87385714D01*
X149524761Y-87433333D01*
X149477142Y-87480952D01*
X149429523Y-87576190D01*
X149429523Y-87861904D01*
X149477142Y-87957142D01*
X149524761Y-88004761D01*
X149620000Y-88052380D01*
X149762857Y-88052380D01*
X148572380Y-88052380D02*
X148572380Y-87052380D01*
X148572380Y-88004761D02*
X148667619Y-88052380D01*
X148858095Y-88052380D01*
X148953333Y-88004761D01*
X149000952Y-87957142D01*
X149048571Y-87861904D01*
X149048571Y-87576190D01*
X149000952Y-87480952D01*
X148953333Y-87433333D01*
X148858095Y-87385714D01*
X148667619Y-87385714D01*
X148572380Y-87433333D01*
X147667619Y-87385714D02*
X147667619Y-88052380D01*
X148096190Y-87385714D02*
X148096190Y-87909523D01*
X148048571Y-88004761D01*
X147953333Y-88052380D01*
X147810476Y-88052380D01*
X147715238Y-88004761D01*
X147667619Y-87957142D01*
X147048571Y-88052380D02*
X147143809Y-88004761D01*
X147191428Y-87909523D01*
X147191428Y-87052380D01*
X146286666Y-88004761D02*
X146381904Y-88052380D01*
X146572380Y-88052380D01*
X146667619Y-88004761D01*
X146715238Y-87909523D01*
X146715238Y-87528571D01*
X146667619Y-87433333D01*
X146572380Y-87385714D01*
X146381904Y-87385714D01*
X146286666Y-87433333D01*
X146239047Y-87528571D01*
X146239047Y-87623809D01*
X146715238Y-87719047D01*
D12*
G36*
X134623429Y-118273043D02*
X134599191Y-118176768D01*
X134556359Y-118090184D01*
X134496581Y-118015373D01*
X134421506Y-117954418D01*
X134332780Y-117909399D01*
X134236470Y-117883136D01*
X134139205Y-117877286D01*
X134045346Y-117892140D01*
X133957489Y-117925840D01*
X133878230Y-117976528D01*
X133810164Y-118042345D01*
X133755888Y-118121434D01*
X133717998Y-118211934D01*
X133705574Y-118263200D01*
X133698053Y-118307698D01*
X133695081Y-118341999D01*
X133696906Y-118374960D01*
X133703775Y-118415434D01*
X133710750Y-118448531D01*
X133742259Y-118541947D01*
X133793383Y-118625619D01*
X133862571Y-118697665D01*
X133948272Y-118756200D01*
X133975511Y-118770148D01*
X134011878Y-118786586D01*
X134042418Y-118796894D01*
X134074550Y-118802460D01*
X134115693Y-118804669D01*
X134161778Y-118804948D01*
X134246135Y-118800861D01*
X134315414Y-118787446D01*
X134376039Y-118762256D01*
X134434433Y-118722846D01*
X134478698Y-118684298D01*
X134544516Y-118612406D01*
X134589947Y-118537313D01*
X134617150Y-118454562D01*
X134627424Y-118376928D01*
X134623429Y-118273043D01*
X134623429Y-118273043D01*
G37*
X134623429Y-118273043D02*
X134599191Y-118176768D01*
X134556359Y-118090184D01*
X134496581Y-118015373D01*
X134421506Y-117954418D01*
X134332780Y-117909399D01*
X134236470Y-117883136D01*
X134139205Y-117877286D01*
X134045346Y-117892140D01*
X133957489Y-117925840D01*
X133878230Y-117976528D01*
X133810164Y-118042345D01*
X133755888Y-118121434D01*
X133717998Y-118211934D01*
X133705574Y-118263200D01*
X133698053Y-118307698D01*
X133695081Y-118341999D01*
X133696906Y-118374960D01*
X133703775Y-118415434D01*
X133710750Y-118448531D01*
X133742259Y-118541947D01*
X133793383Y-118625619D01*
X133862571Y-118697665D01*
X133948272Y-118756200D01*
X133975511Y-118770148D01*
X134011878Y-118786586D01*
X134042418Y-118796894D01*
X134074550Y-118802460D01*
X134115693Y-118804669D01*
X134161778Y-118804948D01*
X134246135Y-118800861D01*
X134315414Y-118787446D01*
X134376039Y-118762256D01*
X134434433Y-118722846D01*
X134478698Y-118684298D01*
X134544516Y-118612406D01*
X134589947Y-118537313D01*
X134617150Y-118454562D01*
X134627424Y-118376928D01*
X134623429Y-118273043D01*
G36*
X132177755Y-109813493D02*
X131943338Y-109813474D01*
X131730397Y-109813448D01*
X131537832Y-109813375D01*
X131364541Y-109813218D01*
X131209424Y-109812936D01*
X131071380Y-109812491D01*
X130949308Y-109811844D01*
X130842106Y-109810955D01*
X130748674Y-109809787D01*
X130667910Y-109808299D01*
X130598714Y-109806454D01*
X130539985Y-109804211D01*
X130490621Y-109801531D01*
X130449522Y-109798377D01*
X130415587Y-109794708D01*
X130387714Y-109790487D01*
X130364802Y-109785673D01*
X130345751Y-109780227D01*
X130329460Y-109774112D01*
X130314827Y-109767288D01*
X130300751Y-109759715D01*
X130286132Y-109751355D01*
X130277026Y-109746161D01*
X130216311Y-109711896D01*
X130216311Y-110570045D01*
X130312267Y-110570045D01*
X130355630Y-110570776D01*
X130388795Y-110572728D01*
X130406576Y-110575537D01*
X130408222Y-110576779D01*
X130401338Y-110588201D01*
X130383495Y-110610916D01*
X130364121Y-110633615D01*
X130323386Y-110688200D01*
X130282383Y-110757679D01*
X130244877Y-110834730D01*
X130214636Y-110912035D01*
X130204988Y-110942887D01*
X130190422Y-111011384D01*
X130180461Y-111094236D01*
X130175417Y-111183629D01*
X130175604Y-111271752D01*
X130181334Y-111350793D01*
X130187142Y-111388489D01*
X130225203Y-111526586D01*
X130282927Y-111653887D01*
X130359789Y-111769708D01*
X130455261Y-111873363D01*
X130568821Y-111964167D01*
X130679619Y-112030969D01*
X130796375Y-112085836D01*
X130915724Y-112127837D01*
X131041717Y-112157833D01*
X131178406Y-112176689D01*
X131329842Y-112185268D01*
X131407289Y-112185994D01*
X131464066Y-112183900D01*
X131464066Y-111354783D01*
X131370998Y-111354576D01*
X131283308Y-111351663D01*
X131206228Y-111346000D01*
X131144991Y-111337545D01*
X131132650Y-111334962D01*
X131025367Y-111303160D01*
X130938342Y-111261502D01*
X130871358Y-111209637D01*
X130824195Y-111147219D01*
X130796635Y-111073900D01*
X130788459Y-110989331D01*
X130799449Y-110893165D01*
X130815171Y-110829689D01*
X130833361Y-110780546D01*
X130859209Y-110726417D01*
X130882911Y-110685756D01*
X130929279Y-110615200D01*
X132079470Y-110615200D01*
X132123038Y-110682608D01*
X132163960Y-110761133D01*
X132190611Y-110845319D01*
X132202535Y-110930443D01*
X132199278Y-111011784D01*
X132180385Y-111084620D01*
X132164816Y-111116574D01*
X132121819Y-111174499D01*
X132065047Y-111223456D01*
X131992425Y-111264610D01*
X131901879Y-111299126D01*
X131791334Y-111328167D01*
X131785467Y-111329448D01*
X131723212Y-111339619D01*
X131645406Y-111347261D01*
X131557280Y-111352330D01*
X131464066Y-111354783D01*
X131464066Y-112183900D01*
X131620105Y-112178143D01*
X131815941Y-112156198D01*
X131994668Y-112120214D01*
X132156155Y-112070241D01*
X132300274Y-112006332D01*
X132426894Y-111928538D01*
X132535885Y-111836911D01*
X132627117Y-111731503D01*
X132658068Y-111686338D01*
X132714215Y-111585389D01*
X132753826Y-111482099D01*
X132777986Y-111372011D01*
X132787781Y-111250670D01*
X132786735Y-111158164D01*
X132775769Y-111028510D01*
X132753954Y-110915916D01*
X132720286Y-110817125D01*
X132673764Y-110728879D01*
X132639552Y-110680014D01*
X132617638Y-110650647D01*
X132602667Y-110628957D01*
X132598267Y-110620747D01*
X132609096Y-110619132D01*
X132639749Y-110617841D01*
X132687474Y-110616862D01*
X132749521Y-110616183D01*
X132823138Y-110615790D01*
X132905573Y-110615670D01*
X132994075Y-110615812D01*
X133085893Y-110616203D01*
X133178276Y-110616829D01*
X133268472Y-110617680D01*
X133353729Y-110618740D01*
X133431297Y-110619999D01*
X133498424Y-110621444D01*
X133552359Y-110623062D01*
X133590350Y-110624839D01*
X133597333Y-110625331D01*
X133667749Y-110632908D01*
X133722898Y-110644469D01*
X133770019Y-110662208D01*
X133816353Y-110688318D01*
X133825933Y-110694585D01*
X133862622Y-110719017D01*
X133862622Y-109813689D01*
X132177755Y-109813493D01*
X132177755Y-109813493D01*
G37*
X132177755Y-109813493D02*
X131943338Y-109813474D01*
X131730397Y-109813448D01*
X131537832Y-109813375D01*
X131364541Y-109813218D01*
X131209424Y-109812936D01*
X131071380Y-109812491D01*
X130949308Y-109811844D01*
X130842106Y-109810955D01*
X130748674Y-109809787D01*
X130667910Y-109808299D01*
X130598714Y-109806454D01*
X130539985Y-109804211D01*
X130490621Y-109801531D01*
X130449522Y-109798377D01*
X130415587Y-109794708D01*
X130387714Y-109790487D01*
X130364802Y-109785673D01*
X130345751Y-109780227D01*
X130329460Y-109774112D01*
X130314827Y-109767288D01*
X130300751Y-109759715D01*
X130286132Y-109751355D01*
X130277026Y-109746161D01*
X130216311Y-109711896D01*
X130216311Y-110570045D01*
X130312267Y-110570045D01*
X130355630Y-110570776D01*
X130388795Y-110572728D01*
X130406576Y-110575537D01*
X130408222Y-110576779D01*
X130401338Y-110588201D01*
X130383495Y-110610916D01*
X130364121Y-110633615D01*
X130323386Y-110688200D01*
X130282383Y-110757679D01*
X130244877Y-110834730D01*
X130214636Y-110912035D01*
X130204988Y-110942887D01*
X130190422Y-111011384D01*
X130180461Y-111094236D01*
X130175417Y-111183629D01*
X130175604Y-111271752D01*
X130181334Y-111350793D01*
X130187142Y-111388489D01*
X130225203Y-111526586D01*
X130282927Y-111653887D01*
X130359789Y-111769708D01*
X130455261Y-111873363D01*
X130568821Y-111964167D01*
X130679619Y-112030969D01*
X130796375Y-112085836D01*
X130915724Y-112127837D01*
X131041717Y-112157833D01*
X131178406Y-112176689D01*
X131329842Y-112185268D01*
X131407289Y-112185994D01*
X131464066Y-112183900D01*
X131464066Y-111354783D01*
X131370998Y-111354576D01*
X131283308Y-111351663D01*
X131206228Y-111346000D01*
X131144991Y-111337545D01*
X131132650Y-111334962D01*
X131025367Y-111303160D01*
X130938342Y-111261502D01*
X130871358Y-111209637D01*
X130824195Y-111147219D01*
X130796635Y-111073900D01*
X130788459Y-110989331D01*
X130799449Y-110893165D01*
X130815171Y-110829689D01*
X130833361Y-110780546D01*
X130859209Y-110726417D01*
X130882911Y-110685756D01*
X130929279Y-110615200D01*
X132079470Y-110615200D01*
X132123038Y-110682608D01*
X132163960Y-110761133D01*
X132190611Y-110845319D01*
X132202535Y-110930443D01*
X132199278Y-111011784D01*
X132180385Y-111084620D01*
X132164816Y-111116574D01*
X132121819Y-111174499D01*
X132065047Y-111223456D01*
X131992425Y-111264610D01*
X131901879Y-111299126D01*
X131791334Y-111328167D01*
X131785467Y-111329448D01*
X131723212Y-111339619D01*
X131645406Y-111347261D01*
X131557280Y-111352330D01*
X131464066Y-111354783D01*
X131464066Y-112183900D01*
X131620105Y-112178143D01*
X131815941Y-112156198D01*
X131994668Y-112120214D01*
X132156155Y-112070241D01*
X132300274Y-112006332D01*
X132426894Y-111928538D01*
X132535885Y-111836911D01*
X132627117Y-111731503D01*
X132658068Y-111686338D01*
X132714215Y-111585389D01*
X132753826Y-111482099D01*
X132777986Y-111372011D01*
X132787781Y-111250670D01*
X132786735Y-111158164D01*
X132775769Y-111028510D01*
X132753954Y-110915916D01*
X132720286Y-110817125D01*
X132673764Y-110728879D01*
X132639552Y-110680014D01*
X132617638Y-110650647D01*
X132602667Y-110628957D01*
X132598267Y-110620747D01*
X132609096Y-110619132D01*
X132639749Y-110617841D01*
X132687474Y-110616862D01*
X132749521Y-110616183D01*
X132823138Y-110615790D01*
X132905573Y-110615670D01*
X132994075Y-110615812D01*
X133085893Y-110616203D01*
X133178276Y-110616829D01*
X133268472Y-110617680D01*
X133353729Y-110618740D01*
X133431297Y-110619999D01*
X133498424Y-110621444D01*
X133552359Y-110623062D01*
X133590350Y-110624839D01*
X133597333Y-110625331D01*
X133667749Y-110632908D01*
X133722898Y-110644469D01*
X133770019Y-110662208D01*
X133816353Y-110688318D01*
X133825933Y-110694585D01*
X133862622Y-110719017D01*
X133862622Y-109813689D01*
X132177755Y-109813493D01*
G36*
X132783448Y-113326426D02*
X132763433Y-113174508D01*
X132729798Y-113039244D01*
X132682275Y-112919761D01*
X132620595Y-112815185D01*
X132557035Y-112737576D01*
X132482901Y-112668735D01*
X132403129Y-112614994D01*
X132310909Y-112572090D01*
X132267839Y-112556616D01*
X132228858Y-112543756D01*
X132192711Y-112532554D01*
X132157566Y-112522880D01*
X132121590Y-112514604D01*
X132082950Y-112507597D01*
X132039815Y-112501728D01*
X131990351Y-112496869D01*
X131932727Y-112492890D01*
X131865109Y-112489660D01*
X131785666Y-112487051D01*
X131692564Y-112484933D01*
X131583973Y-112483176D01*
X131458058Y-112481651D01*
X131312988Y-112480228D01*
X131170222Y-112478975D01*
X131014032Y-112477649D01*
X130878761Y-112476444D01*
X130762754Y-112475234D01*
X130664355Y-112473894D01*
X130581907Y-112472300D01*
X130513754Y-112470325D01*
X130458240Y-112467844D01*
X130413708Y-112464731D01*
X130378502Y-112460862D01*
X130350966Y-112456111D01*
X130329444Y-112450352D01*
X130312278Y-112443461D01*
X130297814Y-112435311D01*
X130284394Y-112425777D01*
X130270362Y-112414734D01*
X130264929Y-112410434D01*
X130242090Y-112394614D01*
X130226537Y-112387578D01*
X130226078Y-112387556D01*
X130223879Y-112398433D01*
X130221853Y-112429418D01*
X130220058Y-112478043D01*
X130218549Y-112541837D01*
X130217384Y-112618331D01*
X130216620Y-112705056D01*
X130216314Y-112799543D01*
X130216311Y-112810450D01*
X130216311Y-113233343D01*
X130312378Y-113236605D01*
X130408444Y-113239867D01*
X130357457Y-113301956D01*
X130289943Y-113399286D01*
X130235251Y-113509187D01*
X130205022Y-113595651D01*
X130190334Y-113664722D01*
X130180341Y-113748075D01*
X130175354Y-113837841D01*
X130175687Y-113926155D01*
X130181649Y-114005149D01*
X130187362Y-114041378D01*
X130225224Y-114181397D01*
X130280068Y-114307822D01*
X130351076Y-114419740D01*
X130437432Y-114516238D01*
X130538321Y-114596400D01*
X130652924Y-114659313D01*
X130779016Y-114703688D01*
X130835599Y-114716022D01*
X130897798Y-114723632D01*
X130972637Y-114727261D01*
X131006533Y-114727755D01*
X131009718Y-114727690D01*
X131009718Y-113967752D01*
X130934667Y-113958459D01*
X130870840Y-113930272D01*
X130815202Y-113881803D01*
X130810789Y-113876746D01*
X130775963Y-113828452D01*
X130753380Y-113776743D01*
X130741460Y-113716011D01*
X130738617Y-113640648D01*
X130739022Y-113622541D01*
X130741675Y-113568722D01*
X130747091Y-113528692D01*
X130757255Y-113493676D01*
X130774150Y-113454897D01*
X130779328Y-113444255D01*
X130815156Y-113383604D01*
X130857788Y-113336785D01*
X130873027Y-113324048D01*
X130929538Y-113279378D01*
X131125414Y-113279378D01*
X131204061Y-113279914D01*
X131262012Y-113281604D01*
X131301125Y-113284572D01*
X131323259Y-113288943D01*
X131329726Y-113293028D01*
X131332889Y-113308953D01*
X131335512Y-113342736D01*
X131337345Y-113389660D01*
X131338143Y-113445007D01*
X131338158Y-113453894D01*
X131332904Y-113574670D01*
X131316737Y-113677340D01*
X131289039Y-113763894D01*
X131249192Y-113836319D01*
X131202242Y-113891249D01*
X131144355Y-113935796D01*
X131081307Y-113960520D01*
X131009718Y-113967752D01*
X131009718Y-114727690D01*
X131100288Y-114725822D01*
X131179188Y-114717478D01*
X131250410Y-114701232D01*
X131321136Y-114675595D01*
X131373507Y-114651599D01*
X131468804Y-114592980D01*
X131556830Y-114514883D01*
X131635983Y-114419685D01*
X131704660Y-114309762D01*
X131761259Y-114187490D01*
X131804179Y-114055245D01*
X131819118Y-113990578D01*
X131841223Y-113854396D01*
X131855806Y-113705951D01*
X131862187Y-113554495D01*
X131860555Y-113427936D01*
X131853776Y-113266050D01*
X131912755Y-113273470D01*
X132011908Y-113292762D01*
X132092628Y-113323896D01*
X132155534Y-113367731D01*
X132201244Y-113425129D01*
X132230378Y-113496952D01*
X132243553Y-113584059D01*
X132241389Y-113687314D01*
X132237388Y-113725289D01*
X132212220Y-113866480D01*
X132171186Y-114003293D01*
X132133185Y-114097822D01*
X132113810Y-114142982D01*
X132098240Y-114181415D01*
X132088595Y-114207766D01*
X132086548Y-114215454D01*
X132095626Y-114225198D01*
X132124595Y-114241917D01*
X132173783Y-114265768D01*
X132243516Y-114296907D01*
X132334121Y-114335493D01*
X132349911Y-114342090D01*
X132422228Y-114372147D01*
X132487575Y-114399126D01*
X132543094Y-114421864D01*
X132585928Y-114439194D01*
X132613219Y-114449952D01*
X132622058Y-114453059D01*
X132626813Y-114443060D01*
X132632090Y-114416783D01*
X132635769Y-114388511D01*
X132640526Y-114358354D01*
X132649972Y-114310567D01*
X132663180Y-114249388D01*
X132679224Y-114179054D01*
X132697180Y-114103806D01*
X132704203Y-114075245D01*
X132729791Y-113970184D01*
X132749853Y-113882520D01*
X132765031Y-113807932D01*
X132775965Y-113742097D01*
X132783296Y-113680693D01*
X132787665Y-113619398D01*
X132789713Y-113553890D01*
X132790111Y-113495872D01*
X132783448Y-113326426D01*
X132783448Y-113326426D01*
G37*
X132783448Y-113326426D02*
X132763433Y-113174508D01*
X132729798Y-113039244D01*
X132682275Y-112919761D01*
X132620595Y-112815185D01*
X132557035Y-112737576D01*
X132482901Y-112668735D01*
X132403129Y-112614994D01*
X132310909Y-112572090D01*
X132267839Y-112556616D01*
X132228858Y-112543756D01*
X132192711Y-112532554D01*
X132157566Y-112522880D01*
X132121590Y-112514604D01*
X132082950Y-112507597D01*
X132039815Y-112501728D01*
X131990351Y-112496869D01*
X131932727Y-112492890D01*
X131865109Y-112489660D01*
X131785666Y-112487051D01*
X131692564Y-112484933D01*
X131583973Y-112483176D01*
X131458058Y-112481651D01*
X131312988Y-112480228D01*
X131170222Y-112478975D01*
X131014032Y-112477649D01*
X130878761Y-112476444D01*
X130762754Y-112475234D01*
X130664355Y-112473894D01*
X130581907Y-112472300D01*
X130513754Y-112470325D01*
X130458240Y-112467844D01*
X130413708Y-112464731D01*
X130378502Y-112460862D01*
X130350966Y-112456111D01*
X130329444Y-112450352D01*
X130312278Y-112443461D01*
X130297814Y-112435311D01*
X130284394Y-112425777D01*
X130270362Y-112414734D01*
X130264929Y-112410434D01*
X130242090Y-112394614D01*
X130226537Y-112387578D01*
X130226078Y-112387556D01*
X130223879Y-112398433D01*
X130221853Y-112429418D01*
X130220058Y-112478043D01*
X130218549Y-112541837D01*
X130217384Y-112618331D01*
X130216620Y-112705056D01*
X130216314Y-112799543D01*
X130216311Y-112810450D01*
X130216311Y-113233343D01*
X130312378Y-113236605D01*
X130408444Y-113239867D01*
X130357457Y-113301956D01*
X130289943Y-113399286D01*
X130235251Y-113509187D01*
X130205022Y-113595651D01*
X130190334Y-113664722D01*
X130180341Y-113748075D01*
X130175354Y-113837841D01*
X130175687Y-113926155D01*
X130181649Y-114005149D01*
X130187362Y-114041378D01*
X130225224Y-114181397D01*
X130280068Y-114307822D01*
X130351076Y-114419740D01*
X130437432Y-114516238D01*
X130538321Y-114596400D01*
X130652924Y-114659313D01*
X130779016Y-114703688D01*
X130835599Y-114716022D01*
X130897798Y-114723632D01*
X130972637Y-114727261D01*
X131006533Y-114727755D01*
X131009718Y-114727690D01*
X131009718Y-113967752D01*
X130934667Y-113958459D01*
X130870840Y-113930272D01*
X130815202Y-113881803D01*
X130810789Y-113876746D01*
X130775963Y-113828452D01*
X130753380Y-113776743D01*
X130741460Y-113716011D01*
X130738617Y-113640648D01*
X130739022Y-113622541D01*
X130741675Y-113568722D01*
X130747091Y-113528692D01*
X130757255Y-113493676D01*
X130774150Y-113454897D01*
X130779328Y-113444255D01*
X130815156Y-113383604D01*
X130857788Y-113336785D01*
X130873027Y-113324048D01*
X130929538Y-113279378D01*
X131125414Y-113279378D01*
X131204061Y-113279914D01*
X131262012Y-113281604D01*
X131301125Y-113284572D01*
X131323259Y-113288943D01*
X131329726Y-113293028D01*
X131332889Y-113308953D01*
X131335512Y-113342736D01*
X131337345Y-113389660D01*
X131338143Y-113445007D01*
X131338158Y-113453894D01*
X131332904Y-113574670D01*
X131316737Y-113677340D01*
X131289039Y-113763894D01*
X131249192Y-113836319D01*
X131202242Y-113891249D01*
X131144355Y-113935796D01*
X131081307Y-113960520D01*
X131009718Y-113967752D01*
X131009718Y-114727690D01*
X131100288Y-114725822D01*
X131179188Y-114717478D01*
X131250410Y-114701232D01*
X131321136Y-114675595D01*
X131373507Y-114651599D01*
X131468804Y-114592980D01*
X131556830Y-114514883D01*
X131635983Y-114419685D01*
X131704660Y-114309762D01*
X131761259Y-114187490D01*
X131804179Y-114055245D01*
X131819118Y-113990578D01*
X131841223Y-113854396D01*
X131855806Y-113705951D01*
X131862187Y-113554495D01*
X131860555Y-113427936D01*
X131853776Y-113266050D01*
X131912755Y-113273470D01*
X132011908Y-113292762D01*
X132092628Y-113323896D01*
X132155534Y-113367731D01*
X132201244Y-113425129D01*
X132230378Y-113496952D01*
X132243553Y-113584059D01*
X132241389Y-113687314D01*
X132237388Y-113725289D01*
X132212220Y-113866480D01*
X132171186Y-114003293D01*
X132133185Y-114097822D01*
X132113810Y-114142982D01*
X132098240Y-114181415D01*
X132088595Y-114207766D01*
X132086548Y-114215454D01*
X132095626Y-114225198D01*
X132124595Y-114241917D01*
X132173783Y-114265768D01*
X132243516Y-114296907D01*
X132334121Y-114335493D01*
X132349911Y-114342090D01*
X132422228Y-114372147D01*
X132487575Y-114399126D01*
X132543094Y-114421864D01*
X132585928Y-114439194D01*
X132613219Y-114449952D01*
X132622058Y-114453059D01*
X132626813Y-114443060D01*
X132632090Y-114416783D01*
X132635769Y-114388511D01*
X132640526Y-114358354D01*
X132649972Y-114310567D01*
X132663180Y-114249388D01*
X132679224Y-114179054D01*
X132697180Y-114103806D01*
X132704203Y-114075245D01*
X132729791Y-113970184D01*
X132749853Y-113882520D01*
X132765031Y-113807932D01*
X132775965Y-113742097D01*
X132783296Y-113680693D01*
X132787665Y-113619398D01*
X132789713Y-113553890D01*
X132790111Y-113495872D01*
X132783448Y-113326426D01*
G36*
X133700929Y-115671571D02*
X133679755Y-115511430D01*
X133639615Y-115347490D01*
X133580111Y-115177687D01*
X133500846Y-114999957D01*
X133495301Y-114988690D01*
X133467275Y-114930995D01*
X133443198Y-114879448D01*
X133424751Y-114837809D01*
X133413614Y-114809838D01*
X133411067Y-114800267D01*
X133406059Y-114781050D01*
X133401853Y-114776439D01*
X133391420Y-114781542D01*
X133365132Y-114797582D01*
X133325743Y-114822712D01*
X133276009Y-114855086D01*
X133218685Y-114892857D01*
X133156524Y-114934178D01*
X133092282Y-114977202D01*
X133028715Y-115020083D01*
X132968575Y-115060974D01*
X132914620Y-115098029D01*
X132869603Y-115129400D01*
X132836279Y-115153241D01*
X132817403Y-115167706D01*
X132815213Y-115169691D01*
X132819862Y-115179809D01*
X132837038Y-115202150D01*
X132863560Y-115232720D01*
X132878036Y-115248464D01*
X132953318Y-115344953D01*
X133008759Y-115451664D01*
X133043859Y-115567168D01*
X133058120Y-115690038D01*
X133056949Y-115759439D01*
X133039788Y-115880577D01*
X133003906Y-115989795D01*
X132949041Y-116087418D01*
X132874930Y-116173772D01*
X132781312Y-116249185D01*
X132667924Y-116313982D01*
X132581333Y-116351399D01*
X132445634Y-116395252D01*
X132298150Y-116427572D01*
X132142686Y-116448443D01*
X131983044Y-116457949D01*
X131823027Y-116456173D01*
X131666439Y-116443197D01*
X131517082Y-116419106D01*
X131378760Y-116383982D01*
X131255276Y-116337908D01*
X131221022Y-116321627D01*
X131106936Y-116253380D01*
X131010443Y-116172921D01*
X130932330Y-116081430D01*
X130873383Y-115980089D01*
X130834388Y-115870080D01*
X130816132Y-115752585D01*
X130814789Y-115711117D01*
X130825710Y-115589559D01*
X130858526Y-115469122D01*
X130912561Y-115351334D01*
X130987135Y-115237723D01*
X131065461Y-115146315D01*
X131109992Y-115099785D01*
X130812729Y-114918517D01*
X130738567Y-114873420D01*
X130670354Y-114832181D01*
X130610541Y-114796265D01*
X130561580Y-114767134D01*
X130525921Y-114746250D01*
X130506016Y-114735076D01*
X130502921Y-114733625D01*
X130493282Y-114741854D01*
X130476001Y-114767433D01*
X130452717Y-114807127D01*
X130425066Y-114857703D01*
X130394685Y-114915926D01*
X130363210Y-114978563D01*
X130332278Y-115042379D01*
X130303527Y-115104140D01*
X130278592Y-115160612D01*
X130259111Y-115208562D01*
X130250682Y-115232014D01*
X130212867Y-115365779D01*
X130187864Y-115503673D01*
X130174860Y-115651378D01*
X130172532Y-115778167D01*
X130173627Y-115846122D01*
X130175725Y-115911723D01*
X130178566Y-115969153D01*
X130181894Y-116012597D01*
X130183578Y-116026702D01*
X130212413Y-116165716D01*
X130257532Y-116307243D01*
X130316250Y-116444725D01*
X130385880Y-116571606D01*
X130438559Y-116649111D01*
X130546761Y-116776519D01*
X130673329Y-116894822D01*
X130815134Y-117001828D01*
X130969049Y-117095348D01*
X131131947Y-117173190D01*
X131249244Y-117217044D01*
X131432872Y-117267292D01*
X131627419Y-117300791D01*
X131828675Y-117317551D01*
X132032432Y-117317584D01*
X132234479Y-117300899D01*
X132430608Y-117267507D01*
X132616609Y-117217420D01*
X132628197Y-117213603D01*
X132790250Y-117150719D01*
X132938168Y-117073972D01*
X133076135Y-116980758D01*
X133208339Y-116868473D01*
X133253601Y-116824608D01*
X133377543Y-116688466D01*
X133480085Y-116548509D01*
X133562344Y-116402589D01*
X133625436Y-116248558D01*
X133670477Y-116084268D01*
X133687967Y-115988711D01*
X133703534Y-115829977D01*
X133700929Y-115671571D01*
X133700929Y-115671571D01*
G37*
X133700929Y-115671571D02*
X133679755Y-115511430D01*
X133639615Y-115347490D01*
X133580111Y-115177687D01*
X133500846Y-114999957D01*
X133495301Y-114988690D01*
X133467275Y-114930995D01*
X133443198Y-114879448D01*
X133424751Y-114837809D01*
X133413614Y-114809838D01*
X133411067Y-114800267D01*
X133406059Y-114781050D01*
X133401853Y-114776439D01*
X133391420Y-114781542D01*
X133365132Y-114797582D01*
X133325743Y-114822712D01*
X133276009Y-114855086D01*
X133218685Y-114892857D01*
X133156524Y-114934178D01*
X133092282Y-114977202D01*
X133028715Y-115020083D01*
X132968575Y-115060974D01*
X132914620Y-115098029D01*
X132869603Y-115129400D01*
X132836279Y-115153241D01*
X132817403Y-115167706D01*
X132815213Y-115169691D01*
X132819862Y-115179809D01*
X132837038Y-115202150D01*
X132863560Y-115232720D01*
X132878036Y-115248464D01*
X132953318Y-115344953D01*
X133008759Y-115451664D01*
X133043859Y-115567168D01*
X133058120Y-115690038D01*
X133056949Y-115759439D01*
X133039788Y-115880577D01*
X133003906Y-115989795D01*
X132949041Y-116087418D01*
X132874930Y-116173772D01*
X132781312Y-116249185D01*
X132667924Y-116313982D01*
X132581333Y-116351399D01*
X132445634Y-116395252D01*
X132298150Y-116427572D01*
X132142686Y-116448443D01*
X131983044Y-116457949D01*
X131823027Y-116456173D01*
X131666439Y-116443197D01*
X131517082Y-116419106D01*
X131378760Y-116383982D01*
X131255276Y-116337908D01*
X131221022Y-116321627D01*
X131106936Y-116253380D01*
X131010443Y-116172921D01*
X130932330Y-116081430D01*
X130873383Y-115980089D01*
X130834388Y-115870080D01*
X130816132Y-115752585D01*
X130814789Y-115711117D01*
X130825710Y-115589559D01*
X130858526Y-115469122D01*
X130912561Y-115351334D01*
X130987135Y-115237723D01*
X131065461Y-115146315D01*
X131109992Y-115099785D01*
X130812729Y-114918517D01*
X130738567Y-114873420D01*
X130670354Y-114832181D01*
X130610541Y-114796265D01*
X130561580Y-114767134D01*
X130525921Y-114746250D01*
X130506016Y-114735076D01*
X130502921Y-114733625D01*
X130493282Y-114741854D01*
X130476001Y-114767433D01*
X130452717Y-114807127D01*
X130425066Y-114857703D01*
X130394685Y-114915926D01*
X130363210Y-114978563D01*
X130332278Y-115042379D01*
X130303527Y-115104140D01*
X130278592Y-115160612D01*
X130259111Y-115208562D01*
X130250682Y-115232014D01*
X130212867Y-115365779D01*
X130187864Y-115503673D01*
X130174860Y-115651378D01*
X130172532Y-115778167D01*
X130173627Y-115846122D01*
X130175725Y-115911723D01*
X130178566Y-115969153D01*
X130181894Y-116012597D01*
X130183578Y-116026702D01*
X130212413Y-116165716D01*
X130257532Y-116307243D01*
X130316250Y-116444725D01*
X130385880Y-116571606D01*
X130438559Y-116649111D01*
X130546761Y-116776519D01*
X130673329Y-116894822D01*
X130815134Y-117001828D01*
X130969049Y-117095348D01*
X131131947Y-117173190D01*
X131249244Y-117217044D01*
X131432872Y-117267292D01*
X131627419Y-117300791D01*
X131828675Y-117317551D01*
X132032432Y-117317584D01*
X132234479Y-117300899D01*
X132430608Y-117267507D01*
X132616609Y-117217420D01*
X132628197Y-117213603D01*
X132790250Y-117150719D01*
X132938168Y-117073972D01*
X133076135Y-116980758D01*
X133208339Y-116868473D01*
X133253601Y-116824608D01*
X133377543Y-116688466D01*
X133480085Y-116548509D01*
X133562344Y-116402589D01*
X133625436Y-116248558D01*
X133670477Y-116084268D01*
X133687967Y-115988711D01*
X133703534Y-115829977D01*
X133700929Y-115671571D01*
G36*
X134160946Y-118946400D02*
X134047007Y-118935535D01*
X133939384Y-118903918D01*
X133840385Y-118853015D01*
X133752316Y-118784293D01*
X133677484Y-118699219D01*
X133619616Y-118602232D01*
X133579995Y-118495964D01*
X133561427Y-118388950D01*
X133562566Y-118283300D01*
X133582070Y-118181125D01*
X133618594Y-118084534D01*
X133670795Y-117995638D01*
X133737327Y-117916546D01*
X133816848Y-117849369D01*
X133908013Y-117796217D01*
X134009477Y-117759199D01*
X134119898Y-117740427D01*
X134169794Y-117738489D01*
X134257733Y-117738489D01*
X134257733Y-117686560D01*
X134254889Y-117650253D01*
X134243089Y-117623355D01*
X134219351Y-117596249D01*
X134180969Y-117557867D01*
X131989398Y-117557867D01*
X131727261Y-117557876D01*
X131486759Y-117557908D01*
X131266952Y-117557972D01*
X131066899Y-117558076D01*
X130885656Y-117558227D01*
X130722284Y-117558434D01*
X130575840Y-117558706D01*
X130445383Y-117559050D01*
X130329971Y-117559474D01*
X130228662Y-117559987D01*
X130140516Y-117560597D01*
X130064590Y-117561312D01*
X129999943Y-117562140D01*
X129945633Y-117563089D01*
X129900720Y-117564167D01*
X129864260Y-117565383D01*
X129835313Y-117566745D01*
X129812937Y-117568261D01*
X129796191Y-117569938D01*
X129784132Y-117571786D01*
X129775820Y-117573813D01*
X129770313Y-117576025D01*
X129768463Y-117577108D01*
X129761451Y-117581271D01*
X129755004Y-117584805D01*
X129749100Y-117588635D01*
X129743714Y-117593682D01*
X129738822Y-117600871D01*
X129734402Y-117611123D01*
X129730428Y-117625364D01*
X129726879Y-117644514D01*
X129723730Y-117669499D01*
X129720958Y-117701240D01*
X129718539Y-117740662D01*
X129716449Y-117788686D01*
X129714665Y-117846237D01*
X129713163Y-117914237D01*
X129711920Y-117993610D01*
X129710911Y-118085279D01*
X129710115Y-118190166D01*
X129709506Y-118309196D01*
X129709061Y-118443290D01*
X129708757Y-118593373D01*
X129708570Y-118760367D01*
X129708476Y-118945196D01*
X129708452Y-119148783D01*
X129708475Y-119372050D01*
X129708520Y-119615922D01*
X129708563Y-119881321D01*
X129708568Y-119919704D01*
X129708611Y-120186682D01*
X129708682Y-120432002D01*
X129708787Y-120656583D01*
X129708934Y-120861345D01*
X129709131Y-121047206D01*
X129709384Y-121215088D01*
X129709700Y-121365908D01*
X129710087Y-121500587D01*
X129710553Y-121620044D01*
X129711103Y-121725199D01*
X129711747Y-121816971D01*
X129712489Y-121896279D01*
X129713339Y-121964043D01*
X129714303Y-122021182D01*
X129715389Y-122068617D01*
X129716603Y-122107266D01*
X129717953Y-122138049D01*
X129719445Y-122161885D01*
X129721089Y-122179694D01*
X129722889Y-122192395D01*
X129724855Y-122200908D01*
X129726523Y-122205266D01*
X129730094Y-122213728D01*
X129732730Y-122221497D01*
X129735366Y-122228602D01*
X129738938Y-122235073D01*
X129744379Y-122240939D01*
X129752625Y-122246229D01*
X129764610Y-122250974D01*
X129781269Y-122255202D01*
X129803537Y-122258943D01*
X129832348Y-122262227D01*
X129868637Y-122265083D01*
X129913339Y-122267540D01*
X129967389Y-122269629D01*
X130031721Y-122271378D01*
X130107270Y-122272817D01*
X130194970Y-122273976D01*
X130295757Y-122274883D01*
X130410566Y-122275569D01*
X130540330Y-122276063D01*
X130685985Y-122276395D01*
X130848465Y-122276593D01*
X131028705Y-122276687D01*
X131227640Y-122276708D01*
X131446204Y-122276685D01*
X131685332Y-122276646D01*
X131945960Y-122276622D01*
X131988111Y-122276622D01*
X132251008Y-122276636D01*
X132492268Y-122276661D01*
X132712835Y-122276671D01*
X132913648Y-122276642D01*
X133095651Y-122276548D01*
X133259784Y-122276362D01*
X133406989Y-122276059D01*
X133538208Y-122275614D01*
X133648133Y-122275034D01*
X133648133Y-121972197D01*
X133590289Y-121932407D01*
X133574521Y-121921236D01*
X133560559Y-121911166D01*
X133547216Y-121902138D01*
X133533307Y-121894097D01*
X133517644Y-121886986D01*
X133499042Y-121880747D01*
X133476314Y-121875325D01*
X133448273Y-121870662D01*
X133413733Y-121866701D01*
X133371508Y-121863385D01*
X133320411Y-121860659D01*
X133259256Y-121858464D01*
X133186856Y-121856745D01*
X133102025Y-121855444D01*
X133003578Y-121854505D01*
X132890326Y-121853870D01*
X132761084Y-121853484D01*
X132614666Y-121853288D01*
X132449884Y-121853227D01*
X132265553Y-121853243D01*
X132060487Y-121853280D01*
X131937867Y-121853289D01*
X131720918Y-121853265D01*
X131525358Y-121853231D01*
X131350001Y-121853243D01*
X131193659Y-121853358D01*
X131055143Y-121853630D01*
X130933266Y-121854118D01*
X130826840Y-121854876D01*
X130734678Y-121855962D01*
X130655591Y-121857431D01*
X130588392Y-121859340D01*
X130531893Y-121861744D01*
X130484907Y-121864701D01*
X130446245Y-121868266D01*
X130414720Y-121872495D01*
X130389145Y-121877446D01*
X130368330Y-121883173D01*
X130351089Y-121889733D01*
X130336235Y-121897183D01*
X130322578Y-121905579D01*
X130308931Y-121914976D01*
X130294107Y-121925432D01*
X130285217Y-121931523D01*
X130227600Y-121970296D01*
X130227600Y-121438732D01*
X130227635Y-121315483D01*
X130227785Y-121212987D01*
X130228122Y-121129420D01*
X130228714Y-121062956D01*
X130229633Y-121011771D01*
X130230949Y-120974041D01*
X130232731Y-120947940D01*
X130235049Y-120931644D01*
X130237974Y-120923328D01*
X130241576Y-120921168D01*
X130245925Y-120923339D01*
X130247355Y-120924535D01*
X130284427Y-120949685D01*
X130337228Y-120975583D01*
X130399230Y-120999192D01*
X130425643Y-121007461D01*
X130443584Y-121012078D01*
X130464645Y-121015979D01*
X130490911Y-121019248D01*
X130524468Y-121021966D01*
X130567401Y-121024215D01*
X130621796Y-121026077D01*
X130689738Y-121027636D01*
X130773312Y-121028972D01*
X130874605Y-121030169D01*
X130995700Y-121031308D01*
X131040400Y-121031685D01*
X131165551Y-121032702D01*
X131269918Y-121033460D01*
X131355293Y-121033903D01*
X131423467Y-121033970D01*
X131476235Y-121033605D01*
X131515386Y-121032748D01*
X131542715Y-121031341D01*
X131560014Y-121029325D01*
X131569074Y-121026643D01*
X131571688Y-121023236D01*
X131569649Y-121019044D01*
X131565333Y-121014571D01*
X131552398Y-121004216D01*
X131523324Y-120982158D01*
X131480241Y-120949957D01*
X131425282Y-120909174D01*
X131360577Y-120861370D01*
X131288258Y-120808105D01*
X131210456Y-120750940D01*
X131129302Y-120691437D01*
X131046928Y-120631155D01*
X130965464Y-120571655D01*
X130887043Y-120514498D01*
X130813796Y-120461245D01*
X130747853Y-120413457D01*
X130691346Y-120372693D01*
X130646407Y-120340516D01*
X130615166Y-120318485D01*
X130608534Y-120313917D01*
X130571631Y-120290996D01*
X130523641Y-120264188D01*
X130474103Y-120238789D01*
X130467423Y-120235568D01*
X130419228Y-120213890D01*
X130381666Y-120201304D01*
X130345840Y-120195574D01*
X130303800Y-120194456D01*
X130227600Y-120195090D01*
X130227600Y-119040651D01*
X130321331Y-119131815D01*
X130371225Y-119178612D01*
X130427705Y-119228899D01*
X130481974Y-119274944D01*
X130507327Y-119295369D01*
X130546872Y-119325807D01*
X130600084Y-119365862D01*
X130665333Y-119414361D01*
X130740989Y-119470135D01*
X130825423Y-119532011D01*
X130917006Y-119598819D01*
X131014108Y-119669387D01*
X131115099Y-119742545D01*
X131218350Y-119817121D01*
X131322232Y-119891944D01*
X131425115Y-119965843D01*
X131525369Y-120037646D01*
X131621364Y-120106184D01*
X131711473Y-120170284D01*
X131794064Y-120228775D01*
X131867508Y-120280486D01*
X131930176Y-120324247D01*
X131980439Y-120358885D01*
X132016666Y-120383230D01*
X132037229Y-120396111D01*
X132041332Y-120397869D01*
X132052658Y-120389910D01*
X132079838Y-120369115D01*
X132121171Y-120336847D01*
X132174956Y-120294470D01*
X132239494Y-120243347D01*
X132313082Y-120184841D01*
X132394022Y-120120314D01*
X132480612Y-120051131D01*
X132571152Y-119978653D01*
X132663940Y-119904246D01*
X132738298Y-119844517D01*
X132738298Y-118833511D01*
X132725341Y-118827602D01*
X132703092Y-118813272D01*
X132701609Y-118812225D01*
X132671456Y-118793438D01*
X132634625Y-118773791D01*
X132626489Y-118769892D01*
X132618060Y-118766356D01*
X132607941Y-118763230D01*
X132594740Y-118760486D01*
X132577062Y-118758092D01*
X132553516Y-118756019D01*
X132522707Y-118754235D01*
X132483243Y-118752712D01*
X132433731Y-118751419D01*
X132372777Y-118750326D01*
X132298989Y-118749403D01*
X132210972Y-118748619D01*
X132107335Y-118747945D01*
X131986684Y-118747350D01*
X131847626Y-118746805D01*
X131688768Y-118746279D01*
X131509911Y-118745745D01*
X131324793Y-118745206D01*
X131160855Y-118744772D01*
X131016697Y-118744509D01*
X130890921Y-118744484D01*
X130782129Y-118744765D01*
X130688923Y-118745419D01*
X130609903Y-118746514D01*
X130543672Y-118748118D01*
X130488830Y-118750297D01*
X130443979Y-118753119D01*
X130407722Y-118756651D01*
X130378659Y-118760961D01*
X130355391Y-118766117D01*
X130336521Y-118772185D01*
X130320649Y-118779233D01*
X130306378Y-118787329D01*
X130292309Y-118796540D01*
X130279842Y-118805040D01*
X130253548Y-118822176D01*
X130235963Y-118832322D01*
X130232743Y-118833511D01*
X130231666Y-118822604D01*
X130230665Y-118791411D01*
X130229765Y-118742223D01*
X130228990Y-118677333D01*
X130228363Y-118599030D01*
X130227909Y-118509607D01*
X130227651Y-118411356D01*
X130227600Y-118342445D01*
X130227820Y-118237452D01*
X130228452Y-118140610D01*
X130229451Y-118054107D01*
X130230773Y-117980132D01*
X130232374Y-117920874D01*
X130234209Y-117878520D01*
X130236235Y-117855260D01*
X130237507Y-117851378D01*
X130252409Y-117859076D01*
X130260440Y-117867074D01*
X130277566Y-117880246D01*
X130307817Y-117897485D01*
X130332378Y-117909407D01*
X130391289Y-117936045D01*
X131568155Y-117939120D01*
X132745022Y-117942195D01*
X132745022Y-118387853D01*
X132744858Y-118485670D01*
X132744389Y-118576064D01*
X132743653Y-118656630D01*
X132742684Y-118724962D01*
X132741520Y-118778656D01*
X132740197Y-118815305D01*
X132738751Y-118832504D01*
X132738298Y-118833511D01*
X132738298Y-119844517D01*
X132757278Y-119829270D01*
X132849463Y-119755090D01*
X132938796Y-119683069D01*
X133023576Y-119614569D01*
X133102102Y-119550955D01*
X133172674Y-119493588D01*
X133233591Y-119443833D01*
X133283153Y-119403052D01*
X133303822Y-119385888D01*
X133404484Y-119299596D01*
X133487741Y-119222997D01*
X133555562Y-119154183D01*
X133609911Y-119091248D01*
X133617278Y-119081867D01*
X133647883Y-119042356D01*
X133648133Y-120174116D01*
X133600156Y-120168827D01*
X133542812Y-120172130D01*
X133474537Y-120193661D01*
X133394788Y-120233635D01*
X133322505Y-120278943D01*
X133299860Y-120295161D01*
X133262304Y-120323214D01*
X133211979Y-120361430D01*
X133151027Y-120408137D01*
X133081589Y-120461661D01*
X133005806Y-120520331D01*
X132925820Y-120582475D01*
X132843772Y-120646421D01*
X132761804Y-120710495D01*
X132682057Y-120773027D01*
X132606673Y-120832343D01*
X132537793Y-120886771D01*
X132477558Y-120934639D01*
X132428111Y-120974275D01*
X132391592Y-121004006D01*
X132370142Y-121022161D01*
X132366844Y-121025220D01*
X132374851Y-121028079D01*
X132405145Y-121030293D01*
X132457444Y-121031857D01*
X132531469Y-121032767D01*
X132626937Y-121033020D01*
X132743566Y-121032613D01*
X132863555Y-121031704D01*
X132995667Y-121030382D01*
X133107406Y-121028857D01*
X133200975Y-121026881D01*
X133278581Y-121024206D01*
X133342426Y-121020582D01*
X133394717Y-121015761D01*
X133437656Y-121009494D01*
X133473449Y-121001532D01*
X133504300Y-120991627D01*
X133532414Y-120979531D01*
X133559995Y-120964993D01*
X133585034Y-120950311D01*
X133648133Y-120912314D01*
X133648133Y-121972197D01*
X133648133Y-122275034D01*
X133654383Y-122275001D01*
X133756456Y-122274195D01*
X133845367Y-122273170D01*
X133922059Y-122271900D01*
X133987473Y-122270360D01*
X134042551Y-122268524D01*
X134088235Y-122266367D01*
X134125466Y-122263863D01*
X134155187Y-122260987D01*
X134178338Y-122257713D01*
X134195861Y-122254015D01*
X134208699Y-122249869D01*
X134217792Y-122245247D01*
X134224082Y-122240126D01*
X134228512Y-122234478D01*
X134232022Y-122228279D01*
X134235555Y-122221504D01*
X134239124Y-122215508D01*
X134241700Y-122210275D01*
X134244028Y-122202099D01*
X134246122Y-122189886D01*
X134247993Y-122172541D01*
X134249653Y-122148969D01*
X134251116Y-122118077D01*
X134252392Y-122078768D01*
X134253496Y-122029950D01*
X134254439Y-121970527D01*
X134255233Y-121899404D01*
X134255891Y-121815488D01*
X134256425Y-121717683D01*
X134256847Y-121604894D01*
X134257171Y-121476029D01*
X134257408Y-121329991D01*
X134257570Y-121165686D01*
X134257670Y-120982020D01*
X134257720Y-120777897D01*
X134257733Y-120566753D01*
X134257733Y-118946400D01*
X134160946Y-118946400D01*
X134160946Y-118946400D01*
G37*
X134160946Y-118946400D02*
X134047007Y-118935535D01*
X133939384Y-118903918D01*
X133840385Y-118853015D01*
X133752316Y-118784293D01*
X133677484Y-118699219D01*
X133619616Y-118602232D01*
X133579995Y-118495964D01*
X133561427Y-118388950D01*
X133562566Y-118283300D01*
X133582070Y-118181125D01*
X133618594Y-118084534D01*
X133670795Y-117995638D01*
X133737327Y-117916546D01*
X133816848Y-117849369D01*
X133908013Y-117796217D01*
X134009477Y-117759199D01*
X134119898Y-117740427D01*
X134169794Y-117738489D01*
X134257733Y-117738489D01*
X134257733Y-117686560D01*
X134254889Y-117650253D01*
X134243089Y-117623355D01*
X134219351Y-117596249D01*
X134180969Y-117557867D01*
X131989398Y-117557867D01*
X131727261Y-117557876D01*
X131486759Y-117557908D01*
X131266952Y-117557972D01*
X131066899Y-117558076D01*
X130885656Y-117558227D01*
X130722284Y-117558434D01*
X130575840Y-117558706D01*
X130445383Y-117559050D01*
X130329971Y-117559474D01*
X130228662Y-117559987D01*
X130140516Y-117560597D01*
X130064590Y-117561312D01*
X129999943Y-117562140D01*
X129945633Y-117563089D01*
X129900720Y-117564167D01*
X129864260Y-117565383D01*
X129835313Y-117566745D01*
X129812937Y-117568261D01*
X129796191Y-117569938D01*
X129784132Y-117571786D01*
X129775820Y-117573813D01*
X129770313Y-117576025D01*
X129768463Y-117577108D01*
X129761451Y-117581271D01*
X129755004Y-117584805D01*
X129749100Y-117588635D01*
X129743714Y-117593682D01*
X129738822Y-117600871D01*
X129734402Y-117611123D01*
X129730428Y-117625364D01*
X129726879Y-117644514D01*
X129723730Y-117669499D01*
X129720958Y-117701240D01*
X129718539Y-117740662D01*
X129716449Y-117788686D01*
X129714665Y-117846237D01*
X129713163Y-117914237D01*
X129711920Y-117993610D01*
X129710911Y-118085279D01*
X129710115Y-118190166D01*
X129709506Y-118309196D01*
X129709061Y-118443290D01*
X129708757Y-118593373D01*
X129708570Y-118760367D01*
X129708476Y-118945196D01*
X129708452Y-119148783D01*
X129708475Y-119372050D01*
X129708520Y-119615922D01*
X129708563Y-119881321D01*
X129708568Y-119919704D01*
X129708611Y-120186682D01*
X129708682Y-120432002D01*
X129708787Y-120656583D01*
X129708934Y-120861345D01*
X129709131Y-121047206D01*
X129709384Y-121215088D01*
X129709700Y-121365908D01*
X129710087Y-121500587D01*
X129710553Y-121620044D01*
X129711103Y-121725199D01*
X129711747Y-121816971D01*
X129712489Y-121896279D01*
X129713339Y-121964043D01*
X129714303Y-122021182D01*
X129715389Y-122068617D01*
X129716603Y-122107266D01*
X129717953Y-122138049D01*
X129719445Y-122161885D01*
X129721089Y-122179694D01*
X129722889Y-122192395D01*
X129724855Y-122200908D01*
X129726523Y-122205266D01*
X129730094Y-122213728D01*
X129732730Y-122221497D01*
X129735366Y-122228602D01*
X129738938Y-122235073D01*
X129744379Y-122240939D01*
X129752625Y-122246229D01*
X129764610Y-122250974D01*
X129781269Y-122255202D01*
X129803537Y-122258943D01*
X129832348Y-122262227D01*
X129868637Y-122265083D01*
X129913339Y-122267540D01*
X129967389Y-122269629D01*
X130031721Y-122271378D01*
X130107270Y-122272817D01*
X130194970Y-122273976D01*
X130295757Y-122274883D01*
X130410566Y-122275569D01*
X130540330Y-122276063D01*
X130685985Y-122276395D01*
X130848465Y-122276593D01*
X131028705Y-122276687D01*
X131227640Y-122276708D01*
X131446204Y-122276685D01*
X131685332Y-122276646D01*
X131945960Y-122276622D01*
X131988111Y-122276622D01*
X132251008Y-122276636D01*
X132492268Y-122276661D01*
X132712835Y-122276671D01*
X132913648Y-122276642D01*
X133095651Y-122276548D01*
X133259784Y-122276362D01*
X133406989Y-122276059D01*
X133538208Y-122275614D01*
X133648133Y-122275034D01*
X133648133Y-121972197D01*
X133590289Y-121932407D01*
X133574521Y-121921236D01*
X133560559Y-121911166D01*
X133547216Y-121902138D01*
X133533307Y-121894097D01*
X133517644Y-121886986D01*
X133499042Y-121880747D01*
X133476314Y-121875325D01*
X133448273Y-121870662D01*
X133413733Y-121866701D01*
X133371508Y-121863385D01*
X133320411Y-121860659D01*
X133259256Y-121858464D01*
X133186856Y-121856745D01*
X133102025Y-121855444D01*
X133003578Y-121854505D01*
X132890326Y-121853870D01*
X132761084Y-121853484D01*
X132614666Y-121853288D01*
X132449884Y-121853227D01*
X132265553Y-121853243D01*
X132060487Y-121853280D01*
X131937867Y-121853289D01*
X131720918Y-121853265D01*
X131525358Y-121853231D01*
X131350001Y-121853243D01*
X131193659Y-121853358D01*
X131055143Y-121853630D01*
X130933266Y-121854118D01*
X130826840Y-121854876D01*
X130734678Y-121855962D01*
X130655591Y-121857431D01*
X130588392Y-121859340D01*
X130531893Y-121861744D01*
X130484907Y-121864701D01*
X130446245Y-121868266D01*
X130414720Y-121872495D01*
X130389145Y-121877446D01*
X130368330Y-121883173D01*
X130351089Y-121889733D01*
X130336235Y-121897183D01*
X130322578Y-121905579D01*
X130308931Y-121914976D01*
X130294107Y-121925432D01*
X130285217Y-121931523D01*
X130227600Y-121970296D01*
X130227600Y-121438732D01*
X130227635Y-121315483D01*
X130227785Y-121212987D01*
X130228122Y-121129420D01*
X130228714Y-121062956D01*
X130229633Y-121011771D01*
X130230949Y-120974041D01*
X130232731Y-120947940D01*
X130235049Y-120931644D01*
X130237974Y-120923328D01*
X130241576Y-120921168D01*
X130245925Y-120923339D01*
X130247355Y-120924535D01*
X130284427Y-120949685D01*
X130337228Y-120975583D01*
X130399230Y-120999192D01*
X130425643Y-121007461D01*
X130443584Y-121012078D01*
X130464645Y-121015979D01*
X130490911Y-121019248D01*
X130524468Y-121021966D01*
X130567401Y-121024215D01*
X130621796Y-121026077D01*
X130689738Y-121027636D01*
X130773312Y-121028972D01*
X130874605Y-121030169D01*
X130995700Y-121031308D01*
X131040400Y-121031685D01*
X131165551Y-121032702D01*
X131269918Y-121033460D01*
X131355293Y-121033903D01*
X131423467Y-121033970D01*
X131476235Y-121033605D01*
X131515386Y-121032748D01*
X131542715Y-121031341D01*
X131560014Y-121029325D01*
X131569074Y-121026643D01*
X131571688Y-121023236D01*
X131569649Y-121019044D01*
X131565333Y-121014571D01*
X131552398Y-121004216D01*
X131523324Y-120982158D01*
X131480241Y-120949957D01*
X131425282Y-120909174D01*
X131360577Y-120861370D01*
X131288258Y-120808105D01*
X131210456Y-120750940D01*
X131129302Y-120691437D01*
X131046928Y-120631155D01*
X130965464Y-120571655D01*
X130887043Y-120514498D01*
X130813796Y-120461245D01*
X130747853Y-120413457D01*
X130691346Y-120372693D01*
X130646407Y-120340516D01*
X130615166Y-120318485D01*
X130608534Y-120313917D01*
X130571631Y-120290996D01*
X130523641Y-120264188D01*
X130474103Y-120238789D01*
X130467423Y-120235568D01*
X130419228Y-120213890D01*
X130381666Y-120201304D01*
X130345840Y-120195574D01*
X130303800Y-120194456D01*
X130227600Y-120195090D01*
X130227600Y-119040651D01*
X130321331Y-119131815D01*
X130371225Y-119178612D01*
X130427705Y-119228899D01*
X130481974Y-119274944D01*
X130507327Y-119295369D01*
X130546872Y-119325807D01*
X130600084Y-119365862D01*
X130665333Y-119414361D01*
X130740989Y-119470135D01*
X130825423Y-119532011D01*
X130917006Y-119598819D01*
X131014108Y-119669387D01*
X131115099Y-119742545D01*
X131218350Y-119817121D01*
X131322232Y-119891944D01*
X131425115Y-119965843D01*
X131525369Y-120037646D01*
X131621364Y-120106184D01*
X131711473Y-120170284D01*
X131794064Y-120228775D01*
X131867508Y-120280486D01*
X131930176Y-120324247D01*
X131980439Y-120358885D01*
X132016666Y-120383230D01*
X132037229Y-120396111D01*
X132041332Y-120397869D01*
X132052658Y-120389910D01*
X132079838Y-120369115D01*
X132121171Y-120336847D01*
X132174956Y-120294470D01*
X132239494Y-120243347D01*
X132313082Y-120184841D01*
X132394022Y-120120314D01*
X132480612Y-120051131D01*
X132571152Y-119978653D01*
X132663940Y-119904246D01*
X132738298Y-119844517D01*
X132738298Y-118833511D01*
X132725341Y-118827602D01*
X132703092Y-118813272D01*
X132701609Y-118812225D01*
X132671456Y-118793438D01*
X132634625Y-118773791D01*
X132626489Y-118769892D01*
X132618060Y-118766356D01*
X132607941Y-118763230D01*
X132594740Y-118760486D01*
X132577062Y-118758092D01*
X132553516Y-118756019D01*
X132522707Y-118754235D01*
X132483243Y-118752712D01*
X132433731Y-118751419D01*
X132372777Y-118750326D01*
X132298989Y-118749403D01*
X132210972Y-118748619D01*
X132107335Y-118747945D01*
X131986684Y-118747350D01*
X131847626Y-118746805D01*
X131688768Y-118746279D01*
X131509911Y-118745745D01*
X131324793Y-118745206D01*
X131160855Y-118744772D01*
X131016697Y-118744509D01*
X130890921Y-118744484D01*
X130782129Y-118744765D01*
X130688923Y-118745419D01*
X130609903Y-118746514D01*
X130543672Y-118748118D01*
X130488830Y-118750297D01*
X130443979Y-118753119D01*
X130407722Y-118756651D01*
X130378659Y-118760961D01*
X130355391Y-118766117D01*
X130336521Y-118772185D01*
X130320649Y-118779233D01*
X130306378Y-118787329D01*
X130292309Y-118796540D01*
X130279842Y-118805040D01*
X130253548Y-118822176D01*
X130235963Y-118832322D01*
X130232743Y-118833511D01*
X130231666Y-118822604D01*
X130230665Y-118791411D01*
X130229765Y-118742223D01*
X130228990Y-118677333D01*
X130228363Y-118599030D01*
X130227909Y-118509607D01*
X130227651Y-118411356D01*
X130227600Y-118342445D01*
X130227820Y-118237452D01*
X130228452Y-118140610D01*
X130229451Y-118054107D01*
X130230773Y-117980132D01*
X130232374Y-117920874D01*
X130234209Y-117878520D01*
X130236235Y-117855260D01*
X130237507Y-117851378D01*
X130252409Y-117859076D01*
X130260440Y-117867074D01*
X130277566Y-117880246D01*
X130307817Y-117897485D01*
X130332378Y-117909407D01*
X130391289Y-117936045D01*
X131568155Y-117939120D01*
X132745022Y-117942195D01*
X132745022Y-118387853D01*
X132744858Y-118485670D01*
X132744389Y-118576064D01*
X132743653Y-118656630D01*
X132742684Y-118724962D01*
X132741520Y-118778656D01*
X132740197Y-118815305D01*
X132738751Y-118832504D01*
X132738298Y-118833511D01*
X132738298Y-119844517D01*
X132757278Y-119829270D01*
X132849463Y-119755090D01*
X132938796Y-119683069D01*
X133023576Y-119614569D01*
X133102102Y-119550955D01*
X133172674Y-119493588D01*
X133233591Y-119443833D01*
X133283153Y-119403052D01*
X133303822Y-119385888D01*
X133404484Y-119299596D01*
X133487741Y-119222997D01*
X133555562Y-119154183D01*
X133609911Y-119091248D01*
X133617278Y-119081867D01*
X133647883Y-119042356D01*
X133648133Y-120174116D01*
X133600156Y-120168827D01*
X133542812Y-120172130D01*
X133474537Y-120193661D01*
X133394788Y-120233635D01*
X133322505Y-120278943D01*
X133299860Y-120295161D01*
X133262304Y-120323214D01*
X133211979Y-120361430D01*
X133151027Y-120408137D01*
X133081589Y-120461661D01*
X133005806Y-120520331D01*
X132925820Y-120582475D01*
X132843772Y-120646421D01*
X132761804Y-120710495D01*
X132682057Y-120773027D01*
X132606673Y-120832343D01*
X132537793Y-120886771D01*
X132477558Y-120934639D01*
X132428111Y-120974275D01*
X132391592Y-121004006D01*
X132370142Y-121022161D01*
X132366844Y-121025220D01*
X132374851Y-121028079D01*
X132405145Y-121030293D01*
X132457444Y-121031857D01*
X132531469Y-121032767D01*
X132626937Y-121033020D01*
X132743566Y-121032613D01*
X132863555Y-121031704D01*
X132995667Y-121030382D01*
X133107406Y-121028857D01*
X133200975Y-121026881D01*
X133278581Y-121024206D01*
X133342426Y-121020582D01*
X133394717Y-121015761D01*
X133437656Y-121009494D01*
X133473449Y-121001532D01*
X133504300Y-120991627D01*
X133532414Y-120979531D01*
X133559995Y-120964993D01*
X133585034Y-120950311D01*
X133648133Y-120912314D01*
X133648133Y-121972197D01*
X133648133Y-122275034D01*
X133654383Y-122275001D01*
X133756456Y-122274195D01*
X133845367Y-122273170D01*
X133922059Y-122271900D01*
X133987473Y-122270360D01*
X134042551Y-122268524D01*
X134088235Y-122266367D01*
X134125466Y-122263863D01*
X134155187Y-122260987D01*
X134178338Y-122257713D01*
X134195861Y-122254015D01*
X134208699Y-122249869D01*
X134217792Y-122245247D01*
X134224082Y-122240126D01*
X134228512Y-122234478D01*
X134232022Y-122228279D01*
X134235555Y-122221504D01*
X134239124Y-122215508D01*
X134241700Y-122210275D01*
X134244028Y-122202099D01*
X134246122Y-122189886D01*
X134247993Y-122172541D01*
X134249653Y-122148969D01*
X134251116Y-122118077D01*
X134252392Y-122078768D01*
X134253496Y-122029950D01*
X134254439Y-121970527D01*
X134255233Y-121899404D01*
X134255891Y-121815488D01*
X134256425Y-121717683D01*
X134256847Y-121604894D01*
X134257171Y-121476029D01*
X134257408Y-121329991D01*
X134257570Y-121165686D01*
X134257670Y-120982020D01*
X134257720Y-120777897D01*
X134257733Y-120566753D01*
X134257733Y-118946400D01*
X134160946Y-118946400D01*
G36*
X129375467Y-109771177D02*
X129353224Y-109739798D01*
X129325515Y-109712089D01*
X129016080Y-109712089D01*
X128924201Y-109712162D01*
X128852160Y-109712505D01*
X128797220Y-109713308D01*
X128756640Y-109714759D01*
X128727683Y-109717048D01*
X128707609Y-109720364D01*
X128693679Y-109724895D01*
X128683155Y-109730831D01*
X128676900Y-109735486D01*
X128652327Y-109766217D01*
X128649659Y-109801504D01*
X128664729Y-109833755D01*
X128673626Y-109844412D01*
X128685443Y-109851536D01*
X128704474Y-109855833D01*
X128735008Y-109858009D01*
X128781338Y-109858772D01*
X128817129Y-109858845D01*
X128951955Y-109858845D01*
X128951955Y-110355556D01*
X128829300Y-110355556D01*
X128773213Y-110356069D01*
X128734667Y-110358124D01*
X128708639Y-110362492D01*
X128690103Y-110369944D01*
X128676900Y-110378953D01*
X128652396Y-110409856D01*
X128649494Y-110444804D01*
X128666911Y-110478262D01*
X128676041Y-110487396D01*
X128688145Y-110493848D01*
X128706999Y-110498103D01*
X128736380Y-110500648D01*
X128780063Y-110501971D01*
X128841825Y-110502557D01*
X128856000Y-110502625D01*
X128972369Y-110503109D01*
X129068273Y-110503359D01*
X129145823Y-110503277D01*
X129207131Y-110502769D01*
X129254310Y-110501738D01*
X129289470Y-110500087D01*
X129314724Y-110497721D01*
X129332183Y-110494543D01*
X129343959Y-110490456D01*
X129352165Y-110485366D01*
X129358355Y-110479734D01*
X129378156Y-110447872D01*
X129375467Y-110414643D01*
X129353224Y-110383265D01*
X129338874Y-110370567D01*
X129323022Y-110362474D01*
X129300446Y-110357958D01*
X129265922Y-110355994D01*
X129214224Y-110355556D01*
X129098711Y-110355556D01*
X129098711Y-109858845D01*
X129217244Y-109858845D01*
X129271852Y-109858338D01*
X129308725Y-109856302D01*
X129332693Y-109851965D01*
X129348585Y-109844553D01*
X129358355Y-109836267D01*
X129378156Y-109804406D01*
X129375467Y-109771177D01*
X129375467Y-109771177D01*
G37*
X129375467Y-109771177D02*
X129353224Y-109739798D01*
X129325515Y-109712089D01*
X129016080Y-109712089D01*
X128924201Y-109712162D01*
X128852160Y-109712505D01*
X128797220Y-109713308D01*
X128756640Y-109714759D01*
X128727683Y-109717048D01*
X128707609Y-109720364D01*
X128693679Y-109724895D01*
X128683155Y-109730831D01*
X128676900Y-109735486D01*
X128652327Y-109766217D01*
X128649659Y-109801504D01*
X128664729Y-109833755D01*
X128673626Y-109844412D01*
X128685443Y-109851536D01*
X128704474Y-109855833D01*
X128735008Y-109858009D01*
X128781338Y-109858772D01*
X128817129Y-109858845D01*
X128951955Y-109858845D01*
X128951955Y-110355556D01*
X128829300Y-110355556D01*
X128773213Y-110356069D01*
X128734667Y-110358124D01*
X128708639Y-110362492D01*
X128690103Y-110369944D01*
X128676900Y-110378953D01*
X128652396Y-110409856D01*
X128649494Y-110444804D01*
X128666911Y-110478262D01*
X128676041Y-110487396D01*
X128688145Y-110493848D01*
X128706999Y-110498103D01*
X128736380Y-110500648D01*
X128780063Y-110501971D01*
X128841825Y-110502557D01*
X128856000Y-110502625D01*
X128972369Y-110503109D01*
X129068273Y-110503359D01*
X129145823Y-110503277D01*
X129207131Y-110502769D01*
X129254310Y-110501738D01*
X129289470Y-110500087D01*
X129314724Y-110497721D01*
X129332183Y-110494543D01*
X129343959Y-110490456D01*
X129352165Y-110485366D01*
X129358355Y-110479734D01*
X129378156Y-110447872D01*
X129375467Y-110414643D01*
X129353224Y-110383265D01*
X129338874Y-110370567D01*
X129323022Y-110362474D01*
X129300446Y-110357958D01*
X129265922Y-110355994D01*
X129214224Y-110355556D01*
X129098711Y-110355556D01*
X129098711Y-109858845D01*
X129217244Y-109858845D01*
X129271852Y-109858338D01*
X129308725Y-109856302D01*
X129332693Y-109851965D01*
X129348585Y-109844553D01*
X129358355Y-109836267D01*
X129378156Y-109804406D01*
X129375467Y-109771177D01*
G36*
X129380837Y-111036935D02*
X129380458Y-110958228D01*
X129379667Y-110897137D01*
X129378330Y-110851183D01*
X129376317Y-110817886D01*
X129373494Y-110794764D01*
X129369731Y-110779338D01*
X129364895Y-110769129D01*
X129361178Y-110764187D01*
X129328642Y-110738543D01*
X129294862Y-110735441D01*
X129264174Y-110751289D01*
X129251911Y-110761652D01*
X129243550Y-110772804D01*
X129238343Y-110788965D01*
X129235543Y-110814358D01*
X129234404Y-110853202D01*
X129234179Y-110909720D01*
X129234178Y-110920820D01*
X129234178Y-111066756D01*
X128963244Y-111066756D01*
X128877846Y-111066852D01*
X128812136Y-111067289D01*
X128763226Y-111068288D01*
X128728227Y-111070072D01*
X128704251Y-111072863D01*
X128688407Y-111076883D01*
X128677809Y-111082355D01*
X128669733Y-111089334D01*
X128649888Y-111122266D01*
X128651452Y-111156646D01*
X128674094Y-111187824D01*
X128676900Y-111190114D01*
X128687508Y-111197571D01*
X128699919Y-111203253D01*
X128717150Y-111207399D01*
X128742216Y-111210250D01*
X128778133Y-111212046D01*
X128827917Y-111213028D01*
X128894583Y-111213436D01*
X128970411Y-111213511D01*
X129234178Y-111213511D01*
X129234178Y-111352873D01*
X129234582Y-111412678D01*
X129236160Y-111454082D01*
X129239453Y-111481252D01*
X129245008Y-111498354D01*
X129253369Y-111509557D01*
X129254822Y-111510917D01*
X129288061Y-111527275D01*
X129325638Y-111525828D01*
X129358355Y-111507022D01*
X129364702Y-111499750D01*
X129369734Y-111490373D01*
X129373604Y-111476391D01*
X129376463Y-111455304D01*
X129378465Y-111424611D01*
X129379761Y-111381811D01*
X129380502Y-111324405D01*
X129380842Y-111249890D01*
X129380932Y-111155767D01*
X129380933Y-111135740D01*
X129380837Y-111036935D01*
X129380837Y-111036935D01*
G37*
X129380837Y-111036935D02*
X129380458Y-110958228D01*
X129379667Y-110897137D01*
X129378330Y-110851183D01*
X129376317Y-110817886D01*
X129373494Y-110794764D01*
X129369731Y-110779338D01*
X129364895Y-110769129D01*
X129361178Y-110764187D01*
X129328642Y-110738543D01*
X129294862Y-110735441D01*
X129264174Y-110751289D01*
X129251911Y-110761652D01*
X129243550Y-110772804D01*
X129238343Y-110788965D01*
X129235543Y-110814358D01*
X129234404Y-110853202D01*
X129234179Y-110909720D01*
X129234178Y-110920820D01*
X129234178Y-111066756D01*
X128963244Y-111066756D01*
X128877846Y-111066852D01*
X128812136Y-111067289D01*
X128763226Y-111068288D01*
X128728227Y-111070072D01*
X128704251Y-111072863D01*
X128688407Y-111076883D01*
X128677809Y-111082355D01*
X128669733Y-111089334D01*
X128649888Y-111122266D01*
X128651452Y-111156646D01*
X128674094Y-111187824D01*
X128676900Y-111190114D01*
X128687508Y-111197571D01*
X128699919Y-111203253D01*
X128717150Y-111207399D01*
X128742216Y-111210250D01*
X128778133Y-111212046D01*
X128827917Y-111213028D01*
X128894583Y-111213436D01*
X128970411Y-111213511D01*
X129234178Y-111213511D01*
X129234178Y-111352873D01*
X129234582Y-111412678D01*
X129236160Y-111454082D01*
X129239453Y-111481252D01*
X129245008Y-111498354D01*
X129253369Y-111509557D01*
X129254822Y-111510917D01*
X129288061Y-111527275D01*
X129325638Y-111525828D01*
X129358355Y-111507022D01*
X129364702Y-111499750D01*
X129369734Y-111490373D01*
X129373604Y-111476391D01*
X129376463Y-111455304D01*
X129378465Y-111424611D01*
X129379761Y-111381811D01*
X129380502Y-111324405D01*
X129380842Y-111249890D01*
X129380932Y-111155767D01*
X129380933Y-111135740D01*
X129380837Y-111036935D01*
G36*
X129374123Y-111811386D02*
X129359353Y-111787673D01*
X129337773Y-111761022D01*
X129016227Y-111761022D01*
X128922170Y-111761107D01*
X128848068Y-111761471D01*
X128791296Y-111762276D01*
X128749232Y-111763687D01*
X128719252Y-111765867D01*
X128698733Y-111768979D01*
X128685051Y-111773186D01*
X128675584Y-111778652D01*
X128670918Y-111782528D01*
X128650425Y-111813966D01*
X128651261Y-111849767D01*
X128668736Y-111881127D01*
X128690316Y-111907778D01*
X129337773Y-111907778D01*
X129359353Y-111881127D01*
X129375051Y-111855406D01*
X129380933Y-111834400D01*
X129374123Y-111811386D01*
X129374123Y-111811386D01*
G37*
X129374123Y-111811386D02*
X129359353Y-111787673D01*
X129337773Y-111761022D01*
X129016227Y-111761022D01*
X128922170Y-111761107D01*
X128848068Y-111761471D01*
X128791296Y-111762276D01*
X128749232Y-111763687D01*
X128719252Y-111765867D01*
X128698733Y-111768979D01*
X128685051Y-111773186D01*
X128675584Y-111778652D01*
X128670918Y-111782528D01*
X128650425Y-111813966D01*
X128651261Y-111849767D01*
X128668736Y-111881127D01*
X128690316Y-111907778D01*
X129337773Y-111907778D01*
X129359353Y-111881127D01*
X129375051Y-111855406D01*
X129380933Y-111834400D01*
X129374123Y-111811386D01*
G36*
X129378966Y-112255335D02*
X129371965Y-112235745D01*
X129371623Y-112234990D01*
X129351322Y-112208387D01*
X129330439Y-112193730D01*
X129320648Y-112190862D01*
X129307639Y-112191004D01*
X129289105Y-112195039D01*
X129262743Y-112203854D01*
X129226248Y-112218331D01*
X129177313Y-112239355D01*
X129113635Y-112267812D01*
X129032907Y-112304585D01*
X128988784Y-112324825D01*
X128910015Y-112361375D01*
X128837577Y-112395685D01*
X128774120Y-112426448D01*
X128722292Y-112452352D01*
X128684741Y-112472090D01*
X128664116Y-112484350D01*
X128661267Y-112486776D01*
X128648698Y-112517817D01*
X128650381Y-112552879D01*
X128665668Y-112581000D01*
X128666911Y-112582146D01*
X128683846Y-112593332D01*
X128716830Y-112612096D01*
X128761620Y-112636125D01*
X128813968Y-112663103D01*
X128833258Y-112672799D01*
X128979850Y-112745986D01*
X128820607Y-112825760D01*
X128765585Y-112854233D01*
X128717868Y-112880650D01*
X128681107Y-112902852D01*
X128658956Y-112918681D01*
X128654259Y-112924046D01*
X128647898Y-112965743D01*
X128661267Y-113000151D01*
X128675554Y-113010272D01*
X128707308Y-113027786D01*
X128753403Y-113051265D01*
X128810715Y-113079280D01*
X128876120Y-113110401D01*
X128946493Y-113143201D01*
X129018709Y-113176250D01*
X129089645Y-113208119D01*
X129156175Y-113237381D01*
X129215174Y-113262605D01*
X129263519Y-113282364D01*
X129298085Y-113295228D01*
X129315747Y-113299769D01*
X129316387Y-113299723D01*
X129338612Y-113288674D01*
X129361247Y-113266590D01*
X129362232Y-113265290D01*
X129377575Y-113238147D01*
X129377426Y-113213042D01*
X129374534Y-113203632D01*
X129368282Y-113192166D01*
X129355986Y-113179990D01*
X129335092Y-113165643D01*
X129303051Y-113147664D01*
X129257312Y-113124593D01*
X129195323Y-113094970D01*
X129138102Y-113068255D01*
X129071774Y-113037520D01*
X129012126Y-113009979D01*
X128962275Y-112987062D01*
X128925336Y-112970202D01*
X128904427Y-112960827D01*
X128901155Y-112959460D01*
X128906503Y-112953311D01*
X128928891Y-112939178D01*
X128965054Y-112918943D01*
X129011723Y-112894485D01*
X129030978Y-112884752D01*
X129095996Y-112851783D01*
X129143346Y-112826357D01*
X129175781Y-112806388D01*
X129196054Y-112789790D01*
X129206918Y-112774476D01*
X129211125Y-112758360D01*
X129211600Y-112747857D01*
X129209958Y-112729330D01*
X129203169Y-112713096D01*
X129188434Y-112696965D01*
X129162956Y-112678749D01*
X129123939Y-112656261D01*
X129068586Y-112627311D01*
X129037097Y-112611338D01*
X128986913Y-112585430D01*
X128945296Y-112562833D01*
X128915758Y-112545542D01*
X128901811Y-112535550D01*
X128901230Y-112534191D01*
X128912207Y-112527739D01*
X128940710Y-112513292D01*
X128983756Y-112492297D01*
X129038362Y-112466203D01*
X129101546Y-112436454D01*
X129132929Y-112421820D01*
X129213922Y-112383750D01*
X129276244Y-112353095D01*
X129321929Y-112328263D01*
X129353011Y-112307663D01*
X129371522Y-112289702D01*
X129379496Y-112272790D01*
X129378966Y-112255335D01*
X129378966Y-112255335D01*
G37*
X129378966Y-112255335D02*
X129371965Y-112235745D01*
X129371623Y-112234990D01*
X129351322Y-112208387D01*
X129330439Y-112193730D01*
X129320648Y-112190862D01*
X129307639Y-112191004D01*
X129289105Y-112195039D01*
X129262743Y-112203854D01*
X129226248Y-112218331D01*
X129177313Y-112239355D01*
X129113635Y-112267812D01*
X129032907Y-112304585D01*
X128988784Y-112324825D01*
X128910015Y-112361375D01*
X128837577Y-112395685D01*
X128774120Y-112426448D01*
X128722292Y-112452352D01*
X128684741Y-112472090D01*
X128664116Y-112484350D01*
X128661267Y-112486776D01*
X128648698Y-112517817D01*
X128650381Y-112552879D01*
X128665668Y-112581000D01*
X128666911Y-112582146D01*
X128683846Y-112593332D01*
X128716830Y-112612096D01*
X128761620Y-112636125D01*
X128813968Y-112663103D01*
X128833258Y-112672799D01*
X128979850Y-112745986D01*
X128820607Y-112825760D01*
X128765585Y-112854233D01*
X128717868Y-112880650D01*
X128681107Y-112902852D01*
X128658956Y-112918681D01*
X128654259Y-112924046D01*
X128647898Y-112965743D01*
X128661267Y-113000151D01*
X128675554Y-113010272D01*
X128707308Y-113027786D01*
X128753403Y-113051265D01*
X128810715Y-113079280D01*
X128876120Y-113110401D01*
X128946493Y-113143201D01*
X129018709Y-113176250D01*
X129089645Y-113208119D01*
X129156175Y-113237381D01*
X129215174Y-113262605D01*
X129263519Y-113282364D01*
X129298085Y-113295228D01*
X129315747Y-113299769D01*
X129316387Y-113299723D01*
X129338612Y-113288674D01*
X129361247Y-113266590D01*
X129362232Y-113265290D01*
X129377575Y-113238147D01*
X129377426Y-113213042D01*
X129374534Y-113203632D01*
X129368282Y-113192166D01*
X129355986Y-113179990D01*
X129335092Y-113165643D01*
X129303051Y-113147664D01*
X129257312Y-113124593D01*
X129195323Y-113094970D01*
X129138102Y-113068255D01*
X129071774Y-113037520D01*
X129012126Y-113009979D01*
X128962275Y-112987062D01*
X128925336Y-112970202D01*
X128904427Y-112960827D01*
X128901155Y-112959460D01*
X128906503Y-112953311D01*
X128928891Y-112939178D01*
X128965054Y-112918943D01*
X129011723Y-112894485D01*
X129030978Y-112884752D01*
X129095996Y-112851783D01*
X129143346Y-112826357D01*
X129175781Y-112806388D01*
X129196054Y-112789790D01*
X129206918Y-112774476D01*
X129211125Y-112758360D01*
X129211600Y-112747857D01*
X129209958Y-112729330D01*
X129203169Y-112713096D01*
X129188434Y-112696965D01*
X129162956Y-112678749D01*
X129123939Y-112656261D01*
X129068586Y-112627311D01*
X129037097Y-112611338D01*
X128986913Y-112585430D01*
X128945296Y-112562833D01*
X128915758Y-112545542D01*
X128901811Y-112535550D01*
X128901230Y-112534191D01*
X128912207Y-112527739D01*
X128940710Y-112513292D01*
X128983756Y-112492297D01*
X129038362Y-112466203D01*
X129101546Y-112436454D01*
X129132929Y-112421820D01*
X129213922Y-112383750D01*
X129276244Y-112353095D01*
X129321929Y-112328263D01*
X129353011Y-112307663D01*
X129371522Y-112289702D01*
X129379496Y-112272790D01*
X129378966Y-112255335D01*
G36*
X129380725Y-114981691D02*
X129376364Y-114852712D01*
X129363139Y-114743009D01*
X129340259Y-114650774D01*
X129306930Y-114574198D01*
X129262362Y-114511473D01*
X129205764Y-114460788D01*
X129136342Y-114420337D01*
X129134649Y-114419541D01*
X129072517Y-114395399D01*
X129017491Y-114386797D01*
X128962113Y-114393769D01*
X128898927Y-114416346D01*
X128889311Y-114420628D01*
X128833034Y-114449828D01*
X128789549Y-114482644D01*
X128752583Y-114524998D01*
X128715865Y-114582810D01*
X128713948Y-114586169D01*
X128689773Y-114636496D01*
X128671718Y-114693379D01*
X128659161Y-114760473D01*
X128651478Y-114841435D01*
X128648047Y-114939918D01*
X128647749Y-114974714D01*
X128647155Y-115140406D01*
X128676900Y-115163803D01*
X128686681Y-115170743D01*
X128698103Y-115176158D01*
X128713905Y-115180235D01*
X128736825Y-115183163D01*
X128769604Y-115185133D01*
X128793911Y-115185775D01*
X128793911Y-115029156D01*
X128793911Y-114935274D01*
X128795517Y-114880336D01*
X128799745Y-114823940D01*
X128805708Y-114777655D01*
X128806210Y-114774861D01*
X128828264Y-114692652D01*
X128861400Y-114628886D01*
X128907153Y-114581548D01*
X128967061Y-114548618D01*
X128982939Y-114542892D01*
X129007667Y-114537279D01*
X129032098Y-114539709D01*
X129064600Y-114551533D01*
X129080566Y-114558660D01*
X129122994Y-114582000D01*
X129152760Y-114610120D01*
X129173489Y-114641060D01*
X129200463Y-114703034D01*
X129220002Y-114782349D01*
X129231254Y-114874747D01*
X129233730Y-114941667D01*
X129234178Y-115029156D01*
X128793911Y-115029156D01*
X128793911Y-115185775D01*
X128814979Y-115186332D01*
X128875689Y-115186950D01*
X128954474Y-115187175D01*
X129016080Y-115187200D01*
X129325515Y-115187200D01*
X129353224Y-115159491D01*
X129364456Y-115147194D01*
X129372147Y-115133897D01*
X129376960Y-115115328D01*
X129379554Y-115087214D01*
X129380590Y-115045283D01*
X129380730Y-114985263D01*
X129380725Y-114981691D01*
X129380725Y-114981691D01*
G37*
X129380725Y-114981691D02*
X129376364Y-114852712D01*
X129363139Y-114743009D01*
X129340259Y-114650774D01*
X129306930Y-114574198D01*
X129262362Y-114511473D01*
X129205764Y-114460788D01*
X129136342Y-114420337D01*
X129134649Y-114419541D01*
X129072517Y-114395399D01*
X129017491Y-114386797D01*
X128962113Y-114393769D01*
X128898927Y-114416346D01*
X128889311Y-114420628D01*
X128833034Y-114449828D01*
X128789549Y-114482644D01*
X128752583Y-114524998D01*
X128715865Y-114582810D01*
X128713948Y-114586169D01*
X128689773Y-114636496D01*
X128671718Y-114693379D01*
X128659161Y-114760473D01*
X128651478Y-114841435D01*
X128648047Y-114939918D01*
X128647749Y-114974714D01*
X128647155Y-115140406D01*
X128676900Y-115163803D01*
X128686681Y-115170743D01*
X128698103Y-115176158D01*
X128713905Y-115180235D01*
X128736825Y-115183163D01*
X128769604Y-115185133D01*
X128793911Y-115185775D01*
X128793911Y-115029156D01*
X128793911Y-114935274D01*
X128795517Y-114880336D01*
X128799745Y-114823940D01*
X128805708Y-114777655D01*
X128806210Y-114774861D01*
X128828264Y-114692652D01*
X128861400Y-114628886D01*
X128907153Y-114581548D01*
X128967061Y-114548618D01*
X128982939Y-114542892D01*
X129007667Y-114537279D01*
X129032098Y-114539709D01*
X129064600Y-114551533D01*
X129080566Y-114558660D01*
X129122994Y-114582000D01*
X129152760Y-114610120D01*
X129173489Y-114641060D01*
X129200463Y-114703034D01*
X129220002Y-114782349D01*
X129231254Y-114874747D01*
X129233730Y-114941667D01*
X129234178Y-115029156D01*
X128793911Y-115029156D01*
X128793911Y-115185775D01*
X128814979Y-115186332D01*
X128875689Y-115186950D01*
X128954474Y-115187175D01*
X129016080Y-115187200D01*
X129325515Y-115187200D01*
X129353224Y-115159491D01*
X129364456Y-115147194D01*
X129372147Y-115133897D01*
X129376960Y-115115328D01*
X129379554Y-115087214D01*
X129380590Y-115045283D01*
X129380730Y-114985263D01*
X129380725Y-114981691D01*
G36*
X129380740Y-115769657D02*
X129379826Y-115693299D01*
X129377689Y-115634783D01*
X129373825Y-115591745D01*
X129367733Y-115561817D01*
X129358910Y-115542632D01*
X129346854Y-115531824D01*
X129331061Y-115527027D01*
X129311030Y-115525873D01*
X129308665Y-115525867D01*
X129286008Y-115526869D01*
X129268497Y-115531604D01*
X129255426Y-115542667D01*
X129246087Y-115562652D01*
X129239773Y-115594154D01*
X129235778Y-115639768D01*
X129233394Y-115702087D01*
X129231914Y-115783707D01*
X129231586Y-115808723D01*
X129228533Y-116050800D01*
X129163622Y-116054186D01*
X129098711Y-116057571D01*
X129098711Y-115889424D01*
X129098469Y-115823734D01*
X129097444Y-115776828D01*
X129095189Y-115744917D01*
X129091258Y-115724209D01*
X129085202Y-115710916D01*
X129076576Y-115701245D01*
X129076507Y-115701183D01*
X129042888Y-115683644D01*
X129006552Y-115684278D01*
X128975577Y-115702686D01*
X128972393Y-115706329D01*
X128964188Y-115719259D01*
X128958479Y-115736976D01*
X128954838Y-115763430D01*
X128952833Y-115802568D01*
X128952036Y-115858338D01*
X128951955Y-115894006D01*
X128951955Y-116056445D01*
X128793911Y-116056445D01*
X128793911Y-115809839D01*
X128793769Y-115728420D01*
X128793186Y-115666590D01*
X128791932Y-115621363D01*
X128789773Y-115589752D01*
X128786477Y-115568769D01*
X128781811Y-115555427D01*
X128775543Y-115546739D01*
X128773267Y-115544550D01*
X128741720Y-115528386D01*
X128705832Y-115527203D01*
X128674715Y-115540464D01*
X128664729Y-115550957D01*
X128659231Y-115561871D01*
X128654978Y-115578783D01*
X128651820Y-115604367D01*
X128649608Y-115641299D01*
X128648194Y-115692254D01*
X128647428Y-115759906D01*
X128647162Y-115846931D01*
X128647155Y-115866606D01*
X128647213Y-115955089D01*
X128647533Y-116023773D01*
X128648333Y-116075436D01*
X128649833Y-116112855D01*
X128652251Y-116138810D01*
X128655806Y-116156078D01*
X128660718Y-116167438D01*
X128667205Y-116175668D01*
X128671862Y-116180183D01*
X128680111Y-116186979D01*
X128690331Y-116192288D01*
X128705200Y-116196294D01*
X128727398Y-116199179D01*
X128759607Y-116201126D01*
X128804504Y-116202319D01*
X128864772Y-116202939D01*
X128943089Y-116203171D01*
X129009006Y-116203200D01*
X129101372Y-116203129D01*
X129173883Y-116202792D01*
X129229263Y-116202002D01*
X129270235Y-116200574D01*
X129299522Y-116198321D01*
X129319847Y-116195057D01*
X129333934Y-116190596D01*
X129344505Y-116184752D01*
X129351189Y-116179803D01*
X129380933Y-116156406D01*
X129380933Y-115866226D01*
X129380740Y-115769657D01*
X129380740Y-115769657D01*
G37*
X129380740Y-115769657D02*
X129379826Y-115693299D01*
X129377689Y-115634783D01*
X129373825Y-115591745D01*
X129367733Y-115561817D01*
X129358910Y-115542632D01*
X129346854Y-115531824D01*
X129331061Y-115527027D01*
X129311030Y-115525873D01*
X129308665Y-115525867D01*
X129286008Y-115526869D01*
X129268497Y-115531604D01*
X129255426Y-115542667D01*
X129246087Y-115562652D01*
X129239773Y-115594154D01*
X129235778Y-115639768D01*
X129233394Y-115702087D01*
X129231914Y-115783707D01*
X129231586Y-115808723D01*
X129228533Y-116050800D01*
X129163622Y-116054186D01*
X129098711Y-116057571D01*
X129098711Y-115889424D01*
X129098469Y-115823734D01*
X129097444Y-115776828D01*
X129095189Y-115744917D01*
X129091258Y-115724209D01*
X129085202Y-115710916D01*
X129076576Y-115701245D01*
X129076507Y-115701183D01*
X129042888Y-115683644D01*
X129006552Y-115684278D01*
X128975577Y-115702686D01*
X128972393Y-115706329D01*
X128964188Y-115719259D01*
X128958479Y-115736976D01*
X128954838Y-115763430D01*
X128952833Y-115802568D01*
X128952036Y-115858338D01*
X128951955Y-115894006D01*
X128951955Y-116056445D01*
X128793911Y-116056445D01*
X128793911Y-115809839D01*
X128793769Y-115728420D01*
X128793186Y-115666590D01*
X128791932Y-115621363D01*
X128789773Y-115589752D01*
X128786477Y-115568769D01*
X128781811Y-115555427D01*
X128775543Y-115546739D01*
X128773267Y-115544550D01*
X128741720Y-115528386D01*
X128705832Y-115527203D01*
X128674715Y-115540464D01*
X128664729Y-115550957D01*
X128659231Y-115561871D01*
X128654978Y-115578783D01*
X128651820Y-115604367D01*
X128649608Y-115641299D01*
X128648194Y-115692254D01*
X128647428Y-115759906D01*
X128647162Y-115846931D01*
X128647155Y-115866606D01*
X128647213Y-115955089D01*
X128647533Y-116023773D01*
X128648333Y-116075436D01*
X128649833Y-116112855D01*
X128652251Y-116138810D01*
X128655806Y-116156078D01*
X128660718Y-116167438D01*
X128667205Y-116175668D01*
X128671862Y-116180183D01*
X128680111Y-116186979D01*
X128690331Y-116192288D01*
X128705200Y-116196294D01*
X128727398Y-116199179D01*
X128759607Y-116201126D01*
X128804504Y-116202319D01*
X128864772Y-116202939D01*
X128943089Y-116203171D01*
X129009006Y-116203200D01*
X129101372Y-116203129D01*
X129173883Y-116202792D01*
X129229263Y-116202002D01*
X129270235Y-116200574D01*
X129299522Y-116198321D01*
X129319847Y-116195057D01*
X129333934Y-116190596D01*
X129344505Y-116184752D01*
X129351189Y-116179803D01*
X129380933Y-116156406D01*
X129380933Y-115866226D01*
X129380740Y-115769657D01*
G36*
X129376552Y-117300114D02*
X129362727Y-117276548D01*
X129340119Y-117245735D01*
X129307662Y-117206078D01*
X129264292Y-117155980D01*
X129208942Y-117093843D01*
X129140549Y-117018072D01*
X129061916Y-116931334D01*
X128898122Y-116750711D01*
X129117971Y-116745067D01*
X129193649Y-116743029D01*
X129250006Y-116741063D01*
X129290294Y-116738734D01*
X129317765Y-116735606D01*
X129335671Y-116731245D01*
X129347263Y-116725216D01*
X129355792Y-116717084D01*
X129359377Y-116712772D01*
X129378330Y-116678241D01*
X129375559Y-116645383D01*
X129359367Y-116619318D01*
X129337801Y-116592667D01*
X129022849Y-116589352D01*
X128930221Y-116588435D01*
X128857456Y-116587968D01*
X128801839Y-116588113D01*
X128760658Y-116589032D01*
X128731197Y-116590887D01*
X128710745Y-116593839D01*
X128696587Y-116598050D01*
X128686009Y-116603682D01*
X128677526Y-116609927D01*
X128661793Y-116623439D01*
X128651364Y-116636883D01*
X128647361Y-116652124D01*
X128650906Y-116671026D01*
X128663121Y-116695455D01*
X128685129Y-116727273D01*
X128718051Y-116768348D01*
X128763009Y-116820542D01*
X128821125Y-116885722D01*
X128887901Y-116959556D01*
X129128542Y-117224845D01*
X128909411Y-117230489D01*
X128833872Y-117232531D01*
X128777646Y-117234502D01*
X128737476Y-117236839D01*
X128710104Y-117239981D01*
X128692272Y-117244364D01*
X128680721Y-117250424D01*
X128672193Y-117258600D01*
X128668718Y-117262784D01*
X128649628Y-117299765D01*
X128652507Y-117334708D01*
X128676900Y-117365136D01*
X128686714Y-117372097D01*
X128698174Y-117377523D01*
X128714032Y-117381603D01*
X128737037Y-117384529D01*
X128769938Y-117386492D01*
X128815484Y-117387683D01*
X128876427Y-117388292D01*
X128955514Y-117388511D01*
X129014044Y-117388534D01*
X129105593Y-117388460D01*
X129177313Y-117388113D01*
X129231955Y-117387301D01*
X129272268Y-117385833D01*
X129301002Y-117383519D01*
X129320907Y-117380167D01*
X129334732Y-117375588D01*
X129345228Y-117369589D01*
X129351189Y-117365136D01*
X129365309Y-117353850D01*
X129375971Y-117343301D01*
X129382108Y-117331893D01*
X129382657Y-117318030D01*
X129376552Y-117300114D01*
X129376552Y-117300114D01*
G37*
X129376552Y-117300114D02*
X129362727Y-117276548D01*
X129340119Y-117245735D01*
X129307662Y-117206078D01*
X129264292Y-117155980D01*
X129208942Y-117093843D01*
X129140549Y-117018072D01*
X129061916Y-116931334D01*
X128898122Y-116750711D01*
X129117971Y-116745067D01*
X129193649Y-116743029D01*
X129250006Y-116741063D01*
X129290294Y-116738734D01*
X129317765Y-116735606D01*
X129335671Y-116731245D01*
X129347263Y-116725216D01*
X129355792Y-116717084D01*
X129359377Y-116712772D01*
X129378330Y-116678241D01*
X129375559Y-116645383D01*
X129359367Y-116619318D01*
X129337801Y-116592667D01*
X129022849Y-116589352D01*
X128930221Y-116588435D01*
X128857456Y-116587968D01*
X128801839Y-116588113D01*
X128760658Y-116589032D01*
X128731197Y-116590887D01*
X128710745Y-116593839D01*
X128696587Y-116598050D01*
X128686009Y-116603682D01*
X128677526Y-116609927D01*
X128661793Y-116623439D01*
X128651364Y-116636883D01*
X128647361Y-116652124D01*
X128650906Y-116671026D01*
X128663121Y-116695455D01*
X128685129Y-116727273D01*
X128718051Y-116768348D01*
X128763009Y-116820542D01*
X128821125Y-116885722D01*
X128887901Y-116959556D01*
X129128542Y-117224845D01*
X128909411Y-117230489D01*
X128833872Y-117232531D01*
X128777646Y-117234502D01*
X128737476Y-117236839D01*
X128710104Y-117239981D01*
X128692272Y-117244364D01*
X128680721Y-117250424D01*
X128672193Y-117258600D01*
X128668718Y-117262784D01*
X128649628Y-117299765D01*
X128652507Y-117334708D01*
X128676900Y-117365136D01*
X128686714Y-117372097D01*
X128698174Y-117377523D01*
X128714032Y-117381603D01*
X128737037Y-117384529D01*
X128769938Y-117386492D01*
X128815484Y-117387683D01*
X128876427Y-117388292D01*
X128955514Y-117388511D01*
X129014044Y-117388534D01*
X129105593Y-117388460D01*
X129177313Y-117388113D01*
X129231955Y-117387301D01*
X129272268Y-117385833D01*
X129301002Y-117383519D01*
X129320907Y-117380167D01*
X129334732Y-117375588D01*
X129345228Y-117369589D01*
X129351189Y-117365136D01*
X129365309Y-117353850D01*
X129375971Y-117343301D01*
X129382108Y-117331893D01*
X129382657Y-117318030D01*
X129376552Y-117300114D01*
G36*
X129375401Y-117950081D02*
X129363905Y-117881565D01*
X129346033Y-117828943D01*
X129322501Y-117794708D01*
X129309076Y-117785379D01*
X129277852Y-117775893D01*
X129249605Y-117782277D01*
X129222818Y-117802430D01*
X129210287Y-117833745D01*
X129211304Y-117879183D01*
X129218094Y-117914326D01*
X129231029Y-117992419D01*
X129232258Y-118072226D01*
X129221759Y-118161555D01*
X129217310Y-118186229D01*
X129193892Y-118269291D01*
X129159055Y-118334273D01*
X129113396Y-118380461D01*
X129057506Y-118407145D01*
X129028612Y-118412663D01*
X128969988Y-118409051D01*
X128918121Y-118385729D01*
X128874022Y-118344824D01*
X128838701Y-118288459D01*
X128813171Y-118218760D01*
X128798441Y-118137852D01*
X128795522Y-118047860D01*
X128805425Y-117950910D01*
X128806359Y-117945436D01*
X128813541Y-117906875D01*
X128820479Y-117885494D01*
X128830773Y-117876227D01*
X128848024Y-117874006D01*
X128857159Y-117873956D01*
X128895511Y-117873956D01*
X128895511Y-117942431D01*
X128899653Y-118002900D01*
X128912853Y-118044165D01*
X128936270Y-118068175D01*
X128971064Y-118076877D01*
X128975606Y-118076983D01*
X129005346Y-118071892D01*
X129026581Y-118054433D01*
X129040634Y-118021939D01*
X129048827Y-117971743D01*
X129051839Y-117923123D01*
X129053567Y-117852456D01*
X129050930Y-117801198D01*
X129041200Y-117766239D01*
X129021647Y-117744470D01*
X128989544Y-117732780D01*
X128942162Y-117728060D01*
X128879929Y-117727200D01*
X128810465Y-117728609D01*
X128763214Y-117732848D01*
X128737988Y-117739936D01*
X128736012Y-117741311D01*
X128704492Y-117780228D01*
X128679530Y-117837286D01*
X128661660Y-117908869D01*
X128651414Y-117991358D01*
X128649327Y-118081139D01*
X128655932Y-118174592D01*
X128664044Y-118229556D01*
X128688446Y-118315766D01*
X128728338Y-118395892D01*
X128780113Y-118462977D01*
X128790461Y-118473173D01*
X128833965Y-118506302D01*
X128887882Y-118536194D01*
X128944408Y-118559357D01*
X128995741Y-118572298D01*
X129015456Y-118573858D01*
X129056581Y-118567218D01*
X129107748Y-118549568D01*
X129161606Y-118524297D01*
X129210805Y-118494789D01*
X129243666Y-118468719D01*
X129292548Y-118407765D01*
X129331455Y-118328969D01*
X129359506Y-118235157D01*
X129375821Y-118129150D01*
X129379808Y-118032000D01*
X129375401Y-117950081D01*
X129375401Y-117950081D01*
G37*
X129375401Y-117950081D02*
X129363905Y-117881565D01*
X129346033Y-117828943D01*
X129322501Y-117794708D01*
X129309076Y-117785379D01*
X129277852Y-117775893D01*
X129249605Y-117782277D01*
X129222818Y-117802430D01*
X129210287Y-117833745D01*
X129211304Y-117879183D01*
X129218094Y-117914326D01*
X129231029Y-117992419D01*
X129232258Y-118072226D01*
X129221759Y-118161555D01*
X129217310Y-118186229D01*
X129193892Y-118269291D01*
X129159055Y-118334273D01*
X129113396Y-118380461D01*
X129057506Y-118407145D01*
X129028612Y-118412663D01*
X128969988Y-118409051D01*
X128918121Y-118385729D01*
X128874022Y-118344824D01*
X128838701Y-118288459D01*
X128813171Y-118218760D01*
X128798441Y-118137852D01*
X128795522Y-118047860D01*
X128805425Y-117950910D01*
X128806359Y-117945436D01*
X128813541Y-117906875D01*
X128820479Y-117885494D01*
X128830773Y-117876227D01*
X128848024Y-117874006D01*
X128857159Y-117873956D01*
X128895511Y-117873956D01*
X128895511Y-117942431D01*
X128899653Y-118002900D01*
X128912853Y-118044165D01*
X128936270Y-118068175D01*
X128971064Y-118076877D01*
X128975606Y-118076983D01*
X129005346Y-118071892D01*
X129026581Y-118054433D01*
X129040634Y-118021939D01*
X129048827Y-117971743D01*
X129051839Y-117923123D01*
X129053567Y-117852456D01*
X129050930Y-117801198D01*
X129041200Y-117766239D01*
X129021647Y-117744470D01*
X128989544Y-117732780D01*
X128942162Y-117728060D01*
X128879929Y-117727200D01*
X128810465Y-117728609D01*
X128763214Y-117732848D01*
X128737988Y-117739936D01*
X128736012Y-117741311D01*
X128704492Y-117780228D01*
X128679530Y-117837286D01*
X128661660Y-117908869D01*
X128651414Y-117991358D01*
X128649327Y-118081139D01*
X128655932Y-118174592D01*
X128664044Y-118229556D01*
X128688446Y-118315766D01*
X128728338Y-118395892D01*
X128780113Y-118462977D01*
X128790461Y-118473173D01*
X128833965Y-118506302D01*
X128887882Y-118536194D01*
X128944408Y-118559357D01*
X128995741Y-118572298D01*
X129015456Y-118573858D01*
X129056581Y-118567218D01*
X129107748Y-118549568D01*
X129161606Y-118524297D01*
X129210805Y-118494789D01*
X129243666Y-118468719D01*
X129292548Y-118407765D01*
X129331455Y-118328969D01*
X129359506Y-118235157D01*
X129375821Y-118129150D01*
X129379808Y-118032000D01*
X129375401Y-117950081D01*
G36*
X129358355Y-118923822D02*
X129350782Y-118917242D01*
X129341013Y-118912079D01*
X129326429Y-118908164D01*
X129304415Y-118905324D01*
X129272352Y-118903387D01*
X129227625Y-118902183D01*
X129167615Y-118901539D01*
X129089706Y-118901284D01*
X129014044Y-118901245D01*
X128920198Y-118901314D01*
X128846311Y-118901638D01*
X128789768Y-118902386D01*
X128747951Y-118903732D01*
X128718243Y-118905846D01*
X128698027Y-118908900D01*
X128684686Y-118913066D01*
X128675602Y-118918516D01*
X128669733Y-118923822D01*
X128650053Y-118956826D01*
X128651819Y-118991991D01*
X128673283Y-119023455D01*
X128681663Y-119030684D01*
X128691386Y-119036334D01*
X128705139Y-119040599D01*
X128725611Y-119043673D01*
X128755488Y-119045752D01*
X128797459Y-119047030D01*
X128854211Y-119047701D01*
X128928433Y-119047959D01*
X129012463Y-119048000D01*
X129325515Y-119048000D01*
X129353224Y-119020291D01*
X129376537Y-118986137D01*
X129377377Y-118953006D01*
X129358355Y-118923822D01*
X129358355Y-118923822D01*
G37*
X129358355Y-118923822D02*
X129350782Y-118917242D01*
X129341013Y-118912079D01*
X129326429Y-118908164D01*
X129304415Y-118905324D01*
X129272352Y-118903387D01*
X129227625Y-118902183D01*
X129167615Y-118901539D01*
X129089706Y-118901284D01*
X129014044Y-118901245D01*
X128920198Y-118901314D01*
X128846311Y-118901638D01*
X128789768Y-118902386D01*
X128747951Y-118903732D01*
X128718243Y-118905846D01*
X128698027Y-118908900D01*
X128684686Y-118913066D01*
X128675602Y-118918516D01*
X128669733Y-118923822D01*
X128650053Y-118956826D01*
X128651819Y-118991991D01*
X128673283Y-119023455D01*
X128681663Y-119030684D01*
X128691386Y-119036334D01*
X128705139Y-119040599D01*
X128725611Y-119043673D01*
X128755488Y-119045752D01*
X128797459Y-119047030D01*
X128854211Y-119047701D01*
X128928433Y-119047959D01*
X129012463Y-119048000D01*
X129325515Y-119048000D01*
X129353224Y-119020291D01*
X129376537Y-118986137D01*
X129377377Y-118953006D01*
X129358355Y-118923822D01*
G36*
X129379649Y-119691703D02*
X129374419Y-119616888D01*
X129366250Y-119547306D01*
X129355450Y-119487002D01*
X129342327Y-119440020D01*
X129327187Y-119410406D01*
X129322731Y-119405860D01*
X129288150Y-119390054D01*
X129252649Y-119394847D01*
X129222275Y-119419364D01*
X129221404Y-119420534D01*
X129212046Y-119434954D01*
X129207124Y-119450008D01*
X129206527Y-119471005D01*
X129210139Y-119503257D01*
X129217846Y-119552073D01*
X129218495Y-119556000D01*
X129227431Y-119628739D01*
X129231839Y-119707217D01*
X129231881Y-119785927D01*
X129227721Y-119859361D01*
X129219521Y-119922011D01*
X129207443Y-119968370D01*
X129206229Y-119971416D01*
X129187385Y-120005048D01*
X129168315Y-120016864D01*
X129149561Y-120007614D01*
X129131663Y-119978047D01*
X129115163Y-119928911D01*
X129100604Y-119860957D01*
X129093594Y-119815645D01*
X129080111Y-119721456D01*
X129067786Y-119646544D01*
X129055551Y-119587717D01*
X129042339Y-119541785D01*
X129027083Y-119505555D01*
X129008715Y-119475838D01*
X128986169Y-119449442D01*
X128964029Y-119428230D01*
X128933181Y-119403065D01*
X128906655Y-119390681D01*
X128873974Y-119386808D01*
X128862005Y-119386667D01*
X128822288Y-119389576D01*
X128792741Y-119401202D01*
X128766514Y-119421323D01*
X128726424Y-119462216D01*
X128695851Y-119507817D01*
X128673797Y-119561513D01*
X128659265Y-119626692D01*
X128651259Y-119706744D01*
X128648782Y-119805057D01*
X128648823Y-119821289D01*
X128650182Y-119886849D01*
X128653270Y-119951866D01*
X128657644Y-120009252D01*
X128662860Y-120051922D01*
X128663459Y-120055372D01*
X128673509Y-120097796D01*
X128686204Y-120133780D01*
X128697810Y-120154150D01*
X128728428Y-120173107D01*
X128764082Y-120174427D01*
X128795856Y-120158085D01*
X128799449Y-120154429D01*
X128810124Y-120139315D01*
X128814724Y-120120415D01*
X128813941Y-120091162D01*
X128809873Y-120055651D01*
X128806238Y-120015970D01*
X128803172Y-119960345D01*
X128800947Y-119895406D01*
X128799836Y-119827785D01*
X128799763Y-119810000D01*
X128800036Y-119742128D01*
X128801354Y-119692454D01*
X128804173Y-119656610D01*
X128808950Y-119630224D01*
X128816143Y-119608926D01*
X128822133Y-119596126D01*
X128838767Y-119568000D01*
X128853832Y-119550068D01*
X128858103Y-119547447D01*
X128875737Y-119552976D01*
X128892808Y-119579260D01*
X128908542Y-119624478D01*
X128922162Y-119686808D01*
X128925196Y-119705171D01*
X128940262Y-119801090D01*
X128952854Y-119877641D01*
X128963889Y-119937780D01*
X128974280Y-119984460D01*
X128984944Y-120020637D01*
X128996795Y-120049265D01*
X129010749Y-120073298D01*
X129027719Y-120095692D01*
X129048622Y-120119402D01*
X129055951Y-120127380D01*
X129083301Y-120155353D01*
X129104971Y-120170160D01*
X129129768Y-120175952D01*
X129161017Y-120176889D01*
X129222295Y-120166575D01*
X129274360Y-120135752D01*
X129317042Y-120084595D01*
X129350175Y-120013283D01*
X129365036Y-119962400D01*
X129374634Y-119907100D01*
X129380064Y-119840853D01*
X129381633Y-119767706D01*
X129379649Y-119691703D01*
X129379649Y-119691703D01*
G37*
X129379649Y-119691703D02*
X129374419Y-119616888D01*
X129366250Y-119547306D01*
X129355450Y-119487002D01*
X129342327Y-119440020D01*
X129327187Y-119410406D01*
X129322731Y-119405860D01*
X129288150Y-119390054D01*
X129252649Y-119394847D01*
X129222275Y-119419364D01*
X129221404Y-119420534D01*
X129212046Y-119434954D01*
X129207124Y-119450008D01*
X129206527Y-119471005D01*
X129210139Y-119503257D01*
X129217846Y-119552073D01*
X129218495Y-119556000D01*
X129227431Y-119628739D01*
X129231839Y-119707217D01*
X129231881Y-119785927D01*
X129227721Y-119859361D01*
X129219521Y-119922011D01*
X129207443Y-119968370D01*
X129206229Y-119971416D01*
X129187385Y-120005048D01*
X129168315Y-120016864D01*
X129149561Y-120007614D01*
X129131663Y-119978047D01*
X129115163Y-119928911D01*
X129100604Y-119860957D01*
X129093594Y-119815645D01*
X129080111Y-119721456D01*
X129067786Y-119646544D01*
X129055551Y-119587717D01*
X129042339Y-119541785D01*
X129027083Y-119505555D01*
X129008715Y-119475838D01*
X128986169Y-119449442D01*
X128964029Y-119428230D01*
X128933181Y-119403065D01*
X128906655Y-119390681D01*
X128873974Y-119386808D01*
X128862005Y-119386667D01*
X128822288Y-119389576D01*
X128792741Y-119401202D01*
X128766514Y-119421323D01*
X128726424Y-119462216D01*
X128695851Y-119507817D01*
X128673797Y-119561513D01*
X128659265Y-119626692D01*
X128651259Y-119706744D01*
X128648782Y-119805057D01*
X128648823Y-119821289D01*
X128650182Y-119886849D01*
X128653270Y-119951866D01*
X128657644Y-120009252D01*
X128662860Y-120051922D01*
X128663459Y-120055372D01*
X128673509Y-120097796D01*
X128686204Y-120133780D01*
X128697810Y-120154150D01*
X128728428Y-120173107D01*
X128764082Y-120174427D01*
X128795856Y-120158085D01*
X128799449Y-120154429D01*
X128810124Y-120139315D01*
X128814724Y-120120415D01*
X128813941Y-120091162D01*
X128809873Y-120055651D01*
X128806238Y-120015970D01*
X128803172Y-119960345D01*
X128800947Y-119895406D01*
X128799836Y-119827785D01*
X128799763Y-119810000D01*
X128800036Y-119742128D01*
X128801354Y-119692454D01*
X128804173Y-119656610D01*
X128808950Y-119630224D01*
X128816143Y-119608926D01*
X128822133Y-119596126D01*
X128838767Y-119568000D01*
X128853832Y-119550068D01*
X128858103Y-119547447D01*
X128875737Y-119552976D01*
X128892808Y-119579260D01*
X128908542Y-119624478D01*
X128922162Y-119686808D01*
X128925196Y-119705171D01*
X128940262Y-119801090D01*
X128952854Y-119877641D01*
X128963889Y-119937780D01*
X128974280Y-119984460D01*
X128984944Y-120020637D01*
X128996795Y-120049265D01*
X129010749Y-120073298D01*
X129027719Y-120095692D01*
X129048622Y-120119402D01*
X129055951Y-120127380D01*
X129083301Y-120155353D01*
X129104971Y-120170160D01*
X129129768Y-120175952D01*
X129161017Y-120176889D01*
X129222295Y-120166575D01*
X129274360Y-120135752D01*
X129317042Y-120084595D01*
X129350175Y-120013283D01*
X129365036Y-119962400D01*
X129374634Y-119907100D01*
X129380064Y-119840853D01*
X129381633Y-119767706D01*
X129379649Y-119691703D01*
G36*
X129380854Y-120712794D02*
X129380482Y-120643386D01*
X129379615Y-120590997D01*
X129378054Y-120552847D01*
X129375597Y-120526159D01*
X129372043Y-120508153D01*
X129367190Y-120496049D01*
X129360839Y-120487069D01*
X129357916Y-120483818D01*
X129326858Y-120464043D01*
X129291172Y-120460482D01*
X129259490Y-120473491D01*
X129253087Y-120479506D01*
X129246879Y-120489235D01*
X129242090Y-120504901D01*
X129238486Y-120529408D01*
X129235836Y-120565661D01*
X129233905Y-120616565D01*
X129232461Y-120685026D01*
X129231582Y-120747617D01*
X129228533Y-120995334D01*
X129163622Y-120998719D01*
X129098711Y-121002105D01*
X129098711Y-120833958D01*
X129098081Y-120760959D01*
X129095447Y-120707517D01*
X129089691Y-120670628D01*
X129079696Y-120647288D01*
X129064344Y-120634494D01*
X129042518Y-120629242D01*
X129022262Y-120628445D01*
X128997408Y-120630923D01*
X128979094Y-120640277D01*
X128966363Y-120659383D01*
X128958259Y-120691118D01*
X128953824Y-120738359D01*
X128952101Y-120803983D01*
X128951955Y-120839801D01*
X128951955Y-121000978D01*
X128793911Y-121000978D01*
X128793911Y-120752622D01*
X128793798Y-120671213D01*
X128793288Y-120609342D01*
X128792130Y-120563968D01*
X128790070Y-120532054D01*
X128786854Y-120510559D01*
X128782228Y-120496443D01*
X128775941Y-120486668D01*
X128771333Y-120481689D01*
X128744440Y-120464610D01*
X128720533Y-120459111D01*
X128691333Y-120466963D01*
X128669733Y-120481689D01*
X128662934Y-120489546D01*
X128657654Y-120499688D01*
X128653702Y-120514844D01*
X128650887Y-120537741D01*
X128649018Y-120571109D01*
X128647902Y-120617675D01*
X128647349Y-120680167D01*
X128647167Y-120761314D01*
X128647155Y-120803422D01*
X128647235Y-120893598D01*
X128647602Y-120963924D01*
X128648448Y-121017129D01*
X128649964Y-121055940D01*
X128652341Y-121083087D01*
X128655771Y-121101298D01*
X128660446Y-121113300D01*
X128666556Y-121121822D01*
X128669733Y-121125156D01*
X128677330Y-121131755D01*
X128687130Y-121136927D01*
X128701761Y-121140846D01*
X128723848Y-121143684D01*
X128756018Y-121145615D01*
X128800897Y-121146812D01*
X128861111Y-121147448D01*
X128939287Y-121147697D01*
X129012077Y-121147734D01*
X129105293Y-121147700D01*
X129178569Y-121147465D01*
X129234542Y-121146830D01*
X129275849Y-121145594D01*
X129305128Y-121143556D01*
X129325016Y-121140517D01*
X129338150Y-121136277D01*
X129347168Y-121130635D01*
X129354707Y-121123391D01*
X129356388Y-121121606D01*
X129363828Y-121112945D01*
X129369591Y-121102882D01*
X129373888Y-121088625D01*
X129376936Y-121067383D01*
X129378949Y-121036364D01*
X129380140Y-120992777D01*
X129380725Y-120933831D01*
X129380917Y-120856734D01*
X129380933Y-120802001D01*
X129380854Y-120712794D01*
X129380854Y-120712794D01*
G37*
X129380854Y-120712794D02*
X129380482Y-120643386D01*
X129379615Y-120590997D01*
X129378054Y-120552847D01*
X129375597Y-120526159D01*
X129372043Y-120508153D01*
X129367190Y-120496049D01*
X129360839Y-120487069D01*
X129357916Y-120483818D01*
X129326858Y-120464043D01*
X129291172Y-120460482D01*
X129259490Y-120473491D01*
X129253087Y-120479506D01*
X129246879Y-120489235D01*
X129242090Y-120504901D01*
X129238486Y-120529408D01*
X129235836Y-120565661D01*
X129233905Y-120616565D01*
X129232461Y-120685026D01*
X129231582Y-120747617D01*
X129228533Y-120995334D01*
X129163622Y-120998719D01*
X129098711Y-121002105D01*
X129098711Y-120833958D01*
X129098081Y-120760959D01*
X129095447Y-120707517D01*
X129089691Y-120670628D01*
X129079696Y-120647288D01*
X129064344Y-120634494D01*
X129042518Y-120629242D01*
X129022262Y-120628445D01*
X128997408Y-120630923D01*
X128979094Y-120640277D01*
X128966363Y-120659383D01*
X128958259Y-120691118D01*
X128953824Y-120738359D01*
X128952101Y-120803983D01*
X128951955Y-120839801D01*
X128951955Y-121000978D01*
X128793911Y-121000978D01*
X128793911Y-120752622D01*
X128793798Y-120671213D01*
X128793288Y-120609342D01*
X128792130Y-120563968D01*
X128790070Y-120532054D01*
X128786854Y-120510559D01*
X128782228Y-120496443D01*
X128775941Y-120486668D01*
X128771333Y-120481689D01*
X128744440Y-120464610D01*
X128720533Y-120459111D01*
X128691333Y-120466963D01*
X128669733Y-120481689D01*
X128662934Y-120489546D01*
X128657654Y-120499688D01*
X128653702Y-120514844D01*
X128650887Y-120537741D01*
X128649018Y-120571109D01*
X128647902Y-120617675D01*
X128647349Y-120680167D01*
X128647167Y-120761314D01*
X128647155Y-120803422D01*
X128647235Y-120893598D01*
X128647602Y-120963924D01*
X128648448Y-121017129D01*
X128649964Y-121055940D01*
X128652341Y-121083087D01*
X128655771Y-121101298D01*
X128660446Y-121113300D01*
X128666556Y-121121822D01*
X128669733Y-121125156D01*
X128677330Y-121131755D01*
X128687130Y-121136927D01*
X128701761Y-121140846D01*
X128723848Y-121143684D01*
X128756018Y-121145615D01*
X128800897Y-121146812D01*
X128861111Y-121147448D01*
X128939287Y-121147697D01*
X129012077Y-121147734D01*
X129105293Y-121147700D01*
X129178569Y-121147465D01*
X129234542Y-121146830D01*
X129275849Y-121145594D01*
X129305128Y-121143556D01*
X129325016Y-121140517D01*
X129338150Y-121136277D01*
X129347168Y-121130635D01*
X129354707Y-121123391D01*
X129356388Y-121121606D01*
X129363828Y-121112945D01*
X129369591Y-121102882D01*
X129373888Y-121088625D01*
X129376936Y-121067383D01*
X129378949Y-121036364D01*
X129380140Y-120992777D01*
X129380725Y-120933831D01*
X129380917Y-120856734D01*
X129380933Y-120802001D01*
X129380854Y-120712794D01*
G36*
X129380934Y-122121371D02*
X129380533Y-122081889D01*
X129377741Y-121966200D01*
X129369450Y-121869311D01*
X129354768Y-121787919D01*
X129332807Y-121718723D01*
X129302678Y-121658420D01*
X129263490Y-121603708D01*
X129246468Y-121584167D01*
X129206637Y-121551750D01*
X129152587Y-121522520D01*
X129092677Y-121499991D01*
X129035261Y-121487679D01*
X129014044Y-121486400D01*
X128955231Y-121494417D01*
X128890987Y-121515899D01*
X128830179Y-121546999D01*
X128781670Y-121583866D01*
X128775818Y-121589854D01*
X128734679Y-121640579D01*
X128702565Y-121696125D01*
X128678635Y-121759696D01*
X128662047Y-121834494D01*
X128651959Y-121923722D01*
X128647531Y-122030582D01*
X128647155Y-122079528D01*
X128647455Y-122141762D01*
X128648708Y-122185528D01*
X128651446Y-122214931D01*
X128656199Y-122234079D01*
X128663499Y-122247077D01*
X128669733Y-122254045D01*
X128677306Y-122260626D01*
X128687076Y-122265788D01*
X128701660Y-122269703D01*
X128723674Y-122272543D01*
X128755736Y-122274480D01*
X128800464Y-122275684D01*
X128860474Y-122276328D01*
X128938383Y-122276583D01*
X129014044Y-122276622D01*
X129114959Y-122276870D01*
X129195573Y-122276817D01*
X129234178Y-122275857D01*
X129234178Y-122129867D01*
X128793911Y-122129867D01*
X128793996Y-122036734D01*
X128795604Y-121980693D01*
X128799744Y-121921999D01*
X128805536Y-121873028D01*
X128805774Y-121871538D01*
X128824910Y-121792392D01*
X128854713Y-121731002D01*
X128897122Y-121684305D01*
X128943039Y-121654635D01*
X128993974Y-121636353D01*
X129041800Y-121637771D01*
X129093067Y-121658988D01*
X129146101Y-121700489D01*
X129185400Y-121757998D01*
X129211669Y-121832750D01*
X129220965Y-121882708D01*
X129227493Y-121939416D01*
X129232218Y-121999519D01*
X129234183Y-122050639D01*
X129234192Y-122053667D01*
X129234178Y-122129867D01*
X129234178Y-122275857D01*
X129258149Y-122275260D01*
X129304945Y-122270998D01*
X129338222Y-122262830D01*
X129360241Y-122249556D01*
X129373261Y-122229974D01*
X129379543Y-122202883D01*
X129381347Y-122167082D01*
X129380934Y-122121371D01*
X129380934Y-122121371D01*
G37*
X129380934Y-122121371D02*
X129380533Y-122081889D01*
X129377741Y-121966200D01*
X129369450Y-121869311D01*
X129354768Y-121787919D01*
X129332807Y-121718723D01*
X129302678Y-121658420D01*
X129263490Y-121603708D01*
X129246468Y-121584167D01*
X129206637Y-121551750D01*
X129152587Y-121522520D01*
X129092677Y-121499991D01*
X129035261Y-121487679D01*
X129014044Y-121486400D01*
X128955231Y-121494417D01*
X128890987Y-121515899D01*
X128830179Y-121546999D01*
X128781670Y-121583866D01*
X128775818Y-121589854D01*
X128734679Y-121640579D01*
X128702565Y-121696125D01*
X128678635Y-121759696D01*
X128662047Y-121834494D01*
X128651959Y-121923722D01*
X128647531Y-122030582D01*
X128647155Y-122079528D01*
X128647455Y-122141762D01*
X128648708Y-122185528D01*
X128651446Y-122214931D01*
X128656199Y-122234079D01*
X128663499Y-122247077D01*
X128669733Y-122254045D01*
X128677306Y-122260626D01*
X128687076Y-122265788D01*
X128701660Y-122269703D01*
X128723674Y-122272543D01*
X128755736Y-122274480D01*
X128800464Y-122275684D01*
X128860474Y-122276328D01*
X128938383Y-122276583D01*
X129014044Y-122276622D01*
X129114959Y-122276870D01*
X129195573Y-122276817D01*
X129234178Y-122275857D01*
X129234178Y-122129867D01*
X128793911Y-122129867D01*
X128793996Y-122036734D01*
X128795604Y-121980693D01*
X128799744Y-121921999D01*
X128805536Y-121873028D01*
X128805774Y-121871538D01*
X128824910Y-121792392D01*
X128854713Y-121731002D01*
X128897122Y-121684305D01*
X128943039Y-121654635D01*
X128993974Y-121636353D01*
X129041800Y-121637771D01*
X129093067Y-121658988D01*
X129146101Y-121700489D01*
X129185400Y-121757998D01*
X129211669Y-121832750D01*
X129220965Y-121882708D01*
X129227493Y-121939416D01*
X129232218Y-121999519D01*
X129234183Y-122050639D01*
X129234192Y-122053667D01*
X129234178Y-122129867D01*
X129234178Y-122275857D01*
X129258149Y-122275260D01*
X129304945Y-122270998D01*
X129338222Y-122262830D01*
X129360241Y-122249556D01*
X129373261Y-122229974D01*
X129379543Y-122202883D01*
X129381347Y-122167082D01*
X129380934Y-122121371D01*
D10*
X126300000Y-81700000D02*
X139300000Y-81700000D01*
X126300000Y-82500000D02*
X126300000Y-81700000D01*
X133800000Y-81700000D02*
X133800000Y-92500000D01*
X137000000Y-82500000D02*
X137000000Y-92500000D01*
X137000000Y-92500000D02*
X139300000Y-92500000D01*
X137000000Y-90000000D02*
X139300000Y-90000000D01*
X137000000Y-87500000D02*
X139300000Y-87500000D01*
X137000000Y-85000000D02*
X139300000Y-85000000D01*
X139300000Y-82500000D02*
X137000000Y-82500000D01*
X126300000Y-82500000D02*
X126300000Y-92500000D01*
X139300000Y-82500000D02*
X126300000Y-82500000D01*
X139300000Y-92500000D02*
X139300000Y-81700000D01*
X126300000Y-92500000D02*
X139300000Y-92500000D01*
X129000000Y-84000000D02*
X129000000Y-83500000D01*
X129000000Y-83500000D02*
X127000000Y-83500000D01*
X127000000Y-84000000D02*
X129000000Y-84000000D01*
X127000000Y-83500000D02*
X127000000Y-84000000D01*
X127000000Y-86000000D02*
X127000000Y-86500000D01*
X129000000Y-86500000D02*
X129000000Y-86000000D01*
X127000000Y-86500000D02*
X129000000Y-86500000D01*
X129000000Y-86000000D02*
X127000000Y-86000000D01*
X127000000Y-89000000D02*
X129000000Y-89000000D01*
X129000000Y-89000000D02*
X129000000Y-88500000D01*
X129000000Y-88500000D02*
X127000000Y-88500000D01*
X127000000Y-88500000D02*
X127000000Y-89000000D01*
X127000000Y-91000000D02*
X127000000Y-91500000D01*
X129000000Y-91500000D02*
X129000000Y-91000000D01*
X127000000Y-91500000D02*
X129000000Y-91500000D01*
X129000000Y-91000000D02*
X127000000Y-91000000D01*
X156500000Y-98690000D02*
X157500000Y-98690000D01*
X152500000Y-112040000D02*
X152500000Y-98690000D01*
X152500000Y-98690000D02*
X153500000Y-98690000D01*
X157500000Y-98690000D02*
X157500000Y-112040000D01*
X157500000Y-112040000D02*
X152500000Y-112040000D01*
X153500000Y-98690000D02*
X153500000Y-99500000D01*
X153500000Y-99500000D02*
X156500000Y-99500000D01*
X156500000Y-99500000D02*
X156500000Y-98690000D01*
D13*
X154600000Y-82000000D02*
G75*
G03X154600000Y-82000000I-600000J0D01*
G01*
X131100000Y-103250000D02*
G75*
G03X131100000Y-103250000I-600000J0D01*
G01*
X131100000Y-106750000D02*
G75*
G03X131100000Y-106750000I-600000J0D01*
G01*
X145600000Y-104750000D02*
G75*
G03X145600000Y-104750000I-600000J0D01*
G01*
X147600000Y-95750000D02*
G75*
G03X147600000Y-95750000I-600000J0D01*
G01*
X136850000Y-106500000D02*
G75*
G03X136850000Y-106500000I-600000J0D01*
G01*
X130600000Y-96250000D02*
G75*
G03X130600000Y-96250000I-600000J0D01*
G01*
X130600000Y-94750000D02*
G75*
G03X130600000Y-94750000I-600000J0D01*
G01*
D12*
G36*
X158346090Y-117242348D02*
X158267546Y-117242778D01*
X158210702Y-117243942D01*
X158171895Y-117246207D01*
X158147462Y-117249940D01*
X158133738Y-117255506D01*
X158127060Y-117263273D01*
X158123764Y-117273605D01*
X158123444Y-117274943D01*
X158118438Y-117299079D01*
X158109171Y-117346701D01*
X158096608Y-117412741D01*
X158081713Y-117492128D01*
X158065449Y-117579796D01*
X158064881Y-117582875D01*
X158048590Y-117668789D01*
X158033348Y-117744696D01*
X158020139Y-117806045D01*
X158009946Y-117848282D01*
X158003752Y-117866855D01*
X158003457Y-117867184D01*
X157985212Y-117876253D01*
X157947595Y-117891367D01*
X157898729Y-117909262D01*
X157898457Y-117909358D01*
X157836907Y-117932493D01*
X157764343Y-117961965D01*
X157695943Y-117991597D01*
X157692706Y-117993062D01*
X157581298Y-118043626D01*
X157334601Y-117875160D01*
X157258923Y-117823803D01*
X157190369Y-117777889D01*
X157132912Y-117740030D01*
X157090524Y-117712837D01*
X157067175Y-117698921D01*
X157064958Y-117697889D01*
X157047990Y-117702484D01*
X157016299Y-117724655D01*
X156968648Y-117765447D01*
X156903802Y-117825905D01*
X156837603Y-117890227D01*
X156773786Y-117953612D01*
X156716671Y-118011451D01*
X156669695Y-118060175D01*
X156636297Y-118096210D01*
X156619915Y-118115984D01*
X156619306Y-118117002D01*
X156617495Y-118130572D01*
X156624317Y-118152733D01*
X156641460Y-118186478D01*
X156670607Y-118234800D01*
X156713445Y-118300692D01*
X156770552Y-118385517D01*
X156821234Y-118460177D01*
X156866539Y-118527140D01*
X156903850Y-118582516D01*
X156930548Y-118622420D01*
X156944015Y-118642962D01*
X156944863Y-118644356D01*
X156943219Y-118664038D01*
X156930755Y-118702293D01*
X156909952Y-118751889D01*
X156902538Y-118767728D01*
X156870186Y-118838290D01*
X156835672Y-118918353D01*
X156807635Y-118987629D01*
X156787432Y-119039045D01*
X156771385Y-119078119D01*
X156762112Y-119098541D01*
X156760959Y-119100114D01*
X156743904Y-119102721D01*
X156703702Y-119109863D01*
X156645698Y-119120523D01*
X156575237Y-119133685D01*
X156497665Y-119148333D01*
X156418328Y-119163449D01*
X156342569Y-119178018D01*
X156275736Y-119191022D01*
X156223172Y-119201445D01*
X156190224Y-119208270D01*
X156182143Y-119210199D01*
X156173795Y-119214962D01*
X156167494Y-119225718D01*
X156162955Y-119246098D01*
X156159896Y-119279734D01*
X156158033Y-119330255D01*
X156157082Y-119401292D01*
X156156760Y-119496476D01*
X156156743Y-119535492D01*
X156156743Y-119852799D01*
X156232943Y-119867839D01*
X156275337Y-119875995D01*
X156338600Y-119887899D01*
X156415038Y-119902116D01*
X156496957Y-119917210D01*
X156519600Y-119921355D01*
X156595194Y-119936053D01*
X156661047Y-119950505D01*
X156711634Y-119963375D01*
X156741426Y-119973322D01*
X156746388Y-119976287D01*
X156758574Y-119997283D01*
X156776047Y-120037967D01*
X156795423Y-120090322D01*
X156799266Y-120101600D01*
X156824661Y-120171523D01*
X156856183Y-120250418D01*
X156887031Y-120321266D01*
X156887183Y-120321595D01*
X156938553Y-120432733D01*
X156769601Y-120681253D01*
X156600648Y-120929772D01*
X156817571Y-121147058D01*
X156883181Y-121211726D01*
X156943021Y-121268733D01*
X156993733Y-121315033D01*
X157031954Y-121347584D01*
X157054325Y-121363343D01*
X157057534Y-121364343D01*
X157076374Y-121356469D01*
X157114820Y-121334578D01*
X157168670Y-121301267D01*
X157233724Y-121259131D01*
X157304060Y-121211943D01*
X157375445Y-121163810D01*
X157439092Y-121121928D01*
X157490959Y-121088871D01*
X157527005Y-121067218D01*
X157543133Y-121059543D01*
X157562811Y-121066037D01*
X157600125Y-121083150D01*
X157647379Y-121107326D01*
X157652388Y-121110013D01*
X157716023Y-121141927D01*
X157759659Y-121157579D01*
X157786798Y-121157745D01*
X157800943Y-121143204D01*
X157801025Y-121143000D01*
X157808095Y-121125779D01*
X157824958Y-121084899D01*
X157850305Y-121023525D01*
X157882829Y-120944819D01*
X157921222Y-120851947D01*
X157964178Y-120748072D01*
X158005778Y-120647502D01*
X158051496Y-120536516D01*
X158093474Y-120433703D01*
X158130452Y-120342215D01*
X158161173Y-120265201D01*
X158184378Y-120205815D01*
X158198810Y-120167209D01*
X158203257Y-120152800D01*
X158192104Y-120136272D01*
X158162931Y-120109930D01*
X158124029Y-120080887D01*
X158013243Y-119989039D01*
X157926649Y-119883759D01*
X157865284Y-119767266D01*
X157830185Y-119641776D01*
X157822392Y-119509507D01*
X157828057Y-119448457D01*
X157858922Y-119321795D01*
X157912080Y-119209941D01*
X157984233Y-119114001D01*
X158072083Y-119035076D01*
X158172335Y-118974270D01*
X158281690Y-118932687D01*
X158396853Y-118911428D01*
X158514525Y-118911599D01*
X158631410Y-118934301D01*
X158744211Y-118980638D01*
X158849631Y-119051713D01*
X158893632Y-119091911D01*
X158978021Y-119195129D01*
X159036778Y-119307925D01*
X159070296Y-119427010D01*
X159078965Y-119549095D01*
X159063177Y-119670893D01*
X159023322Y-119789116D01*
X158959793Y-119900475D01*
X158872979Y-120001684D01*
X158775971Y-120080887D01*
X158735563Y-120111162D01*
X158707018Y-120137219D01*
X158696743Y-120152825D01*
X158702123Y-120169843D01*
X158717425Y-120210500D01*
X158741388Y-120271642D01*
X158772756Y-120350119D01*
X158810268Y-120442780D01*
X158852667Y-120546472D01*
X158894337Y-120647526D01*
X158940310Y-120758607D01*
X158982893Y-120861541D01*
X159020779Y-120953165D01*
X159052660Y-121030316D01*
X159077229Y-121089831D01*
X159093180Y-121128544D01*
X159099090Y-121143000D01*
X159113052Y-121157685D01*
X159140060Y-121157642D01*
X159183587Y-121142099D01*
X159247110Y-121110284D01*
X159247612Y-121110013D01*
X159295440Y-121085323D01*
X159334103Y-121067338D01*
X159355905Y-121059614D01*
X159356867Y-121059543D01*
X159373279Y-121067378D01*
X159409513Y-121089165D01*
X159461526Y-121122328D01*
X159525275Y-121164291D01*
X159595940Y-121211943D01*
X159667884Y-121260191D01*
X159732726Y-121302151D01*
X159786265Y-121335227D01*
X159824303Y-121356821D01*
X159842467Y-121364343D01*
X159859192Y-121354457D01*
X159892820Y-121326826D01*
X159939990Y-121284495D01*
X159997342Y-121230505D01*
X160061516Y-121167899D01*
X160082503Y-121146983D01*
X160299501Y-120929623D01*
X160134332Y-120687220D01*
X160084136Y-120612781D01*
X160040081Y-120545972D01*
X160004638Y-120490665D01*
X159980281Y-120450729D01*
X159969478Y-120430036D01*
X159969162Y-120428563D01*
X159974857Y-120409058D01*
X159990174Y-120369822D01*
X160012463Y-120317430D01*
X160028107Y-120282355D01*
X160057359Y-120215201D01*
X160084906Y-120147358D01*
X160106263Y-120090034D01*
X160112065Y-120072572D01*
X160128548Y-120025938D01*
X160144660Y-119989905D01*
X160153510Y-119976287D01*
X160173040Y-119967952D01*
X160215666Y-119956137D01*
X160275855Y-119942181D01*
X160348078Y-119927422D01*
X160380400Y-119921355D01*
X160462478Y-119906273D01*
X160541205Y-119891669D01*
X160608891Y-119878980D01*
X160657840Y-119869642D01*
X160667057Y-119867839D01*
X160743257Y-119852799D01*
X160743257Y-119535492D01*
X160743086Y-119431154D01*
X160742384Y-119352213D01*
X160740866Y-119295038D01*
X160738251Y-119255999D01*
X160734254Y-119231465D01*
X160728591Y-119217805D01*
X160720980Y-119211389D01*
X160717857Y-119210199D01*
X160699022Y-119205980D01*
X160657412Y-119197562D01*
X160598370Y-119185961D01*
X160527243Y-119172195D01*
X160449375Y-119157280D01*
X160370113Y-119142232D01*
X160294802Y-119128069D01*
X160228787Y-119115806D01*
X160177413Y-119106461D01*
X160146025Y-119101050D01*
X160139041Y-119100114D01*
X160132715Y-119087596D01*
X160118710Y-119054246D01*
X160099645Y-119006377D01*
X160092366Y-118987629D01*
X160063004Y-118915195D01*
X160028429Y-118835170D01*
X159997463Y-118767728D01*
X159974677Y-118716159D01*
X159959518Y-118673785D01*
X159954458Y-118647834D01*
X159955264Y-118644356D01*
X159965959Y-118627936D01*
X159990380Y-118591417D01*
X160025905Y-118538687D01*
X160069913Y-118473635D01*
X160119783Y-118400151D01*
X160129644Y-118385645D01*
X160187508Y-118299704D01*
X160230044Y-118234261D01*
X160258946Y-118186304D01*
X160275910Y-118152820D01*
X160282633Y-118130795D01*
X160280810Y-118117217D01*
X160280764Y-118117131D01*
X160266414Y-118099297D01*
X160234677Y-118064817D01*
X160188990Y-118017268D01*
X160132796Y-117960222D01*
X160069532Y-117897255D01*
X160062398Y-117890227D01*
X159982670Y-117813020D01*
X159921143Y-117756330D01*
X159876579Y-117719110D01*
X159847743Y-117700315D01*
X159835042Y-117697889D01*
X159816506Y-117708471D01*
X159778039Y-117732916D01*
X159723614Y-117768612D01*
X159657202Y-117812947D01*
X159582775Y-117863311D01*
X159565399Y-117875160D01*
X159318703Y-118043626D01*
X159207294Y-117993062D01*
X159139543Y-117963595D01*
X159066817Y-117933959D01*
X159004297Y-117910330D01*
X159001543Y-117909358D01*
X158952640Y-117891457D01*
X158914943Y-117876320D01*
X158896575Y-117867210D01*
X158896544Y-117867184D01*
X158890715Y-117850717D01*
X158880808Y-117810219D01*
X158867805Y-117750242D01*
X158852691Y-117675340D01*
X158836448Y-117590064D01*
X158835119Y-117582875D01*
X158818825Y-117495014D01*
X158803867Y-117415260D01*
X158791209Y-117348681D01*
X158781814Y-117300347D01*
X158776646Y-117275325D01*
X158776556Y-117274943D01*
X158773411Y-117264299D01*
X158767296Y-117256262D01*
X158754547Y-117250467D01*
X158731500Y-117246547D01*
X158694491Y-117244135D01*
X158639856Y-117242865D01*
X158563933Y-117242371D01*
X158463056Y-117242286D01*
X158450000Y-117242286D01*
X158346090Y-117242348D01*
X158346090Y-117242348D01*
G37*
X158346090Y-117242348D02*
X158267546Y-117242778D01*
X158210702Y-117243942D01*
X158171895Y-117246207D01*
X158147462Y-117249940D01*
X158133738Y-117255506D01*
X158127060Y-117263273D01*
X158123764Y-117273605D01*
X158123444Y-117274943D01*
X158118438Y-117299079D01*
X158109171Y-117346701D01*
X158096608Y-117412741D01*
X158081713Y-117492128D01*
X158065449Y-117579796D01*
X158064881Y-117582875D01*
X158048590Y-117668789D01*
X158033348Y-117744696D01*
X158020139Y-117806045D01*
X158009946Y-117848282D01*
X158003752Y-117866855D01*
X158003457Y-117867184D01*
X157985212Y-117876253D01*
X157947595Y-117891367D01*
X157898729Y-117909262D01*
X157898457Y-117909358D01*
X157836907Y-117932493D01*
X157764343Y-117961965D01*
X157695943Y-117991597D01*
X157692706Y-117993062D01*
X157581298Y-118043626D01*
X157334601Y-117875160D01*
X157258923Y-117823803D01*
X157190369Y-117777889D01*
X157132912Y-117740030D01*
X157090524Y-117712837D01*
X157067175Y-117698921D01*
X157064958Y-117697889D01*
X157047990Y-117702484D01*
X157016299Y-117724655D01*
X156968648Y-117765447D01*
X156903802Y-117825905D01*
X156837603Y-117890227D01*
X156773786Y-117953612D01*
X156716671Y-118011451D01*
X156669695Y-118060175D01*
X156636297Y-118096210D01*
X156619915Y-118115984D01*
X156619306Y-118117002D01*
X156617495Y-118130572D01*
X156624317Y-118152733D01*
X156641460Y-118186478D01*
X156670607Y-118234800D01*
X156713445Y-118300692D01*
X156770552Y-118385517D01*
X156821234Y-118460177D01*
X156866539Y-118527140D01*
X156903850Y-118582516D01*
X156930548Y-118622420D01*
X156944015Y-118642962D01*
X156944863Y-118644356D01*
X156943219Y-118664038D01*
X156930755Y-118702293D01*
X156909952Y-118751889D01*
X156902538Y-118767728D01*
X156870186Y-118838290D01*
X156835672Y-118918353D01*
X156807635Y-118987629D01*
X156787432Y-119039045D01*
X156771385Y-119078119D01*
X156762112Y-119098541D01*
X156760959Y-119100114D01*
X156743904Y-119102721D01*
X156703702Y-119109863D01*
X156645698Y-119120523D01*
X156575237Y-119133685D01*
X156497665Y-119148333D01*
X156418328Y-119163449D01*
X156342569Y-119178018D01*
X156275736Y-119191022D01*
X156223172Y-119201445D01*
X156190224Y-119208270D01*
X156182143Y-119210199D01*
X156173795Y-119214962D01*
X156167494Y-119225718D01*
X156162955Y-119246098D01*
X156159896Y-119279734D01*
X156158033Y-119330255D01*
X156157082Y-119401292D01*
X156156760Y-119496476D01*
X156156743Y-119535492D01*
X156156743Y-119852799D01*
X156232943Y-119867839D01*
X156275337Y-119875995D01*
X156338600Y-119887899D01*
X156415038Y-119902116D01*
X156496957Y-119917210D01*
X156519600Y-119921355D01*
X156595194Y-119936053D01*
X156661047Y-119950505D01*
X156711634Y-119963375D01*
X156741426Y-119973322D01*
X156746388Y-119976287D01*
X156758574Y-119997283D01*
X156776047Y-120037967D01*
X156795423Y-120090322D01*
X156799266Y-120101600D01*
X156824661Y-120171523D01*
X156856183Y-120250418D01*
X156887031Y-120321266D01*
X156887183Y-120321595D01*
X156938553Y-120432733D01*
X156769601Y-120681253D01*
X156600648Y-120929772D01*
X156817571Y-121147058D01*
X156883181Y-121211726D01*
X156943021Y-121268733D01*
X156993733Y-121315033D01*
X157031954Y-121347584D01*
X157054325Y-121363343D01*
X157057534Y-121364343D01*
X157076374Y-121356469D01*
X157114820Y-121334578D01*
X157168670Y-121301267D01*
X157233724Y-121259131D01*
X157304060Y-121211943D01*
X157375445Y-121163810D01*
X157439092Y-121121928D01*
X157490959Y-121088871D01*
X157527005Y-121067218D01*
X157543133Y-121059543D01*
X157562811Y-121066037D01*
X157600125Y-121083150D01*
X157647379Y-121107326D01*
X157652388Y-121110013D01*
X157716023Y-121141927D01*
X157759659Y-121157579D01*
X157786798Y-121157745D01*
X157800943Y-121143204D01*
X157801025Y-121143000D01*
X157808095Y-121125779D01*
X157824958Y-121084899D01*
X157850305Y-121023525D01*
X157882829Y-120944819D01*
X157921222Y-120851947D01*
X157964178Y-120748072D01*
X158005778Y-120647502D01*
X158051496Y-120536516D01*
X158093474Y-120433703D01*
X158130452Y-120342215D01*
X158161173Y-120265201D01*
X158184378Y-120205815D01*
X158198810Y-120167209D01*
X158203257Y-120152800D01*
X158192104Y-120136272D01*
X158162931Y-120109930D01*
X158124029Y-120080887D01*
X158013243Y-119989039D01*
X157926649Y-119883759D01*
X157865284Y-119767266D01*
X157830185Y-119641776D01*
X157822392Y-119509507D01*
X157828057Y-119448457D01*
X157858922Y-119321795D01*
X157912080Y-119209941D01*
X157984233Y-119114001D01*
X158072083Y-119035076D01*
X158172335Y-118974270D01*
X158281690Y-118932687D01*
X158396853Y-118911428D01*
X158514525Y-118911599D01*
X158631410Y-118934301D01*
X158744211Y-118980638D01*
X158849631Y-119051713D01*
X158893632Y-119091911D01*
X158978021Y-119195129D01*
X159036778Y-119307925D01*
X159070296Y-119427010D01*
X159078965Y-119549095D01*
X159063177Y-119670893D01*
X159023322Y-119789116D01*
X158959793Y-119900475D01*
X158872979Y-120001684D01*
X158775971Y-120080887D01*
X158735563Y-120111162D01*
X158707018Y-120137219D01*
X158696743Y-120152825D01*
X158702123Y-120169843D01*
X158717425Y-120210500D01*
X158741388Y-120271642D01*
X158772756Y-120350119D01*
X158810268Y-120442780D01*
X158852667Y-120546472D01*
X158894337Y-120647526D01*
X158940310Y-120758607D01*
X158982893Y-120861541D01*
X159020779Y-120953165D01*
X159052660Y-121030316D01*
X159077229Y-121089831D01*
X159093180Y-121128544D01*
X159099090Y-121143000D01*
X159113052Y-121157685D01*
X159140060Y-121157642D01*
X159183587Y-121142099D01*
X159247110Y-121110284D01*
X159247612Y-121110013D01*
X159295440Y-121085323D01*
X159334103Y-121067338D01*
X159355905Y-121059614D01*
X159356867Y-121059543D01*
X159373279Y-121067378D01*
X159409513Y-121089165D01*
X159461526Y-121122328D01*
X159525275Y-121164291D01*
X159595940Y-121211943D01*
X159667884Y-121260191D01*
X159732726Y-121302151D01*
X159786265Y-121335227D01*
X159824303Y-121356821D01*
X159842467Y-121364343D01*
X159859192Y-121354457D01*
X159892820Y-121326826D01*
X159939990Y-121284495D01*
X159997342Y-121230505D01*
X160061516Y-121167899D01*
X160082503Y-121146983D01*
X160299501Y-120929623D01*
X160134332Y-120687220D01*
X160084136Y-120612781D01*
X160040081Y-120545972D01*
X160004638Y-120490665D01*
X159980281Y-120450729D01*
X159969478Y-120430036D01*
X159969162Y-120428563D01*
X159974857Y-120409058D01*
X159990174Y-120369822D01*
X160012463Y-120317430D01*
X160028107Y-120282355D01*
X160057359Y-120215201D01*
X160084906Y-120147358D01*
X160106263Y-120090034D01*
X160112065Y-120072572D01*
X160128548Y-120025938D01*
X160144660Y-119989905D01*
X160153510Y-119976287D01*
X160173040Y-119967952D01*
X160215666Y-119956137D01*
X160275855Y-119942181D01*
X160348078Y-119927422D01*
X160380400Y-119921355D01*
X160462478Y-119906273D01*
X160541205Y-119891669D01*
X160608891Y-119878980D01*
X160657840Y-119869642D01*
X160667057Y-119867839D01*
X160743257Y-119852799D01*
X160743257Y-119535492D01*
X160743086Y-119431154D01*
X160742384Y-119352213D01*
X160740866Y-119295038D01*
X160738251Y-119255999D01*
X160734254Y-119231465D01*
X160728591Y-119217805D01*
X160720980Y-119211389D01*
X160717857Y-119210199D01*
X160699022Y-119205980D01*
X160657412Y-119197562D01*
X160598370Y-119185961D01*
X160527243Y-119172195D01*
X160449375Y-119157280D01*
X160370113Y-119142232D01*
X160294802Y-119128069D01*
X160228787Y-119115806D01*
X160177413Y-119106461D01*
X160146025Y-119101050D01*
X160139041Y-119100114D01*
X160132715Y-119087596D01*
X160118710Y-119054246D01*
X160099645Y-119006377D01*
X160092366Y-118987629D01*
X160063004Y-118915195D01*
X160028429Y-118835170D01*
X159997463Y-118767728D01*
X159974677Y-118716159D01*
X159959518Y-118673785D01*
X159954458Y-118647834D01*
X159955264Y-118644356D01*
X159965959Y-118627936D01*
X159990380Y-118591417D01*
X160025905Y-118538687D01*
X160069913Y-118473635D01*
X160119783Y-118400151D01*
X160129644Y-118385645D01*
X160187508Y-118299704D01*
X160230044Y-118234261D01*
X160258946Y-118186304D01*
X160275910Y-118152820D01*
X160282633Y-118130795D01*
X160280810Y-118117217D01*
X160280764Y-118117131D01*
X160266414Y-118099297D01*
X160234677Y-118064817D01*
X160188990Y-118017268D01*
X160132796Y-117960222D01*
X160069532Y-117897255D01*
X160062398Y-117890227D01*
X159982670Y-117813020D01*
X159921143Y-117756330D01*
X159876579Y-117719110D01*
X159847743Y-117700315D01*
X159835042Y-117697889D01*
X159816506Y-117708471D01*
X159778039Y-117732916D01*
X159723614Y-117768612D01*
X159657202Y-117812947D01*
X159582775Y-117863311D01*
X159565399Y-117875160D01*
X159318703Y-118043626D01*
X159207294Y-117993062D01*
X159139543Y-117963595D01*
X159066817Y-117933959D01*
X159004297Y-117910330D01*
X159001543Y-117909358D01*
X158952640Y-117891457D01*
X158914943Y-117876320D01*
X158896575Y-117867210D01*
X158896544Y-117867184D01*
X158890715Y-117850717D01*
X158880808Y-117810219D01*
X158867805Y-117750242D01*
X158852691Y-117675340D01*
X158836448Y-117590064D01*
X158835119Y-117582875D01*
X158818825Y-117495014D01*
X158803867Y-117415260D01*
X158791209Y-117348681D01*
X158781814Y-117300347D01*
X158776646Y-117275325D01*
X158776556Y-117274943D01*
X158773411Y-117264299D01*
X158767296Y-117256262D01*
X158754547Y-117250467D01*
X158731500Y-117246547D01*
X158694491Y-117244135D01*
X158639856Y-117242865D01*
X158563933Y-117242371D01*
X158463056Y-117242286D01*
X158450000Y-117242286D01*
X158346090Y-117242348D01*
G36*
X155296405Y-121966966D02*
X155238979Y-122004497D01*
X155211281Y-122038096D01*
X155189338Y-122099064D01*
X155187595Y-122147308D01*
X155191543Y-122211816D01*
X155340314Y-122276934D01*
X155412651Y-122310202D01*
X155459916Y-122336964D01*
X155484493Y-122360144D01*
X155488763Y-122382667D01*
X155475111Y-122407455D01*
X155460057Y-122423886D01*
X155416254Y-122450235D01*
X155368611Y-122452081D01*
X155324855Y-122431546D01*
X155292711Y-122390752D01*
X155286962Y-122376347D01*
X155259424Y-122331356D01*
X155227742Y-122312182D01*
X155184286Y-122295779D01*
X155184286Y-122357966D01*
X155188128Y-122400283D01*
X155203177Y-122435969D01*
X155234720Y-122476943D01*
X155239408Y-122482267D01*
X155274494Y-122518720D01*
X155304653Y-122538283D01*
X155342385Y-122547283D01*
X155373665Y-122550230D01*
X155429615Y-122550965D01*
X155469445Y-122541660D01*
X155494292Y-122527846D01*
X155533344Y-122497467D01*
X155560375Y-122464613D01*
X155577483Y-122423294D01*
X155586762Y-122367521D01*
X155590307Y-122291305D01*
X155590590Y-122252622D01*
X155589628Y-122206247D01*
X155501993Y-122206247D01*
X155500977Y-122231126D01*
X155498444Y-122235200D01*
X155481726Y-122229665D01*
X155445751Y-122215017D01*
X155397669Y-122194190D01*
X155387614Y-122189714D01*
X155326848Y-122158814D01*
X155293368Y-122131657D01*
X155286010Y-122106220D01*
X155303609Y-122080481D01*
X155318144Y-122069109D01*
X155370590Y-122046364D01*
X155419678Y-122050122D01*
X155460773Y-122077884D01*
X155489242Y-122127152D01*
X155498369Y-122166257D01*
X155501993Y-122206247D01*
X155589628Y-122206247D01*
X155588715Y-122162249D01*
X155581804Y-122095384D01*
X155568116Y-122046695D01*
X155545904Y-122010849D01*
X155513426Y-121982513D01*
X155499267Y-121973355D01*
X155434947Y-121949507D01*
X155364527Y-121948006D01*
X155296405Y-121966966D01*
X155296405Y-121966966D01*
G37*
X155296405Y-121966966D02*
X155238979Y-122004497D01*
X155211281Y-122038096D01*
X155189338Y-122099064D01*
X155187595Y-122147308D01*
X155191543Y-122211816D01*
X155340314Y-122276934D01*
X155412651Y-122310202D01*
X155459916Y-122336964D01*
X155484493Y-122360144D01*
X155488763Y-122382667D01*
X155475111Y-122407455D01*
X155460057Y-122423886D01*
X155416254Y-122450235D01*
X155368611Y-122452081D01*
X155324855Y-122431546D01*
X155292711Y-122390752D01*
X155286962Y-122376347D01*
X155259424Y-122331356D01*
X155227742Y-122312182D01*
X155184286Y-122295779D01*
X155184286Y-122357966D01*
X155188128Y-122400283D01*
X155203177Y-122435969D01*
X155234720Y-122476943D01*
X155239408Y-122482267D01*
X155274494Y-122518720D01*
X155304653Y-122538283D01*
X155342385Y-122547283D01*
X155373665Y-122550230D01*
X155429615Y-122550965D01*
X155469445Y-122541660D01*
X155494292Y-122527846D01*
X155533344Y-122497467D01*
X155560375Y-122464613D01*
X155577483Y-122423294D01*
X155586762Y-122367521D01*
X155590307Y-122291305D01*
X155590590Y-122252622D01*
X155589628Y-122206247D01*
X155501993Y-122206247D01*
X155500977Y-122231126D01*
X155498444Y-122235200D01*
X155481726Y-122229665D01*
X155445751Y-122215017D01*
X155397669Y-122194190D01*
X155387614Y-122189714D01*
X155326848Y-122158814D01*
X155293368Y-122131657D01*
X155286010Y-122106220D01*
X155303609Y-122080481D01*
X155318144Y-122069109D01*
X155370590Y-122046364D01*
X155419678Y-122050122D01*
X155460773Y-122077884D01*
X155489242Y-122127152D01*
X155498369Y-122166257D01*
X155501993Y-122206247D01*
X155589628Y-122206247D01*
X155588715Y-122162249D01*
X155581804Y-122095384D01*
X155568116Y-122046695D01*
X155545904Y-122010849D01*
X155513426Y-121982513D01*
X155499267Y-121973355D01*
X155434947Y-121949507D01*
X155364527Y-121948006D01*
X155296405Y-121966966D01*
G36*
X155797400Y-121958752D02*
X155780052Y-121966334D01*
X155738644Y-121999128D01*
X155703235Y-122046547D01*
X155681336Y-122097151D01*
X155677771Y-122122098D01*
X155689721Y-122156927D01*
X155715933Y-122175357D01*
X155744036Y-122186516D01*
X155756905Y-122188572D01*
X155763171Y-122173649D01*
X155775544Y-122141175D01*
X155780972Y-122126502D01*
X155811410Y-122075744D01*
X155855480Y-122050427D01*
X155911990Y-122051206D01*
X155916175Y-122052203D01*
X155946345Y-122066507D01*
X155968524Y-122094393D01*
X155983673Y-122139287D01*
X155992750Y-122204615D01*
X155996714Y-122293804D01*
X155997086Y-122341261D01*
X155997270Y-122416071D01*
X155998478Y-122467069D01*
X156001691Y-122499471D01*
X156007891Y-122518495D01*
X156018060Y-122529356D01*
X156033181Y-122537272D01*
X156034054Y-122537670D01*
X156063172Y-122549981D01*
X156077597Y-122554514D01*
X156079814Y-122540809D01*
X156081711Y-122502925D01*
X156083153Y-122445715D01*
X156084002Y-122374027D01*
X156084171Y-122321565D01*
X156083308Y-122220047D01*
X156079930Y-122143032D01*
X156072858Y-122086023D01*
X156060912Y-122044526D01*
X156042910Y-122014043D01*
X156017673Y-121990080D01*
X155992753Y-121973355D01*
X155932829Y-121951097D01*
X155863089Y-121946076D01*
X155797400Y-121958752D01*
X155797400Y-121958752D01*
G37*
X155797400Y-121958752D02*
X155780052Y-121966334D01*
X155738644Y-121999128D01*
X155703235Y-122046547D01*
X155681336Y-122097151D01*
X155677771Y-122122098D01*
X155689721Y-122156927D01*
X155715933Y-122175357D01*
X155744036Y-122186516D01*
X155756905Y-122188572D01*
X155763171Y-122173649D01*
X155775544Y-122141175D01*
X155780972Y-122126502D01*
X155811410Y-122075744D01*
X155855480Y-122050427D01*
X155911990Y-122051206D01*
X155916175Y-122052203D01*
X155946345Y-122066507D01*
X155968524Y-122094393D01*
X155983673Y-122139287D01*
X155992750Y-122204615D01*
X155996714Y-122293804D01*
X155997086Y-122341261D01*
X155997270Y-122416071D01*
X155998478Y-122467069D01*
X156001691Y-122499471D01*
X156007891Y-122518495D01*
X156018060Y-122529356D01*
X156033181Y-122537272D01*
X156034054Y-122537670D01*
X156063172Y-122549981D01*
X156077597Y-122554514D01*
X156079814Y-122540809D01*
X156081711Y-122502925D01*
X156083153Y-122445715D01*
X156084002Y-122374027D01*
X156084171Y-122321565D01*
X156083308Y-122220047D01*
X156079930Y-122143032D01*
X156072858Y-122086023D01*
X156060912Y-122044526D01*
X156042910Y-122014043D01*
X156017673Y-121990080D01*
X155992753Y-121973355D01*
X155932829Y-121951097D01*
X155863089Y-121946076D01*
X155797400Y-121958752D01*
G36*
X156305124Y-121956335D02*
X156263333Y-121975344D01*
X156230531Y-121998378D01*
X156206497Y-122024133D01*
X156189903Y-122057358D01*
X156179423Y-122102800D01*
X156173729Y-122165207D01*
X156171493Y-122249327D01*
X156171257Y-122304721D01*
X156171257Y-122520826D01*
X156208226Y-122537670D01*
X156237344Y-122549981D01*
X156251769Y-122554514D01*
X156254528Y-122541025D01*
X156256718Y-122504653D01*
X156258058Y-122451542D01*
X156258343Y-122409372D01*
X156259566Y-122348447D01*
X156262864Y-122300115D01*
X156267679Y-122270518D01*
X156271504Y-122264229D01*
X156297217Y-122270652D01*
X156337582Y-122287125D01*
X156384321Y-122309458D01*
X156429155Y-122333457D01*
X156463807Y-122354930D01*
X156479998Y-122369685D01*
X156480062Y-122369845D01*
X156478670Y-122397152D01*
X156466182Y-122423219D01*
X156444257Y-122444392D01*
X156412257Y-122451474D01*
X156384908Y-122450649D01*
X156346174Y-122450042D01*
X156325842Y-122459116D01*
X156313631Y-122483092D01*
X156312091Y-122487613D01*
X156306797Y-122521806D01*
X156320953Y-122542568D01*
X156357852Y-122552462D01*
X156397711Y-122554292D01*
X156469438Y-122540727D01*
X156506568Y-122521355D01*
X156552424Y-122475845D01*
X156576744Y-122419983D01*
X156578927Y-122360957D01*
X156558371Y-122305953D01*
X156527451Y-122271486D01*
X156496580Y-122252189D01*
X156448058Y-122227759D01*
X156391515Y-122202985D01*
X156382090Y-122199199D01*
X156319981Y-122171791D01*
X156284178Y-122147634D01*
X156272663Y-122123619D01*
X156283420Y-122096635D01*
X156301886Y-122075543D01*
X156345531Y-122049572D01*
X156393554Y-122047624D01*
X156437594Y-122067637D01*
X156469291Y-122107551D01*
X156473451Y-122117848D01*
X156497673Y-122155724D01*
X156533035Y-122183842D01*
X156577657Y-122206917D01*
X156577657Y-122141485D01*
X156575031Y-122101506D01*
X156563770Y-122069997D01*
X156538801Y-122036378D01*
X156514831Y-122010484D01*
X156477559Y-121973817D01*
X156448599Y-121954121D01*
X156417495Y-121946220D01*
X156382287Y-121944914D01*
X156305124Y-121956335D01*
X156305124Y-121956335D01*
G37*
X156305124Y-121956335D02*
X156263333Y-121975344D01*
X156230531Y-121998378D01*
X156206497Y-122024133D01*
X156189903Y-122057358D01*
X156179423Y-122102800D01*
X156173729Y-122165207D01*
X156171493Y-122249327D01*
X156171257Y-122304721D01*
X156171257Y-122520826D01*
X156208226Y-122537670D01*
X156237344Y-122549981D01*
X156251769Y-122554514D01*
X156254528Y-122541025D01*
X156256718Y-122504653D01*
X156258058Y-122451542D01*
X156258343Y-122409372D01*
X156259566Y-122348447D01*
X156262864Y-122300115D01*
X156267679Y-122270518D01*
X156271504Y-122264229D01*
X156297217Y-122270652D01*
X156337582Y-122287125D01*
X156384321Y-122309458D01*
X156429155Y-122333457D01*
X156463807Y-122354930D01*
X156479998Y-122369685D01*
X156480062Y-122369845D01*
X156478670Y-122397152D01*
X156466182Y-122423219D01*
X156444257Y-122444392D01*
X156412257Y-122451474D01*
X156384908Y-122450649D01*
X156346174Y-122450042D01*
X156325842Y-122459116D01*
X156313631Y-122483092D01*
X156312091Y-122487613D01*
X156306797Y-122521806D01*
X156320953Y-122542568D01*
X156357852Y-122552462D01*
X156397711Y-122554292D01*
X156469438Y-122540727D01*
X156506568Y-122521355D01*
X156552424Y-122475845D01*
X156576744Y-122419983D01*
X156578927Y-122360957D01*
X156558371Y-122305953D01*
X156527451Y-122271486D01*
X156496580Y-122252189D01*
X156448058Y-122227759D01*
X156391515Y-122202985D01*
X156382090Y-122199199D01*
X156319981Y-122171791D01*
X156284178Y-122147634D01*
X156272663Y-122123619D01*
X156283420Y-122096635D01*
X156301886Y-122075543D01*
X156345531Y-122049572D01*
X156393554Y-122047624D01*
X156437594Y-122067637D01*
X156469291Y-122107551D01*
X156473451Y-122117848D01*
X156497673Y-122155724D01*
X156533035Y-122183842D01*
X156577657Y-122206917D01*
X156577657Y-122141485D01*
X156575031Y-122101506D01*
X156563770Y-122069997D01*
X156538801Y-122036378D01*
X156514831Y-122010484D01*
X156477559Y-121973817D01*
X156448599Y-121954121D01*
X156417495Y-121946220D01*
X156382287Y-121944914D01*
X156305124Y-121956335D01*
G36*
X156670167Y-121958663D02*
X156667952Y-121996850D01*
X156666216Y-122054886D01*
X156665101Y-122128180D01*
X156664743Y-122205055D01*
X156664743Y-122465196D01*
X156710674Y-122511127D01*
X156742325Y-122539429D01*
X156770110Y-122550893D01*
X156808085Y-122550168D01*
X156823160Y-122548321D01*
X156870274Y-122542948D01*
X156909244Y-122539869D01*
X156918743Y-122539585D01*
X156950767Y-122541445D01*
X156996568Y-122546114D01*
X157014326Y-122548321D01*
X157057943Y-122551735D01*
X157087255Y-122544320D01*
X157116320Y-122521427D01*
X157126812Y-122511127D01*
X157172743Y-122465196D01*
X157172743Y-121978602D01*
X157135774Y-121961758D01*
X157103941Y-121949282D01*
X157085317Y-121944914D01*
X157080542Y-121958718D01*
X157076079Y-121997286D01*
X157072225Y-122056356D01*
X157069278Y-122131663D01*
X157067857Y-122195286D01*
X157063886Y-122445657D01*
X157029241Y-122450556D01*
X156997732Y-122447131D01*
X156982292Y-122436041D01*
X156977977Y-122415308D01*
X156974292Y-122371145D01*
X156971531Y-122309146D01*
X156969988Y-122234909D01*
X156969765Y-122196706D01*
X156969543Y-121976783D01*
X156923834Y-121960849D01*
X156891482Y-121950015D01*
X156873885Y-121944962D01*
X156873377Y-121944914D01*
X156871612Y-121958648D01*
X156869671Y-121996730D01*
X156867718Y-122054482D01*
X156865916Y-122127227D01*
X156864657Y-122195286D01*
X156860686Y-122445657D01*
X156773600Y-122445657D01*
X156769604Y-122217240D01*
X156765608Y-121988822D01*
X156723153Y-121966868D01*
X156691808Y-121951793D01*
X156673256Y-121944951D01*
X156672721Y-121944914D01*
X156670167Y-121958663D01*
X156670167Y-121958663D01*
G37*
X156670167Y-121958663D02*
X156667952Y-121996850D01*
X156666216Y-122054886D01*
X156665101Y-122128180D01*
X156664743Y-122205055D01*
X156664743Y-122465196D01*
X156710674Y-122511127D01*
X156742325Y-122539429D01*
X156770110Y-122550893D01*
X156808085Y-122550168D01*
X156823160Y-122548321D01*
X156870274Y-122542948D01*
X156909244Y-122539869D01*
X156918743Y-122539585D01*
X156950767Y-122541445D01*
X156996568Y-122546114D01*
X157014326Y-122548321D01*
X157057943Y-122551735D01*
X157087255Y-122544320D01*
X157116320Y-122521427D01*
X157126812Y-122511127D01*
X157172743Y-122465196D01*
X157172743Y-121978602D01*
X157135774Y-121961758D01*
X157103941Y-121949282D01*
X157085317Y-121944914D01*
X157080542Y-121958718D01*
X157076079Y-121997286D01*
X157072225Y-122056356D01*
X157069278Y-122131663D01*
X157067857Y-122195286D01*
X157063886Y-122445657D01*
X157029241Y-122450556D01*
X156997732Y-122447131D01*
X156982292Y-122436041D01*
X156977977Y-122415308D01*
X156974292Y-122371145D01*
X156971531Y-122309146D01*
X156969988Y-122234909D01*
X156969765Y-122196706D01*
X156969543Y-121976783D01*
X156923834Y-121960849D01*
X156891482Y-121950015D01*
X156873885Y-121944962D01*
X156873377Y-121944914D01*
X156871612Y-121958648D01*
X156869671Y-121996730D01*
X156867718Y-122054482D01*
X156865916Y-122127227D01*
X156864657Y-122195286D01*
X156860686Y-122445657D01*
X156773600Y-122445657D01*
X156769604Y-122217240D01*
X156765608Y-121988822D01*
X156723153Y-121966868D01*
X156691808Y-121951793D01*
X156673256Y-121944951D01*
X156672721Y-121944914D01*
X156670167Y-121958663D01*
G36*
X157259883Y-122065358D02*
X157260067Y-122173837D01*
X157260781Y-122257287D01*
X157262325Y-122319704D01*
X157264999Y-122365085D01*
X157269106Y-122397429D01*
X157274945Y-122420733D01*
X157282818Y-122438995D01*
X157288779Y-122449418D01*
X157338145Y-122505945D01*
X157400736Y-122541377D01*
X157469987Y-122554090D01*
X157539332Y-122542463D01*
X157580625Y-122521568D01*
X157623975Y-122485422D01*
X157653519Y-122441276D01*
X157671345Y-122383462D01*
X157679537Y-122306313D01*
X157680698Y-122249714D01*
X157680542Y-122245647D01*
X157579143Y-122245647D01*
X157578524Y-122310550D01*
X157575686Y-122353514D01*
X157569160Y-122381622D01*
X157557477Y-122401953D01*
X157543517Y-122417288D01*
X157496635Y-122446890D01*
X157446299Y-122449419D01*
X157398724Y-122424705D01*
X157395021Y-122421356D01*
X157379217Y-122403935D01*
X157369307Y-122383209D01*
X157363942Y-122352362D01*
X157361772Y-122304577D01*
X157361429Y-122251748D01*
X157362173Y-122185381D01*
X157365252Y-122141106D01*
X157371939Y-122112009D01*
X157383504Y-122091173D01*
X157392987Y-122080107D01*
X157437040Y-122052198D01*
X157487776Y-122048843D01*
X157536204Y-122070159D01*
X157545550Y-122078073D01*
X157561460Y-122095647D01*
X157571390Y-122116587D01*
X157576722Y-122147782D01*
X157578837Y-122196122D01*
X157579143Y-122245647D01*
X157680542Y-122245647D01*
X157677190Y-122158568D01*
X157665274Y-122090086D01*
X157642865Y-122038600D01*
X157607876Y-121998443D01*
X157580625Y-121977861D01*
X157531093Y-121955625D01*
X157473684Y-121945304D01*
X157420318Y-121948067D01*
X157390457Y-121959212D01*
X157378739Y-121962383D01*
X157370963Y-121950557D01*
X157365535Y-121918866D01*
X157361429Y-121870593D01*
X157356933Y-121816829D01*
X157350687Y-121784482D01*
X157339324Y-121765985D01*
X157319472Y-121753770D01*
X157307000Y-121748362D01*
X157259829Y-121728601D01*
X157259883Y-122065358D01*
X157259883Y-122065358D01*
G37*
X157259883Y-122065358D02*
X157260067Y-122173837D01*
X157260781Y-122257287D01*
X157262325Y-122319704D01*
X157264999Y-122365085D01*
X157269106Y-122397429D01*
X157274945Y-122420733D01*
X157282818Y-122438995D01*
X157288779Y-122449418D01*
X157338145Y-122505945D01*
X157400736Y-122541377D01*
X157469987Y-122554090D01*
X157539332Y-122542463D01*
X157580625Y-122521568D01*
X157623975Y-122485422D01*
X157653519Y-122441276D01*
X157671345Y-122383462D01*
X157679537Y-122306313D01*
X157680698Y-122249714D01*
X157680542Y-122245647D01*
X157579143Y-122245647D01*
X157578524Y-122310550D01*
X157575686Y-122353514D01*
X157569160Y-122381622D01*
X157557477Y-122401953D01*
X157543517Y-122417288D01*
X157496635Y-122446890D01*
X157446299Y-122449419D01*
X157398724Y-122424705D01*
X157395021Y-122421356D01*
X157379217Y-122403935D01*
X157369307Y-122383209D01*
X157363942Y-122352362D01*
X157361772Y-122304577D01*
X157361429Y-122251748D01*
X157362173Y-122185381D01*
X157365252Y-122141106D01*
X157371939Y-122112009D01*
X157383504Y-122091173D01*
X157392987Y-122080107D01*
X157437040Y-122052198D01*
X157487776Y-122048843D01*
X157536204Y-122070159D01*
X157545550Y-122078073D01*
X157561460Y-122095647D01*
X157571390Y-122116587D01*
X157576722Y-122147782D01*
X157578837Y-122196122D01*
X157579143Y-122245647D01*
X157680542Y-122245647D01*
X157677190Y-122158568D01*
X157665274Y-122090086D01*
X157642865Y-122038600D01*
X157607876Y-121998443D01*
X157580625Y-121977861D01*
X157531093Y-121955625D01*
X157473684Y-121945304D01*
X157420318Y-121948067D01*
X157390457Y-121959212D01*
X157378739Y-121962383D01*
X157370963Y-121950557D01*
X157365535Y-121918866D01*
X157361429Y-121870593D01*
X157356933Y-121816829D01*
X157350687Y-121784482D01*
X157339324Y-121765985D01*
X157319472Y-121753770D01*
X157307000Y-121748362D01*
X157259829Y-121728601D01*
X157259883Y-122065358D01*
G36*
X157920074Y-121949755D02*
X157854142Y-121974084D01*
X157800727Y-122017117D01*
X157779836Y-122047409D01*
X157757061Y-122102994D01*
X157757534Y-122143186D01*
X157781438Y-122170217D01*
X157790283Y-122174813D01*
X157828470Y-122189144D01*
X157847972Y-122185472D01*
X157854578Y-122161407D01*
X157854914Y-122148114D01*
X157867008Y-122099210D01*
X157898529Y-122064999D01*
X157942341Y-122048476D01*
X157991305Y-122052634D01*
X158031106Y-122074227D01*
X158044550Y-122086544D01*
X158054079Y-122101487D01*
X158060515Y-122124075D01*
X158064683Y-122159328D01*
X158067403Y-122212266D01*
X158069498Y-122287907D01*
X158070040Y-122311857D01*
X158072019Y-122393790D01*
X158074269Y-122451455D01*
X158077643Y-122489608D01*
X158082994Y-122513004D01*
X158091176Y-122526398D01*
X158103041Y-122534545D01*
X158110638Y-122538144D01*
X158142898Y-122550452D01*
X158161889Y-122554514D01*
X158168164Y-122540948D01*
X158171994Y-122499934D01*
X158173400Y-122430999D01*
X158172402Y-122333669D01*
X158172092Y-122318657D01*
X158169899Y-122229859D01*
X158167307Y-122165019D01*
X158163618Y-122119067D01*
X158158136Y-122086935D01*
X158150165Y-122063553D01*
X158139007Y-122043852D01*
X158133170Y-122035410D01*
X158099704Y-121998057D01*
X158062273Y-121969003D01*
X158057691Y-121966467D01*
X157990574Y-121946443D01*
X157920074Y-121949755D01*
X157920074Y-121949755D01*
G37*
X157920074Y-121949755D02*
X157854142Y-121974084D01*
X157800727Y-122017117D01*
X157779836Y-122047409D01*
X157757061Y-122102994D01*
X157757534Y-122143186D01*
X157781438Y-122170217D01*
X157790283Y-122174813D01*
X157828470Y-122189144D01*
X157847972Y-122185472D01*
X157854578Y-122161407D01*
X157854914Y-122148114D01*
X157867008Y-122099210D01*
X157898529Y-122064999D01*
X157942341Y-122048476D01*
X157991305Y-122052634D01*
X158031106Y-122074227D01*
X158044550Y-122086544D01*
X158054079Y-122101487D01*
X158060515Y-122124075D01*
X158064683Y-122159328D01*
X158067403Y-122212266D01*
X158069498Y-122287907D01*
X158070040Y-122311857D01*
X158072019Y-122393790D01*
X158074269Y-122451455D01*
X158077643Y-122489608D01*
X158082994Y-122513004D01*
X158091176Y-122526398D01*
X158103041Y-122534545D01*
X158110638Y-122538144D01*
X158142898Y-122550452D01*
X158161889Y-122554514D01*
X158168164Y-122540948D01*
X158171994Y-122499934D01*
X158173400Y-122430999D01*
X158172402Y-122333669D01*
X158172092Y-122318657D01*
X158169899Y-122229859D01*
X158167307Y-122165019D01*
X158163618Y-122119067D01*
X158158136Y-122086935D01*
X158150165Y-122063553D01*
X158139007Y-122043852D01*
X158133170Y-122035410D01*
X158099704Y-121998057D01*
X158062273Y-121969003D01*
X158057691Y-121966467D01*
X157990574Y-121946443D01*
X157920074Y-121949755D01*
G36*
X158410256Y-121950968D02*
X158353384Y-121972087D01*
X158352733Y-121972493D01*
X158317560Y-121998380D01*
X158291593Y-122028633D01*
X158273330Y-122068058D01*
X158261268Y-122121462D01*
X158253904Y-122193651D01*
X158249736Y-122289432D01*
X158249371Y-122303078D01*
X158244124Y-122508842D01*
X158288284Y-122531678D01*
X158320237Y-122547110D01*
X158339530Y-122554423D01*
X158340422Y-122554514D01*
X158343761Y-122541022D01*
X158346413Y-122504626D01*
X158348044Y-122451452D01*
X158348400Y-122408393D01*
X158348408Y-122338641D01*
X158351597Y-122294837D01*
X158362712Y-122273944D01*
X158386499Y-122272925D01*
X158427704Y-122288741D01*
X158489914Y-122317815D01*
X158535659Y-122341963D01*
X158559187Y-122362913D01*
X158566104Y-122385747D01*
X158566114Y-122386877D01*
X158554701Y-122426212D01*
X158520908Y-122447462D01*
X158469191Y-122450539D01*
X158431939Y-122450006D01*
X158412297Y-122460735D01*
X158400048Y-122486505D01*
X158392998Y-122519337D01*
X158403158Y-122537966D01*
X158406983Y-122540632D01*
X158442999Y-122551340D01*
X158493434Y-122552856D01*
X158545374Y-122545759D01*
X158582178Y-122532788D01*
X158633062Y-122489585D01*
X158661986Y-122429446D01*
X158667714Y-122382462D01*
X158663343Y-122340082D01*
X158647525Y-122305488D01*
X158616203Y-122274763D01*
X158565322Y-122243990D01*
X158490824Y-122209252D01*
X158486286Y-122207288D01*
X158419179Y-122176287D01*
X158377768Y-122150862D01*
X158360019Y-122128014D01*
X158363893Y-122104745D01*
X158387357Y-122078056D01*
X158394373Y-122071914D01*
X158441370Y-122048100D01*
X158490067Y-122049103D01*
X158532478Y-122072451D01*
X158560616Y-122115675D01*
X158563231Y-122124160D01*
X158588692Y-122165308D01*
X158620999Y-122185128D01*
X158667714Y-122204770D01*
X158667714Y-122153950D01*
X158653504Y-122080082D01*
X158611325Y-122012327D01*
X158589376Y-121989661D01*
X158539483Y-121960569D01*
X158476033Y-121947400D01*
X158410256Y-121950968D01*
X158410256Y-121950968D01*
G37*
X158410256Y-121950968D02*
X158353384Y-121972087D01*
X158352733Y-121972493D01*
X158317560Y-121998380D01*
X158291593Y-122028633D01*
X158273330Y-122068058D01*
X158261268Y-122121462D01*
X158253904Y-122193651D01*
X158249736Y-122289432D01*
X158249371Y-122303078D01*
X158244124Y-122508842D01*
X158288284Y-122531678D01*
X158320237Y-122547110D01*
X158339530Y-122554423D01*
X158340422Y-122554514D01*
X158343761Y-122541022D01*
X158346413Y-122504626D01*
X158348044Y-122451452D01*
X158348400Y-122408393D01*
X158348408Y-122338641D01*
X158351597Y-122294837D01*
X158362712Y-122273944D01*
X158386499Y-122272925D01*
X158427704Y-122288741D01*
X158489914Y-122317815D01*
X158535659Y-122341963D01*
X158559187Y-122362913D01*
X158566104Y-122385747D01*
X158566114Y-122386877D01*
X158554701Y-122426212D01*
X158520908Y-122447462D01*
X158469191Y-122450539D01*
X158431939Y-122450006D01*
X158412297Y-122460735D01*
X158400048Y-122486505D01*
X158392998Y-122519337D01*
X158403158Y-122537966D01*
X158406983Y-122540632D01*
X158442999Y-122551340D01*
X158493434Y-122552856D01*
X158545374Y-122545759D01*
X158582178Y-122532788D01*
X158633062Y-122489585D01*
X158661986Y-122429446D01*
X158667714Y-122382462D01*
X158663343Y-122340082D01*
X158647525Y-122305488D01*
X158616203Y-122274763D01*
X158565322Y-122243990D01*
X158490824Y-122209252D01*
X158486286Y-122207288D01*
X158419179Y-122176287D01*
X158377768Y-122150862D01*
X158360019Y-122128014D01*
X158363893Y-122104745D01*
X158387357Y-122078056D01*
X158394373Y-122071914D01*
X158441370Y-122048100D01*
X158490067Y-122049103D01*
X158532478Y-122072451D01*
X158560616Y-122115675D01*
X158563231Y-122124160D01*
X158588692Y-122165308D01*
X158620999Y-122185128D01*
X158667714Y-122204770D01*
X158667714Y-122153950D01*
X158653504Y-122080082D01*
X158611325Y-122012327D01*
X158589376Y-121989661D01*
X158539483Y-121960569D01*
X158476033Y-121947400D01*
X158410256Y-121950968D01*
G36*
X159074114Y-121851289D02*
X159069861Y-121910613D01*
X159064975Y-121945572D01*
X159058205Y-121960820D01*
X159048298Y-121961015D01*
X159045086Y-121959195D01*
X159002356Y-121946015D01*
X158946773Y-121946785D01*
X158890263Y-121960333D01*
X158854918Y-121977861D01*
X158818679Y-122005861D01*
X158792187Y-122037549D01*
X158774001Y-122077813D01*
X158762678Y-122131543D01*
X158756778Y-122203626D01*
X158754857Y-122298951D01*
X158754823Y-122317237D01*
X158754800Y-122522646D01*
X158800509Y-122538580D01*
X158832973Y-122549420D01*
X158850785Y-122554468D01*
X158851309Y-122554514D01*
X158853063Y-122540828D01*
X158854556Y-122503076D01*
X158855674Y-122446224D01*
X158856303Y-122375234D01*
X158856400Y-122332073D01*
X158856602Y-122246973D01*
X158857642Y-122185981D01*
X158860169Y-122144177D01*
X158864836Y-122116642D01*
X158872293Y-122098456D01*
X158883189Y-122084698D01*
X158889993Y-122078073D01*
X158936728Y-122051375D01*
X158987728Y-122049375D01*
X159033999Y-122071955D01*
X159042556Y-122080107D01*
X159055107Y-122095436D01*
X159063812Y-122113618D01*
X159069369Y-122139909D01*
X159072474Y-122179562D01*
X159073824Y-122237832D01*
X159074114Y-122318173D01*
X159074114Y-122522646D01*
X159119823Y-122538580D01*
X159152287Y-122549420D01*
X159170099Y-122554468D01*
X159170623Y-122554514D01*
X159171963Y-122540623D01*
X159173172Y-122501439D01*
X159174199Y-122440700D01*
X159174998Y-122362141D01*
X159175519Y-122269498D01*
X159175714Y-122166509D01*
X159175714Y-121769342D01*
X159128543Y-121749444D01*
X159081371Y-121729547D01*
X159074114Y-121851289D01*
X159074114Y-121851289D01*
G37*
X159074114Y-121851289D02*
X159069861Y-121910613D01*
X159064975Y-121945572D01*
X159058205Y-121960820D01*
X159048298Y-121961015D01*
X159045086Y-121959195D01*
X159002356Y-121946015D01*
X158946773Y-121946785D01*
X158890263Y-121960333D01*
X158854918Y-121977861D01*
X158818679Y-122005861D01*
X158792187Y-122037549D01*
X158774001Y-122077813D01*
X158762678Y-122131543D01*
X158756778Y-122203626D01*
X158754857Y-122298951D01*
X158754823Y-122317237D01*
X158754800Y-122522646D01*
X158800509Y-122538580D01*
X158832973Y-122549420D01*
X158850785Y-122554468D01*
X158851309Y-122554514D01*
X158853063Y-122540828D01*
X158854556Y-122503076D01*
X158855674Y-122446224D01*
X158856303Y-122375234D01*
X158856400Y-122332073D01*
X158856602Y-122246973D01*
X158857642Y-122185981D01*
X158860169Y-122144177D01*
X158864836Y-122116642D01*
X158872293Y-122098456D01*
X158883189Y-122084698D01*
X158889993Y-122078073D01*
X158936728Y-122051375D01*
X158987728Y-122049375D01*
X159033999Y-122071955D01*
X159042556Y-122080107D01*
X159055107Y-122095436D01*
X159063812Y-122113618D01*
X159069369Y-122139909D01*
X159072474Y-122179562D01*
X159073824Y-122237832D01*
X159074114Y-122318173D01*
X159074114Y-122522646D01*
X159119823Y-122538580D01*
X159152287Y-122549420D01*
X159170099Y-122554468D01*
X159170623Y-122554514D01*
X159171963Y-122540623D01*
X159173172Y-122501439D01*
X159174199Y-122440700D01*
X159174998Y-122362141D01*
X159175519Y-122269498D01*
X159175714Y-122166509D01*
X159175714Y-121769342D01*
X159128543Y-121749444D01*
X159081371Y-121729547D01*
X159074114Y-121851289D01*
G36*
X160281697Y-121931239D02*
X160224473Y-121969735D01*
X160180251Y-122025335D01*
X160153833Y-122096086D01*
X160148490Y-122148162D01*
X160149097Y-122169893D01*
X160154178Y-122186531D01*
X160168145Y-122201437D01*
X160195411Y-122217973D01*
X160240388Y-122239498D01*
X160307489Y-122269374D01*
X160307829Y-122269524D01*
X160369593Y-122297813D01*
X160420241Y-122322933D01*
X160454596Y-122342179D01*
X160467482Y-122352848D01*
X160467486Y-122352934D01*
X160456128Y-122376166D01*
X160429569Y-122401774D01*
X160399077Y-122420221D01*
X160383630Y-122423886D01*
X160341485Y-122411212D01*
X160305192Y-122379471D01*
X160287483Y-122344572D01*
X160270448Y-122318845D01*
X160237078Y-122289546D01*
X160197851Y-122264235D01*
X160163244Y-122250471D01*
X160156007Y-122249714D01*
X160147861Y-122262160D01*
X160147370Y-122293972D01*
X160153357Y-122336866D01*
X160164643Y-122382558D01*
X160180050Y-122422761D01*
X160180829Y-122424322D01*
X160227196Y-122489062D01*
X160287289Y-122533097D01*
X160355535Y-122554711D01*
X160426362Y-122552185D01*
X160494196Y-122523804D01*
X160497212Y-122521808D01*
X160550573Y-122473448D01*
X160585660Y-122410352D01*
X160605078Y-122327387D01*
X160607684Y-122304078D01*
X160612299Y-122194055D01*
X160606767Y-122142748D01*
X160467486Y-122142748D01*
X160465676Y-122174753D01*
X160455778Y-122184093D01*
X160431102Y-122177105D01*
X160392205Y-122160587D01*
X160348725Y-122139881D01*
X160347644Y-122139333D01*
X160310791Y-122119949D01*
X160296000Y-122107013D01*
X160299647Y-122093451D01*
X160315005Y-122075632D01*
X160354077Y-122049845D01*
X160396154Y-122047950D01*
X160433897Y-122066717D01*
X160459966Y-122102915D01*
X160467486Y-122142748D01*
X160606767Y-122142748D01*
X160602806Y-122106027D01*
X160578450Y-122036212D01*
X160544544Y-121987302D01*
X160483347Y-121937878D01*
X160415937Y-121913359D01*
X160347120Y-121911797D01*
X160281697Y-121931239D01*
X160281697Y-121931239D01*
G37*
X160281697Y-121931239D02*
X160224473Y-121969735D01*
X160180251Y-122025335D01*
X160153833Y-122096086D01*
X160148490Y-122148162D01*
X160149097Y-122169893D01*
X160154178Y-122186531D01*
X160168145Y-122201437D01*
X160195411Y-122217973D01*
X160240388Y-122239498D01*
X160307489Y-122269374D01*
X160307829Y-122269524D01*
X160369593Y-122297813D01*
X160420241Y-122322933D01*
X160454596Y-122342179D01*
X160467482Y-122352848D01*
X160467486Y-122352934D01*
X160456128Y-122376166D01*
X160429569Y-122401774D01*
X160399077Y-122420221D01*
X160383630Y-122423886D01*
X160341485Y-122411212D01*
X160305192Y-122379471D01*
X160287483Y-122344572D01*
X160270448Y-122318845D01*
X160237078Y-122289546D01*
X160197851Y-122264235D01*
X160163244Y-122250471D01*
X160156007Y-122249714D01*
X160147861Y-122262160D01*
X160147370Y-122293972D01*
X160153357Y-122336866D01*
X160164643Y-122382558D01*
X160180050Y-122422761D01*
X160180829Y-122424322D01*
X160227196Y-122489062D01*
X160287289Y-122533097D01*
X160355535Y-122554711D01*
X160426362Y-122552185D01*
X160494196Y-122523804D01*
X160497212Y-122521808D01*
X160550573Y-122473448D01*
X160585660Y-122410352D01*
X160605078Y-122327387D01*
X160607684Y-122304078D01*
X160612299Y-122194055D01*
X160606767Y-122142748D01*
X160467486Y-122142748D01*
X160465676Y-122174753D01*
X160455778Y-122184093D01*
X160431102Y-122177105D01*
X160392205Y-122160587D01*
X160348725Y-122139881D01*
X160347644Y-122139333D01*
X160310791Y-122119949D01*
X160296000Y-122107013D01*
X160299647Y-122093451D01*
X160315005Y-122075632D01*
X160354077Y-122049845D01*
X160396154Y-122047950D01*
X160433897Y-122066717D01*
X160459966Y-122102915D01*
X160467486Y-122142748D01*
X160606767Y-122142748D01*
X160602806Y-122106027D01*
X160578450Y-122036212D01*
X160544544Y-121987302D01*
X160483347Y-121937878D01*
X160415937Y-121913359D01*
X160347120Y-121911797D01*
X160281697Y-121931239D01*
G36*
X161408885Y-121921962D02*
X161340855Y-121957733D01*
X161290649Y-122015301D01*
X161272815Y-122052312D01*
X161258937Y-122107882D01*
X161251833Y-122178096D01*
X161251160Y-122254727D01*
X161256573Y-122329552D01*
X161267730Y-122394342D01*
X161284286Y-122440873D01*
X161289374Y-122448887D01*
X161349645Y-122508707D01*
X161421231Y-122544535D01*
X161498908Y-122555020D01*
X161577452Y-122538810D01*
X161599311Y-122529092D01*
X161641878Y-122499143D01*
X161679237Y-122459433D01*
X161682768Y-122454397D01*
X161697119Y-122430124D01*
X161706606Y-122404178D01*
X161712210Y-122370022D01*
X161714914Y-122321119D01*
X161715701Y-122250935D01*
X161715714Y-122235200D01*
X161715678Y-122230192D01*
X161570571Y-122230192D01*
X161569727Y-122296430D01*
X161566404Y-122340386D01*
X161559417Y-122368779D01*
X161547584Y-122388325D01*
X161541543Y-122394857D01*
X161506814Y-122419680D01*
X161473097Y-122418548D01*
X161439005Y-122397016D01*
X161418671Y-122374029D01*
X161406629Y-122340478D01*
X161399866Y-122287569D01*
X161399402Y-122281399D01*
X161398248Y-122185513D01*
X161410312Y-122114299D01*
X161435430Y-122068194D01*
X161473440Y-122047635D01*
X161487008Y-122046514D01*
X161522636Y-122052152D01*
X161547006Y-122071686D01*
X161561907Y-122109042D01*
X161569125Y-122168150D01*
X161570571Y-122230192D01*
X161715678Y-122230192D01*
X161715174Y-122160413D01*
X161712904Y-122108159D01*
X161707932Y-122071949D01*
X161699287Y-122045299D01*
X161685995Y-122021722D01*
X161683057Y-122017338D01*
X161633687Y-121958249D01*
X161579891Y-121923947D01*
X161514398Y-121910331D01*
X161492158Y-121909665D01*
X161408885Y-121921962D01*
X161408885Y-121921962D01*
G37*
X161408885Y-121921962D02*
X161340855Y-121957733D01*
X161290649Y-122015301D01*
X161272815Y-122052312D01*
X161258937Y-122107882D01*
X161251833Y-122178096D01*
X161251160Y-122254727D01*
X161256573Y-122329552D01*
X161267730Y-122394342D01*
X161284286Y-122440873D01*
X161289374Y-122448887D01*
X161349645Y-122508707D01*
X161421231Y-122544535D01*
X161498908Y-122555020D01*
X161577452Y-122538810D01*
X161599311Y-122529092D01*
X161641878Y-122499143D01*
X161679237Y-122459433D01*
X161682768Y-122454397D01*
X161697119Y-122430124D01*
X161706606Y-122404178D01*
X161712210Y-122370022D01*
X161714914Y-122321119D01*
X161715701Y-122250935D01*
X161715714Y-122235200D01*
X161715678Y-122230192D01*
X161570571Y-122230192D01*
X161569727Y-122296430D01*
X161566404Y-122340386D01*
X161559417Y-122368779D01*
X161547584Y-122388325D01*
X161541543Y-122394857D01*
X161506814Y-122419680D01*
X161473097Y-122418548D01*
X161439005Y-122397016D01*
X161418671Y-122374029D01*
X161406629Y-122340478D01*
X161399866Y-122287569D01*
X161399402Y-122281399D01*
X161398248Y-122185513D01*
X161410312Y-122114299D01*
X161435430Y-122068194D01*
X161473440Y-122047635D01*
X161487008Y-122046514D01*
X161522636Y-122052152D01*
X161547006Y-122071686D01*
X161561907Y-122109042D01*
X161569125Y-122168150D01*
X161570571Y-122230192D01*
X161715678Y-122230192D01*
X161715174Y-122160413D01*
X161712904Y-122108159D01*
X161707932Y-122071949D01*
X161699287Y-122045299D01*
X161685995Y-122021722D01*
X161683057Y-122017338D01*
X161633687Y-121958249D01*
X161579891Y-121923947D01*
X161514398Y-121910331D01*
X161492158Y-121909665D01*
X161408885Y-121921962D01*
G36*
X159733907Y-121927780D02*
X159687328Y-121954723D01*
X159654943Y-121981466D01*
X159631258Y-122009484D01*
X159614941Y-122043748D01*
X159604661Y-122089227D01*
X159599086Y-122150892D01*
X159596884Y-122233711D01*
X159596629Y-122293246D01*
X159596629Y-122512391D01*
X159658314Y-122540044D01*
X159720000Y-122567697D01*
X159727257Y-122327670D01*
X159730256Y-122238028D01*
X159733402Y-122172962D01*
X159737299Y-122128026D01*
X159742553Y-122098770D01*
X159749769Y-122080748D01*
X159759550Y-122069511D01*
X159762688Y-122067079D01*
X159810239Y-122048083D01*
X159858303Y-122055600D01*
X159886914Y-122075543D01*
X159898553Y-122089675D01*
X159906609Y-122108220D01*
X159911729Y-122136334D01*
X159914559Y-122179173D01*
X159915744Y-122241895D01*
X159915943Y-122307261D01*
X159915982Y-122389268D01*
X159917386Y-122447316D01*
X159922086Y-122486465D01*
X159932013Y-122511780D01*
X159949097Y-122528323D01*
X159975268Y-122541156D01*
X160010225Y-122554491D01*
X160048404Y-122569007D01*
X160043859Y-122311389D01*
X160042029Y-122218519D01*
X160039888Y-122149889D01*
X160036819Y-122100711D01*
X160032206Y-122066198D01*
X160025432Y-122041562D01*
X160015881Y-122022016D01*
X160004366Y-122004770D01*
X159948810Y-121949680D01*
X159881020Y-121917822D01*
X159807287Y-121910191D01*
X159733907Y-121927780D01*
X159733907Y-121927780D01*
G37*
X159733907Y-121927780D02*
X159687328Y-121954723D01*
X159654943Y-121981466D01*
X159631258Y-122009484D01*
X159614941Y-122043748D01*
X159604661Y-122089227D01*
X159599086Y-122150892D01*
X159596884Y-122233711D01*
X159596629Y-122293246D01*
X159596629Y-122512391D01*
X159658314Y-122540044D01*
X159720000Y-122567697D01*
X159727257Y-122327670D01*
X159730256Y-122238028D01*
X159733402Y-122172962D01*
X159737299Y-122128026D01*
X159742553Y-122098770D01*
X159749769Y-122080748D01*
X159759550Y-122069511D01*
X159762688Y-122067079D01*
X159810239Y-122048083D01*
X159858303Y-122055600D01*
X159886914Y-122075543D01*
X159898553Y-122089675D01*
X159906609Y-122108220D01*
X159911729Y-122136334D01*
X159914559Y-122179173D01*
X159915744Y-122241895D01*
X159915943Y-122307261D01*
X159915982Y-122389268D01*
X159917386Y-122447316D01*
X159922086Y-122486465D01*
X159932013Y-122511780D01*
X159949097Y-122528323D01*
X159975268Y-122541156D01*
X160010225Y-122554491D01*
X160048404Y-122569007D01*
X160043859Y-122311389D01*
X160042029Y-122218519D01*
X160039888Y-122149889D01*
X160036819Y-122100711D01*
X160032206Y-122066198D01*
X160025432Y-122041562D01*
X160015881Y-122022016D01*
X160004366Y-122004770D01*
X159948810Y-121949680D01*
X159881020Y-121917822D01*
X159807287Y-121910191D01*
X159733907Y-121927780D01*
G36*
X160850256Y-121919918D02*
X160794799Y-121947568D01*
X160745852Y-121998480D01*
X160732371Y-122017338D01*
X160717686Y-122042015D01*
X160708158Y-122068816D01*
X160702707Y-122104587D01*
X160700253Y-122156169D01*
X160699714Y-122224267D01*
X160702148Y-122317588D01*
X160710606Y-122387657D01*
X160726826Y-122439931D01*
X160752546Y-122479869D01*
X160789503Y-122512929D01*
X160792218Y-122514886D01*
X160828640Y-122534908D01*
X160872498Y-122544815D01*
X160928276Y-122547257D01*
X161018952Y-122547257D01*
X161018990Y-122635283D01*
X161019834Y-122684308D01*
X161024976Y-122713065D01*
X161038413Y-122730311D01*
X161064142Y-122744808D01*
X161070321Y-122747769D01*
X161099236Y-122761648D01*
X161121624Y-122770414D01*
X161138271Y-122771171D01*
X161149964Y-122761023D01*
X161157490Y-122737073D01*
X161161634Y-122696426D01*
X161163185Y-122636186D01*
X161162929Y-122553455D01*
X161161651Y-122445339D01*
X161161252Y-122413000D01*
X161159815Y-122301524D01*
X161158528Y-122228603D01*
X161019029Y-122228603D01*
X161018245Y-122290499D01*
X161014760Y-122330997D01*
X161006876Y-122357708D01*
X160992895Y-122378244D01*
X160983403Y-122388260D01*
X160944596Y-122417567D01*
X160910237Y-122419952D01*
X160874784Y-122395750D01*
X160873886Y-122394857D01*
X160859461Y-122376153D01*
X160850687Y-122350732D01*
X160846261Y-122311584D01*
X160844882Y-122251697D01*
X160844857Y-122238430D01*
X160848188Y-122155901D01*
X160859031Y-122098691D01*
X160878660Y-122063766D01*
X160908350Y-122048094D01*
X160925509Y-122046514D01*
X160966234Y-122053926D01*
X160994168Y-122078330D01*
X161010983Y-122122980D01*
X161018350Y-122191130D01*
X161019029Y-122228603D01*
X161158528Y-122228603D01*
X161158292Y-122215245D01*
X161156323Y-122150333D01*
X161153550Y-122102958D01*
X161149612Y-122069290D01*
X161144151Y-122045498D01*
X161136808Y-122027753D01*
X161127223Y-122012224D01*
X161123113Y-122006381D01*
X161068595Y-121951185D01*
X160999664Y-121919890D01*
X160919928Y-121911165D01*
X160850256Y-121919918D01*
X160850256Y-121919918D01*
G37*
X160850256Y-121919918D02*
X160794799Y-121947568D01*
X160745852Y-121998480D01*
X160732371Y-122017338D01*
X160717686Y-122042015D01*
X160708158Y-122068816D01*
X160702707Y-122104587D01*
X160700253Y-122156169D01*
X160699714Y-122224267D01*
X160702148Y-122317588D01*
X160710606Y-122387657D01*
X160726826Y-122439931D01*
X160752546Y-122479869D01*
X160789503Y-122512929D01*
X160792218Y-122514886D01*
X160828640Y-122534908D01*
X160872498Y-122544815D01*
X160928276Y-122547257D01*
X161018952Y-122547257D01*
X161018990Y-122635283D01*
X161019834Y-122684308D01*
X161024976Y-122713065D01*
X161038413Y-122730311D01*
X161064142Y-122744808D01*
X161070321Y-122747769D01*
X161099236Y-122761648D01*
X161121624Y-122770414D01*
X161138271Y-122771171D01*
X161149964Y-122761023D01*
X161157490Y-122737073D01*
X161161634Y-122696426D01*
X161163185Y-122636186D01*
X161162929Y-122553455D01*
X161161651Y-122445339D01*
X161161252Y-122413000D01*
X161159815Y-122301524D01*
X161158528Y-122228603D01*
X161019029Y-122228603D01*
X161018245Y-122290499D01*
X161014760Y-122330997D01*
X161006876Y-122357708D01*
X160992895Y-122378244D01*
X160983403Y-122388260D01*
X160944596Y-122417567D01*
X160910237Y-122419952D01*
X160874784Y-122395750D01*
X160873886Y-122394857D01*
X160859461Y-122376153D01*
X160850687Y-122350732D01*
X160846261Y-122311584D01*
X160844882Y-122251697D01*
X160844857Y-122238430D01*
X160848188Y-122155901D01*
X160859031Y-122098691D01*
X160878660Y-122063766D01*
X160908350Y-122048094D01*
X160925509Y-122046514D01*
X160966234Y-122053926D01*
X160994168Y-122078330D01*
X161010983Y-122122980D01*
X161018350Y-122191130D01*
X161019029Y-122228603D01*
X161158528Y-122228603D01*
X161158292Y-122215245D01*
X161156323Y-122150333D01*
X161153550Y-122102958D01*
X161149612Y-122069290D01*
X161144151Y-122045498D01*
X161136808Y-122027753D01*
X161127223Y-122012224D01*
X161123113Y-122006381D01*
X161068595Y-121951185D01*
X160999664Y-121919890D01*
X160919928Y-121911165D01*
X160850256Y-121919918D01*
D10*
X139702380Y-87166666D02*
X140416666Y-87166666D01*
X140559523Y-87119047D01*
X140654761Y-87023809D01*
X140702380Y-86880952D01*
X140702380Y-86785714D01*
X140702380Y-88166666D02*
X140702380Y-87595238D01*
X140702380Y-87880952D02*
X139702380Y-87880952D01*
X139845238Y-87785714D01*
X139940476Y-87690476D01*
X139988095Y-87595238D01*
X160452380Y-105261904D02*
X159452380Y-105261904D01*
X159452380Y-105642857D01*
X159500000Y-105738095D01*
X159547619Y-105785714D01*
X159642857Y-105833333D01*
X159785714Y-105833333D01*
X159880952Y-105785714D01*
X159928571Y-105738095D01*
X159976190Y-105642857D01*
X159976190Y-105261904D01*
X160452380Y-106785714D02*
X160452380Y-106214285D01*
X160452380Y-106500000D02*
X159452380Y-106500000D01*
X159595238Y-106404761D01*
X159690476Y-106309523D01*
X159738095Y-106214285D01*
X154946428Y-83037285D02*
X154517857Y-83037285D01*
X154732142Y-83787285D02*
X154732142Y-83037285D01*
X154267857Y-83787285D02*
X154267857Y-83037285D01*
X153982142Y-83037285D01*
X153910714Y-83073000D01*
X153875000Y-83108714D01*
X153839285Y-83180142D01*
X153839285Y-83287285D01*
X153875000Y-83358714D01*
X153910714Y-83394428D01*
X153982142Y-83430142D01*
X154267857Y-83430142D01*
X153589285Y-83037285D02*
X153089285Y-83037285D01*
X153410714Y-83787285D01*
X131803571Y-101391285D02*
X131375000Y-101391285D01*
X131589285Y-102141285D02*
X131589285Y-101391285D01*
X131125000Y-102141285D02*
X131125000Y-101391285D01*
X130839285Y-101391285D01*
X130767857Y-101427000D01*
X130732142Y-101462714D01*
X130696428Y-101534142D01*
X130696428Y-101641285D01*
X130732142Y-101712714D01*
X130767857Y-101748428D01*
X130839285Y-101784142D01*
X131125000Y-101784142D01*
X129982142Y-102141285D02*
X130410714Y-102141285D01*
X130196428Y-102141285D02*
X130196428Y-101391285D01*
X130267857Y-101498428D01*
X130339285Y-101569857D01*
X130410714Y-101605571D01*
X129696428Y-101462714D02*
X129660714Y-101427000D01*
X129589285Y-101391285D01*
X129410714Y-101391285D01*
X129339285Y-101427000D01*
X129303571Y-101462714D01*
X129267857Y-101534142D01*
X129267857Y-101605571D01*
X129303571Y-101712714D01*
X129732142Y-102141285D01*
X129267857Y-102141285D01*
X131803571Y-107787285D02*
X131375000Y-107787285D01*
X131589285Y-108537285D02*
X131589285Y-107787285D01*
X131125000Y-108537285D02*
X131125000Y-107787285D01*
X130839285Y-107787285D01*
X130767857Y-107823000D01*
X130732142Y-107858714D01*
X130696428Y-107930142D01*
X130696428Y-108037285D01*
X130732142Y-108108714D01*
X130767857Y-108144428D01*
X130839285Y-108180142D01*
X131125000Y-108180142D01*
X129982142Y-108537285D02*
X130410714Y-108537285D01*
X130196428Y-108537285D02*
X130196428Y-107787285D01*
X130267857Y-107894428D01*
X130339285Y-107965857D01*
X130410714Y-108001571D01*
X129732142Y-107787285D02*
X129267857Y-107787285D01*
X129517857Y-108073000D01*
X129410714Y-108073000D01*
X129339285Y-108108714D01*
X129303571Y-108144428D01*
X129267857Y-108215857D01*
X129267857Y-108394428D01*
X129303571Y-108465857D01*
X129339285Y-108501571D01*
X129410714Y-108537285D01*
X129625000Y-108537285D01*
X129696428Y-108501571D01*
X129732142Y-108465857D01*
X146303571Y-102891285D02*
X145875000Y-102891285D01*
X146089285Y-103641285D02*
X146089285Y-102891285D01*
X145625000Y-103641285D02*
X145625000Y-102891285D01*
X145339285Y-102891285D01*
X145267857Y-102927000D01*
X145232142Y-102962714D01*
X145196428Y-103034142D01*
X145196428Y-103141285D01*
X145232142Y-103212714D01*
X145267857Y-103248428D01*
X145339285Y-103284142D01*
X145625000Y-103284142D01*
X144482142Y-103641285D02*
X144910714Y-103641285D01*
X144696428Y-103641285D02*
X144696428Y-102891285D01*
X144767857Y-102998428D01*
X144839285Y-103069857D01*
X144910714Y-103105571D01*
X144017857Y-102891285D02*
X143946428Y-102891285D01*
X143875000Y-102927000D01*
X143839285Y-102962714D01*
X143803571Y-103034142D01*
X143767857Y-103177000D01*
X143767857Y-103355571D01*
X143803571Y-103498428D01*
X143839285Y-103569857D01*
X143875000Y-103605571D01*
X143946428Y-103641285D01*
X144017857Y-103641285D01*
X144089285Y-103605571D01*
X144125000Y-103569857D01*
X144160714Y-103498428D01*
X144196428Y-103355571D01*
X144196428Y-103177000D01*
X144160714Y-103034142D01*
X144125000Y-102962714D01*
X144089285Y-102927000D01*
X144017857Y-102891285D01*
X150553571Y-95339285D02*
X150125000Y-95339285D01*
X150339285Y-96089285D02*
X150339285Y-95339285D01*
X149875000Y-96089285D02*
X149875000Y-95339285D01*
X149589285Y-95339285D01*
X149517857Y-95375000D01*
X149482142Y-95410714D01*
X149446428Y-95482142D01*
X149446428Y-95589285D01*
X149482142Y-95660714D01*
X149517857Y-95696428D01*
X149589285Y-95732142D01*
X149875000Y-95732142D01*
X148732142Y-96089285D02*
X149160714Y-96089285D01*
X148946428Y-96089285D02*
X148946428Y-95339285D01*
X149017857Y-95446428D01*
X149089285Y-95517857D01*
X149160714Y-95553571D01*
X148017857Y-96089285D02*
X148446428Y-96089285D01*
X148232142Y-96089285D02*
X148232142Y-95339285D01*
X148303571Y-95446428D01*
X148375000Y-95517857D01*
X148446428Y-95553571D01*
X137196428Y-104839285D02*
X136767857Y-104839285D01*
X136982142Y-105589285D02*
X136982142Y-104839285D01*
X136517857Y-105589285D02*
X136517857Y-104839285D01*
X136232142Y-104839285D01*
X136160714Y-104875000D01*
X136125000Y-104910714D01*
X136089285Y-104982142D01*
X136089285Y-105089285D01*
X136125000Y-105160714D01*
X136160714Y-105196428D01*
X136232142Y-105232142D01*
X136517857Y-105232142D01*
X135446428Y-104839285D02*
X135589285Y-104839285D01*
X135660714Y-104875000D01*
X135696428Y-104910714D01*
X135767857Y-105017857D01*
X135803571Y-105160714D01*
X135803571Y-105446428D01*
X135767857Y-105517857D01*
X135732142Y-105553571D01*
X135660714Y-105589285D01*
X135517857Y-105589285D01*
X135446428Y-105553571D01*
X135410714Y-105517857D01*
X135375000Y-105446428D01*
X135375000Y-105267857D01*
X135410714Y-105196428D01*
X135446428Y-105160714D01*
X135517857Y-105125000D01*
X135660714Y-105125000D01*
X135732142Y-105160714D01*
X135767857Y-105196428D01*
X135803571Y-105267857D01*
X129053571Y-95839285D02*
X128625000Y-95839285D01*
X128839285Y-96589285D02*
X128839285Y-95839285D01*
X128375000Y-96589285D02*
X128375000Y-95839285D01*
X128089285Y-95839285D01*
X128017857Y-95875000D01*
X127982142Y-95910714D01*
X127946428Y-95982142D01*
X127946428Y-96089285D01*
X127982142Y-96160714D01*
X128017857Y-96196428D01*
X128089285Y-96232142D01*
X128375000Y-96232142D01*
X127232142Y-96589285D02*
X127660714Y-96589285D01*
X127446428Y-96589285D02*
X127446428Y-95839285D01*
X127517857Y-95946428D01*
X127589285Y-96017857D01*
X127660714Y-96053571D01*
X126589285Y-96089285D02*
X126589285Y-96589285D01*
X126767857Y-95803571D02*
X126946428Y-96339285D01*
X126482142Y-96339285D01*
X129053571Y-94339285D02*
X128625000Y-94339285D01*
X128839285Y-95089285D02*
X128839285Y-94339285D01*
X128375000Y-95089285D02*
X128375000Y-94339285D01*
X128089285Y-94339285D01*
X128017857Y-94375000D01*
X127982142Y-94410714D01*
X127946428Y-94482142D01*
X127946428Y-94589285D01*
X127982142Y-94660714D01*
X128017857Y-94696428D01*
X128089285Y-94732142D01*
X128375000Y-94732142D01*
X127232142Y-95089285D02*
X127660714Y-95089285D01*
X127446428Y-95089285D02*
X127446428Y-94339285D01*
X127517857Y-94446428D01*
X127589285Y-94517857D01*
X127660714Y-94553571D01*
X126553571Y-94339285D02*
X126910714Y-94339285D01*
X126946428Y-94696428D01*
X126910714Y-94660714D01*
X126839285Y-94625000D01*
X126660714Y-94625000D01*
X126589285Y-94660714D01*
X126553571Y-94696428D01*
X126517857Y-94767857D01*
X126517857Y-94946428D01*
X126553571Y-95017857D01*
X126589285Y-95053571D01*
X126660714Y-95089285D01*
X126839285Y-95089285D01*
X126910714Y-95053571D01*
X126946428Y-95017857D01*
M02*
