%TF.GenerationSoftware,KiCad,Pcbnew,5.0.1-33cea8e~67~ubuntu18.04.1*%
%TF.CreationDate,2019-01-08T21:33:24+01:00*%
%TF.ProjectId,hvac-sensor-module,687661632D73656E736F722D6D6F6475,1.0*%
%TF.SameCoordinates,Original*%
%TF.FileFunction,Profile,NP*%
%FSLAX46Y46*%
G04 Gerber Fmt 4.6, Leading zero omitted, Abs format (unit mm)*
G04 Created by KiCad (PCBNEW 5.0.1-33cea8e~67~ubuntu18.04.1) date Di 08 Jan 2019 21:33:24 CET*
%MOMM*%
%LPD*%
G01*
G04 APERTURE LIST*
%ADD10C,0.150000*%
G04 APERTURE END LIST*
D10*
X165000000Y-104500000D02*
X165000000Y-124000000D01*
X164000000Y-103500000D02*
G75*
G02X164000000Y-101500000I0J1000000D01*
G01*
X164000000Y-103500000D02*
G75*
G02X165000000Y-104500000I0J-1000000D01*
G01*
X165000000Y-100500000D02*
G75*
G02X164000000Y-101500000I-1000000J0D01*
G01*
X125000000Y-104500000D02*
G75*
G02X126000000Y-103500000I1000000J0D01*
G01*
X125000000Y-124000000D02*
X125000000Y-104500000D01*
X126000000Y-101500000D02*
G75*
G02X125000000Y-100500000I0J1000000D01*
G01*
X126000000Y-101500000D02*
G75*
G02X126000000Y-103500000I0J-1000000D01*
G01*
X125000000Y-81000000D02*
G75*
G02X126000000Y-80000000I1000000J0D01*
G01*
X164000000Y-80000000D02*
G75*
G02X165000000Y-81000000I0J-1000000D01*
G01*
X148000000Y-116000000D02*
X149000000Y-116000000D01*
X152000000Y-119000000D02*
X152000000Y-124000000D01*
X153000000Y-125000000D02*
X164000000Y-125000000D01*
X137000000Y-125000000D02*
X126000000Y-125000000D01*
X138000000Y-119000000D02*
X138000000Y-124000000D01*
X153000000Y-125000000D02*
G75*
G02X152000000Y-124000000I0J1000000D01*
G01*
X138000000Y-124000000D02*
G75*
G02X137000000Y-125000000I-1000000J0D01*
G01*
X126000000Y-125000000D02*
G75*
G02X125000000Y-124000000I0J1000000D01*
G01*
X165000000Y-124000000D02*
G75*
G02X164000000Y-125000000I-1000000J0D01*
G01*
X149000000Y-116000000D02*
G75*
G02X152000000Y-119000000I0J-3000000D01*
G01*
X138000000Y-119000000D02*
G75*
G02X141000000Y-116000000I3000000J0D01*
G01*
X141000000Y-125000000D02*
G75*
G02X140000000Y-124000000I0J1000000D01*
G01*
X150000000Y-124000000D02*
G75*
G02X149000000Y-125000000I-1000000J0D01*
G01*
X149000000Y-118000000D02*
G75*
G02X150000000Y-119000000I0J-1000000D01*
G01*
X140000000Y-119000000D02*
G75*
G02X141000000Y-118000000I1000000J0D01*
G01*
X142000000Y-116000000D02*
G75*
G02X142000000Y-118000000I0J-1000000D01*
G01*
X148000000Y-118000000D02*
G75*
G02X148000000Y-116000000I0J1000000D01*
G01*
X149000000Y-118000000D02*
X148000000Y-118000000D01*
X150000000Y-124000000D02*
X150000000Y-119000000D01*
X141000000Y-125000000D02*
X149000000Y-125000000D01*
X140000000Y-119000000D02*
X140000000Y-124000000D01*
X142000000Y-118000000D02*
X141000000Y-118000000D01*
X125000000Y-100500000D02*
X125000000Y-81000000D01*
X142000000Y-116000000D02*
X141000000Y-116000000D01*
X165000000Y-81000000D02*
X165000000Y-100500000D01*
X126000000Y-80000000D02*
X164000000Y-80000000D01*
M02*
