%TF.GenerationSoftware,KiCad,Pcbnew,5.0.1-33cea8e~67~ubuntu18.04.1*%
%TF.CreationDate,2019-01-08T21:33:24+01:00*%
%TF.ProjectId,hvac-sensor-module,687661632D73656E736F722D6D6F6475,1.0*%
%TF.SameCoordinates,Original*%
%TF.FileFunction,Paste,Top*%
%TF.FilePolarity,Positive*%
%FSLAX46Y46*%
G04 Gerber Fmt 4.6, Leading zero omitted, Abs format (unit mm)*
G04 Created by KiCad (PCBNEW 5.0.1-33cea8e~67~ubuntu18.04.1) date Di 08 Jan 2019 21:33:24 CET*
%MOMM*%
%LPD*%
G01*
G04 APERTURE LIST*
%ADD10R,5.800000X2.800000*%
%ADD11R,1.200000X0.800000*%
%ADD12C,0.100000*%
%ADD13C,0.950000*%
%ADD14R,1.600000X2.500000*%
%ADD15R,1.500000X0.500000*%
%ADD16R,1.500000X0.600000*%
%ADD17R,0.450000X1.300000*%
%ADD18R,0.800000X1.500000*%
%ADD19C,0.875000*%
%ADD20R,1.500000X1.200000*%
%ADD21R,1.300000X0.250000*%
%ADD22R,0.250000X1.300000*%
%ADD23C,1.425000*%
%ADD24C,1.150000*%
%ADD25R,2.300000X3.500000*%
%ADD26R,1.800000X1.000000*%
G04 APERTURE END LIST*
D10*
X160000000Y-96300000D03*
X160000000Y-91700000D03*
D11*
X132300000Y-109200000D03*
X127700000Y-110800000D03*
X132300000Y-110800000D03*
X127700000Y-109200000D03*
D12*
G36*
X146185779Y-87026144D02*
X146208834Y-87029563D01*
X146231443Y-87035227D01*
X146253387Y-87043079D01*
X146274457Y-87053044D01*
X146294448Y-87065026D01*
X146313168Y-87078910D01*
X146330438Y-87094562D01*
X146346090Y-87111832D01*
X146359974Y-87130552D01*
X146371956Y-87150543D01*
X146381921Y-87171613D01*
X146389773Y-87193557D01*
X146395437Y-87216166D01*
X146398856Y-87239221D01*
X146400000Y-87262500D01*
X146400000Y-87737500D01*
X146398856Y-87760779D01*
X146395437Y-87783834D01*
X146389773Y-87806443D01*
X146381921Y-87828387D01*
X146371956Y-87849457D01*
X146359974Y-87869448D01*
X146346090Y-87888168D01*
X146330438Y-87905438D01*
X146313168Y-87921090D01*
X146294448Y-87934974D01*
X146274457Y-87946956D01*
X146253387Y-87956921D01*
X146231443Y-87964773D01*
X146208834Y-87970437D01*
X146185779Y-87973856D01*
X146162500Y-87975000D01*
X145587500Y-87975000D01*
X145564221Y-87973856D01*
X145541166Y-87970437D01*
X145518557Y-87964773D01*
X145496613Y-87956921D01*
X145475543Y-87946956D01*
X145455552Y-87934974D01*
X145436832Y-87921090D01*
X145419562Y-87905438D01*
X145403910Y-87888168D01*
X145390026Y-87869448D01*
X145378044Y-87849457D01*
X145368079Y-87828387D01*
X145360227Y-87806443D01*
X145354563Y-87783834D01*
X145351144Y-87760779D01*
X145350000Y-87737500D01*
X145350000Y-87262500D01*
X145351144Y-87239221D01*
X145354563Y-87216166D01*
X145360227Y-87193557D01*
X145368079Y-87171613D01*
X145378044Y-87150543D01*
X145390026Y-87130552D01*
X145403910Y-87111832D01*
X145419562Y-87094562D01*
X145436832Y-87078910D01*
X145455552Y-87065026D01*
X145475543Y-87053044D01*
X145496613Y-87043079D01*
X145518557Y-87035227D01*
X145541166Y-87029563D01*
X145564221Y-87026144D01*
X145587500Y-87025000D01*
X146162500Y-87025000D01*
X146185779Y-87026144D01*
X146185779Y-87026144D01*
G37*
D13*
X145875000Y-87500000D03*
D12*
G36*
X144435779Y-87026144D02*
X144458834Y-87029563D01*
X144481443Y-87035227D01*
X144503387Y-87043079D01*
X144524457Y-87053044D01*
X144544448Y-87065026D01*
X144563168Y-87078910D01*
X144580438Y-87094562D01*
X144596090Y-87111832D01*
X144609974Y-87130552D01*
X144621956Y-87150543D01*
X144631921Y-87171613D01*
X144639773Y-87193557D01*
X144645437Y-87216166D01*
X144648856Y-87239221D01*
X144650000Y-87262500D01*
X144650000Y-87737500D01*
X144648856Y-87760779D01*
X144645437Y-87783834D01*
X144639773Y-87806443D01*
X144631921Y-87828387D01*
X144621956Y-87849457D01*
X144609974Y-87869448D01*
X144596090Y-87888168D01*
X144580438Y-87905438D01*
X144563168Y-87921090D01*
X144544448Y-87934974D01*
X144524457Y-87946956D01*
X144503387Y-87956921D01*
X144481443Y-87964773D01*
X144458834Y-87970437D01*
X144435779Y-87973856D01*
X144412500Y-87975000D01*
X143837500Y-87975000D01*
X143814221Y-87973856D01*
X143791166Y-87970437D01*
X143768557Y-87964773D01*
X143746613Y-87956921D01*
X143725543Y-87946956D01*
X143705552Y-87934974D01*
X143686832Y-87921090D01*
X143669562Y-87905438D01*
X143653910Y-87888168D01*
X143640026Y-87869448D01*
X143628044Y-87849457D01*
X143618079Y-87828387D01*
X143610227Y-87806443D01*
X143604563Y-87783834D01*
X143601144Y-87760779D01*
X143600000Y-87737500D01*
X143600000Y-87262500D01*
X143601144Y-87239221D01*
X143604563Y-87216166D01*
X143610227Y-87193557D01*
X143618079Y-87171613D01*
X143628044Y-87150543D01*
X143640026Y-87130552D01*
X143653910Y-87111832D01*
X143669562Y-87094562D01*
X143686832Y-87078910D01*
X143705552Y-87065026D01*
X143725543Y-87053044D01*
X143746613Y-87043079D01*
X143768557Y-87035227D01*
X143791166Y-87029563D01*
X143814221Y-87026144D01*
X143837500Y-87025000D01*
X144412500Y-87025000D01*
X144435779Y-87026144D01*
X144435779Y-87026144D01*
G37*
D13*
X144125000Y-87500000D03*
D14*
X145000000Y-121000000D03*
D15*
X146750000Y-122000000D03*
X146750000Y-121000000D03*
X146750000Y-120000000D03*
X143250000Y-122000000D03*
X143250000Y-121000000D03*
X143250000Y-120000000D03*
D11*
X127700000Y-121800000D03*
X132300000Y-120200000D03*
X127700000Y-120200000D03*
X132300000Y-121800000D03*
X157700000Y-121800000D03*
X162300000Y-120200000D03*
X157700000Y-120200000D03*
X162300000Y-121800000D03*
D16*
X161550000Y-86450000D03*
X161550000Y-85500000D03*
X161550000Y-84550000D03*
X158450000Y-86450000D03*
X158450000Y-85500000D03*
X158450000Y-84550000D03*
D17*
X129525000Y-102250000D03*
X129525000Y-105250000D03*
X130175000Y-102250000D03*
X130175000Y-105250000D03*
X130825000Y-102250000D03*
X130825000Y-105250000D03*
X131475000Y-102250000D03*
X131475000Y-105250000D03*
D18*
X130500000Y-97700000D03*
X131450000Y-100300000D03*
X129550000Y-100300000D03*
D12*
G36*
X159452691Y-114526053D02*
X159473926Y-114529203D01*
X159494750Y-114534419D01*
X159514962Y-114541651D01*
X159534368Y-114550830D01*
X159552781Y-114561866D01*
X159570024Y-114574654D01*
X159585930Y-114589070D01*
X159600346Y-114604976D01*
X159613134Y-114622219D01*
X159624170Y-114640632D01*
X159633349Y-114660038D01*
X159640581Y-114680250D01*
X159645797Y-114701074D01*
X159648947Y-114722309D01*
X159650000Y-114743750D01*
X159650000Y-115256250D01*
X159648947Y-115277691D01*
X159645797Y-115298926D01*
X159640581Y-115319750D01*
X159633349Y-115339962D01*
X159624170Y-115359368D01*
X159613134Y-115377781D01*
X159600346Y-115395024D01*
X159585930Y-115410930D01*
X159570024Y-115425346D01*
X159552781Y-115438134D01*
X159534368Y-115449170D01*
X159514962Y-115458349D01*
X159494750Y-115465581D01*
X159473926Y-115470797D01*
X159452691Y-115473947D01*
X159431250Y-115475000D01*
X158993750Y-115475000D01*
X158972309Y-115473947D01*
X158951074Y-115470797D01*
X158930250Y-115465581D01*
X158910038Y-115458349D01*
X158890632Y-115449170D01*
X158872219Y-115438134D01*
X158854976Y-115425346D01*
X158839070Y-115410930D01*
X158824654Y-115395024D01*
X158811866Y-115377781D01*
X158800830Y-115359368D01*
X158791651Y-115339962D01*
X158784419Y-115319750D01*
X158779203Y-115298926D01*
X158776053Y-115277691D01*
X158775000Y-115256250D01*
X158775000Y-114743750D01*
X158776053Y-114722309D01*
X158779203Y-114701074D01*
X158784419Y-114680250D01*
X158791651Y-114660038D01*
X158800830Y-114640632D01*
X158811866Y-114622219D01*
X158824654Y-114604976D01*
X158839070Y-114589070D01*
X158854976Y-114574654D01*
X158872219Y-114561866D01*
X158890632Y-114550830D01*
X158910038Y-114541651D01*
X158930250Y-114534419D01*
X158951074Y-114529203D01*
X158972309Y-114526053D01*
X158993750Y-114525000D01*
X159431250Y-114525000D01*
X159452691Y-114526053D01*
X159452691Y-114526053D01*
G37*
D19*
X159212500Y-115000000D03*
D12*
G36*
X161027691Y-114526053D02*
X161048926Y-114529203D01*
X161069750Y-114534419D01*
X161089962Y-114541651D01*
X161109368Y-114550830D01*
X161127781Y-114561866D01*
X161145024Y-114574654D01*
X161160930Y-114589070D01*
X161175346Y-114604976D01*
X161188134Y-114622219D01*
X161199170Y-114640632D01*
X161208349Y-114660038D01*
X161215581Y-114680250D01*
X161220797Y-114701074D01*
X161223947Y-114722309D01*
X161225000Y-114743750D01*
X161225000Y-115256250D01*
X161223947Y-115277691D01*
X161220797Y-115298926D01*
X161215581Y-115319750D01*
X161208349Y-115339962D01*
X161199170Y-115359368D01*
X161188134Y-115377781D01*
X161175346Y-115395024D01*
X161160930Y-115410930D01*
X161145024Y-115425346D01*
X161127781Y-115438134D01*
X161109368Y-115449170D01*
X161089962Y-115458349D01*
X161069750Y-115465581D01*
X161048926Y-115470797D01*
X161027691Y-115473947D01*
X161006250Y-115475000D01*
X160568750Y-115475000D01*
X160547309Y-115473947D01*
X160526074Y-115470797D01*
X160505250Y-115465581D01*
X160485038Y-115458349D01*
X160465632Y-115449170D01*
X160447219Y-115438134D01*
X160429976Y-115425346D01*
X160414070Y-115410930D01*
X160399654Y-115395024D01*
X160386866Y-115377781D01*
X160375830Y-115359368D01*
X160366651Y-115339962D01*
X160359419Y-115319750D01*
X160354203Y-115298926D01*
X160351053Y-115277691D01*
X160350000Y-115256250D01*
X160350000Y-114743750D01*
X160351053Y-114722309D01*
X160354203Y-114701074D01*
X160359419Y-114680250D01*
X160366651Y-114660038D01*
X160375830Y-114640632D01*
X160386866Y-114622219D01*
X160399654Y-114604976D01*
X160414070Y-114589070D01*
X160429976Y-114574654D01*
X160447219Y-114561866D01*
X160465632Y-114550830D01*
X160485038Y-114541651D01*
X160505250Y-114534419D01*
X160526074Y-114529203D01*
X160547309Y-114526053D01*
X160568750Y-114525000D01*
X161006250Y-114525000D01*
X161027691Y-114526053D01*
X161027691Y-114526053D01*
G37*
D19*
X160787500Y-115000000D03*
D12*
G36*
X129452691Y-114526053D02*
X129473926Y-114529203D01*
X129494750Y-114534419D01*
X129514962Y-114541651D01*
X129534368Y-114550830D01*
X129552781Y-114561866D01*
X129570024Y-114574654D01*
X129585930Y-114589070D01*
X129600346Y-114604976D01*
X129613134Y-114622219D01*
X129624170Y-114640632D01*
X129633349Y-114660038D01*
X129640581Y-114680250D01*
X129645797Y-114701074D01*
X129648947Y-114722309D01*
X129650000Y-114743750D01*
X129650000Y-115256250D01*
X129648947Y-115277691D01*
X129645797Y-115298926D01*
X129640581Y-115319750D01*
X129633349Y-115339962D01*
X129624170Y-115359368D01*
X129613134Y-115377781D01*
X129600346Y-115395024D01*
X129585930Y-115410930D01*
X129570024Y-115425346D01*
X129552781Y-115438134D01*
X129534368Y-115449170D01*
X129514962Y-115458349D01*
X129494750Y-115465581D01*
X129473926Y-115470797D01*
X129452691Y-115473947D01*
X129431250Y-115475000D01*
X128993750Y-115475000D01*
X128972309Y-115473947D01*
X128951074Y-115470797D01*
X128930250Y-115465581D01*
X128910038Y-115458349D01*
X128890632Y-115449170D01*
X128872219Y-115438134D01*
X128854976Y-115425346D01*
X128839070Y-115410930D01*
X128824654Y-115395024D01*
X128811866Y-115377781D01*
X128800830Y-115359368D01*
X128791651Y-115339962D01*
X128784419Y-115319750D01*
X128779203Y-115298926D01*
X128776053Y-115277691D01*
X128775000Y-115256250D01*
X128775000Y-114743750D01*
X128776053Y-114722309D01*
X128779203Y-114701074D01*
X128784419Y-114680250D01*
X128791651Y-114660038D01*
X128800830Y-114640632D01*
X128811866Y-114622219D01*
X128824654Y-114604976D01*
X128839070Y-114589070D01*
X128854976Y-114574654D01*
X128872219Y-114561866D01*
X128890632Y-114550830D01*
X128910038Y-114541651D01*
X128930250Y-114534419D01*
X128951074Y-114529203D01*
X128972309Y-114526053D01*
X128993750Y-114525000D01*
X129431250Y-114525000D01*
X129452691Y-114526053D01*
X129452691Y-114526053D01*
G37*
D19*
X129212500Y-115000000D03*
D12*
G36*
X131027691Y-114526053D02*
X131048926Y-114529203D01*
X131069750Y-114534419D01*
X131089962Y-114541651D01*
X131109368Y-114550830D01*
X131127781Y-114561866D01*
X131145024Y-114574654D01*
X131160930Y-114589070D01*
X131175346Y-114604976D01*
X131188134Y-114622219D01*
X131199170Y-114640632D01*
X131208349Y-114660038D01*
X131215581Y-114680250D01*
X131220797Y-114701074D01*
X131223947Y-114722309D01*
X131225000Y-114743750D01*
X131225000Y-115256250D01*
X131223947Y-115277691D01*
X131220797Y-115298926D01*
X131215581Y-115319750D01*
X131208349Y-115339962D01*
X131199170Y-115359368D01*
X131188134Y-115377781D01*
X131175346Y-115395024D01*
X131160930Y-115410930D01*
X131145024Y-115425346D01*
X131127781Y-115438134D01*
X131109368Y-115449170D01*
X131089962Y-115458349D01*
X131069750Y-115465581D01*
X131048926Y-115470797D01*
X131027691Y-115473947D01*
X131006250Y-115475000D01*
X130568750Y-115475000D01*
X130547309Y-115473947D01*
X130526074Y-115470797D01*
X130505250Y-115465581D01*
X130485038Y-115458349D01*
X130465632Y-115449170D01*
X130447219Y-115438134D01*
X130429976Y-115425346D01*
X130414070Y-115410930D01*
X130399654Y-115395024D01*
X130386866Y-115377781D01*
X130375830Y-115359368D01*
X130366651Y-115339962D01*
X130359419Y-115319750D01*
X130354203Y-115298926D01*
X130351053Y-115277691D01*
X130350000Y-115256250D01*
X130350000Y-114743750D01*
X130351053Y-114722309D01*
X130354203Y-114701074D01*
X130359419Y-114680250D01*
X130366651Y-114660038D01*
X130375830Y-114640632D01*
X130386866Y-114622219D01*
X130399654Y-114604976D01*
X130414070Y-114589070D01*
X130429976Y-114574654D01*
X130447219Y-114561866D01*
X130465632Y-114550830D01*
X130485038Y-114541651D01*
X130505250Y-114534419D01*
X130526074Y-114529203D01*
X130547309Y-114526053D01*
X130568750Y-114525000D01*
X131006250Y-114525000D01*
X131027691Y-114526053D01*
X131027691Y-114526053D01*
G37*
D19*
X130787500Y-115000000D03*
D12*
G36*
X136435779Y-119776144D02*
X136458834Y-119779563D01*
X136481443Y-119785227D01*
X136503387Y-119793079D01*
X136524457Y-119803044D01*
X136544448Y-119815026D01*
X136563168Y-119828910D01*
X136580438Y-119844562D01*
X136596090Y-119861832D01*
X136609974Y-119880552D01*
X136621956Y-119900543D01*
X136631921Y-119921613D01*
X136639773Y-119943557D01*
X136645437Y-119966166D01*
X136648856Y-119989221D01*
X136650000Y-120012500D01*
X136650000Y-120487500D01*
X136648856Y-120510779D01*
X136645437Y-120533834D01*
X136639773Y-120556443D01*
X136631921Y-120578387D01*
X136621956Y-120599457D01*
X136609974Y-120619448D01*
X136596090Y-120638168D01*
X136580438Y-120655438D01*
X136563168Y-120671090D01*
X136544448Y-120684974D01*
X136524457Y-120696956D01*
X136503387Y-120706921D01*
X136481443Y-120714773D01*
X136458834Y-120720437D01*
X136435779Y-120723856D01*
X136412500Y-120725000D01*
X135837500Y-120725000D01*
X135814221Y-120723856D01*
X135791166Y-120720437D01*
X135768557Y-120714773D01*
X135746613Y-120706921D01*
X135725543Y-120696956D01*
X135705552Y-120684974D01*
X135686832Y-120671090D01*
X135669562Y-120655438D01*
X135653910Y-120638168D01*
X135640026Y-120619448D01*
X135628044Y-120599457D01*
X135618079Y-120578387D01*
X135610227Y-120556443D01*
X135604563Y-120533834D01*
X135601144Y-120510779D01*
X135600000Y-120487500D01*
X135600000Y-120012500D01*
X135601144Y-119989221D01*
X135604563Y-119966166D01*
X135610227Y-119943557D01*
X135618079Y-119921613D01*
X135628044Y-119900543D01*
X135640026Y-119880552D01*
X135653910Y-119861832D01*
X135669562Y-119844562D01*
X135686832Y-119828910D01*
X135705552Y-119815026D01*
X135725543Y-119803044D01*
X135746613Y-119793079D01*
X135768557Y-119785227D01*
X135791166Y-119779563D01*
X135814221Y-119776144D01*
X135837500Y-119775000D01*
X136412500Y-119775000D01*
X136435779Y-119776144D01*
X136435779Y-119776144D01*
G37*
D13*
X136125000Y-120250000D03*
D12*
G36*
X134685779Y-119776144D02*
X134708834Y-119779563D01*
X134731443Y-119785227D01*
X134753387Y-119793079D01*
X134774457Y-119803044D01*
X134794448Y-119815026D01*
X134813168Y-119828910D01*
X134830438Y-119844562D01*
X134846090Y-119861832D01*
X134859974Y-119880552D01*
X134871956Y-119900543D01*
X134881921Y-119921613D01*
X134889773Y-119943557D01*
X134895437Y-119966166D01*
X134898856Y-119989221D01*
X134900000Y-120012500D01*
X134900000Y-120487500D01*
X134898856Y-120510779D01*
X134895437Y-120533834D01*
X134889773Y-120556443D01*
X134881921Y-120578387D01*
X134871956Y-120599457D01*
X134859974Y-120619448D01*
X134846090Y-120638168D01*
X134830438Y-120655438D01*
X134813168Y-120671090D01*
X134794448Y-120684974D01*
X134774457Y-120696956D01*
X134753387Y-120706921D01*
X134731443Y-120714773D01*
X134708834Y-120720437D01*
X134685779Y-120723856D01*
X134662500Y-120725000D01*
X134087500Y-120725000D01*
X134064221Y-120723856D01*
X134041166Y-120720437D01*
X134018557Y-120714773D01*
X133996613Y-120706921D01*
X133975543Y-120696956D01*
X133955552Y-120684974D01*
X133936832Y-120671090D01*
X133919562Y-120655438D01*
X133903910Y-120638168D01*
X133890026Y-120619448D01*
X133878044Y-120599457D01*
X133868079Y-120578387D01*
X133860227Y-120556443D01*
X133854563Y-120533834D01*
X133851144Y-120510779D01*
X133850000Y-120487500D01*
X133850000Y-120012500D01*
X133851144Y-119989221D01*
X133854563Y-119966166D01*
X133860227Y-119943557D01*
X133868079Y-119921613D01*
X133878044Y-119900543D01*
X133890026Y-119880552D01*
X133903910Y-119861832D01*
X133919562Y-119844562D01*
X133936832Y-119828910D01*
X133955552Y-119815026D01*
X133975543Y-119803044D01*
X133996613Y-119793079D01*
X134018557Y-119785227D01*
X134041166Y-119779563D01*
X134064221Y-119776144D01*
X134087500Y-119775000D01*
X134662500Y-119775000D01*
X134685779Y-119776144D01*
X134685779Y-119776144D01*
G37*
D13*
X134375000Y-120250000D03*
D12*
G36*
X132260779Y-95101144D02*
X132283834Y-95104563D01*
X132306443Y-95110227D01*
X132328387Y-95118079D01*
X132349457Y-95128044D01*
X132369448Y-95140026D01*
X132388168Y-95153910D01*
X132405438Y-95169562D01*
X132421090Y-95186832D01*
X132434974Y-95205552D01*
X132446956Y-95225543D01*
X132456921Y-95246613D01*
X132464773Y-95268557D01*
X132470437Y-95291166D01*
X132473856Y-95314221D01*
X132475000Y-95337500D01*
X132475000Y-95912500D01*
X132473856Y-95935779D01*
X132470437Y-95958834D01*
X132464773Y-95981443D01*
X132456921Y-96003387D01*
X132446956Y-96024457D01*
X132434974Y-96044448D01*
X132421090Y-96063168D01*
X132405438Y-96080438D01*
X132388168Y-96096090D01*
X132369448Y-96109974D01*
X132349457Y-96121956D01*
X132328387Y-96131921D01*
X132306443Y-96139773D01*
X132283834Y-96145437D01*
X132260779Y-96148856D01*
X132237500Y-96150000D01*
X131762500Y-96150000D01*
X131739221Y-96148856D01*
X131716166Y-96145437D01*
X131693557Y-96139773D01*
X131671613Y-96131921D01*
X131650543Y-96121956D01*
X131630552Y-96109974D01*
X131611832Y-96096090D01*
X131594562Y-96080438D01*
X131578910Y-96063168D01*
X131565026Y-96044448D01*
X131553044Y-96024457D01*
X131543079Y-96003387D01*
X131535227Y-95981443D01*
X131529563Y-95958834D01*
X131526144Y-95935779D01*
X131525000Y-95912500D01*
X131525000Y-95337500D01*
X131526144Y-95314221D01*
X131529563Y-95291166D01*
X131535227Y-95268557D01*
X131543079Y-95246613D01*
X131553044Y-95225543D01*
X131565026Y-95205552D01*
X131578910Y-95186832D01*
X131594562Y-95169562D01*
X131611832Y-95153910D01*
X131630552Y-95140026D01*
X131650543Y-95128044D01*
X131671613Y-95118079D01*
X131693557Y-95110227D01*
X131716166Y-95104563D01*
X131739221Y-95101144D01*
X131762500Y-95100000D01*
X132237500Y-95100000D01*
X132260779Y-95101144D01*
X132260779Y-95101144D01*
G37*
D13*
X132000000Y-95625000D03*
D12*
G36*
X132260779Y-93351144D02*
X132283834Y-93354563D01*
X132306443Y-93360227D01*
X132328387Y-93368079D01*
X132349457Y-93378044D01*
X132369448Y-93390026D01*
X132388168Y-93403910D01*
X132405438Y-93419562D01*
X132421090Y-93436832D01*
X132434974Y-93455552D01*
X132446956Y-93475543D01*
X132456921Y-93496613D01*
X132464773Y-93518557D01*
X132470437Y-93541166D01*
X132473856Y-93564221D01*
X132475000Y-93587500D01*
X132475000Y-94162500D01*
X132473856Y-94185779D01*
X132470437Y-94208834D01*
X132464773Y-94231443D01*
X132456921Y-94253387D01*
X132446956Y-94274457D01*
X132434974Y-94294448D01*
X132421090Y-94313168D01*
X132405438Y-94330438D01*
X132388168Y-94346090D01*
X132369448Y-94359974D01*
X132349457Y-94371956D01*
X132328387Y-94381921D01*
X132306443Y-94389773D01*
X132283834Y-94395437D01*
X132260779Y-94398856D01*
X132237500Y-94400000D01*
X131762500Y-94400000D01*
X131739221Y-94398856D01*
X131716166Y-94395437D01*
X131693557Y-94389773D01*
X131671613Y-94381921D01*
X131650543Y-94371956D01*
X131630552Y-94359974D01*
X131611832Y-94346090D01*
X131594562Y-94330438D01*
X131578910Y-94313168D01*
X131565026Y-94294448D01*
X131553044Y-94274457D01*
X131543079Y-94253387D01*
X131535227Y-94231443D01*
X131529563Y-94208834D01*
X131526144Y-94185779D01*
X131525000Y-94162500D01*
X131525000Y-93587500D01*
X131526144Y-93564221D01*
X131529563Y-93541166D01*
X131535227Y-93518557D01*
X131543079Y-93496613D01*
X131553044Y-93475543D01*
X131565026Y-93455552D01*
X131578910Y-93436832D01*
X131594562Y-93419562D01*
X131611832Y-93403910D01*
X131630552Y-93390026D01*
X131650543Y-93378044D01*
X131671613Y-93368079D01*
X131693557Y-93360227D01*
X131716166Y-93354563D01*
X131739221Y-93351144D01*
X131762500Y-93350000D01*
X132237500Y-93350000D01*
X132260779Y-93351144D01*
X132260779Y-93351144D01*
G37*
D13*
X132000000Y-93875000D03*
D12*
G36*
X129260779Y-95101144D02*
X129283834Y-95104563D01*
X129306443Y-95110227D01*
X129328387Y-95118079D01*
X129349457Y-95128044D01*
X129369448Y-95140026D01*
X129388168Y-95153910D01*
X129405438Y-95169562D01*
X129421090Y-95186832D01*
X129434974Y-95205552D01*
X129446956Y-95225543D01*
X129456921Y-95246613D01*
X129464773Y-95268557D01*
X129470437Y-95291166D01*
X129473856Y-95314221D01*
X129475000Y-95337500D01*
X129475000Y-95912500D01*
X129473856Y-95935779D01*
X129470437Y-95958834D01*
X129464773Y-95981443D01*
X129456921Y-96003387D01*
X129446956Y-96024457D01*
X129434974Y-96044448D01*
X129421090Y-96063168D01*
X129405438Y-96080438D01*
X129388168Y-96096090D01*
X129369448Y-96109974D01*
X129349457Y-96121956D01*
X129328387Y-96131921D01*
X129306443Y-96139773D01*
X129283834Y-96145437D01*
X129260779Y-96148856D01*
X129237500Y-96150000D01*
X128762500Y-96150000D01*
X128739221Y-96148856D01*
X128716166Y-96145437D01*
X128693557Y-96139773D01*
X128671613Y-96131921D01*
X128650543Y-96121956D01*
X128630552Y-96109974D01*
X128611832Y-96096090D01*
X128594562Y-96080438D01*
X128578910Y-96063168D01*
X128565026Y-96044448D01*
X128553044Y-96024457D01*
X128543079Y-96003387D01*
X128535227Y-95981443D01*
X128529563Y-95958834D01*
X128526144Y-95935779D01*
X128525000Y-95912500D01*
X128525000Y-95337500D01*
X128526144Y-95314221D01*
X128529563Y-95291166D01*
X128535227Y-95268557D01*
X128543079Y-95246613D01*
X128553044Y-95225543D01*
X128565026Y-95205552D01*
X128578910Y-95186832D01*
X128594562Y-95169562D01*
X128611832Y-95153910D01*
X128630552Y-95140026D01*
X128650543Y-95128044D01*
X128671613Y-95118079D01*
X128693557Y-95110227D01*
X128716166Y-95104563D01*
X128739221Y-95101144D01*
X128762500Y-95100000D01*
X129237500Y-95100000D01*
X129260779Y-95101144D01*
X129260779Y-95101144D01*
G37*
D13*
X129000000Y-95625000D03*
D12*
G36*
X129260779Y-93351144D02*
X129283834Y-93354563D01*
X129306443Y-93360227D01*
X129328387Y-93368079D01*
X129349457Y-93378044D01*
X129369448Y-93390026D01*
X129388168Y-93403910D01*
X129405438Y-93419562D01*
X129421090Y-93436832D01*
X129434974Y-93455552D01*
X129446956Y-93475543D01*
X129456921Y-93496613D01*
X129464773Y-93518557D01*
X129470437Y-93541166D01*
X129473856Y-93564221D01*
X129475000Y-93587500D01*
X129475000Y-94162500D01*
X129473856Y-94185779D01*
X129470437Y-94208834D01*
X129464773Y-94231443D01*
X129456921Y-94253387D01*
X129446956Y-94274457D01*
X129434974Y-94294448D01*
X129421090Y-94313168D01*
X129405438Y-94330438D01*
X129388168Y-94346090D01*
X129369448Y-94359974D01*
X129349457Y-94371956D01*
X129328387Y-94381921D01*
X129306443Y-94389773D01*
X129283834Y-94395437D01*
X129260779Y-94398856D01*
X129237500Y-94400000D01*
X128762500Y-94400000D01*
X128739221Y-94398856D01*
X128716166Y-94395437D01*
X128693557Y-94389773D01*
X128671613Y-94381921D01*
X128650543Y-94371956D01*
X128630552Y-94359974D01*
X128611832Y-94346090D01*
X128594562Y-94330438D01*
X128578910Y-94313168D01*
X128565026Y-94294448D01*
X128553044Y-94274457D01*
X128543079Y-94253387D01*
X128535227Y-94231443D01*
X128529563Y-94208834D01*
X128526144Y-94185779D01*
X128525000Y-94162500D01*
X128525000Y-93587500D01*
X128526144Y-93564221D01*
X128529563Y-93541166D01*
X128535227Y-93518557D01*
X128543079Y-93496613D01*
X128553044Y-93475543D01*
X128565026Y-93455552D01*
X128578910Y-93436832D01*
X128594562Y-93419562D01*
X128611832Y-93403910D01*
X128630552Y-93390026D01*
X128650543Y-93378044D01*
X128671613Y-93368079D01*
X128693557Y-93360227D01*
X128716166Y-93354563D01*
X128739221Y-93351144D01*
X128762500Y-93350000D01*
X129237500Y-93350000D01*
X129260779Y-93351144D01*
X129260779Y-93351144D01*
G37*
D13*
X129000000Y-93875000D03*
D12*
G36*
X129435779Y-116026144D02*
X129458834Y-116029563D01*
X129481443Y-116035227D01*
X129503387Y-116043079D01*
X129524457Y-116053044D01*
X129544448Y-116065026D01*
X129563168Y-116078910D01*
X129580438Y-116094562D01*
X129596090Y-116111832D01*
X129609974Y-116130552D01*
X129621956Y-116150543D01*
X129631921Y-116171613D01*
X129639773Y-116193557D01*
X129645437Y-116216166D01*
X129648856Y-116239221D01*
X129650000Y-116262500D01*
X129650000Y-116737500D01*
X129648856Y-116760779D01*
X129645437Y-116783834D01*
X129639773Y-116806443D01*
X129631921Y-116828387D01*
X129621956Y-116849457D01*
X129609974Y-116869448D01*
X129596090Y-116888168D01*
X129580438Y-116905438D01*
X129563168Y-116921090D01*
X129544448Y-116934974D01*
X129524457Y-116946956D01*
X129503387Y-116956921D01*
X129481443Y-116964773D01*
X129458834Y-116970437D01*
X129435779Y-116973856D01*
X129412500Y-116975000D01*
X128837500Y-116975000D01*
X128814221Y-116973856D01*
X128791166Y-116970437D01*
X128768557Y-116964773D01*
X128746613Y-116956921D01*
X128725543Y-116946956D01*
X128705552Y-116934974D01*
X128686832Y-116921090D01*
X128669562Y-116905438D01*
X128653910Y-116888168D01*
X128640026Y-116869448D01*
X128628044Y-116849457D01*
X128618079Y-116828387D01*
X128610227Y-116806443D01*
X128604563Y-116783834D01*
X128601144Y-116760779D01*
X128600000Y-116737500D01*
X128600000Y-116262500D01*
X128601144Y-116239221D01*
X128604563Y-116216166D01*
X128610227Y-116193557D01*
X128618079Y-116171613D01*
X128628044Y-116150543D01*
X128640026Y-116130552D01*
X128653910Y-116111832D01*
X128669562Y-116094562D01*
X128686832Y-116078910D01*
X128705552Y-116065026D01*
X128725543Y-116053044D01*
X128746613Y-116043079D01*
X128768557Y-116035227D01*
X128791166Y-116029563D01*
X128814221Y-116026144D01*
X128837500Y-116025000D01*
X129412500Y-116025000D01*
X129435779Y-116026144D01*
X129435779Y-116026144D01*
G37*
D13*
X129125000Y-116500000D03*
D12*
G36*
X131185779Y-116026144D02*
X131208834Y-116029563D01*
X131231443Y-116035227D01*
X131253387Y-116043079D01*
X131274457Y-116053044D01*
X131294448Y-116065026D01*
X131313168Y-116078910D01*
X131330438Y-116094562D01*
X131346090Y-116111832D01*
X131359974Y-116130552D01*
X131371956Y-116150543D01*
X131381921Y-116171613D01*
X131389773Y-116193557D01*
X131395437Y-116216166D01*
X131398856Y-116239221D01*
X131400000Y-116262500D01*
X131400000Y-116737500D01*
X131398856Y-116760779D01*
X131395437Y-116783834D01*
X131389773Y-116806443D01*
X131381921Y-116828387D01*
X131371956Y-116849457D01*
X131359974Y-116869448D01*
X131346090Y-116888168D01*
X131330438Y-116905438D01*
X131313168Y-116921090D01*
X131294448Y-116934974D01*
X131274457Y-116946956D01*
X131253387Y-116956921D01*
X131231443Y-116964773D01*
X131208834Y-116970437D01*
X131185779Y-116973856D01*
X131162500Y-116975000D01*
X130587500Y-116975000D01*
X130564221Y-116973856D01*
X130541166Y-116970437D01*
X130518557Y-116964773D01*
X130496613Y-116956921D01*
X130475543Y-116946956D01*
X130455552Y-116934974D01*
X130436832Y-116921090D01*
X130419562Y-116905438D01*
X130403910Y-116888168D01*
X130390026Y-116869448D01*
X130378044Y-116849457D01*
X130368079Y-116828387D01*
X130360227Y-116806443D01*
X130354563Y-116783834D01*
X130351144Y-116760779D01*
X130350000Y-116737500D01*
X130350000Y-116262500D01*
X130351144Y-116239221D01*
X130354563Y-116216166D01*
X130360227Y-116193557D01*
X130368079Y-116171613D01*
X130378044Y-116150543D01*
X130390026Y-116130552D01*
X130403910Y-116111832D01*
X130419562Y-116094562D01*
X130436832Y-116078910D01*
X130455552Y-116065026D01*
X130475543Y-116053044D01*
X130496613Y-116043079D01*
X130518557Y-116035227D01*
X130541166Y-116029563D01*
X130564221Y-116026144D01*
X130587500Y-116025000D01*
X131162500Y-116025000D01*
X131185779Y-116026144D01*
X131185779Y-116026144D01*
G37*
D13*
X130875000Y-116500000D03*
D12*
G36*
X159435779Y-116026144D02*
X159458834Y-116029563D01*
X159481443Y-116035227D01*
X159503387Y-116043079D01*
X159524457Y-116053044D01*
X159544448Y-116065026D01*
X159563168Y-116078910D01*
X159580438Y-116094562D01*
X159596090Y-116111832D01*
X159609974Y-116130552D01*
X159621956Y-116150543D01*
X159631921Y-116171613D01*
X159639773Y-116193557D01*
X159645437Y-116216166D01*
X159648856Y-116239221D01*
X159650000Y-116262500D01*
X159650000Y-116737500D01*
X159648856Y-116760779D01*
X159645437Y-116783834D01*
X159639773Y-116806443D01*
X159631921Y-116828387D01*
X159621956Y-116849457D01*
X159609974Y-116869448D01*
X159596090Y-116888168D01*
X159580438Y-116905438D01*
X159563168Y-116921090D01*
X159544448Y-116934974D01*
X159524457Y-116946956D01*
X159503387Y-116956921D01*
X159481443Y-116964773D01*
X159458834Y-116970437D01*
X159435779Y-116973856D01*
X159412500Y-116975000D01*
X158837500Y-116975000D01*
X158814221Y-116973856D01*
X158791166Y-116970437D01*
X158768557Y-116964773D01*
X158746613Y-116956921D01*
X158725543Y-116946956D01*
X158705552Y-116934974D01*
X158686832Y-116921090D01*
X158669562Y-116905438D01*
X158653910Y-116888168D01*
X158640026Y-116869448D01*
X158628044Y-116849457D01*
X158618079Y-116828387D01*
X158610227Y-116806443D01*
X158604563Y-116783834D01*
X158601144Y-116760779D01*
X158600000Y-116737500D01*
X158600000Y-116262500D01*
X158601144Y-116239221D01*
X158604563Y-116216166D01*
X158610227Y-116193557D01*
X158618079Y-116171613D01*
X158628044Y-116150543D01*
X158640026Y-116130552D01*
X158653910Y-116111832D01*
X158669562Y-116094562D01*
X158686832Y-116078910D01*
X158705552Y-116065026D01*
X158725543Y-116053044D01*
X158746613Y-116043079D01*
X158768557Y-116035227D01*
X158791166Y-116029563D01*
X158814221Y-116026144D01*
X158837500Y-116025000D01*
X159412500Y-116025000D01*
X159435779Y-116026144D01*
X159435779Y-116026144D01*
G37*
D13*
X159125000Y-116500000D03*
D12*
G36*
X161185779Y-116026144D02*
X161208834Y-116029563D01*
X161231443Y-116035227D01*
X161253387Y-116043079D01*
X161274457Y-116053044D01*
X161294448Y-116065026D01*
X161313168Y-116078910D01*
X161330438Y-116094562D01*
X161346090Y-116111832D01*
X161359974Y-116130552D01*
X161371956Y-116150543D01*
X161381921Y-116171613D01*
X161389773Y-116193557D01*
X161395437Y-116216166D01*
X161398856Y-116239221D01*
X161400000Y-116262500D01*
X161400000Y-116737500D01*
X161398856Y-116760779D01*
X161395437Y-116783834D01*
X161389773Y-116806443D01*
X161381921Y-116828387D01*
X161371956Y-116849457D01*
X161359974Y-116869448D01*
X161346090Y-116888168D01*
X161330438Y-116905438D01*
X161313168Y-116921090D01*
X161294448Y-116934974D01*
X161274457Y-116946956D01*
X161253387Y-116956921D01*
X161231443Y-116964773D01*
X161208834Y-116970437D01*
X161185779Y-116973856D01*
X161162500Y-116975000D01*
X160587500Y-116975000D01*
X160564221Y-116973856D01*
X160541166Y-116970437D01*
X160518557Y-116964773D01*
X160496613Y-116956921D01*
X160475543Y-116946956D01*
X160455552Y-116934974D01*
X160436832Y-116921090D01*
X160419562Y-116905438D01*
X160403910Y-116888168D01*
X160390026Y-116869448D01*
X160378044Y-116849457D01*
X160368079Y-116828387D01*
X160360227Y-116806443D01*
X160354563Y-116783834D01*
X160351144Y-116760779D01*
X160350000Y-116737500D01*
X160350000Y-116262500D01*
X160351144Y-116239221D01*
X160354563Y-116216166D01*
X160360227Y-116193557D01*
X160368079Y-116171613D01*
X160378044Y-116150543D01*
X160390026Y-116130552D01*
X160403910Y-116111832D01*
X160419562Y-116094562D01*
X160436832Y-116078910D01*
X160455552Y-116065026D01*
X160475543Y-116053044D01*
X160496613Y-116043079D01*
X160518557Y-116035227D01*
X160541166Y-116029563D01*
X160564221Y-116026144D01*
X160587500Y-116025000D01*
X161162500Y-116025000D01*
X161185779Y-116026144D01*
X161185779Y-116026144D01*
G37*
D13*
X160875000Y-116500000D03*
D12*
G36*
X152260779Y-112101144D02*
X152283834Y-112104563D01*
X152306443Y-112110227D01*
X152328387Y-112118079D01*
X152349457Y-112128044D01*
X152369448Y-112140026D01*
X152388168Y-112153910D01*
X152405438Y-112169562D01*
X152421090Y-112186832D01*
X152434974Y-112205552D01*
X152446956Y-112225543D01*
X152456921Y-112246613D01*
X152464773Y-112268557D01*
X152470437Y-112291166D01*
X152473856Y-112314221D01*
X152475000Y-112337500D01*
X152475000Y-112912500D01*
X152473856Y-112935779D01*
X152470437Y-112958834D01*
X152464773Y-112981443D01*
X152456921Y-113003387D01*
X152446956Y-113024457D01*
X152434974Y-113044448D01*
X152421090Y-113063168D01*
X152405438Y-113080438D01*
X152388168Y-113096090D01*
X152369448Y-113109974D01*
X152349457Y-113121956D01*
X152328387Y-113131921D01*
X152306443Y-113139773D01*
X152283834Y-113145437D01*
X152260779Y-113148856D01*
X152237500Y-113150000D01*
X151762500Y-113150000D01*
X151739221Y-113148856D01*
X151716166Y-113145437D01*
X151693557Y-113139773D01*
X151671613Y-113131921D01*
X151650543Y-113121956D01*
X151630552Y-113109974D01*
X151611832Y-113096090D01*
X151594562Y-113080438D01*
X151578910Y-113063168D01*
X151565026Y-113044448D01*
X151553044Y-113024457D01*
X151543079Y-113003387D01*
X151535227Y-112981443D01*
X151529563Y-112958834D01*
X151526144Y-112935779D01*
X151525000Y-112912500D01*
X151525000Y-112337500D01*
X151526144Y-112314221D01*
X151529563Y-112291166D01*
X151535227Y-112268557D01*
X151543079Y-112246613D01*
X151553044Y-112225543D01*
X151565026Y-112205552D01*
X151578910Y-112186832D01*
X151594562Y-112169562D01*
X151611832Y-112153910D01*
X151630552Y-112140026D01*
X151650543Y-112128044D01*
X151671613Y-112118079D01*
X151693557Y-112110227D01*
X151716166Y-112104563D01*
X151739221Y-112101144D01*
X151762500Y-112100000D01*
X152237500Y-112100000D01*
X152260779Y-112101144D01*
X152260779Y-112101144D01*
G37*
D13*
X152000000Y-112625000D03*
D12*
G36*
X152260779Y-110351144D02*
X152283834Y-110354563D01*
X152306443Y-110360227D01*
X152328387Y-110368079D01*
X152349457Y-110378044D01*
X152369448Y-110390026D01*
X152388168Y-110403910D01*
X152405438Y-110419562D01*
X152421090Y-110436832D01*
X152434974Y-110455552D01*
X152446956Y-110475543D01*
X152456921Y-110496613D01*
X152464773Y-110518557D01*
X152470437Y-110541166D01*
X152473856Y-110564221D01*
X152475000Y-110587500D01*
X152475000Y-111162500D01*
X152473856Y-111185779D01*
X152470437Y-111208834D01*
X152464773Y-111231443D01*
X152456921Y-111253387D01*
X152446956Y-111274457D01*
X152434974Y-111294448D01*
X152421090Y-111313168D01*
X152405438Y-111330438D01*
X152388168Y-111346090D01*
X152369448Y-111359974D01*
X152349457Y-111371956D01*
X152328387Y-111381921D01*
X152306443Y-111389773D01*
X152283834Y-111395437D01*
X152260779Y-111398856D01*
X152237500Y-111400000D01*
X151762500Y-111400000D01*
X151739221Y-111398856D01*
X151716166Y-111395437D01*
X151693557Y-111389773D01*
X151671613Y-111381921D01*
X151650543Y-111371956D01*
X151630552Y-111359974D01*
X151611832Y-111346090D01*
X151594562Y-111330438D01*
X151578910Y-111313168D01*
X151565026Y-111294448D01*
X151553044Y-111274457D01*
X151543079Y-111253387D01*
X151535227Y-111231443D01*
X151529563Y-111208834D01*
X151526144Y-111185779D01*
X151525000Y-111162500D01*
X151525000Y-110587500D01*
X151526144Y-110564221D01*
X151529563Y-110541166D01*
X151535227Y-110518557D01*
X151543079Y-110496613D01*
X151553044Y-110475543D01*
X151565026Y-110455552D01*
X151578910Y-110436832D01*
X151594562Y-110419562D01*
X151611832Y-110403910D01*
X151630552Y-110390026D01*
X151650543Y-110378044D01*
X151671613Y-110368079D01*
X151693557Y-110360227D01*
X151716166Y-110354563D01*
X151739221Y-110351144D01*
X151762500Y-110350000D01*
X152237500Y-110350000D01*
X152260779Y-110351144D01*
X152260779Y-110351144D01*
G37*
D13*
X152000000Y-110875000D03*
D12*
G36*
X153760779Y-110351144D02*
X153783834Y-110354563D01*
X153806443Y-110360227D01*
X153828387Y-110368079D01*
X153849457Y-110378044D01*
X153869448Y-110390026D01*
X153888168Y-110403910D01*
X153905438Y-110419562D01*
X153921090Y-110436832D01*
X153934974Y-110455552D01*
X153946956Y-110475543D01*
X153956921Y-110496613D01*
X153964773Y-110518557D01*
X153970437Y-110541166D01*
X153973856Y-110564221D01*
X153975000Y-110587500D01*
X153975000Y-111162500D01*
X153973856Y-111185779D01*
X153970437Y-111208834D01*
X153964773Y-111231443D01*
X153956921Y-111253387D01*
X153946956Y-111274457D01*
X153934974Y-111294448D01*
X153921090Y-111313168D01*
X153905438Y-111330438D01*
X153888168Y-111346090D01*
X153869448Y-111359974D01*
X153849457Y-111371956D01*
X153828387Y-111381921D01*
X153806443Y-111389773D01*
X153783834Y-111395437D01*
X153760779Y-111398856D01*
X153737500Y-111400000D01*
X153262500Y-111400000D01*
X153239221Y-111398856D01*
X153216166Y-111395437D01*
X153193557Y-111389773D01*
X153171613Y-111381921D01*
X153150543Y-111371956D01*
X153130552Y-111359974D01*
X153111832Y-111346090D01*
X153094562Y-111330438D01*
X153078910Y-111313168D01*
X153065026Y-111294448D01*
X153053044Y-111274457D01*
X153043079Y-111253387D01*
X153035227Y-111231443D01*
X153029563Y-111208834D01*
X153026144Y-111185779D01*
X153025000Y-111162500D01*
X153025000Y-110587500D01*
X153026144Y-110564221D01*
X153029563Y-110541166D01*
X153035227Y-110518557D01*
X153043079Y-110496613D01*
X153053044Y-110475543D01*
X153065026Y-110455552D01*
X153078910Y-110436832D01*
X153094562Y-110419562D01*
X153111832Y-110403910D01*
X153130552Y-110390026D01*
X153150543Y-110378044D01*
X153171613Y-110368079D01*
X153193557Y-110360227D01*
X153216166Y-110354563D01*
X153239221Y-110351144D01*
X153262500Y-110350000D01*
X153737500Y-110350000D01*
X153760779Y-110351144D01*
X153760779Y-110351144D01*
G37*
D13*
X153500000Y-110875000D03*
D12*
G36*
X153760779Y-112101144D02*
X153783834Y-112104563D01*
X153806443Y-112110227D01*
X153828387Y-112118079D01*
X153849457Y-112128044D01*
X153869448Y-112140026D01*
X153888168Y-112153910D01*
X153905438Y-112169562D01*
X153921090Y-112186832D01*
X153934974Y-112205552D01*
X153946956Y-112225543D01*
X153956921Y-112246613D01*
X153964773Y-112268557D01*
X153970437Y-112291166D01*
X153973856Y-112314221D01*
X153975000Y-112337500D01*
X153975000Y-112912500D01*
X153973856Y-112935779D01*
X153970437Y-112958834D01*
X153964773Y-112981443D01*
X153956921Y-113003387D01*
X153946956Y-113024457D01*
X153934974Y-113044448D01*
X153921090Y-113063168D01*
X153905438Y-113080438D01*
X153888168Y-113096090D01*
X153869448Y-113109974D01*
X153849457Y-113121956D01*
X153828387Y-113131921D01*
X153806443Y-113139773D01*
X153783834Y-113145437D01*
X153760779Y-113148856D01*
X153737500Y-113150000D01*
X153262500Y-113150000D01*
X153239221Y-113148856D01*
X153216166Y-113145437D01*
X153193557Y-113139773D01*
X153171613Y-113131921D01*
X153150543Y-113121956D01*
X153130552Y-113109974D01*
X153111832Y-113096090D01*
X153094562Y-113080438D01*
X153078910Y-113063168D01*
X153065026Y-113044448D01*
X153053044Y-113024457D01*
X153043079Y-113003387D01*
X153035227Y-112981443D01*
X153029563Y-112958834D01*
X153026144Y-112935779D01*
X153025000Y-112912500D01*
X153025000Y-112337500D01*
X153026144Y-112314221D01*
X153029563Y-112291166D01*
X153035227Y-112268557D01*
X153043079Y-112246613D01*
X153053044Y-112225543D01*
X153065026Y-112205552D01*
X153078910Y-112186832D01*
X153094562Y-112169562D01*
X153111832Y-112153910D01*
X153130552Y-112140026D01*
X153150543Y-112128044D01*
X153171613Y-112118079D01*
X153193557Y-112110227D01*
X153216166Y-112104563D01*
X153239221Y-112101144D01*
X153262500Y-112100000D01*
X153737500Y-112100000D01*
X153760779Y-112101144D01*
X153760779Y-112101144D01*
G37*
D13*
X153500000Y-112625000D03*
D12*
G36*
X155935779Y-119776144D02*
X155958834Y-119779563D01*
X155981443Y-119785227D01*
X156003387Y-119793079D01*
X156024457Y-119803044D01*
X156044448Y-119815026D01*
X156063168Y-119828910D01*
X156080438Y-119844562D01*
X156096090Y-119861832D01*
X156109974Y-119880552D01*
X156121956Y-119900543D01*
X156131921Y-119921613D01*
X156139773Y-119943557D01*
X156145437Y-119966166D01*
X156148856Y-119989221D01*
X156150000Y-120012500D01*
X156150000Y-120487500D01*
X156148856Y-120510779D01*
X156145437Y-120533834D01*
X156139773Y-120556443D01*
X156131921Y-120578387D01*
X156121956Y-120599457D01*
X156109974Y-120619448D01*
X156096090Y-120638168D01*
X156080438Y-120655438D01*
X156063168Y-120671090D01*
X156044448Y-120684974D01*
X156024457Y-120696956D01*
X156003387Y-120706921D01*
X155981443Y-120714773D01*
X155958834Y-120720437D01*
X155935779Y-120723856D01*
X155912500Y-120725000D01*
X155337500Y-120725000D01*
X155314221Y-120723856D01*
X155291166Y-120720437D01*
X155268557Y-120714773D01*
X155246613Y-120706921D01*
X155225543Y-120696956D01*
X155205552Y-120684974D01*
X155186832Y-120671090D01*
X155169562Y-120655438D01*
X155153910Y-120638168D01*
X155140026Y-120619448D01*
X155128044Y-120599457D01*
X155118079Y-120578387D01*
X155110227Y-120556443D01*
X155104563Y-120533834D01*
X155101144Y-120510779D01*
X155100000Y-120487500D01*
X155100000Y-120012500D01*
X155101144Y-119989221D01*
X155104563Y-119966166D01*
X155110227Y-119943557D01*
X155118079Y-119921613D01*
X155128044Y-119900543D01*
X155140026Y-119880552D01*
X155153910Y-119861832D01*
X155169562Y-119844562D01*
X155186832Y-119828910D01*
X155205552Y-119815026D01*
X155225543Y-119803044D01*
X155246613Y-119793079D01*
X155268557Y-119785227D01*
X155291166Y-119779563D01*
X155314221Y-119776144D01*
X155337500Y-119775000D01*
X155912500Y-119775000D01*
X155935779Y-119776144D01*
X155935779Y-119776144D01*
G37*
D13*
X155625000Y-120250000D03*
D12*
G36*
X154185779Y-119776144D02*
X154208834Y-119779563D01*
X154231443Y-119785227D01*
X154253387Y-119793079D01*
X154274457Y-119803044D01*
X154294448Y-119815026D01*
X154313168Y-119828910D01*
X154330438Y-119844562D01*
X154346090Y-119861832D01*
X154359974Y-119880552D01*
X154371956Y-119900543D01*
X154381921Y-119921613D01*
X154389773Y-119943557D01*
X154395437Y-119966166D01*
X154398856Y-119989221D01*
X154400000Y-120012500D01*
X154400000Y-120487500D01*
X154398856Y-120510779D01*
X154395437Y-120533834D01*
X154389773Y-120556443D01*
X154381921Y-120578387D01*
X154371956Y-120599457D01*
X154359974Y-120619448D01*
X154346090Y-120638168D01*
X154330438Y-120655438D01*
X154313168Y-120671090D01*
X154294448Y-120684974D01*
X154274457Y-120696956D01*
X154253387Y-120706921D01*
X154231443Y-120714773D01*
X154208834Y-120720437D01*
X154185779Y-120723856D01*
X154162500Y-120725000D01*
X153587500Y-120725000D01*
X153564221Y-120723856D01*
X153541166Y-120720437D01*
X153518557Y-120714773D01*
X153496613Y-120706921D01*
X153475543Y-120696956D01*
X153455552Y-120684974D01*
X153436832Y-120671090D01*
X153419562Y-120655438D01*
X153403910Y-120638168D01*
X153390026Y-120619448D01*
X153378044Y-120599457D01*
X153368079Y-120578387D01*
X153360227Y-120556443D01*
X153354563Y-120533834D01*
X153351144Y-120510779D01*
X153350000Y-120487500D01*
X153350000Y-120012500D01*
X153351144Y-119989221D01*
X153354563Y-119966166D01*
X153360227Y-119943557D01*
X153368079Y-119921613D01*
X153378044Y-119900543D01*
X153390026Y-119880552D01*
X153403910Y-119861832D01*
X153419562Y-119844562D01*
X153436832Y-119828910D01*
X153455552Y-119815026D01*
X153475543Y-119803044D01*
X153496613Y-119793079D01*
X153518557Y-119785227D01*
X153541166Y-119779563D01*
X153564221Y-119776144D01*
X153587500Y-119775000D01*
X154162500Y-119775000D01*
X154185779Y-119776144D01*
X154185779Y-119776144D01*
G37*
D13*
X153875000Y-120250000D03*
D12*
G36*
X134010779Y-108601144D02*
X134033834Y-108604563D01*
X134056443Y-108610227D01*
X134078387Y-108618079D01*
X134099457Y-108628044D01*
X134119448Y-108640026D01*
X134138168Y-108653910D01*
X134155438Y-108669562D01*
X134171090Y-108686832D01*
X134184974Y-108705552D01*
X134196956Y-108725543D01*
X134206921Y-108746613D01*
X134214773Y-108768557D01*
X134220437Y-108791166D01*
X134223856Y-108814221D01*
X134225000Y-108837500D01*
X134225000Y-109412500D01*
X134223856Y-109435779D01*
X134220437Y-109458834D01*
X134214773Y-109481443D01*
X134206921Y-109503387D01*
X134196956Y-109524457D01*
X134184974Y-109544448D01*
X134171090Y-109563168D01*
X134155438Y-109580438D01*
X134138168Y-109596090D01*
X134119448Y-109609974D01*
X134099457Y-109621956D01*
X134078387Y-109631921D01*
X134056443Y-109639773D01*
X134033834Y-109645437D01*
X134010779Y-109648856D01*
X133987500Y-109650000D01*
X133512500Y-109650000D01*
X133489221Y-109648856D01*
X133466166Y-109645437D01*
X133443557Y-109639773D01*
X133421613Y-109631921D01*
X133400543Y-109621956D01*
X133380552Y-109609974D01*
X133361832Y-109596090D01*
X133344562Y-109580438D01*
X133328910Y-109563168D01*
X133315026Y-109544448D01*
X133303044Y-109524457D01*
X133293079Y-109503387D01*
X133285227Y-109481443D01*
X133279563Y-109458834D01*
X133276144Y-109435779D01*
X133275000Y-109412500D01*
X133275000Y-108837500D01*
X133276144Y-108814221D01*
X133279563Y-108791166D01*
X133285227Y-108768557D01*
X133293079Y-108746613D01*
X133303044Y-108725543D01*
X133315026Y-108705552D01*
X133328910Y-108686832D01*
X133344562Y-108669562D01*
X133361832Y-108653910D01*
X133380552Y-108640026D01*
X133400543Y-108628044D01*
X133421613Y-108618079D01*
X133443557Y-108610227D01*
X133466166Y-108604563D01*
X133489221Y-108601144D01*
X133512500Y-108600000D01*
X133987500Y-108600000D01*
X134010779Y-108601144D01*
X134010779Y-108601144D01*
G37*
D13*
X133750000Y-109125000D03*
D12*
G36*
X134010779Y-110351144D02*
X134033834Y-110354563D01*
X134056443Y-110360227D01*
X134078387Y-110368079D01*
X134099457Y-110378044D01*
X134119448Y-110390026D01*
X134138168Y-110403910D01*
X134155438Y-110419562D01*
X134171090Y-110436832D01*
X134184974Y-110455552D01*
X134196956Y-110475543D01*
X134206921Y-110496613D01*
X134214773Y-110518557D01*
X134220437Y-110541166D01*
X134223856Y-110564221D01*
X134225000Y-110587500D01*
X134225000Y-111162500D01*
X134223856Y-111185779D01*
X134220437Y-111208834D01*
X134214773Y-111231443D01*
X134206921Y-111253387D01*
X134196956Y-111274457D01*
X134184974Y-111294448D01*
X134171090Y-111313168D01*
X134155438Y-111330438D01*
X134138168Y-111346090D01*
X134119448Y-111359974D01*
X134099457Y-111371956D01*
X134078387Y-111381921D01*
X134056443Y-111389773D01*
X134033834Y-111395437D01*
X134010779Y-111398856D01*
X133987500Y-111400000D01*
X133512500Y-111400000D01*
X133489221Y-111398856D01*
X133466166Y-111395437D01*
X133443557Y-111389773D01*
X133421613Y-111381921D01*
X133400543Y-111371956D01*
X133380552Y-111359974D01*
X133361832Y-111346090D01*
X133344562Y-111330438D01*
X133328910Y-111313168D01*
X133315026Y-111294448D01*
X133303044Y-111274457D01*
X133293079Y-111253387D01*
X133285227Y-111231443D01*
X133279563Y-111208834D01*
X133276144Y-111185779D01*
X133275000Y-111162500D01*
X133275000Y-110587500D01*
X133276144Y-110564221D01*
X133279563Y-110541166D01*
X133285227Y-110518557D01*
X133293079Y-110496613D01*
X133303044Y-110475543D01*
X133315026Y-110455552D01*
X133328910Y-110436832D01*
X133344562Y-110419562D01*
X133361832Y-110403910D01*
X133380552Y-110390026D01*
X133400543Y-110378044D01*
X133421613Y-110368079D01*
X133443557Y-110360227D01*
X133466166Y-110354563D01*
X133489221Y-110351144D01*
X133512500Y-110350000D01*
X133987500Y-110350000D01*
X134010779Y-110351144D01*
X134010779Y-110351144D01*
G37*
D13*
X133750000Y-110875000D03*
D20*
X156850000Y-88500000D03*
X152950000Y-88500000D03*
D21*
X140650000Y-102000000D03*
X140650000Y-102500000D03*
X140650000Y-103000000D03*
X140650000Y-103500000D03*
X140650000Y-104000000D03*
X140650000Y-104500000D03*
X140650000Y-105000000D03*
X140650000Y-105500000D03*
X140650000Y-106000000D03*
X140650000Y-106500000D03*
X140650000Y-107000000D03*
X140650000Y-107500000D03*
D22*
X142250000Y-109100000D03*
X142750000Y-109100000D03*
X143250000Y-109100000D03*
X143750000Y-109100000D03*
X144250000Y-109100000D03*
X144750000Y-109100000D03*
X145250000Y-109100000D03*
X145750000Y-109100000D03*
X146250000Y-109100000D03*
X146750000Y-109100000D03*
X147250000Y-109100000D03*
X147750000Y-109100000D03*
D21*
X149350000Y-107500000D03*
X149350000Y-107000000D03*
X149350000Y-106500000D03*
X149350000Y-106000000D03*
X149350000Y-105500000D03*
X149350000Y-105000000D03*
X149350000Y-104500000D03*
X149350000Y-104000000D03*
X149350000Y-103500000D03*
X149350000Y-103000000D03*
X149350000Y-102500000D03*
X149350000Y-102000000D03*
D22*
X147750000Y-100400000D03*
X147250000Y-100400000D03*
X146750000Y-100400000D03*
X146250000Y-100400000D03*
X145750000Y-100400000D03*
X145250000Y-100400000D03*
X144750000Y-100400000D03*
X144250000Y-100400000D03*
X143750000Y-100400000D03*
X143250000Y-100400000D03*
X142750000Y-100400000D03*
X142250000Y-100400000D03*
D18*
X149250000Y-83200000D03*
X150200000Y-85800000D03*
X148300000Y-85800000D03*
D12*
G36*
X158685779Y-81526144D02*
X158708834Y-81529563D01*
X158731443Y-81535227D01*
X158753387Y-81543079D01*
X158774457Y-81553044D01*
X158794448Y-81565026D01*
X158813168Y-81578910D01*
X158830438Y-81594562D01*
X158846090Y-81611832D01*
X158859974Y-81630552D01*
X158871956Y-81650543D01*
X158881921Y-81671613D01*
X158889773Y-81693557D01*
X158895437Y-81716166D01*
X158898856Y-81739221D01*
X158900000Y-81762500D01*
X158900000Y-82237500D01*
X158898856Y-82260779D01*
X158895437Y-82283834D01*
X158889773Y-82306443D01*
X158881921Y-82328387D01*
X158871956Y-82349457D01*
X158859974Y-82369448D01*
X158846090Y-82388168D01*
X158830438Y-82405438D01*
X158813168Y-82421090D01*
X158794448Y-82434974D01*
X158774457Y-82446956D01*
X158753387Y-82456921D01*
X158731443Y-82464773D01*
X158708834Y-82470437D01*
X158685779Y-82473856D01*
X158662500Y-82475000D01*
X158087500Y-82475000D01*
X158064221Y-82473856D01*
X158041166Y-82470437D01*
X158018557Y-82464773D01*
X157996613Y-82456921D01*
X157975543Y-82446956D01*
X157955552Y-82434974D01*
X157936832Y-82421090D01*
X157919562Y-82405438D01*
X157903910Y-82388168D01*
X157890026Y-82369448D01*
X157878044Y-82349457D01*
X157868079Y-82328387D01*
X157860227Y-82306443D01*
X157854563Y-82283834D01*
X157851144Y-82260779D01*
X157850000Y-82237500D01*
X157850000Y-81762500D01*
X157851144Y-81739221D01*
X157854563Y-81716166D01*
X157860227Y-81693557D01*
X157868079Y-81671613D01*
X157878044Y-81650543D01*
X157890026Y-81630552D01*
X157903910Y-81611832D01*
X157919562Y-81594562D01*
X157936832Y-81578910D01*
X157955552Y-81565026D01*
X157975543Y-81553044D01*
X157996613Y-81543079D01*
X158018557Y-81535227D01*
X158041166Y-81529563D01*
X158064221Y-81526144D01*
X158087500Y-81525000D01*
X158662500Y-81525000D01*
X158685779Y-81526144D01*
X158685779Y-81526144D01*
G37*
D13*
X158375000Y-82000000D03*
D12*
G36*
X156935779Y-81526144D02*
X156958834Y-81529563D01*
X156981443Y-81535227D01*
X157003387Y-81543079D01*
X157024457Y-81553044D01*
X157044448Y-81565026D01*
X157063168Y-81578910D01*
X157080438Y-81594562D01*
X157096090Y-81611832D01*
X157109974Y-81630552D01*
X157121956Y-81650543D01*
X157131921Y-81671613D01*
X157139773Y-81693557D01*
X157145437Y-81716166D01*
X157148856Y-81739221D01*
X157150000Y-81762500D01*
X157150000Y-82237500D01*
X157148856Y-82260779D01*
X157145437Y-82283834D01*
X157139773Y-82306443D01*
X157131921Y-82328387D01*
X157121956Y-82349457D01*
X157109974Y-82369448D01*
X157096090Y-82388168D01*
X157080438Y-82405438D01*
X157063168Y-82421090D01*
X157044448Y-82434974D01*
X157024457Y-82446956D01*
X157003387Y-82456921D01*
X156981443Y-82464773D01*
X156958834Y-82470437D01*
X156935779Y-82473856D01*
X156912500Y-82475000D01*
X156337500Y-82475000D01*
X156314221Y-82473856D01*
X156291166Y-82470437D01*
X156268557Y-82464773D01*
X156246613Y-82456921D01*
X156225543Y-82446956D01*
X156205552Y-82434974D01*
X156186832Y-82421090D01*
X156169562Y-82405438D01*
X156153910Y-82388168D01*
X156140026Y-82369448D01*
X156128044Y-82349457D01*
X156118079Y-82328387D01*
X156110227Y-82306443D01*
X156104563Y-82283834D01*
X156101144Y-82260779D01*
X156100000Y-82237500D01*
X156100000Y-81762500D01*
X156101144Y-81739221D01*
X156104563Y-81716166D01*
X156110227Y-81693557D01*
X156118079Y-81671613D01*
X156128044Y-81650543D01*
X156140026Y-81630552D01*
X156153910Y-81611832D01*
X156169562Y-81594562D01*
X156186832Y-81578910D01*
X156205552Y-81565026D01*
X156225543Y-81553044D01*
X156246613Y-81543079D01*
X156268557Y-81535227D01*
X156291166Y-81529563D01*
X156314221Y-81526144D01*
X156337500Y-81525000D01*
X156912500Y-81525000D01*
X156935779Y-81526144D01*
X156935779Y-81526144D01*
G37*
D13*
X156625000Y-82000000D03*
D12*
G36*
X156974504Y-83176204D02*
X156998773Y-83179804D01*
X157022571Y-83185765D01*
X157045671Y-83194030D01*
X157067849Y-83204520D01*
X157088893Y-83217133D01*
X157108598Y-83231747D01*
X157126777Y-83248223D01*
X157143253Y-83266402D01*
X157157867Y-83286107D01*
X157170480Y-83307151D01*
X157180970Y-83329329D01*
X157189235Y-83352429D01*
X157195196Y-83376227D01*
X157198796Y-83400496D01*
X157200000Y-83425000D01*
X157200000Y-85575000D01*
X157198796Y-85599504D01*
X157195196Y-85623773D01*
X157189235Y-85647571D01*
X157180970Y-85670671D01*
X157170480Y-85692849D01*
X157157867Y-85713893D01*
X157143253Y-85733598D01*
X157126777Y-85751777D01*
X157108598Y-85768253D01*
X157088893Y-85782867D01*
X157067849Y-85795480D01*
X157045671Y-85805970D01*
X157022571Y-85814235D01*
X156998773Y-85820196D01*
X156974504Y-85823796D01*
X156950000Y-85825000D01*
X156025000Y-85825000D01*
X156000496Y-85823796D01*
X155976227Y-85820196D01*
X155952429Y-85814235D01*
X155929329Y-85805970D01*
X155907151Y-85795480D01*
X155886107Y-85782867D01*
X155866402Y-85768253D01*
X155848223Y-85751777D01*
X155831747Y-85733598D01*
X155817133Y-85713893D01*
X155804520Y-85692849D01*
X155794030Y-85670671D01*
X155785765Y-85647571D01*
X155779804Y-85623773D01*
X155776204Y-85599504D01*
X155775000Y-85575000D01*
X155775000Y-83425000D01*
X155776204Y-83400496D01*
X155779804Y-83376227D01*
X155785765Y-83352429D01*
X155794030Y-83329329D01*
X155804520Y-83307151D01*
X155817133Y-83286107D01*
X155831747Y-83266402D01*
X155848223Y-83248223D01*
X155866402Y-83231747D01*
X155886107Y-83217133D01*
X155907151Y-83204520D01*
X155929329Y-83194030D01*
X155952429Y-83185765D01*
X155976227Y-83179804D01*
X156000496Y-83176204D01*
X156025000Y-83175000D01*
X156950000Y-83175000D01*
X156974504Y-83176204D01*
X156974504Y-83176204D01*
G37*
D23*
X156487500Y-84500000D03*
D12*
G36*
X153999504Y-83176204D02*
X154023773Y-83179804D01*
X154047571Y-83185765D01*
X154070671Y-83194030D01*
X154092849Y-83204520D01*
X154113893Y-83217133D01*
X154133598Y-83231747D01*
X154151777Y-83248223D01*
X154168253Y-83266402D01*
X154182867Y-83286107D01*
X154195480Y-83307151D01*
X154205970Y-83329329D01*
X154214235Y-83352429D01*
X154220196Y-83376227D01*
X154223796Y-83400496D01*
X154225000Y-83425000D01*
X154225000Y-85575000D01*
X154223796Y-85599504D01*
X154220196Y-85623773D01*
X154214235Y-85647571D01*
X154205970Y-85670671D01*
X154195480Y-85692849D01*
X154182867Y-85713893D01*
X154168253Y-85733598D01*
X154151777Y-85751777D01*
X154133598Y-85768253D01*
X154113893Y-85782867D01*
X154092849Y-85795480D01*
X154070671Y-85805970D01*
X154047571Y-85814235D01*
X154023773Y-85820196D01*
X153999504Y-85823796D01*
X153975000Y-85825000D01*
X153050000Y-85825000D01*
X153025496Y-85823796D01*
X153001227Y-85820196D01*
X152977429Y-85814235D01*
X152954329Y-85805970D01*
X152932151Y-85795480D01*
X152911107Y-85782867D01*
X152891402Y-85768253D01*
X152873223Y-85751777D01*
X152856747Y-85733598D01*
X152842133Y-85713893D01*
X152829520Y-85692849D01*
X152819030Y-85670671D01*
X152810765Y-85647571D01*
X152804804Y-85623773D01*
X152801204Y-85599504D01*
X152800000Y-85575000D01*
X152800000Y-83425000D01*
X152801204Y-83400496D01*
X152804804Y-83376227D01*
X152810765Y-83352429D01*
X152819030Y-83329329D01*
X152829520Y-83307151D01*
X152842133Y-83286107D01*
X152856747Y-83266402D01*
X152873223Y-83248223D01*
X152891402Y-83231747D01*
X152911107Y-83217133D01*
X152932151Y-83204520D01*
X152954329Y-83194030D01*
X152977429Y-83185765D01*
X153001227Y-83179804D01*
X153025496Y-83176204D01*
X153050000Y-83175000D01*
X153975000Y-83175000D01*
X153999504Y-83176204D01*
X153999504Y-83176204D01*
G37*
D23*
X153512500Y-84500000D03*
D12*
G36*
X163760779Y-87851144D02*
X163783834Y-87854563D01*
X163806443Y-87860227D01*
X163828387Y-87868079D01*
X163849457Y-87878044D01*
X163869448Y-87890026D01*
X163888168Y-87903910D01*
X163905438Y-87919562D01*
X163921090Y-87936832D01*
X163934974Y-87955552D01*
X163946956Y-87975543D01*
X163956921Y-87996613D01*
X163964773Y-88018557D01*
X163970437Y-88041166D01*
X163973856Y-88064221D01*
X163975000Y-88087500D01*
X163975000Y-88662500D01*
X163973856Y-88685779D01*
X163970437Y-88708834D01*
X163964773Y-88731443D01*
X163956921Y-88753387D01*
X163946956Y-88774457D01*
X163934974Y-88794448D01*
X163921090Y-88813168D01*
X163905438Y-88830438D01*
X163888168Y-88846090D01*
X163869448Y-88859974D01*
X163849457Y-88871956D01*
X163828387Y-88881921D01*
X163806443Y-88889773D01*
X163783834Y-88895437D01*
X163760779Y-88898856D01*
X163737500Y-88900000D01*
X163262500Y-88900000D01*
X163239221Y-88898856D01*
X163216166Y-88895437D01*
X163193557Y-88889773D01*
X163171613Y-88881921D01*
X163150543Y-88871956D01*
X163130552Y-88859974D01*
X163111832Y-88846090D01*
X163094562Y-88830438D01*
X163078910Y-88813168D01*
X163065026Y-88794448D01*
X163053044Y-88774457D01*
X163043079Y-88753387D01*
X163035227Y-88731443D01*
X163029563Y-88708834D01*
X163026144Y-88685779D01*
X163025000Y-88662500D01*
X163025000Y-88087500D01*
X163026144Y-88064221D01*
X163029563Y-88041166D01*
X163035227Y-88018557D01*
X163043079Y-87996613D01*
X163053044Y-87975543D01*
X163065026Y-87955552D01*
X163078910Y-87936832D01*
X163094562Y-87919562D01*
X163111832Y-87903910D01*
X163130552Y-87890026D01*
X163150543Y-87878044D01*
X163171613Y-87868079D01*
X163193557Y-87860227D01*
X163216166Y-87854563D01*
X163239221Y-87851144D01*
X163262500Y-87850000D01*
X163737500Y-87850000D01*
X163760779Y-87851144D01*
X163760779Y-87851144D01*
G37*
D13*
X163500000Y-88375000D03*
D12*
G36*
X163760779Y-86101144D02*
X163783834Y-86104563D01*
X163806443Y-86110227D01*
X163828387Y-86118079D01*
X163849457Y-86128044D01*
X163869448Y-86140026D01*
X163888168Y-86153910D01*
X163905438Y-86169562D01*
X163921090Y-86186832D01*
X163934974Y-86205552D01*
X163946956Y-86225543D01*
X163956921Y-86246613D01*
X163964773Y-86268557D01*
X163970437Y-86291166D01*
X163973856Y-86314221D01*
X163975000Y-86337500D01*
X163975000Y-86912500D01*
X163973856Y-86935779D01*
X163970437Y-86958834D01*
X163964773Y-86981443D01*
X163956921Y-87003387D01*
X163946956Y-87024457D01*
X163934974Y-87044448D01*
X163921090Y-87063168D01*
X163905438Y-87080438D01*
X163888168Y-87096090D01*
X163869448Y-87109974D01*
X163849457Y-87121956D01*
X163828387Y-87131921D01*
X163806443Y-87139773D01*
X163783834Y-87145437D01*
X163760779Y-87148856D01*
X163737500Y-87150000D01*
X163262500Y-87150000D01*
X163239221Y-87148856D01*
X163216166Y-87145437D01*
X163193557Y-87139773D01*
X163171613Y-87131921D01*
X163150543Y-87121956D01*
X163130552Y-87109974D01*
X163111832Y-87096090D01*
X163094562Y-87080438D01*
X163078910Y-87063168D01*
X163065026Y-87044448D01*
X163053044Y-87024457D01*
X163043079Y-87003387D01*
X163035227Y-86981443D01*
X163029563Y-86958834D01*
X163026144Y-86935779D01*
X163025000Y-86912500D01*
X163025000Y-86337500D01*
X163026144Y-86314221D01*
X163029563Y-86291166D01*
X163035227Y-86268557D01*
X163043079Y-86246613D01*
X163053044Y-86225543D01*
X163065026Y-86205552D01*
X163078910Y-86186832D01*
X163094562Y-86169562D01*
X163111832Y-86153910D01*
X163130552Y-86140026D01*
X163150543Y-86128044D01*
X163171613Y-86118079D01*
X163193557Y-86110227D01*
X163216166Y-86104563D01*
X163239221Y-86101144D01*
X163262500Y-86100000D01*
X163737500Y-86100000D01*
X163760779Y-86101144D01*
X163760779Y-86101144D01*
G37*
D13*
X163500000Y-86625000D03*
D12*
G36*
X154649504Y-94776204D02*
X154673773Y-94779804D01*
X154697571Y-94785765D01*
X154720671Y-94794030D01*
X154742849Y-94804520D01*
X154763893Y-94817133D01*
X154783598Y-94831747D01*
X154801777Y-94848223D01*
X154818253Y-94866402D01*
X154832867Y-94886107D01*
X154845480Y-94907151D01*
X154855970Y-94929329D01*
X154864235Y-94952429D01*
X154870196Y-94976227D01*
X154873796Y-95000496D01*
X154875000Y-95025000D01*
X154875000Y-95950000D01*
X154873796Y-95974504D01*
X154870196Y-95998773D01*
X154864235Y-96022571D01*
X154855970Y-96045671D01*
X154845480Y-96067849D01*
X154832867Y-96088893D01*
X154818253Y-96108598D01*
X154801777Y-96126777D01*
X154783598Y-96143253D01*
X154763893Y-96157867D01*
X154742849Y-96170480D01*
X154720671Y-96180970D01*
X154697571Y-96189235D01*
X154673773Y-96195196D01*
X154649504Y-96198796D01*
X154625000Y-96200000D01*
X153375000Y-96200000D01*
X153350496Y-96198796D01*
X153326227Y-96195196D01*
X153302429Y-96189235D01*
X153279329Y-96180970D01*
X153257151Y-96170480D01*
X153236107Y-96157867D01*
X153216402Y-96143253D01*
X153198223Y-96126777D01*
X153181747Y-96108598D01*
X153167133Y-96088893D01*
X153154520Y-96067849D01*
X153144030Y-96045671D01*
X153135765Y-96022571D01*
X153129804Y-95998773D01*
X153126204Y-95974504D01*
X153125000Y-95950000D01*
X153125000Y-95025000D01*
X153126204Y-95000496D01*
X153129804Y-94976227D01*
X153135765Y-94952429D01*
X153144030Y-94929329D01*
X153154520Y-94907151D01*
X153167133Y-94886107D01*
X153181747Y-94866402D01*
X153198223Y-94848223D01*
X153216402Y-94831747D01*
X153236107Y-94817133D01*
X153257151Y-94804520D01*
X153279329Y-94794030D01*
X153302429Y-94785765D01*
X153326227Y-94779804D01*
X153350496Y-94776204D01*
X153375000Y-94775000D01*
X154625000Y-94775000D01*
X154649504Y-94776204D01*
X154649504Y-94776204D01*
G37*
D23*
X154000000Y-95487500D03*
D12*
G36*
X154649504Y-91801204D02*
X154673773Y-91804804D01*
X154697571Y-91810765D01*
X154720671Y-91819030D01*
X154742849Y-91829520D01*
X154763893Y-91842133D01*
X154783598Y-91856747D01*
X154801777Y-91873223D01*
X154818253Y-91891402D01*
X154832867Y-91911107D01*
X154845480Y-91932151D01*
X154855970Y-91954329D01*
X154864235Y-91977429D01*
X154870196Y-92001227D01*
X154873796Y-92025496D01*
X154875000Y-92050000D01*
X154875000Y-92975000D01*
X154873796Y-92999504D01*
X154870196Y-93023773D01*
X154864235Y-93047571D01*
X154855970Y-93070671D01*
X154845480Y-93092849D01*
X154832867Y-93113893D01*
X154818253Y-93133598D01*
X154801777Y-93151777D01*
X154783598Y-93168253D01*
X154763893Y-93182867D01*
X154742849Y-93195480D01*
X154720671Y-93205970D01*
X154697571Y-93214235D01*
X154673773Y-93220196D01*
X154649504Y-93223796D01*
X154625000Y-93225000D01*
X153375000Y-93225000D01*
X153350496Y-93223796D01*
X153326227Y-93220196D01*
X153302429Y-93214235D01*
X153279329Y-93205970D01*
X153257151Y-93195480D01*
X153236107Y-93182867D01*
X153216402Y-93168253D01*
X153198223Y-93151777D01*
X153181747Y-93133598D01*
X153167133Y-93113893D01*
X153154520Y-93092849D01*
X153144030Y-93070671D01*
X153135765Y-93047571D01*
X153129804Y-93023773D01*
X153126204Y-92999504D01*
X153125000Y-92975000D01*
X153125000Y-92050000D01*
X153126204Y-92025496D01*
X153129804Y-92001227D01*
X153135765Y-91977429D01*
X153144030Y-91954329D01*
X153154520Y-91932151D01*
X153167133Y-91911107D01*
X153181747Y-91891402D01*
X153198223Y-91873223D01*
X153216402Y-91856747D01*
X153236107Y-91842133D01*
X153257151Y-91829520D01*
X153279329Y-91819030D01*
X153302429Y-91810765D01*
X153326227Y-91804804D01*
X153350496Y-91801204D01*
X153375000Y-91800000D01*
X154625000Y-91800000D01*
X154649504Y-91801204D01*
X154649504Y-91801204D01*
G37*
D23*
X154000000Y-92512500D03*
D12*
G36*
X148760779Y-119601144D02*
X148783834Y-119604563D01*
X148806443Y-119610227D01*
X148828387Y-119618079D01*
X148849457Y-119628044D01*
X148869448Y-119640026D01*
X148888168Y-119653910D01*
X148905438Y-119669562D01*
X148921090Y-119686832D01*
X148934974Y-119705552D01*
X148946956Y-119725543D01*
X148956921Y-119746613D01*
X148964773Y-119768557D01*
X148970437Y-119791166D01*
X148973856Y-119814221D01*
X148975000Y-119837500D01*
X148975000Y-120412500D01*
X148973856Y-120435779D01*
X148970437Y-120458834D01*
X148964773Y-120481443D01*
X148956921Y-120503387D01*
X148946956Y-120524457D01*
X148934974Y-120544448D01*
X148921090Y-120563168D01*
X148905438Y-120580438D01*
X148888168Y-120596090D01*
X148869448Y-120609974D01*
X148849457Y-120621956D01*
X148828387Y-120631921D01*
X148806443Y-120639773D01*
X148783834Y-120645437D01*
X148760779Y-120648856D01*
X148737500Y-120650000D01*
X148262500Y-120650000D01*
X148239221Y-120648856D01*
X148216166Y-120645437D01*
X148193557Y-120639773D01*
X148171613Y-120631921D01*
X148150543Y-120621956D01*
X148130552Y-120609974D01*
X148111832Y-120596090D01*
X148094562Y-120580438D01*
X148078910Y-120563168D01*
X148065026Y-120544448D01*
X148053044Y-120524457D01*
X148043079Y-120503387D01*
X148035227Y-120481443D01*
X148029563Y-120458834D01*
X148026144Y-120435779D01*
X148025000Y-120412500D01*
X148025000Y-119837500D01*
X148026144Y-119814221D01*
X148029563Y-119791166D01*
X148035227Y-119768557D01*
X148043079Y-119746613D01*
X148053044Y-119725543D01*
X148065026Y-119705552D01*
X148078910Y-119686832D01*
X148094562Y-119669562D01*
X148111832Y-119653910D01*
X148130552Y-119640026D01*
X148150543Y-119628044D01*
X148171613Y-119618079D01*
X148193557Y-119610227D01*
X148216166Y-119604563D01*
X148239221Y-119601144D01*
X148262500Y-119600000D01*
X148737500Y-119600000D01*
X148760779Y-119601144D01*
X148760779Y-119601144D01*
G37*
D13*
X148500000Y-120125000D03*
D12*
G36*
X148760779Y-121351144D02*
X148783834Y-121354563D01*
X148806443Y-121360227D01*
X148828387Y-121368079D01*
X148849457Y-121378044D01*
X148869448Y-121390026D01*
X148888168Y-121403910D01*
X148905438Y-121419562D01*
X148921090Y-121436832D01*
X148934974Y-121455552D01*
X148946956Y-121475543D01*
X148956921Y-121496613D01*
X148964773Y-121518557D01*
X148970437Y-121541166D01*
X148973856Y-121564221D01*
X148975000Y-121587500D01*
X148975000Y-122162500D01*
X148973856Y-122185779D01*
X148970437Y-122208834D01*
X148964773Y-122231443D01*
X148956921Y-122253387D01*
X148946956Y-122274457D01*
X148934974Y-122294448D01*
X148921090Y-122313168D01*
X148905438Y-122330438D01*
X148888168Y-122346090D01*
X148869448Y-122359974D01*
X148849457Y-122371956D01*
X148828387Y-122381921D01*
X148806443Y-122389773D01*
X148783834Y-122395437D01*
X148760779Y-122398856D01*
X148737500Y-122400000D01*
X148262500Y-122400000D01*
X148239221Y-122398856D01*
X148216166Y-122395437D01*
X148193557Y-122389773D01*
X148171613Y-122381921D01*
X148150543Y-122371956D01*
X148130552Y-122359974D01*
X148111832Y-122346090D01*
X148094562Y-122330438D01*
X148078910Y-122313168D01*
X148065026Y-122294448D01*
X148053044Y-122274457D01*
X148043079Y-122253387D01*
X148035227Y-122231443D01*
X148029563Y-122208834D01*
X148026144Y-122185779D01*
X148025000Y-122162500D01*
X148025000Y-121587500D01*
X148026144Y-121564221D01*
X148029563Y-121541166D01*
X148035227Y-121518557D01*
X148043079Y-121496613D01*
X148053044Y-121475543D01*
X148065026Y-121455552D01*
X148078910Y-121436832D01*
X148094562Y-121419562D01*
X148111832Y-121403910D01*
X148130552Y-121390026D01*
X148150543Y-121378044D01*
X148171613Y-121368079D01*
X148193557Y-121360227D01*
X148216166Y-121354563D01*
X148239221Y-121351144D01*
X148262500Y-121350000D01*
X148737500Y-121350000D01*
X148760779Y-121351144D01*
X148760779Y-121351144D01*
G37*
D13*
X148500000Y-121875000D03*
D12*
G36*
X136435779Y-121276144D02*
X136458834Y-121279563D01*
X136481443Y-121285227D01*
X136503387Y-121293079D01*
X136524457Y-121303044D01*
X136544448Y-121315026D01*
X136563168Y-121328910D01*
X136580438Y-121344562D01*
X136596090Y-121361832D01*
X136609974Y-121380552D01*
X136621956Y-121400543D01*
X136631921Y-121421613D01*
X136639773Y-121443557D01*
X136645437Y-121466166D01*
X136648856Y-121489221D01*
X136650000Y-121512500D01*
X136650000Y-121987500D01*
X136648856Y-122010779D01*
X136645437Y-122033834D01*
X136639773Y-122056443D01*
X136631921Y-122078387D01*
X136621956Y-122099457D01*
X136609974Y-122119448D01*
X136596090Y-122138168D01*
X136580438Y-122155438D01*
X136563168Y-122171090D01*
X136544448Y-122184974D01*
X136524457Y-122196956D01*
X136503387Y-122206921D01*
X136481443Y-122214773D01*
X136458834Y-122220437D01*
X136435779Y-122223856D01*
X136412500Y-122225000D01*
X135837500Y-122225000D01*
X135814221Y-122223856D01*
X135791166Y-122220437D01*
X135768557Y-122214773D01*
X135746613Y-122206921D01*
X135725543Y-122196956D01*
X135705552Y-122184974D01*
X135686832Y-122171090D01*
X135669562Y-122155438D01*
X135653910Y-122138168D01*
X135640026Y-122119448D01*
X135628044Y-122099457D01*
X135618079Y-122078387D01*
X135610227Y-122056443D01*
X135604563Y-122033834D01*
X135601144Y-122010779D01*
X135600000Y-121987500D01*
X135600000Y-121512500D01*
X135601144Y-121489221D01*
X135604563Y-121466166D01*
X135610227Y-121443557D01*
X135618079Y-121421613D01*
X135628044Y-121400543D01*
X135640026Y-121380552D01*
X135653910Y-121361832D01*
X135669562Y-121344562D01*
X135686832Y-121328910D01*
X135705552Y-121315026D01*
X135725543Y-121303044D01*
X135746613Y-121293079D01*
X135768557Y-121285227D01*
X135791166Y-121279563D01*
X135814221Y-121276144D01*
X135837500Y-121275000D01*
X136412500Y-121275000D01*
X136435779Y-121276144D01*
X136435779Y-121276144D01*
G37*
D13*
X136125000Y-121750000D03*
D12*
G36*
X134685779Y-121276144D02*
X134708834Y-121279563D01*
X134731443Y-121285227D01*
X134753387Y-121293079D01*
X134774457Y-121303044D01*
X134794448Y-121315026D01*
X134813168Y-121328910D01*
X134830438Y-121344562D01*
X134846090Y-121361832D01*
X134859974Y-121380552D01*
X134871956Y-121400543D01*
X134881921Y-121421613D01*
X134889773Y-121443557D01*
X134895437Y-121466166D01*
X134898856Y-121489221D01*
X134900000Y-121512500D01*
X134900000Y-121987500D01*
X134898856Y-122010779D01*
X134895437Y-122033834D01*
X134889773Y-122056443D01*
X134881921Y-122078387D01*
X134871956Y-122099457D01*
X134859974Y-122119448D01*
X134846090Y-122138168D01*
X134830438Y-122155438D01*
X134813168Y-122171090D01*
X134794448Y-122184974D01*
X134774457Y-122196956D01*
X134753387Y-122206921D01*
X134731443Y-122214773D01*
X134708834Y-122220437D01*
X134685779Y-122223856D01*
X134662500Y-122225000D01*
X134087500Y-122225000D01*
X134064221Y-122223856D01*
X134041166Y-122220437D01*
X134018557Y-122214773D01*
X133996613Y-122206921D01*
X133975543Y-122196956D01*
X133955552Y-122184974D01*
X133936832Y-122171090D01*
X133919562Y-122155438D01*
X133903910Y-122138168D01*
X133890026Y-122119448D01*
X133878044Y-122099457D01*
X133868079Y-122078387D01*
X133860227Y-122056443D01*
X133854563Y-122033834D01*
X133851144Y-122010779D01*
X133850000Y-121987500D01*
X133850000Y-121512500D01*
X133851144Y-121489221D01*
X133854563Y-121466166D01*
X133860227Y-121443557D01*
X133868079Y-121421613D01*
X133878044Y-121400543D01*
X133890026Y-121380552D01*
X133903910Y-121361832D01*
X133919562Y-121344562D01*
X133936832Y-121328910D01*
X133955552Y-121315026D01*
X133975543Y-121303044D01*
X133996613Y-121293079D01*
X134018557Y-121285227D01*
X134041166Y-121279563D01*
X134064221Y-121276144D01*
X134087500Y-121275000D01*
X134662500Y-121275000D01*
X134685779Y-121276144D01*
X134685779Y-121276144D01*
G37*
D13*
X134375000Y-121750000D03*
D12*
G36*
X141824505Y-96301204D02*
X141848773Y-96304804D01*
X141872572Y-96310765D01*
X141895671Y-96319030D01*
X141917850Y-96329520D01*
X141938893Y-96342132D01*
X141958599Y-96356747D01*
X141976777Y-96373223D01*
X141993253Y-96391401D01*
X142007868Y-96411107D01*
X142020480Y-96432150D01*
X142030970Y-96454329D01*
X142039235Y-96477428D01*
X142045196Y-96501227D01*
X142048796Y-96525495D01*
X142050000Y-96549999D01*
X142050000Y-97450001D01*
X142048796Y-97474505D01*
X142045196Y-97498773D01*
X142039235Y-97522572D01*
X142030970Y-97545671D01*
X142020480Y-97567850D01*
X142007868Y-97588893D01*
X141993253Y-97608599D01*
X141976777Y-97626777D01*
X141958599Y-97643253D01*
X141938893Y-97657868D01*
X141917850Y-97670480D01*
X141895671Y-97680970D01*
X141872572Y-97689235D01*
X141848773Y-97695196D01*
X141824505Y-97698796D01*
X141800001Y-97700000D01*
X141149999Y-97700000D01*
X141125495Y-97698796D01*
X141101227Y-97695196D01*
X141077428Y-97689235D01*
X141054329Y-97680970D01*
X141032150Y-97670480D01*
X141011107Y-97657868D01*
X140991401Y-97643253D01*
X140973223Y-97626777D01*
X140956747Y-97608599D01*
X140942132Y-97588893D01*
X140929520Y-97567850D01*
X140919030Y-97545671D01*
X140910765Y-97522572D01*
X140904804Y-97498773D01*
X140901204Y-97474505D01*
X140900000Y-97450001D01*
X140900000Y-96549999D01*
X140901204Y-96525495D01*
X140904804Y-96501227D01*
X140910765Y-96477428D01*
X140919030Y-96454329D01*
X140929520Y-96432150D01*
X140942132Y-96411107D01*
X140956747Y-96391401D01*
X140973223Y-96373223D01*
X140991401Y-96356747D01*
X141011107Y-96342132D01*
X141032150Y-96329520D01*
X141054329Y-96319030D01*
X141077428Y-96310765D01*
X141101227Y-96304804D01*
X141125495Y-96301204D01*
X141149999Y-96300000D01*
X141800001Y-96300000D01*
X141824505Y-96301204D01*
X141824505Y-96301204D01*
G37*
D24*
X141475000Y-97000000D03*
D12*
G36*
X143874505Y-96301204D02*
X143898773Y-96304804D01*
X143922572Y-96310765D01*
X143945671Y-96319030D01*
X143967850Y-96329520D01*
X143988893Y-96342132D01*
X144008599Y-96356747D01*
X144026777Y-96373223D01*
X144043253Y-96391401D01*
X144057868Y-96411107D01*
X144070480Y-96432150D01*
X144080970Y-96454329D01*
X144089235Y-96477428D01*
X144095196Y-96501227D01*
X144098796Y-96525495D01*
X144100000Y-96549999D01*
X144100000Y-97450001D01*
X144098796Y-97474505D01*
X144095196Y-97498773D01*
X144089235Y-97522572D01*
X144080970Y-97545671D01*
X144070480Y-97567850D01*
X144057868Y-97588893D01*
X144043253Y-97608599D01*
X144026777Y-97626777D01*
X144008599Y-97643253D01*
X143988893Y-97657868D01*
X143967850Y-97670480D01*
X143945671Y-97680970D01*
X143922572Y-97689235D01*
X143898773Y-97695196D01*
X143874505Y-97698796D01*
X143850001Y-97700000D01*
X143199999Y-97700000D01*
X143175495Y-97698796D01*
X143151227Y-97695196D01*
X143127428Y-97689235D01*
X143104329Y-97680970D01*
X143082150Y-97670480D01*
X143061107Y-97657868D01*
X143041401Y-97643253D01*
X143023223Y-97626777D01*
X143006747Y-97608599D01*
X142992132Y-97588893D01*
X142979520Y-97567850D01*
X142969030Y-97545671D01*
X142960765Y-97522572D01*
X142954804Y-97498773D01*
X142951204Y-97474505D01*
X142950000Y-97450001D01*
X142950000Y-96549999D01*
X142951204Y-96525495D01*
X142954804Y-96501227D01*
X142960765Y-96477428D01*
X142969030Y-96454329D01*
X142979520Y-96432150D01*
X142992132Y-96411107D01*
X143006747Y-96391401D01*
X143023223Y-96373223D01*
X143041401Y-96356747D01*
X143061107Y-96342132D01*
X143082150Y-96329520D01*
X143104329Y-96319030D01*
X143127428Y-96310765D01*
X143151227Y-96304804D01*
X143175495Y-96301204D01*
X143199999Y-96300000D01*
X143850001Y-96300000D01*
X143874505Y-96301204D01*
X143874505Y-96301204D01*
G37*
D24*
X143525000Y-97000000D03*
D12*
G36*
X135760779Y-110351144D02*
X135783834Y-110354563D01*
X135806443Y-110360227D01*
X135828387Y-110368079D01*
X135849457Y-110378044D01*
X135869448Y-110390026D01*
X135888168Y-110403910D01*
X135905438Y-110419562D01*
X135921090Y-110436832D01*
X135934974Y-110455552D01*
X135946956Y-110475543D01*
X135956921Y-110496613D01*
X135964773Y-110518557D01*
X135970437Y-110541166D01*
X135973856Y-110564221D01*
X135975000Y-110587500D01*
X135975000Y-111162500D01*
X135973856Y-111185779D01*
X135970437Y-111208834D01*
X135964773Y-111231443D01*
X135956921Y-111253387D01*
X135946956Y-111274457D01*
X135934974Y-111294448D01*
X135921090Y-111313168D01*
X135905438Y-111330438D01*
X135888168Y-111346090D01*
X135869448Y-111359974D01*
X135849457Y-111371956D01*
X135828387Y-111381921D01*
X135806443Y-111389773D01*
X135783834Y-111395437D01*
X135760779Y-111398856D01*
X135737500Y-111400000D01*
X135262500Y-111400000D01*
X135239221Y-111398856D01*
X135216166Y-111395437D01*
X135193557Y-111389773D01*
X135171613Y-111381921D01*
X135150543Y-111371956D01*
X135130552Y-111359974D01*
X135111832Y-111346090D01*
X135094562Y-111330438D01*
X135078910Y-111313168D01*
X135065026Y-111294448D01*
X135053044Y-111274457D01*
X135043079Y-111253387D01*
X135035227Y-111231443D01*
X135029563Y-111208834D01*
X135026144Y-111185779D01*
X135025000Y-111162500D01*
X135025000Y-110587500D01*
X135026144Y-110564221D01*
X135029563Y-110541166D01*
X135035227Y-110518557D01*
X135043079Y-110496613D01*
X135053044Y-110475543D01*
X135065026Y-110455552D01*
X135078910Y-110436832D01*
X135094562Y-110419562D01*
X135111832Y-110403910D01*
X135130552Y-110390026D01*
X135150543Y-110378044D01*
X135171613Y-110368079D01*
X135193557Y-110360227D01*
X135216166Y-110354563D01*
X135239221Y-110351144D01*
X135262500Y-110350000D01*
X135737500Y-110350000D01*
X135760779Y-110351144D01*
X135760779Y-110351144D01*
G37*
D13*
X135500000Y-110875000D03*
D12*
G36*
X135760779Y-108601144D02*
X135783834Y-108604563D01*
X135806443Y-108610227D01*
X135828387Y-108618079D01*
X135849457Y-108628044D01*
X135869448Y-108640026D01*
X135888168Y-108653910D01*
X135905438Y-108669562D01*
X135921090Y-108686832D01*
X135934974Y-108705552D01*
X135946956Y-108725543D01*
X135956921Y-108746613D01*
X135964773Y-108768557D01*
X135970437Y-108791166D01*
X135973856Y-108814221D01*
X135975000Y-108837500D01*
X135975000Y-109412500D01*
X135973856Y-109435779D01*
X135970437Y-109458834D01*
X135964773Y-109481443D01*
X135956921Y-109503387D01*
X135946956Y-109524457D01*
X135934974Y-109544448D01*
X135921090Y-109563168D01*
X135905438Y-109580438D01*
X135888168Y-109596090D01*
X135869448Y-109609974D01*
X135849457Y-109621956D01*
X135828387Y-109631921D01*
X135806443Y-109639773D01*
X135783834Y-109645437D01*
X135760779Y-109648856D01*
X135737500Y-109650000D01*
X135262500Y-109650000D01*
X135239221Y-109648856D01*
X135216166Y-109645437D01*
X135193557Y-109639773D01*
X135171613Y-109631921D01*
X135150543Y-109621956D01*
X135130552Y-109609974D01*
X135111832Y-109596090D01*
X135094562Y-109580438D01*
X135078910Y-109563168D01*
X135065026Y-109544448D01*
X135053044Y-109524457D01*
X135043079Y-109503387D01*
X135035227Y-109481443D01*
X135029563Y-109458834D01*
X135026144Y-109435779D01*
X135025000Y-109412500D01*
X135025000Y-108837500D01*
X135026144Y-108814221D01*
X135029563Y-108791166D01*
X135035227Y-108768557D01*
X135043079Y-108746613D01*
X135053044Y-108725543D01*
X135065026Y-108705552D01*
X135078910Y-108686832D01*
X135094562Y-108669562D01*
X135111832Y-108653910D01*
X135130552Y-108640026D01*
X135150543Y-108628044D01*
X135171613Y-108618079D01*
X135193557Y-108610227D01*
X135216166Y-108604563D01*
X135239221Y-108601144D01*
X135262500Y-108600000D01*
X135737500Y-108600000D01*
X135760779Y-108601144D01*
X135760779Y-108601144D01*
G37*
D13*
X135500000Y-109125000D03*
D12*
G36*
X154185779Y-121276144D02*
X154208834Y-121279563D01*
X154231443Y-121285227D01*
X154253387Y-121293079D01*
X154274457Y-121303044D01*
X154294448Y-121315026D01*
X154313168Y-121328910D01*
X154330438Y-121344562D01*
X154346090Y-121361832D01*
X154359974Y-121380552D01*
X154371956Y-121400543D01*
X154381921Y-121421613D01*
X154389773Y-121443557D01*
X154395437Y-121466166D01*
X154398856Y-121489221D01*
X154400000Y-121512500D01*
X154400000Y-121987500D01*
X154398856Y-122010779D01*
X154395437Y-122033834D01*
X154389773Y-122056443D01*
X154381921Y-122078387D01*
X154371956Y-122099457D01*
X154359974Y-122119448D01*
X154346090Y-122138168D01*
X154330438Y-122155438D01*
X154313168Y-122171090D01*
X154294448Y-122184974D01*
X154274457Y-122196956D01*
X154253387Y-122206921D01*
X154231443Y-122214773D01*
X154208834Y-122220437D01*
X154185779Y-122223856D01*
X154162500Y-122225000D01*
X153587500Y-122225000D01*
X153564221Y-122223856D01*
X153541166Y-122220437D01*
X153518557Y-122214773D01*
X153496613Y-122206921D01*
X153475543Y-122196956D01*
X153455552Y-122184974D01*
X153436832Y-122171090D01*
X153419562Y-122155438D01*
X153403910Y-122138168D01*
X153390026Y-122119448D01*
X153378044Y-122099457D01*
X153368079Y-122078387D01*
X153360227Y-122056443D01*
X153354563Y-122033834D01*
X153351144Y-122010779D01*
X153350000Y-121987500D01*
X153350000Y-121512500D01*
X153351144Y-121489221D01*
X153354563Y-121466166D01*
X153360227Y-121443557D01*
X153368079Y-121421613D01*
X153378044Y-121400543D01*
X153390026Y-121380552D01*
X153403910Y-121361832D01*
X153419562Y-121344562D01*
X153436832Y-121328910D01*
X153455552Y-121315026D01*
X153475543Y-121303044D01*
X153496613Y-121293079D01*
X153518557Y-121285227D01*
X153541166Y-121279563D01*
X153564221Y-121276144D01*
X153587500Y-121275000D01*
X154162500Y-121275000D01*
X154185779Y-121276144D01*
X154185779Y-121276144D01*
G37*
D13*
X153875000Y-121750000D03*
D12*
G36*
X155935779Y-121276144D02*
X155958834Y-121279563D01*
X155981443Y-121285227D01*
X156003387Y-121293079D01*
X156024457Y-121303044D01*
X156044448Y-121315026D01*
X156063168Y-121328910D01*
X156080438Y-121344562D01*
X156096090Y-121361832D01*
X156109974Y-121380552D01*
X156121956Y-121400543D01*
X156131921Y-121421613D01*
X156139773Y-121443557D01*
X156145437Y-121466166D01*
X156148856Y-121489221D01*
X156150000Y-121512500D01*
X156150000Y-121987500D01*
X156148856Y-122010779D01*
X156145437Y-122033834D01*
X156139773Y-122056443D01*
X156131921Y-122078387D01*
X156121956Y-122099457D01*
X156109974Y-122119448D01*
X156096090Y-122138168D01*
X156080438Y-122155438D01*
X156063168Y-122171090D01*
X156044448Y-122184974D01*
X156024457Y-122196956D01*
X156003387Y-122206921D01*
X155981443Y-122214773D01*
X155958834Y-122220437D01*
X155935779Y-122223856D01*
X155912500Y-122225000D01*
X155337500Y-122225000D01*
X155314221Y-122223856D01*
X155291166Y-122220437D01*
X155268557Y-122214773D01*
X155246613Y-122206921D01*
X155225543Y-122196956D01*
X155205552Y-122184974D01*
X155186832Y-122171090D01*
X155169562Y-122155438D01*
X155153910Y-122138168D01*
X155140026Y-122119448D01*
X155128044Y-122099457D01*
X155118079Y-122078387D01*
X155110227Y-122056443D01*
X155104563Y-122033834D01*
X155101144Y-122010779D01*
X155100000Y-121987500D01*
X155100000Y-121512500D01*
X155101144Y-121489221D01*
X155104563Y-121466166D01*
X155110227Y-121443557D01*
X155118079Y-121421613D01*
X155128044Y-121400543D01*
X155140026Y-121380552D01*
X155153910Y-121361832D01*
X155169562Y-121344562D01*
X155186832Y-121328910D01*
X155205552Y-121315026D01*
X155225543Y-121303044D01*
X155246613Y-121293079D01*
X155268557Y-121285227D01*
X155291166Y-121279563D01*
X155314221Y-121276144D01*
X155337500Y-121275000D01*
X155912500Y-121275000D01*
X155935779Y-121276144D01*
X155935779Y-121276144D01*
G37*
D13*
X155625000Y-121750000D03*
D12*
G36*
X146935779Y-110276144D02*
X146958834Y-110279563D01*
X146981443Y-110285227D01*
X147003387Y-110293079D01*
X147024457Y-110303044D01*
X147044448Y-110315026D01*
X147063168Y-110328910D01*
X147080438Y-110344562D01*
X147096090Y-110361832D01*
X147109974Y-110380552D01*
X147121956Y-110400543D01*
X147131921Y-110421613D01*
X147139773Y-110443557D01*
X147145437Y-110466166D01*
X147148856Y-110489221D01*
X147150000Y-110512500D01*
X147150000Y-110987500D01*
X147148856Y-111010779D01*
X147145437Y-111033834D01*
X147139773Y-111056443D01*
X147131921Y-111078387D01*
X147121956Y-111099457D01*
X147109974Y-111119448D01*
X147096090Y-111138168D01*
X147080438Y-111155438D01*
X147063168Y-111171090D01*
X147044448Y-111184974D01*
X147024457Y-111196956D01*
X147003387Y-111206921D01*
X146981443Y-111214773D01*
X146958834Y-111220437D01*
X146935779Y-111223856D01*
X146912500Y-111225000D01*
X146337500Y-111225000D01*
X146314221Y-111223856D01*
X146291166Y-111220437D01*
X146268557Y-111214773D01*
X146246613Y-111206921D01*
X146225543Y-111196956D01*
X146205552Y-111184974D01*
X146186832Y-111171090D01*
X146169562Y-111155438D01*
X146153910Y-111138168D01*
X146140026Y-111119448D01*
X146128044Y-111099457D01*
X146118079Y-111078387D01*
X146110227Y-111056443D01*
X146104563Y-111033834D01*
X146101144Y-111010779D01*
X146100000Y-110987500D01*
X146100000Y-110512500D01*
X146101144Y-110489221D01*
X146104563Y-110466166D01*
X146110227Y-110443557D01*
X146118079Y-110421613D01*
X146128044Y-110400543D01*
X146140026Y-110380552D01*
X146153910Y-110361832D01*
X146169562Y-110344562D01*
X146186832Y-110328910D01*
X146205552Y-110315026D01*
X146225543Y-110303044D01*
X146246613Y-110293079D01*
X146268557Y-110285227D01*
X146291166Y-110279563D01*
X146314221Y-110276144D01*
X146337500Y-110275000D01*
X146912500Y-110275000D01*
X146935779Y-110276144D01*
X146935779Y-110276144D01*
G37*
D13*
X146625000Y-110750000D03*
D12*
G36*
X148685779Y-110276144D02*
X148708834Y-110279563D01*
X148731443Y-110285227D01*
X148753387Y-110293079D01*
X148774457Y-110303044D01*
X148794448Y-110315026D01*
X148813168Y-110328910D01*
X148830438Y-110344562D01*
X148846090Y-110361832D01*
X148859974Y-110380552D01*
X148871956Y-110400543D01*
X148881921Y-110421613D01*
X148889773Y-110443557D01*
X148895437Y-110466166D01*
X148898856Y-110489221D01*
X148900000Y-110512500D01*
X148900000Y-110987500D01*
X148898856Y-111010779D01*
X148895437Y-111033834D01*
X148889773Y-111056443D01*
X148881921Y-111078387D01*
X148871956Y-111099457D01*
X148859974Y-111119448D01*
X148846090Y-111138168D01*
X148830438Y-111155438D01*
X148813168Y-111171090D01*
X148794448Y-111184974D01*
X148774457Y-111196956D01*
X148753387Y-111206921D01*
X148731443Y-111214773D01*
X148708834Y-111220437D01*
X148685779Y-111223856D01*
X148662500Y-111225000D01*
X148087500Y-111225000D01*
X148064221Y-111223856D01*
X148041166Y-111220437D01*
X148018557Y-111214773D01*
X147996613Y-111206921D01*
X147975543Y-111196956D01*
X147955552Y-111184974D01*
X147936832Y-111171090D01*
X147919562Y-111155438D01*
X147903910Y-111138168D01*
X147890026Y-111119448D01*
X147878044Y-111099457D01*
X147868079Y-111078387D01*
X147860227Y-111056443D01*
X147854563Y-111033834D01*
X147851144Y-111010779D01*
X147850000Y-110987500D01*
X147850000Y-110512500D01*
X147851144Y-110489221D01*
X147854563Y-110466166D01*
X147860227Y-110443557D01*
X147868079Y-110421613D01*
X147878044Y-110400543D01*
X147890026Y-110380552D01*
X147903910Y-110361832D01*
X147919562Y-110344562D01*
X147936832Y-110328910D01*
X147955552Y-110315026D01*
X147975543Y-110303044D01*
X147996613Y-110293079D01*
X148018557Y-110285227D01*
X148041166Y-110279563D01*
X148064221Y-110276144D01*
X148087500Y-110275000D01*
X148662500Y-110275000D01*
X148685779Y-110276144D01*
X148685779Y-110276144D01*
G37*
D13*
X148375000Y-110750000D03*
D12*
G36*
X141935779Y-98276144D02*
X141958834Y-98279563D01*
X141981443Y-98285227D01*
X142003387Y-98293079D01*
X142024457Y-98303044D01*
X142044448Y-98315026D01*
X142063168Y-98328910D01*
X142080438Y-98344562D01*
X142096090Y-98361832D01*
X142109974Y-98380552D01*
X142121956Y-98400543D01*
X142131921Y-98421613D01*
X142139773Y-98443557D01*
X142145437Y-98466166D01*
X142148856Y-98489221D01*
X142150000Y-98512500D01*
X142150000Y-98987500D01*
X142148856Y-99010779D01*
X142145437Y-99033834D01*
X142139773Y-99056443D01*
X142131921Y-99078387D01*
X142121956Y-99099457D01*
X142109974Y-99119448D01*
X142096090Y-99138168D01*
X142080438Y-99155438D01*
X142063168Y-99171090D01*
X142044448Y-99184974D01*
X142024457Y-99196956D01*
X142003387Y-99206921D01*
X141981443Y-99214773D01*
X141958834Y-99220437D01*
X141935779Y-99223856D01*
X141912500Y-99225000D01*
X141337500Y-99225000D01*
X141314221Y-99223856D01*
X141291166Y-99220437D01*
X141268557Y-99214773D01*
X141246613Y-99206921D01*
X141225543Y-99196956D01*
X141205552Y-99184974D01*
X141186832Y-99171090D01*
X141169562Y-99155438D01*
X141153910Y-99138168D01*
X141140026Y-99119448D01*
X141128044Y-99099457D01*
X141118079Y-99078387D01*
X141110227Y-99056443D01*
X141104563Y-99033834D01*
X141101144Y-99010779D01*
X141100000Y-98987500D01*
X141100000Y-98512500D01*
X141101144Y-98489221D01*
X141104563Y-98466166D01*
X141110227Y-98443557D01*
X141118079Y-98421613D01*
X141128044Y-98400543D01*
X141140026Y-98380552D01*
X141153910Y-98361832D01*
X141169562Y-98344562D01*
X141186832Y-98328910D01*
X141205552Y-98315026D01*
X141225543Y-98303044D01*
X141246613Y-98293079D01*
X141268557Y-98285227D01*
X141291166Y-98279563D01*
X141314221Y-98276144D01*
X141337500Y-98275000D01*
X141912500Y-98275000D01*
X141935779Y-98276144D01*
X141935779Y-98276144D01*
G37*
D13*
X141625000Y-98750000D03*
D12*
G36*
X143685779Y-98276144D02*
X143708834Y-98279563D01*
X143731443Y-98285227D01*
X143753387Y-98293079D01*
X143774457Y-98303044D01*
X143794448Y-98315026D01*
X143813168Y-98328910D01*
X143830438Y-98344562D01*
X143846090Y-98361832D01*
X143859974Y-98380552D01*
X143871956Y-98400543D01*
X143881921Y-98421613D01*
X143889773Y-98443557D01*
X143895437Y-98466166D01*
X143898856Y-98489221D01*
X143900000Y-98512500D01*
X143900000Y-98987500D01*
X143898856Y-99010779D01*
X143895437Y-99033834D01*
X143889773Y-99056443D01*
X143881921Y-99078387D01*
X143871956Y-99099457D01*
X143859974Y-99119448D01*
X143846090Y-99138168D01*
X143830438Y-99155438D01*
X143813168Y-99171090D01*
X143794448Y-99184974D01*
X143774457Y-99196956D01*
X143753387Y-99206921D01*
X143731443Y-99214773D01*
X143708834Y-99220437D01*
X143685779Y-99223856D01*
X143662500Y-99225000D01*
X143087500Y-99225000D01*
X143064221Y-99223856D01*
X143041166Y-99220437D01*
X143018557Y-99214773D01*
X142996613Y-99206921D01*
X142975543Y-99196956D01*
X142955552Y-99184974D01*
X142936832Y-99171090D01*
X142919562Y-99155438D01*
X142903910Y-99138168D01*
X142890026Y-99119448D01*
X142878044Y-99099457D01*
X142868079Y-99078387D01*
X142860227Y-99056443D01*
X142854563Y-99033834D01*
X142851144Y-99010779D01*
X142850000Y-98987500D01*
X142850000Y-98512500D01*
X142851144Y-98489221D01*
X142854563Y-98466166D01*
X142860227Y-98443557D01*
X142868079Y-98421613D01*
X142878044Y-98400543D01*
X142890026Y-98380552D01*
X142903910Y-98361832D01*
X142919562Y-98344562D01*
X142936832Y-98328910D01*
X142955552Y-98315026D01*
X142975543Y-98303044D01*
X142996613Y-98293079D01*
X143018557Y-98285227D01*
X143041166Y-98279563D01*
X143064221Y-98276144D01*
X143087500Y-98275000D01*
X143662500Y-98275000D01*
X143685779Y-98276144D01*
X143685779Y-98276144D01*
G37*
D13*
X143375000Y-98750000D03*
D12*
G36*
X151260779Y-102601144D02*
X151283834Y-102604563D01*
X151306443Y-102610227D01*
X151328387Y-102618079D01*
X151349457Y-102628044D01*
X151369448Y-102640026D01*
X151388168Y-102653910D01*
X151405438Y-102669562D01*
X151421090Y-102686832D01*
X151434974Y-102705552D01*
X151446956Y-102725543D01*
X151456921Y-102746613D01*
X151464773Y-102768557D01*
X151470437Y-102791166D01*
X151473856Y-102814221D01*
X151475000Y-102837500D01*
X151475000Y-103412500D01*
X151473856Y-103435779D01*
X151470437Y-103458834D01*
X151464773Y-103481443D01*
X151456921Y-103503387D01*
X151446956Y-103524457D01*
X151434974Y-103544448D01*
X151421090Y-103563168D01*
X151405438Y-103580438D01*
X151388168Y-103596090D01*
X151369448Y-103609974D01*
X151349457Y-103621956D01*
X151328387Y-103631921D01*
X151306443Y-103639773D01*
X151283834Y-103645437D01*
X151260779Y-103648856D01*
X151237500Y-103650000D01*
X150762500Y-103650000D01*
X150739221Y-103648856D01*
X150716166Y-103645437D01*
X150693557Y-103639773D01*
X150671613Y-103631921D01*
X150650543Y-103621956D01*
X150630552Y-103609974D01*
X150611832Y-103596090D01*
X150594562Y-103580438D01*
X150578910Y-103563168D01*
X150565026Y-103544448D01*
X150553044Y-103524457D01*
X150543079Y-103503387D01*
X150535227Y-103481443D01*
X150529563Y-103458834D01*
X150526144Y-103435779D01*
X150525000Y-103412500D01*
X150525000Y-102837500D01*
X150526144Y-102814221D01*
X150529563Y-102791166D01*
X150535227Y-102768557D01*
X150543079Y-102746613D01*
X150553044Y-102725543D01*
X150565026Y-102705552D01*
X150578910Y-102686832D01*
X150594562Y-102669562D01*
X150611832Y-102653910D01*
X150630552Y-102640026D01*
X150650543Y-102628044D01*
X150671613Y-102618079D01*
X150693557Y-102610227D01*
X150716166Y-102604563D01*
X150739221Y-102601144D01*
X150762500Y-102600000D01*
X151237500Y-102600000D01*
X151260779Y-102601144D01*
X151260779Y-102601144D01*
G37*
D13*
X151000000Y-103125000D03*
D12*
G36*
X151260779Y-100851144D02*
X151283834Y-100854563D01*
X151306443Y-100860227D01*
X151328387Y-100868079D01*
X151349457Y-100878044D01*
X151369448Y-100890026D01*
X151388168Y-100903910D01*
X151405438Y-100919562D01*
X151421090Y-100936832D01*
X151434974Y-100955552D01*
X151446956Y-100975543D01*
X151456921Y-100996613D01*
X151464773Y-101018557D01*
X151470437Y-101041166D01*
X151473856Y-101064221D01*
X151475000Y-101087500D01*
X151475000Y-101662500D01*
X151473856Y-101685779D01*
X151470437Y-101708834D01*
X151464773Y-101731443D01*
X151456921Y-101753387D01*
X151446956Y-101774457D01*
X151434974Y-101794448D01*
X151421090Y-101813168D01*
X151405438Y-101830438D01*
X151388168Y-101846090D01*
X151369448Y-101859974D01*
X151349457Y-101871956D01*
X151328387Y-101881921D01*
X151306443Y-101889773D01*
X151283834Y-101895437D01*
X151260779Y-101898856D01*
X151237500Y-101900000D01*
X150762500Y-101900000D01*
X150739221Y-101898856D01*
X150716166Y-101895437D01*
X150693557Y-101889773D01*
X150671613Y-101881921D01*
X150650543Y-101871956D01*
X150630552Y-101859974D01*
X150611832Y-101846090D01*
X150594562Y-101830438D01*
X150578910Y-101813168D01*
X150565026Y-101794448D01*
X150553044Y-101774457D01*
X150543079Y-101753387D01*
X150535227Y-101731443D01*
X150529563Y-101708834D01*
X150526144Y-101685779D01*
X150525000Y-101662500D01*
X150525000Y-101087500D01*
X150526144Y-101064221D01*
X150529563Y-101041166D01*
X150535227Y-101018557D01*
X150543079Y-100996613D01*
X150553044Y-100975543D01*
X150565026Y-100955552D01*
X150578910Y-100936832D01*
X150594562Y-100919562D01*
X150611832Y-100903910D01*
X150630552Y-100890026D01*
X150650543Y-100878044D01*
X150671613Y-100868079D01*
X150693557Y-100860227D01*
X150716166Y-100854563D01*
X150739221Y-100851144D01*
X150762500Y-100850000D01*
X151237500Y-100850000D01*
X151260779Y-100851144D01*
X151260779Y-100851144D01*
G37*
D13*
X151000000Y-101375000D03*
D12*
G36*
X153224505Y-102701204D02*
X153248773Y-102704804D01*
X153272572Y-102710765D01*
X153295671Y-102719030D01*
X153317850Y-102729520D01*
X153338893Y-102742132D01*
X153358599Y-102756747D01*
X153376777Y-102773223D01*
X153393253Y-102791401D01*
X153407868Y-102811107D01*
X153420480Y-102832150D01*
X153430970Y-102854329D01*
X153439235Y-102877428D01*
X153445196Y-102901227D01*
X153448796Y-102925495D01*
X153450000Y-102949999D01*
X153450000Y-103600001D01*
X153448796Y-103624505D01*
X153445196Y-103648773D01*
X153439235Y-103672572D01*
X153430970Y-103695671D01*
X153420480Y-103717850D01*
X153407868Y-103738893D01*
X153393253Y-103758599D01*
X153376777Y-103776777D01*
X153358599Y-103793253D01*
X153338893Y-103807868D01*
X153317850Y-103820480D01*
X153295671Y-103830970D01*
X153272572Y-103839235D01*
X153248773Y-103845196D01*
X153224505Y-103848796D01*
X153200001Y-103850000D01*
X152299999Y-103850000D01*
X152275495Y-103848796D01*
X152251227Y-103845196D01*
X152227428Y-103839235D01*
X152204329Y-103830970D01*
X152182150Y-103820480D01*
X152161107Y-103807868D01*
X152141401Y-103793253D01*
X152123223Y-103776777D01*
X152106747Y-103758599D01*
X152092132Y-103738893D01*
X152079520Y-103717850D01*
X152069030Y-103695671D01*
X152060765Y-103672572D01*
X152054804Y-103648773D01*
X152051204Y-103624505D01*
X152050000Y-103600001D01*
X152050000Y-102949999D01*
X152051204Y-102925495D01*
X152054804Y-102901227D01*
X152060765Y-102877428D01*
X152069030Y-102854329D01*
X152079520Y-102832150D01*
X152092132Y-102811107D01*
X152106747Y-102791401D01*
X152123223Y-102773223D01*
X152141401Y-102756747D01*
X152161107Y-102742132D01*
X152182150Y-102729520D01*
X152204329Y-102719030D01*
X152227428Y-102710765D01*
X152251227Y-102704804D01*
X152275495Y-102701204D01*
X152299999Y-102700000D01*
X153200001Y-102700000D01*
X153224505Y-102701204D01*
X153224505Y-102701204D01*
G37*
D24*
X152750000Y-103275000D03*
D12*
G36*
X153224505Y-100651204D02*
X153248773Y-100654804D01*
X153272572Y-100660765D01*
X153295671Y-100669030D01*
X153317850Y-100679520D01*
X153338893Y-100692132D01*
X153358599Y-100706747D01*
X153376777Y-100723223D01*
X153393253Y-100741401D01*
X153407868Y-100761107D01*
X153420480Y-100782150D01*
X153430970Y-100804329D01*
X153439235Y-100827428D01*
X153445196Y-100851227D01*
X153448796Y-100875495D01*
X153450000Y-100899999D01*
X153450000Y-101550001D01*
X153448796Y-101574505D01*
X153445196Y-101598773D01*
X153439235Y-101622572D01*
X153430970Y-101645671D01*
X153420480Y-101667850D01*
X153407868Y-101688893D01*
X153393253Y-101708599D01*
X153376777Y-101726777D01*
X153358599Y-101743253D01*
X153338893Y-101757868D01*
X153317850Y-101770480D01*
X153295671Y-101780970D01*
X153272572Y-101789235D01*
X153248773Y-101795196D01*
X153224505Y-101798796D01*
X153200001Y-101800000D01*
X152299999Y-101800000D01*
X152275495Y-101798796D01*
X152251227Y-101795196D01*
X152227428Y-101789235D01*
X152204329Y-101780970D01*
X152182150Y-101770480D01*
X152161107Y-101757868D01*
X152141401Y-101743253D01*
X152123223Y-101726777D01*
X152106747Y-101708599D01*
X152092132Y-101688893D01*
X152079520Y-101667850D01*
X152069030Y-101645671D01*
X152060765Y-101622572D01*
X152054804Y-101598773D01*
X152051204Y-101574505D01*
X152050000Y-101550001D01*
X152050000Y-100899999D01*
X152051204Y-100875495D01*
X152054804Y-100851227D01*
X152060765Y-100827428D01*
X152069030Y-100804329D01*
X152079520Y-100782150D01*
X152092132Y-100761107D01*
X152106747Y-100741401D01*
X152123223Y-100723223D01*
X152141401Y-100706747D01*
X152161107Y-100692132D01*
X152182150Y-100679520D01*
X152204329Y-100669030D01*
X152227428Y-100660765D01*
X152251227Y-100654804D01*
X152275495Y-100651204D01*
X152299999Y-100650000D01*
X153200001Y-100650000D01*
X153224505Y-100651204D01*
X153224505Y-100651204D01*
G37*
D24*
X152750000Y-101225000D03*
D12*
G36*
X139260779Y-104351144D02*
X139283834Y-104354563D01*
X139306443Y-104360227D01*
X139328387Y-104368079D01*
X139349457Y-104378044D01*
X139369448Y-104390026D01*
X139388168Y-104403910D01*
X139405438Y-104419562D01*
X139421090Y-104436832D01*
X139434974Y-104455552D01*
X139446956Y-104475543D01*
X139456921Y-104496613D01*
X139464773Y-104518557D01*
X139470437Y-104541166D01*
X139473856Y-104564221D01*
X139475000Y-104587500D01*
X139475000Y-105162500D01*
X139473856Y-105185779D01*
X139470437Y-105208834D01*
X139464773Y-105231443D01*
X139456921Y-105253387D01*
X139446956Y-105274457D01*
X139434974Y-105294448D01*
X139421090Y-105313168D01*
X139405438Y-105330438D01*
X139388168Y-105346090D01*
X139369448Y-105359974D01*
X139349457Y-105371956D01*
X139328387Y-105381921D01*
X139306443Y-105389773D01*
X139283834Y-105395437D01*
X139260779Y-105398856D01*
X139237500Y-105400000D01*
X138762500Y-105400000D01*
X138739221Y-105398856D01*
X138716166Y-105395437D01*
X138693557Y-105389773D01*
X138671613Y-105381921D01*
X138650543Y-105371956D01*
X138630552Y-105359974D01*
X138611832Y-105346090D01*
X138594562Y-105330438D01*
X138578910Y-105313168D01*
X138565026Y-105294448D01*
X138553044Y-105274457D01*
X138543079Y-105253387D01*
X138535227Y-105231443D01*
X138529563Y-105208834D01*
X138526144Y-105185779D01*
X138525000Y-105162500D01*
X138525000Y-104587500D01*
X138526144Y-104564221D01*
X138529563Y-104541166D01*
X138535227Y-104518557D01*
X138543079Y-104496613D01*
X138553044Y-104475543D01*
X138565026Y-104455552D01*
X138578910Y-104436832D01*
X138594562Y-104419562D01*
X138611832Y-104403910D01*
X138630552Y-104390026D01*
X138650543Y-104378044D01*
X138671613Y-104368079D01*
X138693557Y-104360227D01*
X138716166Y-104354563D01*
X138739221Y-104351144D01*
X138762500Y-104350000D01*
X139237500Y-104350000D01*
X139260779Y-104351144D01*
X139260779Y-104351144D01*
G37*
D13*
X139000000Y-104875000D03*
D12*
G36*
X139260779Y-106101144D02*
X139283834Y-106104563D01*
X139306443Y-106110227D01*
X139328387Y-106118079D01*
X139349457Y-106128044D01*
X139369448Y-106140026D01*
X139388168Y-106153910D01*
X139405438Y-106169562D01*
X139421090Y-106186832D01*
X139434974Y-106205552D01*
X139446956Y-106225543D01*
X139456921Y-106246613D01*
X139464773Y-106268557D01*
X139470437Y-106291166D01*
X139473856Y-106314221D01*
X139475000Y-106337500D01*
X139475000Y-106912500D01*
X139473856Y-106935779D01*
X139470437Y-106958834D01*
X139464773Y-106981443D01*
X139456921Y-107003387D01*
X139446956Y-107024457D01*
X139434974Y-107044448D01*
X139421090Y-107063168D01*
X139405438Y-107080438D01*
X139388168Y-107096090D01*
X139369448Y-107109974D01*
X139349457Y-107121956D01*
X139328387Y-107131921D01*
X139306443Y-107139773D01*
X139283834Y-107145437D01*
X139260779Y-107148856D01*
X139237500Y-107150000D01*
X138762500Y-107150000D01*
X138739221Y-107148856D01*
X138716166Y-107145437D01*
X138693557Y-107139773D01*
X138671613Y-107131921D01*
X138650543Y-107121956D01*
X138630552Y-107109974D01*
X138611832Y-107096090D01*
X138594562Y-107080438D01*
X138578910Y-107063168D01*
X138565026Y-107044448D01*
X138553044Y-107024457D01*
X138543079Y-107003387D01*
X138535227Y-106981443D01*
X138529563Y-106958834D01*
X138526144Y-106935779D01*
X138525000Y-106912500D01*
X138525000Y-106337500D01*
X138526144Y-106314221D01*
X138529563Y-106291166D01*
X138535227Y-106268557D01*
X138543079Y-106246613D01*
X138553044Y-106225543D01*
X138565026Y-106205552D01*
X138578910Y-106186832D01*
X138594562Y-106169562D01*
X138611832Y-106153910D01*
X138630552Y-106140026D01*
X138650543Y-106128044D01*
X138671613Y-106118079D01*
X138693557Y-106110227D01*
X138716166Y-106104563D01*
X138739221Y-106101144D01*
X138762500Y-106100000D01*
X139237500Y-106100000D01*
X139260779Y-106101144D01*
X139260779Y-106101144D01*
G37*
D13*
X139000000Y-106625000D03*
D12*
G36*
X137724505Y-106201204D02*
X137748773Y-106204804D01*
X137772572Y-106210765D01*
X137795671Y-106219030D01*
X137817850Y-106229520D01*
X137838893Y-106242132D01*
X137858599Y-106256747D01*
X137876777Y-106273223D01*
X137893253Y-106291401D01*
X137907868Y-106311107D01*
X137920480Y-106332150D01*
X137930970Y-106354329D01*
X137939235Y-106377428D01*
X137945196Y-106401227D01*
X137948796Y-106425495D01*
X137950000Y-106449999D01*
X137950000Y-107100001D01*
X137948796Y-107124505D01*
X137945196Y-107148773D01*
X137939235Y-107172572D01*
X137930970Y-107195671D01*
X137920480Y-107217850D01*
X137907868Y-107238893D01*
X137893253Y-107258599D01*
X137876777Y-107276777D01*
X137858599Y-107293253D01*
X137838893Y-107307868D01*
X137817850Y-107320480D01*
X137795671Y-107330970D01*
X137772572Y-107339235D01*
X137748773Y-107345196D01*
X137724505Y-107348796D01*
X137700001Y-107350000D01*
X136799999Y-107350000D01*
X136775495Y-107348796D01*
X136751227Y-107345196D01*
X136727428Y-107339235D01*
X136704329Y-107330970D01*
X136682150Y-107320480D01*
X136661107Y-107307868D01*
X136641401Y-107293253D01*
X136623223Y-107276777D01*
X136606747Y-107258599D01*
X136592132Y-107238893D01*
X136579520Y-107217850D01*
X136569030Y-107195671D01*
X136560765Y-107172572D01*
X136554804Y-107148773D01*
X136551204Y-107124505D01*
X136550000Y-107100001D01*
X136550000Y-106449999D01*
X136551204Y-106425495D01*
X136554804Y-106401227D01*
X136560765Y-106377428D01*
X136569030Y-106354329D01*
X136579520Y-106332150D01*
X136592132Y-106311107D01*
X136606747Y-106291401D01*
X136623223Y-106273223D01*
X136641401Y-106256747D01*
X136661107Y-106242132D01*
X136682150Y-106229520D01*
X136704329Y-106219030D01*
X136727428Y-106210765D01*
X136751227Y-106204804D01*
X136775495Y-106201204D01*
X136799999Y-106200000D01*
X137700001Y-106200000D01*
X137724505Y-106201204D01*
X137724505Y-106201204D01*
G37*
D24*
X137250000Y-106775000D03*
D12*
G36*
X137724505Y-104151204D02*
X137748773Y-104154804D01*
X137772572Y-104160765D01*
X137795671Y-104169030D01*
X137817850Y-104179520D01*
X137838893Y-104192132D01*
X137858599Y-104206747D01*
X137876777Y-104223223D01*
X137893253Y-104241401D01*
X137907868Y-104261107D01*
X137920480Y-104282150D01*
X137930970Y-104304329D01*
X137939235Y-104327428D01*
X137945196Y-104351227D01*
X137948796Y-104375495D01*
X137950000Y-104399999D01*
X137950000Y-105050001D01*
X137948796Y-105074505D01*
X137945196Y-105098773D01*
X137939235Y-105122572D01*
X137930970Y-105145671D01*
X137920480Y-105167850D01*
X137907868Y-105188893D01*
X137893253Y-105208599D01*
X137876777Y-105226777D01*
X137858599Y-105243253D01*
X137838893Y-105257868D01*
X137817850Y-105270480D01*
X137795671Y-105280970D01*
X137772572Y-105289235D01*
X137748773Y-105295196D01*
X137724505Y-105298796D01*
X137700001Y-105300000D01*
X136799999Y-105300000D01*
X136775495Y-105298796D01*
X136751227Y-105295196D01*
X136727428Y-105289235D01*
X136704329Y-105280970D01*
X136682150Y-105270480D01*
X136661107Y-105257868D01*
X136641401Y-105243253D01*
X136623223Y-105226777D01*
X136606747Y-105208599D01*
X136592132Y-105188893D01*
X136579520Y-105167850D01*
X136569030Y-105145671D01*
X136560765Y-105122572D01*
X136554804Y-105098773D01*
X136551204Y-105074505D01*
X136550000Y-105050001D01*
X136550000Y-104399999D01*
X136551204Y-104375495D01*
X136554804Y-104351227D01*
X136560765Y-104327428D01*
X136569030Y-104304329D01*
X136579520Y-104282150D01*
X136592132Y-104261107D01*
X136606747Y-104241401D01*
X136623223Y-104223223D01*
X136641401Y-104206747D01*
X136661107Y-104192132D01*
X136682150Y-104179520D01*
X136704329Y-104169030D01*
X136727428Y-104160765D01*
X136751227Y-104154804D01*
X136775495Y-104151204D01*
X136799999Y-104150000D01*
X137700001Y-104150000D01*
X137724505Y-104151204D01*
X137724505Y-104151204D01*
G37*
D24*
X137250000Y-104725000D03*
D12*
G36*
X129935779Y-106276144D02*
X129958834Y-106279563D01*
X129981443Y-106285227D01*
X130003387Y-106293079D01*
X130024457Y-106303044D01*
X130044448Y-106315026D01*
X130063168Y-106328910D01*
X130080438Y-106344562D01*
X130096090Y-106361832D01*
X130109974Y-106380552D01*
X130121956Y-106400543D01*
X130131921Y-106421613D01*
X130139773Y-106443557D01*
X130145437Y-106466166D01*
X130148856Y-106489221D01*
X130150000Y-106512500D01*
X130150000Y-106987500D01*
X130148856Y-107010779D01*
X130145437Y-107033834D01*
X130139773Y-107056443D01*
X130131921Y-107078387D01*
X130121956Y-107099457D01*
X130109974Y-107119448D01*
X130096090Y-107138168D01*
X130080438Y-107155438D01*
X130063168Y-107171090D01*
X130044448Y-107184974D01*
X130024457Y-107196956D01*
X130003387Y-107206921D01*
X129981443Y-107214773D01*
X129958834Y-107220437D01*
X129935779Y-107223856D01*
X129912500Y-107225000D01*
X129337500Y-107225000D01*
X129314221Y-107223856D01*
X129291166Y-107220437D01*
X129268557Y-107214773D01*
X129246613Y-107206921D01*
X129225543Y-107196956D01*
X129205552Y-107184974D01*
X129186832Y-107171090D01*
X129169562Y-107155438D01*
X129153910Y-107138168D01*
X129140026Y-107119448D01*
X129128044Y-107099457D01*
X129118079Y-107078387D01*
X129110227Y-107056443D01*
X129104563Y-107033834D01*
X129101144Y-107010779D01*
X129100000Y-106987500D01*
X129100000Y-106512500D01*
X129101144Y-106489221D01*
X129104563Y-106466166D01*
X129110227Y-106443557D01*
X129118079Y-106421613D01*
X129128044Y-106400543D01*
X129140026Y-106380552D01*
X129153910Y-106361832D01*
X129169562Y-106344562D01*
X129186832Y-106328910D01*
X129205552Y-106315026D01*
X129225543Y-106303044D01*
X129246613Y-106293079D01*
X129268557Y-106285227D01*
X129291166Y-106279563D01*
X129314221Y-106276144D01*
X129337500Y-106275000D01*
X129912500Y-106275000D01*
X129935779Y-106276144D01*
X129935779Y-106276144D01*
G37*
D13*
X129625000Y-106750000D03*
D12*
G36*
X131685779Y-106276144D02*
X131708834Y-106279563D01*
X131731443Y-106285227D01*
X131753387Y-106293079D01*
X131774457Y-106303044D01*
X131794448Y-106315026D01*
X131813168Y-106328910D01*
X131830438Y-106344562D01*
X131846090Y-106361832D01*
X131859974Y-106380552D01*
X131871956Y-106400543D01*
X131881921Y-106421613D01*
X131889773Y-106443557D01*
X131895437Y-106466166D01*
X131898856Y-106489221D01*
X131900000Y-106512500D01*
X131900000Y-106987500D01*
X131898856Y-107010779D01*
X131895437Y-107033834D01*
X131889773Y-107056443D01*
X131881921Y-107078387D01*
X131871956Y-107099457D01*
X131859974Y-107119448D01*
X131846090Y-107138168D01*
X131830438Y-107155438D01*
X131813168Y-107171090D01*
X131794448Y-107184974D01*
X131774457Y-107196956D01*
X131753387Y-107206921D01*
X131731443Y-107214773D01*
X131708834Y-107220437D01*
X131685779Y-107223856D01*
X131662500Y-107225000D01*
X131087500Y-107225000D01*
X131064221Y-107223856D01*
X131041166Y-107220437D01*
X131018557Y-107214773D01*
X130996613Y-107206921D01*
X130975543Y-107196956D01*
X130955552Y-107184974D01*
X130936832Y-107171090D01*
X130919562Y-107155438D01*
X130903910Y-107138168D01*
X130890026Y-107119448D01*
X130878044Y-107099457D01*
X130868079Y-107078387D01*
X130860227Y-107056443D01*
X130854563Y-107033834D01*
X130851144Y-107010779D01*
X130850000Y-106987500D01*
X130850000Y-106512500D01*
X130851144Y-106489221D01*
X130854563Y-106466166D01*
X130860227Y-106443557D01*
X130868079Y-106421613D01*
X130878044Y-106400543D01*
X130890026Y-106380552D01*
X130903910Y-106361832D01*
X130919562Y-106344562D01*
X130936832Y-106328910D01*
X130955552Y-106315026D01*
X130975543Y-106303044D01*
X130996613Y-106293079D01*
X131018557Y-106285227D01*
X131041166Y-106279563D01*
X131064221Y-106276144D01*
X131087500Y-106275000D01*
X131662500Y-106275000D01*
X131685779Y-106276144D01*
X131685779Y-106276144D01*
G37*
D13*
X131375000Y-106750000D03*
D12*
G36*
X130760779Y-93351144D02*
X130783834Y-93354563D01*
X130806443Y-93360227D01*
X130828387Y-93368079D01*
X130849457Y-93378044D01*
X130869448Y-93390026D01*
X130888168Y-93403910D01*
X130905438Y-93419562D01*
X130921090Y-93436832D01*
X130934974Y-93455552D01*
X130946956Y-93475543D01*
X130956921Y-93496613D01*
X130964773Y-93518557D01*
X130970437Y-93541166D01*
X130973856Y-93564221D01*
X130975000Y-93587500D01*
X130975000Y-94162500D01*
X130973856Y-94185779D01*
X130970437Y-94208834D01*
X130964773Y-94231443D01*
X130956921Y-94253387D01*
X130946956Y-94274457D01*
X130934974Y-94294448D01*
X130921090Y-94313168D01*
X130905438Y-94330438D01*
X130888168Y-94346090D01*
X130869448Y-94359974D01*
X130849457Y-94371956D01*
X130828387Y-94381921D01*
X130806443Y-94389773D01*
X130783834Y-94395437D01*
X130760779Y-94398856D01*
X130737500Y-94400000D01*
X130262500Y-94400000D01*
X130239221Y-94398856D01*
X130216166Y-94395437D01*
X130193557Y-94389773D01*
X130171613Y-94381921D01*
X130150543Y-94371956D01*
X130130552Y-94359974D01*
X130111832Y-94346090D01*
X130094562Y-94330438D01*
X130078910Y-94313168D01*
X130065026Y-94294448D01*
X130053044Y-94274457D01*
X130043079Y-94253387D01*
X130035227Y-94231443D01*
X130029563Y-94208834D01*
X130026144Y-94185779D01*
X130025000Y-94162500D01*
X130025000Y-93587500D01*
X130026144Y-93564221D01*
X130029563Y-93541166D01*
X130035227Y-93518557D01*
X130043079Y-93496613D01*
X130053044Y-93475543D01*
X130065026Y-93455552D01*
X130078910Y-93436832D01*
X130094562Y-93419562D01*
X130111832Y-93403910D01*
X130130552Y-93390026D01*
X130150543Y-93378044D01*
X130171613Y-93368079D01*
X130193557Y-93360227D01*
X130216166Y-93354563D01*
X130239221Y-93351144D01*
X130262500Y-93350000D01*
X130737500Y-93350000D01*
X130760779Y-93351144D01*
X130760779Y-93351144D01*
G37*
D13*
X130500000Y-93875000D03*
D12*
G36*
X130760779Y-95101144D02*
X130783834Y-95104563D01*
X130806443Y-95110227D01*
X130828387Y-95118079D01*
X130849457Y-95128044D01*
X130869448Y-95140026D01*
X130888168Y-95153910D01*
X130905438Y-95169562D01*
X130921090Y-95186832D01*
X130934974Y-95205552D01*
X130946956Y-95225543D01*
X130956921Y-95246613D01*
X130964773Y-95268557D01*
X130970437Y-95291166D01*
X130973856Y-95314221D01*
X130975000Y-95337500D01*
X130975000Y-95912500D01*
X130973856Y-95935779D01*
X130970437Y-95958834D01*
X130964773Y-95981443D01*
X130956921Y-96003387D01*
X130946956Y-96024457D01*
X130934974Y-96044448D01*
X130921090Y-96063168D01*
X130905438Y-96080438D01*
X130888168Y-96096090D01*
X130869448Y-96109974D01*
X130849457Y-96121956D01*
X130828387Y-96131921D01*
X130806443Y-96139773D01*
X130783834Y-96145437D01*
X130760779Y-96148856D01*
X130737500Y-96150000D01*
X130262500Y-96150000D01*
X130239221Y-96148856D01*
X130216166Y-96145437D01*
X130193557Y-96139773D01*
X130171613Y-96131921D01*
X130150543Y-96121956D01*
X130130552Y-96109974D01*
X130111832Y-96096090D01*
X130094562Y-96080438D01*
X130078910Y-96063168D01*
X130065026Y-96044448D01*
X130053044Y-96024457D01*
X130043079Y-96003387D01*
X130035227Y-95981443D01*
X130029563Y-95958834D01*
X130026144Y-95935779D01*
X130025000Y-95912500D01*
X130025000Y-95337500D01*
X130026144Y-95314221D01*
X130029563Y-95291166D01*
X130035227Y-95268557D01*
X130043079Y-95246613D01*
X130053044Y-95225543D01*
X130065026Y-95205552D01*
X130078910Y-95186832D01*
X130094562Y-95169562D01*
X130111832Y-95153910D01*
X130130552Y-95140026D01*
X130150543Y-95128044D01*
X130171613Y-95118079D01*
X130193557Y-95110227D01*
X130216166Y-95104563D01*
X130239221Y-95101144D01*
X130262500Y-95100000D01*
X130737500Y-95100000D01*
X130760779Y-95101144D01*
X130760779Y-95101144D01*
G37*
D13*
X130500000Y-95625000D03*
D12*
G36*
X148874505Y-111801204D02*
X148898773Y-111804804D01*
X148922572Y-111810765D01*
X148945671Y-111819030D01*
X148967850Y-111829520D01*
X148988893Y-111842132D01*
X149008599Y-111856747D01*
X149026777Y-111873223D01*
X149043253Y-111891401D01*
X149057868Y-111911107D01*
X149070480Y-111932150D01*
X149080970Y-111954329D01*
X149089235Y-111977428D01*
X149095196Y-112001227D01*
X149098796Y-112025495D01*
X149100000Y-112049999D01*
X149100000Y-112950001D01*
X149098796Y-112974505D01*
X149095196Y-112998773D01*
X149089235Y-113022572D01*
X149080970Y-113045671D01*
X149070480Y-113067850D01*
X149057868Y-113088893D01*
X149043253Y-113108599D01*
X149026777Y-113126777D01*
X149008599Y-113143253D01*
X148988893Y-113157868D01*
X148967850Y-113170480D01*
X148945671Y-113180970D01*
X148922572Y-113189235D01*
X148898773Y-113195196D01*
X148874505Y-113198796D01*
X148850001Y-113200000D01*
X148199999Y-113200000D01*
X148175495Y-113198796D01*
X148151227Y-113195196D01*
X148127428Y-113189235D01*
X148104329Y-113180970D01*
X148082150Y-113170480D01*
X148061107Y-113157868D01*
X148041401Y-113143253D01*
X148023223Y-113126777D01*
X148006747Y-113108599D01*
X147992132Y-113088893D01*
X147979520Y-113067850D01*
X147969030Y-113045671D01*
X147960765Y-113022572D01*
X147954804Y-112998773D01*
X147951204Y-112974505D01*
X147950000Y-112950001D01*
X147950000Y-112049999D01*
X147951204Y-112025495D01*
X147954804Y-112001227D01*
X147960765Y-111977428D01*
X147969030Y-111954329D01*
X147979520Y-111932150D01*
X147992132Y-111911107D01*
X148006747Y-111891401D01*
X148023223Y-111873223D01*
X148041401Y-111856747D01*
X148061107Y-111842132D01*
X148082150Y-111829520D01*
X148104329Y-111819030D01*
X148127428Y-111810765D01*
X148151227Y-111804804D01*
X148175495Y-111801204D01*
X148199999Y-111800000D01*
X148850001Y-111800000D01*
X148874505Y-111801204D01*
X148874505Y-111801204D01*
G37*
D24*
X148525000Y-112500000D03*
D12*
G36*
X146824505Y-111801204D02*
X146848773Y-111804804D01*
X146872572Y-111810765D01*
X146895671Y-111819030D01*
X146917850Y-111829520D01*
X146938893Y-111842132D01*
X146958599Y-111856747D01*
X146976777Y-111873223D01*
X146993253Y-111891401D01*
X147007868Y-111911107D01*
X147020480Y-111932150D01*
X147030970Y-111954329D01*
X147039235Y-111977428D01*
X147045196Y-112001227D01*
X147048796Y-112025495D01*
X147050000Y-112049999D01*
X147050000Y-112950001D01*
X147048796Y-112974505D01*
X147045196Y-112998773D01*
X147039235Y-113022572D01*
X147030970Y-113045671D01*
X147020480Y-113067850D01*
X147007868Y-113088893D01*
X146993253Y-113108599D01*
X146976777Y-113126777D01*
X146958599Y-113143253D01*
X146938893Y-113157868D01*
X146917850Y-113170480D01*
X146895671Y-113180970D01*
X146872572Y-113189235D01*
X146848773Y-113195196D01*
X146824505Y-113198796D01*
X146800001Y-113200000D01*
X146149999Y-113200000D01*
X146125495Y-113198796D01*
X146101227Y-113195196D01*
X146077428Y-113189235D01*
X146054329Y-113180970D01*
X146032150Y-113170480D01*
X146011107Y-113157868D01*
X145991401Y-113143253D01*
X145973223Y-113126777D01*
X145956747Y-113108599D01*
X145942132Y-113088893D01*
X145929520Y-113067850D01*
X145919030Y-113045671D01*
X145910765Y-113022572D01*
X145904804Y-112998773D01*
X145901204Y-112974505D01*
X145900000Y-112950001D01*
X145900000Y-112049999D01*
X145901204Y-112025495D01*
X145904804Y-112001227D01*
X145910765Y-111977428D01*
X145919030Y-111954329D01*
X145929520Y-111932150D01*
X145942132Y-111911107D01*
X145956747Y-111891401D01*
X145973223Y-111873223D01*
X145991401Y-111856747D01*
X146011107Y-111842132D01*
X146032150Y-111829520D01*
X146054329Y-111819030D01*
X146077428Y-111810765D01*
X146101227Y-111804804D01*
X146125495Y-111801204D01*
X146149999Y-111800000D01*
X146800001Y-111800000D01*
X146824505Y-111801204D01*
X146824505Y-111801204D01*
G37*
D24*
X146475000Y-112500000D03*
D25*
X140000000Y-82800000D03*
X140000000Y-88200000D03*
D26*
X143700000Y-82750000D03*
X146300000Y-81800000D03*
X146300000Y-83700000D03*
M02*
